<svg xmlns="http://www.w3.org/2000/svg" fill="none" viewBox="0 0 24 24">
  <path fill="currentColor" d="M14.718 12.083c0-1.709-1.123-2.656-2.023-2.656-.548 0-.827.145-1.142.527-.435.528-.914 1.513-1.492 3.332-.293.923-.078 1.48.193 1.824.332.42.889.691 1.43.691v2.125l-.21-.006c-2.166-.128-4.312-2.218-3.332-5.306 1.18-3.718 2.318-5.311 4.553-5.312 2.234 0 4.046 2.14 4.046 4.781s-2.822 5.843-5.057 5.843V15.8c.296 0 1.059-.305 1.874-1.24.787-.904 1.16-1.876 1.16-2.478"/>
  <path fill="currentColor" d="m4.849 1.856-.002.003-.027.016-.119.075a8 8 0 0 0-.437.312A8 8 0 0 0 3.03 3.424c-.832.99-1.311 2.15-.776 3.46.182.446.651.943 1.449 1.441.774.484 1.734.892 2.696 1.223a26 26 0 0 0 3.61.943l.056.009.013.002.002.001.16 2.057-.045.016q-.05.017-.147.054a30 30 0 0 0-2.325.981c-1.419.674-2.89 1.53-3.634 2.379-.267.305-.487.856-.61 1.67-.118.792-.126 1.704-.075 2.593a25 25 0 0 0 .373 3.032l.037.192.01.048.002.01v.002L1.853 24l-.001-.002-.001-.005-.003-.017-.013-.06-.043-.22a27 27 0 0 1-.409-3.316c-.055-.97-.052-2.05.098-3.052.147-.978.456-2.02 1.12-2.778.975-1.111 2.61-2.054 3.975-2.722q-.395-.12-.807-.26c-1.033-.356-2.147-.821-3.1-1.417-.93-.58-1.842-1.369-2.275-2.43-.982-2.407.055-4.436 1.119-5.702A10 10 0 0 1 3.077.542a10 10 0 0 1 .766-.529l.015-.008q.002 0 .005-.003l.002-.001V0zM19.52.782l.001.006.003.024.015.099a30 30 0 0 0 .318 1.739c.212.989.524 2.198.948 3.3q.22-.404.423-.804a32 32 0 0 0 .85-1.831l.048-.113.012-.028.002-.007h.001L24 4.002l-.002.005-.004.009-.014.034-.054.129c-.047.11-.114.267-.2.46-.17.385-.416.916-.71 1.5-.373.74-.855 1.617-1.386 2.393.36 1.659.489 3.454.525 4.954a42 42 0 0 1-.076 3.682l-.017.235-.005.063-.002.017v.007l-2.015-.193v-.003l.002-.012.004-.052.015-.212c.012-.186.03-.457.044-.797.03-.68.053-1.624.028-2.682a29 29 0 0 0-.24-3.17c-.757.514-1.57.798-2.222.956a8.4 8.4 0 0 1-1.528.222l-.105.003h-.047l-.002-2.124h.01l.061-.002q.087-.003.257-.019c.225-.021.543-.065.9-.151.734-.178 1.535-.513 2.104-1.11l.088-.102a9 9 0 0 0-.298-.842c-.581-1.381-.979-2.918-1.229-4.086a32 32 0 0 1-.359-1.996l-.004-.03-.002-.01v-.004z"/>
</svg>
