<svg xmlns="http://www.w3.org/2000/svg" fill="none" viewBox="0 0 24 24">
  <path fill="currentColor" d="M8.867 3.485c0-.388-.648-1.493-2.604-1.493S3.658 3.097 3.658 3.485 4.307 4.98 6.263 4.98v1.99c-2.59 0-4.688-1.56-4.688-3.485S3.673 0 6.263 0s4.688 1.56 4.688 3.485S8.85 6.97 6.263 6.97V4.98c1.956 0 2.604-1.106 2.604-1.494m11.46-.001c0-.388-.649-1.493-2.605-1.493s-2.604 1.105-2.604 1.493.648 1.494 2.604 1.494V6.97c-2.589 0-4.688-1.56-4.688-3.485S15.133 0 17.722 0c2.59 0 4.688 1.56 4.688 3.485S20.311 6.97 17.722 6.97V4.98c1.956 0 2.605-1.106 2.605-1.494"/>
  <path fill="currentColor" d="M20.807 5.746v.006l-.014.051q-.02.075-.048.232a6 6 0 0 0-.086.874c-.017.734.099 1.677.593 2.591a46 46 0 0 1 1.601 3.31c.28.644.543 1.302.742 1.9.192.58.352 1.178.376 1.673.144 2.893-.194 5.195-2.332 6.478-1 .6-2.289.905-3.845 1.044-1.565.14-3.501.116-5.86-.009-3.08-.163-6.102-.725-8.343-2.093-2.328-1.42-3.74-3.667-3.579-6.913.062-1.242.799-2.212 1.554-2.976.384-.39.812-.762 1.219-1.113.416-.36.811-.698 1.179-1.05 1.066-1.019 1.067-1.794.958-2.245a1.95 1.95 0 0 0-.443-.831h.002v.003c.004-.003.048-.043.74-.703.674-.645.73-.7.736-.704v.001l.004.002.016.016.032.033q.038.039.094.103a3.9 3.9 0 0 1 .848 1.63c.283 1.168.024 2.633-1.514 4.103-.413.396-.854.773-1.254 1.119-.41.354-.781.678-1.102 1.003-.656.664-.961 1.19-.987 1.702-.125 2.528.914 4.103 2.618 5.142 1.79 1.092 4.38 1.626 7.338 1.784 2.329.123 4.141.138 5.55.012 1.419-.126 2.332-.388 2.93-.747 1.058-.634 1.503-1.816 1.36-4.697-.011-.224-.1-.616-.281-1.162a22 22 0 0 0-.68-1.744 44 44 0 0 0-1.529-3.156c-.7-1.297-.846-2.595-.825-3.549.011-.48.065-.882.116-1.17a6 6 0 0 1 .098-.443l.009-.031.003-.01.001-.005.001-.002 2.004.543zm-16.33.926.002.003-.004-.004z"/>
</svg>
