<svg xmlns="http://www.w3.org/2000/svg" fill="none" viewBox="0 0 101 101">
  <path fill="currentColor" d="M15.686 93.564c0-1.083-.632-2.174-1.872-3.035-1.236-.858-2.998-1.42-4.99-1.42-1.993 0-3.755.562-4.99 1.42-1.24.861-1.873 1.952-1.873 3.035s.632 2.174 1.872 3.035c1.236.858 2.998 1.42 4.99 1.42 1.993 0 3.755-.562 4.99-1.42 1.24-.86 1.873-1.95 1.873-3.035M98.04 92.08c0-1.525-.829-2.987-2.33-4.103-1.5-1.117-3.619-1.838-6.003-1.838s-4.504.721-6.004 1.838-2.33 2.578-2.33 4.103.83 2.987 2.33 4.104 3.62 1.837 6.004 1.837 4.504-.72 6.004-1.837 2.33-2.58 2.33-4.104M25.986 80.198l7.102 6.37v-5.38h-.735v-1.98h.735v-5.382zm43.377-.99h.245v1.98h-.245v3.592l5.634-5.077-5.634-5.078zM6.38 52.97l8.57 7.662V45.307zm79.158-1.485h.245v1.98h-.245v5.24l7.14-6.725-7.14-6.727zM35.6 27.418l-8.442 24.067H50v-2.228h-9.692L50.98 37.123l10.673 12.134H51.96v2.228h21.05l-8.57-25.656zm9.072 19.859h12.617l-6.309-7.172zM21.569 30.693c0-.877-.114-1.71-.32-2.483l-.117.006-.028-.498c-.968-2.97-3.335-4.946-5.908-4.946-3.36 0-6.372 3.37-6.372 7.92 0 4.552 3.012 7.922 6.372 7.922s6.373-3.37 6.373-7.921m13.784-15.64c-1.01.011-2.066.106-3.013.35-.954.244-1.722.62-2.235 1.138-.804.812-1.128 1.72-1.109 2.572.02.86.39 1.738 1.109 2.464.237.24.659.439 1.292.552.62.11 1.337.12 2.043.073.7-.046 1.353-.144 1.835-.232l.168-.034 2.374-6.767a22 22 0 0 0-2.465-.117m30.119-1.166c-1.045.024-2.042.15-2.781.27l-.076.012 2.27 6.802q.147.031.331.066c.482.088 1.136.187 1.836.233.705.047 1.422.037 2.042-.074.634-.113 1.055-.313 1.292-.552 1.255-1.267 1.044-3.152-.155-5.239-.312-.543-.901-.946-1.778-1.205-.874-.257-1.927-.337-2.981-.313M38.225 3.113c-1.39-.135-2.522.07-3.342.662-1.601 1.155-2.492 2.37-2.823 3.524-.323 1.123-.151 2.317.63 3.555.259.41.729.755 1.414 1.022.68.264 1.485.418 2.287.497.796.078 1.55.08 2.108.063q.153-.007.283-.016l2.96-8.44c-1.2-.436-2.405-.759-3.517-.867m27.382-.27c-1.05-.758-2.313-.967-3.68-.819-1.086.118-2.195.46-3.226.89l3.006 8.573q.13.009.284.016a17 17 0 0 0 2.108-.063c.802-.08 1.608-.232 2.287-.496.685-.267 1.156-.613 1.414-1.023.781-1.238.953-2.432.63-3.555-.33-1.154-1.222-2.369-2.823-3.524m23.609 22.404c0-2.825-2.873-5.445-6.863-5.445s-6.863 2.62-6.863 5.445 2.873 5.446 6.863 5.446 6.863-2.62 6.863-5.446m1.96 0c0 4.284-4.15 7.426-8.823 7.426-4.643 0-8.77-3.103-8.822-7.345l-7.06.39 8.608 25.767h8.5V40.699L95.554 51.98 83.578 63.26v-9.795H75.74l10.413 31.176a13.2 13.2 0 0 1 3.553-.483c2.76 0 5.296.831 7.167 2.223S100 89.776 100 92.08s-1.257 4.306-3.127 5.698S92.465 100 89.706 100c-2.76 0-5.297-.831-7.167-2.223s-3.127-3.395-3.127-5.698 1.256-4.306 3.127-5.698a10.4 10.4 0 0 1 1.774-1.056L73.67 53.465H51.96v25.743h15.441v-9.004l10.541 9.499-10.541 9.499v-8.014H35.049v9.788L23.034 80.198 35.049 69.42v9.788H50V53.465H26.463L14.19 88.444q.384.211.734.454c1.598 1.11 2.722 2.743 2.722 4.666s-1.124 3.557-2.722 4.667c-1.602 1.112-3.762 1.769-6.1 1.769s-4.5-.657-6.102-1.77C1.124 97.12 0 95.489 0 93.565s1.124-3.556 2.722-4.666c1.603-1.113 3.763-1.77 6.102-1.77 1.258 0 2.463.192 3.56.541l11.999-34.204h-7.471V65.03L3.422 52.97l13.49-12.06v10.575h8.166l8.4-23.95-10.244.566c.191.832.295 1.702.295 2.592 0 5.291-3.57 9.9-8.333 9.9-4.762 0-8.333-4.609-8.333-9.9s3.57-9.901 8.333-9.901c3.31 0 6.042 2.226 7.402 5.36l11.59-.639.508-1.448a18 18 0 0 1-1.13.114c-.789.052-1.678.049-2.51-.1-.818-.146-1.695-.453-2.337-1.102-1.042-1.052-1.651-2.402-1.683-3.82-.031-1.426.525-2.847 1.683-4.016.855-.864 1.997-1.365 3.138-1.658q.351-.088.71-.156c-.595-.338-1.142-.791-1.532-1.41-1.04-1.65-1.359-3.428-.858-5.17.492-1.714 1.737-3.263 3.567-4.583 1.354-.976 3.03-1.18 4.668-1.022 1.646.16 3.369.696 4.943 1.339 1.815.741 3.49 1.65 4.706 2.367a40 40 0 0 1 1.858 1.167l.107.072.029.02.008.006.002.002-1.111 1.63-.03-.019-.095-.065q-.128-.087-.374-.248a39 39 0 0 0-1.384-.855 37 37 0 0 0-3.51-1.833L36.31 25.396l27.48-1.513-3.714-11.12-3.154-8.989c-.572.313-1.073.617-1.468.873-.3.196-.54.363-.7.478l-.182.133-.044.033-.01.007-.002.002-1.189-1.575.002-.002.005-.003.016-.012.057-.044.212-.154a23.6 23.6 0 0 1 3.435-2.026C58.404.84 60.041.239 61.717.057c1.685-.183 3.475.054 5.03 1.175 1.829 1.32 3.074 2.869 3.567 4.582.5 1.743.182 3.52-.86 5.171a4.1 4.1 0 0 1-1.119 1.151q.34.07.668.164c1.143.338 2.266.965 2.925 2.112 1.299 2.26 2.11 5.345-.155 7.633-.643.649-1.52.956-2.337 1.102-.833.149-1.722.152-2.512.1a17 17 0 0 1-1.326-.142l.223.667 7.998-.44c1.019-3.273 4.59-5.51 8.534-5.51 4.673 0 8.824 3.143 8.824 7.426"/>
</svg>
