<svg xmlns="http://www.w3.org/2000/svg" fill="none" viewBox="0 0 24 24">
  <path fill="currentColor" d="M11.346 3.234c-.139-.362-.57-.837-1.607-1.07-1.02-.228-2.402-.145-3.852.428s-2.523 1.46-3.123 2.33c-.61.883-.612 1.53-.473 1.892.138.362.57.84 1.607 1.072 1.02.228 2.401.144 3.85-.428l.73 1.907-.33.123c-3.429 1.222-6.845.39-7.733-1.932C-.502 5.159 1.62 2.084 5.158.686c3.536-1.399 7.147-.59 8.064 1.807l.078.226c.705 2.361-1.395 5.291-4.821 6.646l-.73-1.907c1.45-.573 2.523-1.46 3.124-2.33.61-.883.612-1.531.473-1.894M.25 21.298c-.917-2.398.764-5.3 3.756-6.483l.28-.105c2.907-1.015 5.909-.018 6.798 2.305 1.762 4.077-.764 5.302-3.755 6.485l-.73-1.907c1.6-.633 2.446-1.073 2.84-1.556a.88.88 0 0 0 .212-.56c.015-.288-.05-.804-.41-1.639l-.017-.04-.016-.04c-.363-.949-2.078-1.983-4.472-1.036s-2.972 2.886-2.61 3.834S4.205 22.54 6.6 21.594l.73 1.907-.28.104c-2.907 1.015-5.91.018-6.799-2.306"/>
  <path fill="currentColor" d="M21.669 7.605c-.25-.654-.923-1.296-2.183-1.608-1.253-.31-2.902-.226-4.605.447-1.702.673-2.974 1.744-3.691 2.832-.722 1.096-.792 2.031-.541 2.685.25.654.923 1.296 2.183 1.608 1.252.31 2.902.226 4.604-.447l.73 1.907-.383.144c-3.956 1.402-7.937.337-9.01-2.47-1.11-2.897 1.3-6.553 5.379-8.166l.382-.144c3.956-1.402 7.937-.337 9.011 2.47l.099.272c.967 2.809.222 5.64-5.478 7.894l-.73-1.907c2.757-1.09 3.86-2.171 4.276-2.944.364-.676.383-1.46-.043-2.573M5.68 8.846l.002.002.003.005.01.02.035.068q.045.087.119.242c.097.204.227.49.359.819.251.626.562 1.532.597 2.35.04.944-.275 2.002-.541 2.734a15 15 0 0 1-.52 1.243l-.038.08-.011.023-.003.007-.001.002H5.69l-1.793-.928.008-.016.028-.06a13 13 0 0 0 .442-1.06c.253-.695.441-1.427.42-1.937-.02-.444-.213-1.073-.45-1.665a12 12 0 0 0-.407-.901l-.025-.051-.006-.011-.001-.002z"/>
</svg>
