<svg xmlns="http://www.w3.org/2000/svg" fill="none" viewBox="0 0 101 101">
  <path fill="currentColor" d="M20.246.06c1.753-.162 3.49-.01 5.007.645 1.542.665 2.798 1.826 3.582 3.56.256.565.268 1.178.18 1.74-.088.566-.29 1.153-.545 1.727-.509 1.145-1.292 2.367-2.084 3.464a45 45 0 0 1-2.259 2.854c-.14.163-.274.31-.392.444l8.393 6.729-16.834 1.127-2.111-16.313 8.979 7.197c.12-.136.257-.287.401-.456.609-.71 1.403-1.68 2.157-2.724.76-1.052 1.453-2.146 1.881-3.11.214-.482.347-.9.4-1.24.054-.344.015-.54-.03-.64-.58-1.28-1.465-2.079-2.542-2.544-1.102-.475-2.464-.625-3.992-.484-3.069.282-6.558 1.71-9.292 3.458C4.41 9.803 1.928 16.64 2.04 24.516h38.067c-.364-2.523-.512-5.192-.183-7.67.38-2.864 1.414-5.578 3.604-7.466 1.928-1.662 4.48-2.446 7.112-2.735 2.638-.29 5.45-.094 8 .282 2.555.377 4.885.942 6.574 1.411a53 53 0 0 1 2.564.784l.149.05.038.014.011.003.003.002s.002 0-.348.933l.35-.933.669.239v9.627h7.64V9.314l.812-.162.003-.001.006-.001.02-.004.074-.014.274-.051a46 46 0 0 1 4.356-.553c2.618-.203 5.986-.222 8.545.66 3.1 1.067 5.287 2.805 6.778 5.026 1.478 2.203 2.234 4.824 2.584 7.62.692 5.532-.184 12.116-.535 17.982-.297 4.963-.88 9.035-2.149 12.902-1.271 3.873-3.215 7.495-6.185 11.58-3.631 4.994-9.346 8.178-15.743 10.176-6.404 1.999-13.586 2.839-20.285 3.08-6.705.24-12.969-.119-17.552-.537a138 138 0 0 1-5.472-.606c-.323-.042-.61-.086-.86-.12v10.014h10.882L29.94 100 18.039 86.305h10.883V75.792c-.186-.082-.41-.182-.663-.302a35 35 0 0 1-3.22-1.739c-2.581-1.568-5.866-3.997-8.632-7.428-3.136-3.89-4.011-4.298-6.732-9.6C5.323 48.241 1.187 37.817.215 28.15-.76 18.474 1.43 9.333 10.026 3.834 12.947 1.968 16.752.38 20.246.059m9.695 96.868 7.505-8.638h-15.01zm30.05-29.78 6.188-7.146H53.802zM39.107 55.782c0-1.159-.808-2.378-2.489-3.36-1.66-.971-4.019-1.603-6.678-1.603q-.895.001-1.736.092l-.811.404-.908.45h-.001l-.002-.007-.01-.019-.039-.074-.146-.285-.063-.124c-1.13.28-2.134.68-2.963 1.165-1.68.983-2.49 2.202-2.49 3.361s.81 2.377 2.49 3.36c1.66.97 4.019 1.603 6.679 1.603s5.019-.633 6.678-1.603c1.68-.983 2.49-2.201 2.49-3.36m36.275-2.145 8.668-2.328-8.482-6.43zm-25.07-13.24c0-2.187-2.34-4.33-5.775-4.46l-.336-.007-.948.364-.002-.005-.006-.012-.016-.044-.067-.169-.026-.068c-3.034.383-5.047 2.373-5.047 4.4 0 2.258 2.494 4.468 6.111 4.468 3.618 0 6.112-2.21 6.112-4.467M17.074 20.24l9.802-.657-11.031-8.843zm35.277 20.157c0 3.773-3.891 6.452-8.15 6.452-4.257 0-8.148-2.68-8.149-6.452 0-3.248 2.885-5.685 6.405-6.3q-.15-.446-.318-.965a58 58 0 0 1-1.699-6.631h-20.1l.067.485c.098.692.24 1.659.42 2.754.361 2.2.863 4.886 1.437 6.92.805 2.855 2.307 6.395 3.624 9.251.553 1.199 1.07 2.268 1.482 3.104a18 18 0 0 1 2.57-.181c2.966 0 5.701.7 7.728 1.885 2.006 1.174 3.478 2.933 3.478 5.063s-1.472 3.889-3.478 5.062c-2.027 1.185-4.762 1.886-7.727 1.886s-5.7-.701-7.728-1.886c-2.006-1.173-3.477-2.932-3.477-5.062s1.47-3.89 3.477-5.063c.908-.53 1.959-.964 3.108-1.281a133 133 0 0 1-1.291-2.712c-1.325-2.874-2.88-6.53-3.73-9.54-.604-2.145-1.12-4.919-1.484-7.133a133 133 0 0 1-.532-3.552H2.122q.046.722.12 1.454c.937 9.316 4.95 19.488 9.256 27.88 2.602 5.07 3.292 5.267 6.51 9.26 2.578 3.197 5.66 5.483 8.109 6.972a33 33 0 0 0 3.029 1.636 23 23 0 0 0 1.072.473l.018.003.382.058c.337.05.835.122 1.475.207 1.28.169 3.128.39 5.389.596 4.525.412 10.696.764 17.287.528 6.598-.237 13.577-1.062 19.738-2.986 6.167-1.925 11.421-4.92 14.702-9.433 2.878-3.96 4.715-7.4 5.909-11.037 1.196-3.644 1.763-7.532 2.055-12.412.364-6.095 1.209-12.331.546-17.627-.328-2.619-1.02-4.913-2.267-6.773-1.084-1.615-2.617-2.946-4.799-3.875a89 89 0 0 1 .518 8.205c.08 5.096-.295 11.47-2.222 16.172-1.088 2.655-3.053 5.708-4.71 8.06a87 87 0 0 1-2.16 2.934l-.248.315 6.675 5.06L73.29 56.26l.328-15.376 6.606 5.008.225-.287c.546-.71 1.297-1.71 2.112-2.867 1.641-2.33 3.496-5.233 4.496-7.672 1.767-4.314 2.156-10.348 2.077-15.405a88 88 0 0 0-.53-8.234q-.038-.333-.06-.506l-.017-.13-.005-.031v-.01l.026-.004c-1.981-.42-4.412-.406-6.551-.24a44 44 0 0 0-3.202.37q-.257.04-.47.077v10.088H66.613v-10.21l-.026-.008a56 56 0 0 0-4.577-1.242l-.975 48.434h9.53L59.99 70.226l-10.573-12.21h9.58l.981-48.852a47 47 0 0 0-1.645-.274c-2.451-.362-5.069-.536-7.466-.273-2.403.265-4.493.96-5.991 2.25-1.683 1.451-2.587 3.633-2.933 6.234-.345 2.597-.118 5.508.358 8.267.474 2.75 1.188 5.305 1.784 7.175.169.53.328 1.003.47 1.41 4.117.143 7.796 2.777 7.796 6.445"/>
</svg>
