<svg xmlns="http://www.w3.org/2000/svg" fill="none" viewBox="0 0 24 24">
  <path fill="currentColor" d="M19.82 19.021c0-.44-.385-1.14-1.85-1.832-1.428-.674-3.565-1.155-6.063-1.155-2.69 0-5.004.354-6.46.945-.704.286-1.088.578-1.282.822-.17.213-.283.493-.199.938l.027.14v.142c0 .44.386 1.14 1.851 1.832 1.428.674 3.565 1.155 6.063 1.155V24l-.544-.007c-5.395-.129-9.722-2.17-9.995-4.716l-.013-.256c-.66-3.485 4.725-4.979 10.552-4.979l.542.007c5.576.133 10.01 2.308 10.01 4.972l-.015.256C22.162 21.907 17.552 24 11.907 24v-1.992c2.498 0 4.635-.481 6.063-1.155 1.465-.691 1.85-1.392 1.85-1.832"/>
  <path fill="currentColor" d="M11.247 8.067c0-1.518-.161-3.478-.326-5.075a103 103 0 0 0-.299-2.579l-.02-.157-.005-.04-.002-.01V.203l1.312-.102L13.219 0v.004l.001.01.007.042.02.162a106 106 0 0 1 .304 2.62c.166 1.607.334 3.63.334 5.23 0 1.598-.168 3.622-.334 5.228a99 99 0 0 1-.228 2.023c-.03.254-.057.458-.075.598l-.021.161-.007.042v.015l-1.313-.101-1.313-.102.001-.003.002-.01.005-.04.02-.157.074-.587c.061-.5.143-1.198.225-1.992.165-1.598.326-3.558.326-5.076"/>
  <path fill="currentColor" d="M24 3.33c-.145.1-.36.285-.674.586-.322.31-.626.616-1.046 1.023-.782.759-1.769 1.664-2.932 2.4-1.031.65-2.367 1.253-3.423 1.703-.227.097-.45.188-.657.274l.02.017c.628.513 1.376 1.073 2.001 1.41.593.32 1.484.66 2.284.934a35 35 0 0 0 1.279.41l.076.023.018.005h.004l-.47.931c-.47.93-.472.931-.472.931l-.002-.001-.007-.003-.025-.007-.09-.026-.325-.1a33 33 0 0 1-1.076-.35c-.827-.283-1.914-.689-2.726-1.127-.857-.462-1.758-1.147-2.408-1.679-.334-.272-.619-.52-.82-.698l-.237-.213-.066-.06-.018-.016-.004-.005h-.002l-.749-.699.84-.634c.17-.128.394-.23.486-.271.14-.064.312-.137.495-.214.383-.16.833-.344 1.354-.566 1.041-.444 2.195-.973 3.027-1.499.936-.59 1.781-1.354 2.544-2.093.353-.342.75-.742 1.055-1.033.313-.3.65-.608.981-.832zM8.227.621c1.233.2 2.243.47 3.009.829.772.362 1.386.862 1.606 1.524.22.661-.022 1.284-.409 1.787-.382.498-.955.95-1.597 1.347-1.287.797-3.07 1.51-4.945 2.032-1.878.524-3.943.884-5.819.923L0 7.072c1.517-.032 3.293-.33 4.977-.8 1.688-.47 3.19-1.086 4.187-1.703.5-.31.819-.587.987-.807.16-.209.135-.295.133-.303-.002-.004-.04-.129-.44-.317-.41-.192-1.096-.4-2.171-.574z"/>
</svg>
