<svg xmlns="http://www.w3.org/2000/svg" fill="none" viewBox="0 0 100 100">
  <path fill="currentColor" d="M24 5.5C24 3.727 22.377 2 20 2s-4 1.727-4 3.5S17.624 9 20 9v2c-3.314 0-6-2.462-6-5.5S16.686 0 20 0s6 2.462 6 5.5-2.686 5.5-6 5.5V9c2.377 0 4-1.727 4-3.5m24 81c0-1.773-1.623-3.5-4-3.5s-4 1.727-4 3.5 1.624 3.5 4 3.5v2c-3.314 0-6-2.462-6-5.5s2.686-5.5 6-5.5 6 2.462 6 5.5-2.686 5.5-6 5.5v-2c2.377 0 4-1.727 4-3.5M98 94c0-.886-.474-1.841-1.543-2.643C95.387 90.555 93.818 90 92 90s-3.388.555-4.457 1.357S86 93.114 86 94s.474 1.841 1.543 2.643C88.613 97.445 90.182 98 92 98v2c-4.418 0-8-2.686-8-6s3.582-6 8-6 8 2.686 8 6-3.582 6-8 6v-2c1.818 0 3.388-.555 4.457-1.357S98 94.886 98 94M60 16.5c0-1.633-1.688-3.5-4.5-3.5S51 14.867 51 16.5s1.688 3.5 4.5 3.5v2c-3.59 0-6.5-2.462-6.5-5.5s2.91-5.5 6.5-5.5 6.5 2.462 6.5 5.5-2.91 5.5-6.5 5.5v-2c2.812 0 4.5-1.867 4.5-3.5M15 55c0-.833-.475-1.784-1.643-2.608C12.195 51.57 10.484 51 8.5 51s-3.695.571-4.857 1.392C2.475 53.216 2 54.167 2 55s.475 1.784 1.643 2.608C4.805 58.43 6.516 59 8.5 59v2C3.806 61 0 58.314 0 55s3.806-6 8.5-6 8.5 2.686 8.5 6-3.806 6-8.5 6v-2c1.984 0 3.695-.571 4.857-1.392C14.525 56.784 15 55.833 15 55"/>
  <path fill="currentColor" d="m88.778 88.872-1.556 1.256-65-80.5 1.556-1.256z"/>
  <path fill="currentColor" d="M53.34 21.043 5.796 94.523 88.56 54.102l.878 1.796L.207 99.478 51.66 19.957z"/>
  <path fill="currentColor" d="m47.26 83.15-1.52-1.3 47.087-55.174-77.495 27.267-.664-1.886 84.504-29.733zM98 52.5c0-3.477-2.184-5.5-4-5.5s-4 2.023-4 5.5 2.184 5.5 4 5.5v2c-3.314 0-6-3.358-6-7.5s2.686-7.5 6-7.5 6 3.358 6 7.5-2.686 7.5-6 7.5v-2c1.816 0 4-2.023 4-5.5"/>
</svg>
