<svg xmlns="http://www.w3.org/2000/svg" fill="none" viewBox="0 0 102 102">
  <path fill="currentColor" d="M84.372 46.575c2.811-1.385 5.98-1.907 8.627-.926 2.742 1.016 4.67 3.544 5.087 7.662.756 7.467 2.119 14.659 1.888 21.206-.235 6.664-2.107 12.844-7.84 18.466-6.28 6.157-12.82 7.311-19.808 6.91-3.457-.2-7.062-.78-10.772-1.317-3.73-.54-7.605-1.04-11.7-1.106-3.89-.063-7.47.37-10.87.9-3.367.523-6.636 1.156-9.747 1.455-6.33.606-12.291-.143-18.523-5.764C1.78 86.005-3.99 71.56 3.332 59.17c3.194-5.405 7.206-8.13 11.13-7.979 3.95.153 7.292 3.197 9.173 8.142l-1.913.76c-1.71-4.495-4.502-6.696-7.338-6.805-2.863-.11-6.291 1.883-9.295 6.967-6.615 11.193-1.528 24.557 6.983 32.233 5.682 5.125 11.016 5.82 16.973 5.248 3.033-.29 6.157-.9 9.631-1.44 3.443-.537 7.154-.99 11.21-.924 4.231.069 8.212.586 11.956 1.127 3.764.544 7.253 1.106 10.6 1.299 6.62.38 12.528-.698 18.27-6.329 5.272-5.169 6.99-10.788 7.211-17.028.224-6.356-1.094-13.173-1.878-20.914-.353-3.485-1.886-5.218-3.745-5.906-1.953-.724-4.525-.394-7.037.844-2.495 1.229-4.778 3.284-6.13 5.76-1.34 2.455-1.76 5.304-.608 8.245l-1.906.778c-1.414-3.613-.872-7.123.722-10.044 1.582-2.899 4.204-5.236 7.031-6.63M59.103 81.738c0-3.942-3.558-7.342-8.208-7.342s-8.208 3.4-8.208 7.342 3.558 7.341 8.208 7.341 8.208-3.4 8.208-7.341m-23.598-7.866c0-3.646-3.321-6.817-7.695-6.818s-7.696 3.172-7.696 6.818 3.321 6.817 7.696 6.817c4.374 0 7.695-3.172 7.695-6.817m46.17 0c0-3.646-3.32-6.817-7.694-6.818s-7.695 3.172-7.695 6.818 3.32 6.817 7.695 6.817c4.374 0 7.695-3.172 7.695-6.817m-25.65-48.246c0-.862-.493-1.754-1.512-2.475-1.014-.718-2.472-1.195-4.13-1.196-1.66 0-3.118.478-4.133 1.196-1.019.72-1.511 1.613-1.511 2.475s.492 1.754 1.511 2.475c1.015.718 2.473 1.196 4.132 1.196 1.66 0 3.117-.478 4.131-1.196 1.019-.721 1.512-1.613 1.512-2.475M39.61 20.382c0-.862-.493-1.754-1.512-2.475-1.015-.718-2.472-1.196-4.131-1.196s-3.118.478-4.132 1.196c-1.02.72-1.511 1.613-1.511 2.475s.492 1.754 1.51 2.475c1.015.718 2.473 1.196 4.133 1.196 1.659 0 3.116-.478 4.13-1.196 1.02-.721 1.513-1.613 1.513-2.475m32.833 0c0-.862-.493-1.754-1.512-2.475-1.015-.718-2.472-1.196-4.132-1.196s-3.117.478-4.132 1.196c-1.018.72-1.51 1.613-1.51 2.475s.492 1.754 1.51 2.475c1.015.718 2.473 1.196 4.133 1.196 1.659 0 3.116-.478 4.13-1.196 1.02-.721 1.513-1.613 1.513-2.475m-14.365 5.244c0 1.745-1 3.212-2.395 4.2-1.16.82-2.647 1.356-4.274 1.517v40.966c5.324.244 9.747 4.268 9.747 9.429 0 5.326-4.71 9.439-10.26 9.44s-10.26-4.114-10.26-9.44c0-4.826 3.867-8.657 8.721-9.334V31.343c-1.627-.16-3.115-.697-4.274-1.517-1.395-.988-2.395-2.455-2.395-4.2s1-3.213 2.395-4.2c1.399-.99 3.276-1.568 5.3-1.568s3.9.578 5.3 1.568c1.395.987 2.395 2.456 2.395 4.2M24.22 15.138c0-.862-.494-1.754-1.513-2.475-1.014-.718-2.472-1.196-4.13-1.196-1.66 0-3.118.477-4.133 1.196-1.019.72-1.51 1.613-1.51 2.475s.492 1.754 1.51 2.475c1.015.718 2.473 1.196 4.132 1.196 1.66 0 3.117-.478 4.131-1.196q.278-.197.503-.409l.481-.885.163.092c.244-.416.365-.848.365-1.273m63.613 0c0-.862-.493-1.754-1.512-2.475-1.015-.718-2.472-1.196-4.131-1.196s-3.117.477-4.132 1.196c-1.02.72-1.511 1.613-1.511 2.475s.492 1.754 1.51 2.475c1.016.718 2.474 1.196 4.133 1.196s3.116-.478 4.131-1.196c1.019-.721 1.512-1.613 1.512-2.475m-61.561 0a4.6 4.6 0 0 1-.625 2.291l1.227.697c.427-.762 1.053-1.421 1.792-1.944 1.4-.99 3.277-1.568 5.3-1.568 2.024 0 3.901.578 5.3 1.568 1.395.987 2.396 2.456 2.396 4.2s-1.001 3.212-2.396 4.2c-1.314.93-3.05 1.496-4.934 1.561l-3.784 39.174c3.988 1.07 7.01 4.418 7.01 8.555 0 5.043-4.489 8.915-9.747 8.915-5.26 0-9.747-3.872-9.748-8.915s4.489-8.915 9.748-8.915q.356.001.707.025l3.765-38.97c-1.369-.227-2.616-.722-3.617-1.43-1.395-.988-2.394-2.455-2.395-4.2q.002-.098.006-.194l-2.016-1.146a7 7 0 0 1-.385.295c-1.4.99-3.276 1.57-5.3 1.57s-3.901-.58-5.3-1.57c-1.395-.987-2.395-2.454-2.395-4.199s1-3.213 2.395-4.2c1.399-.99 3.276-1.568 5.3-1.568s3.9.578 5.3 1.568c1.395.987 2.395 2.455 2.395 4.2m63.613 0c0 1.745-1 3.212-2.396 4.2-1.398.99-3.275 1.569-5.3 1.569-2.023 0-3.9-.58-5.3-1.57a6.6 6.6 0 0 1-.934-.8l-1.564.889q.102.462.104.956c0 1.745-1.001 3.212-2.396 4.2-.987.698-2.213 1.19-3.56 1.42l5.24 38.959.203-.004c5.258 0 9.747 3.872 9.747 8.915s-4.489 8.915-9.747 8.915c-5.259 0-9.747-3.872-9.747-8.915 0-4.307 3.274-7.758 7.505-8.674l-5.253-39.053c-1.904-.057-3.661-.625-4.988-1.563-1.395-.988-2.395-2.455-2.395-4.2 0-.706.165-1.367.453-1.97-1.141.732-2.402 1.153-3.718.904-1.718-.325-2.977-1.759-3.88-3.19-.883-1.395-1.576-3.033-2.109-4.343-.142 2.162-.476 3.813-.987 5.01-.53 1.245-1.312 2.134-2.373 2.436-1.046.298-2.067-.06-2.897-.617-.839-.561-1.611-1.403-2.259-2.348-1.21-1.767-3.4-5.193-5.28-8.16-.94-1.488-1.808-2.865-2.439-3.87l-.113-.181-6.783 12.136-.436-2.994v-.003l-.003-.015-.01-.069-.048-.272a28 28 0 0 0-1.09-4.201c-.418-1.206-.956-2.433-1.625-3.463-.674-1.036-1.435-1.8-2.275-2.188-2.596-1.2-5.082-.463-7.518 1.416-2.461 1.898-4.698 4.844-6.606 7.663-1.957 2.891-3.19 6.449-3.683 9.837-.495 3.412-.218 6.513.693 8.53 2.067 4.579 4.704 8.83 9.841 8.83 2.445 0 4.108-.535 5.182-1.308 1.053-.757 1.622-1.799 1.798-3.018.363-2.521-.972-5.878-3.602-8.566-1.024-1.047-2.176-1.343-3.128-1.137-.95.206-1.87.947-2.365 2.329-.178.496-.167 1.134.038 1.902.204.761.575 1.559 1.004 2.303a18 18 0 0 0 1.835 2.598v.001l-.762.702-.763.7-.005-.005-.011-.013-.04-.047-.143-.17a20 20 0 0 1-1.88-2.7c-.48-.835-.946-1.81-1.215-2.815-.267-.998-.364-2.12.015-3.178.709-1.976 2.144-3.285 3.866-3.659 1.718-.372 3.555.224 5.005 1.706 2.898 2.962 4.672 6.946 4.181 10.355-.251 1.744-1.1 3.314-2.647 4.427-1.526 1.098-3.647 1.691-6.363 1.691-6.544 0-9.668-5.537-11.705-10.048-1.14-2.527-1.386-6.086-.859-9.718.53-3.655 1.863-7.527 4.025-10.722 1.923-2.84 4.315-6.03 7.057-8.145 2.767-2.134 6.06-3.287 9.6-1.653 1.322.612 2.35 1.724 3.14 2.94.794 1.222 1.398 2.623 1.85 3.92.271.784.488 1.542.663 2.218L33.403 0l.913 1.464.001.002q.002 0 .004.005l.013.021.053.085.206.328.748 1.195c.63 1.005 1.496 2.38 2.435 3.864 1.884 2.975 4.054 6.368 5.239 8.097.55.803 1.145 1.425 1.7 1.797.565.377.966.424 1.223.35.244-.07.65-.329 1.043-1.252.395-.925.713-2.382.838-4.551.064-1.116.148-1.94.272-2.482.055-.245.149-.58.347-.85.11-.15.305-.353.612-.45.33-.106.636-.042.856.066.355.173.567.494.662.643.125.198.243.433.353.671.22.476.471 1.108.738 1.766.549 1.355 1.206 2.928 2.022 4.219.841 1.33 1.693 2.107 2.53 2.265.948.18 2.115-.313 3.474-1.58 1.325-1.232 2.626-3.012 3.786-4.884a57 57 0 0 0 2.83-5.205 62 62 0 0 0 1.02-2.228l.055-.126.013-.031.003-.007.924-2.222 3.95 9.085c.264-.76.593-1.623.993-2.504.612-1.347 1.402-2.777 2.387-3.965.98-1.183 2.218-2.2 3.735-2.577 3.118-.775 5.832.028 8.197 1.587 2.33 1.537 4.357 3.83 6.178 6.11 4.865 6.095 7.39 13.058 5.326 20.865-1.463 5.535-3.955 10.654-10.043 11.771-2.87.527-6.224.206-8.871-1.022-2.662-1.235-4.794-3.504-4.647-6.875.12-2.77 1.684-5.415 3.76-7.073 2.078-1.659 4.889-2.483 7.472-1.16 1.293.663 2.317 2.067 2.97 3.134a18 18 0 0 1 1.08 2.055l.016.037.005.011.001.003.001.001s0 .002-.942.417l-.942.415-.003-.005-.01-.025-.047-.105a16 16 0 0 0-.898-1.691c-.631-1.031-1.403-1.988-2.15-2.371-1.645-.843-3.603-.41-5.29.937s-2.883 3.456-2.973 5.514c-.097 2.212 1.236 3.846 3.445 4.87 2.224 1.032 5.15 1.329 7.66.868 4.82-.884 6.998-4.853 8.425-10.253 1.84-6.956-.343-13.238-4.935-18.992-1.802-2.257-3.66-4.327-5.7-5.673-2.007-1.323-4.15-1.921-6.6-1.312-.939.234-1.828.898-2.655 1.895-.822.991-1.52 2.238-2.09 3.492a29 29 0 0 0-1.27 3.373 29 29 0 0 0-.388 1.38l-.018.075-.005.02-.7 3.025-4.422-10.168q-.084.181-.176.373c-.714 1.482-1.731 3.455-2.937 5.4-.765 1.236-1.621 2.481-2.536 3.59 1.205-.57 2.627-.888 4.13-.888 2.023 0 3.9.578 5.299 1.568a6.3 6.3 0 0 1 1.404 1.349l1.307-.743a4.5 4.5 0 0 1-.315-1.65c0-1.745 1-3.213 2.394-4.2 1.4-.99 3.277-1.568 5.3-1.568 2.025 0 3.901.578 5.3 1.568 1.395.987 2.396 2.455 2.396 4.2"/>
</svg>
