<svg width="96" height="78" viewBox="0 0 96 78" fill="none" xmlns="http://www.w3.org/2000/svg">
<path d="M75.536 77.28C71.7813 77.28 68.4107 76.4267 65.424 74.72C62.4373 72.928 60.048 70.5387 58.256 67.552C56.5493 64.48 55.696 61.1094 55.696 57.44C55.696 53.6854 56.5493 50.3147 58.256 47.328C60.048 44.3414 62.4373 41.9947 65.424 40.288C68.4107 38.496 71.7813 37.6 75.536 37.6C79.2907 37.6 82.6613 38.496 85.648 40.288C88.6347 41.9947 90.9813 44.3414 92.688 47.328C94.48 50.3147 95.376 53.6854 95.376 57.44C95.376 61.1094 94.48 64.48 92.688 67.552C90.9813 70.5387 88.6347 72.928 85.648 74.72C82.6613 76.4267 79.2907 77.28 75.536 77.28ZM47.888 40.416C44.1333 40.416 40.7627 39.5627 37.776 37.856C34.7893 36.064 32.4 33.6747 30.608 30.688C28.9013 27.616 28.048 24.2454 28.048 20.576C28.048 16.8214 28.9013 13.4507 30.608 10.464C32.4 7.47735 34.7893 5.13068 37.776 3.42402C40.7627 1.63202 44.1333 0.736023 47.888 0.736023C51.6427 0.736023 55.0133 1.63202 58 3.42402C60.9867 5.13068 63.3333 7.47735 65.04 10.464C66.832 13.4507 67.728 16.8214 67.728 20.576C67.728 24.2454 66.832 27.616 65.04 30.688C63.3333 33.6747 60.9867 36.064 58 37.856C55.0133 39.5627 51.6427 40.416 47.888 40.416ZM20.24 68.96C22.3733 68.96 24.2933 68.448 26 67.424C27.7067 66.3147 29.072 64.9067 30.096 63.2C31.12 61.4934 31.632 59.5734 31.632 57.44C31.632 55.3067 31.12 53.3867 30.096 51.68C29.072 49.9734 27.7067 48.608 26 47.584C24.2933 46.56 22.3733 46.048 20.24 46.048C18.192 46.048 16.272 46.56 14.48 47.584C12.7733 48.608 11.3653 49.9734 10.256 51.68C9.232 53.3867 8.72 55.3067 8.72 57.44C8.72 59.5734 9.232 61.4934 10.256 63.2C11.3653 64.9067 12.7733 66.3147 14.48 67.424C16.272 68.448 18.192 68.96 20.24 68.96ZM20.24 77.28C16.5707 77.28 13.2 76.4267 10.128 74.72C7.14133 72.928 4.752 70.5387 2.96 67.552C1.25333 64.48 0.4 61.1094 0.4 57.44C0.4 53.6854 1.25333 50.3147 2.96 47.328C4.752 44.3414 7.14133 41.9947 10.128 40.288C13.2 38.496 16.5707 37.6 20.24 37.6C23.9947 37.6 27.3653 38.496 30.352 40.288C33.3387 41.9947 35.6853 44.3414 37.392 47.328C39.184 50.3147 40.08 53.6854 40.08 57.44C40.08 61.1094 39.184 64.48 37.392 67.552C35.6853 70.5387 33.3387 72.928 30.352 74.72C27.3653 76.4267 23.9947 77.28 20.24 77.28ZM75.536 68.96C77.6693 68.96 79.5893 68.448 81.296 67.424C83.0027 66.3147 84.368 64.9067 85.392 63.2C86.416 61.4934 86.928 59.5734 86.928 57.44C86.928 55.3067 86.416 53.3867 85.392 51.68C84.368 49.9734 83.0027 48.608 81.296 47.584C79.5893 46.56 77.6693 46.048 75.536 46.048C73.488 46.048 71.568 46.56 69.776 47.584C68.0693 48.608 66.6613 49.9734 65.552 51.68C64.528 53.3867 64.016 55.3067 64.016 57.44C64.016 59.5734 64.528 61.4934 65.552 63.2C66.6613 64.9067 68.0693 66.3147 69.776 67.424C71.568 68.448 73.488 68.96 75.536 68.96ZM47.888 32.096C50.0213 32.096 51.9413 31.584 53.648 30.56C55.3547 29.4507 56.72 28.0427 57.744 26.336C58.768 24.544 59.28 22.624 59.28 20.576C59.28 18.4427 58.768 16.5227 57.744 14.816C56.72 13.1094 55.3547 11.744 53.648 10.72C51.9413 9.69602 50.0213 9.18402 47.888 9.18402C45.84 9.18402 43.92 9.69602 42.128 10.72C40.4213 11.744 39.0133 13.1094 37.904 14.816C36.88 16.5227 36.368 18.4427 36.368 20.576C36.368 22.624 36.88 24.544 37.904 26.336C39.0133 28.0427 40.4213 29.4507 42.128 30.56C43.92 31.584 45.84 32.096 47.888 32.096Z" fill="#5A3A2A"/>
</svg>
