<svg width="45" height="78" viewBox="0 0 45 78" fill="none" xmlns="http://www.w3.org/2000/svg">
<path d="M22.195 77.945C15.545 77.945 10.225 76.895 6.235 74.795C2.315 72.625 0.355003 69.86 0.355003 66.5C0.355003 63.42 2.07 60.865 5.5 58.835C8.93 56.805 13.515 55.58 19.255 55.16V0.664978H25.135V15.995L36.37 4.75998L40.15 8.53998L25.135 23.45L40.15 38.36L36.37 42.14L25.135 31.01V55.16C30.945 55.58 35.53 56.84 38.89 58.94C42.32 60.97 44.035 63.49 44.035 66.5C44.035 69.72 42.04 72.45 38.05 74.69C34.13 76.86 28.845 77.945 22.195 77.945ZM22.195 72.065C24.645 72.065 26.745 71.925 28.495 71.645C30.315 71.365 31.82 70.98 33.01 70.49C35.46 69.44 36.685 68.11 36.685 66.5C36.685 64.75 35.425 63.42 32.905 62.51C30.175 61.53 26.605 61.04 22.195 61.04C19.675 61.04 17.505 61.18 15.685 61.46C13.865 61.67 12.36 62.055 11.17 62.615C8.86 63.735 7.705 65.03 7.705 66.5C7.705 67.27 8.02 68.005 8.65 68.705C9.28 69.335 10.19 69.93 11.38 70.49C13.83 71.54 17.435 72.065 22.195 72.065Z" fill="#8B7355"/>
</svg>
