<svg width="79" height="78" viewBox="0 0 79 78" fill="none" xmlns="http://www.w3.org/2000/svg">
<path d="M39.726 77.144C31.38 77.144 24.2823 75.86 18.433 73.292C12.5837 70.724 8.12533 67.1573 5.058 62.592C1.99067 58.0267 0.457001 52.7837 0.457001 46.863C0.457001 40.443 2.597 33.9873 6.877 27.496C5.30767 25.9267 4.13067 24.2147 3.346 22.36C2.56133 20.434 2.169 18.401 2.169 16.261C2.169 13.3363 2.88233 10.697 4.309 8.34299C5.73567 5.91765 7.626 3.99165 9.98 2.56499C12.4053 1.13832 15.0803 0.424988 18.005 0.424988C20.9297 0.424988 23.569 1.13832 25.923 2.56499C28.3483 3.99165 30.2743 5.91765 31.701 8.34299C33.1277 10.697 33.841 13.3363 33.841 16.261C33.841 19.1857 33.1277 21.8607 31.701 24.286C30.2743 26.64 28.3483 28.5303 25.923 29.957C23.569 31.3837 20.9297 32.097 18.005 32.097C17.0063 32.097 16.0077 31.99 15.009 31.776C14.0817 31.562 13.1543 31.3123 12.227 31.027C10.515 33.6663 9.231 36.3413 8.375 39.052C7.59033 41.6913 7.198 44.295 7.198 46.863C7.198 51.4997 8.44633 55.6013 10.943 59.168C13.511 62.7347 17.2203 65.5167 22.071 67.514C26.9217 69.44 32.8067 70.403 39.726 70.403C46.7167 70.403 52.6017 69.4043 57.381 67.407C62.2317 65.4097 65.9053 62.6633 68.402 59.168C70.97 55.6013 72.254 51.4997 72.254 46.863C72.254 44.1523 71.826 41.4773 70.97 38.838C70.1853 36.1987 68.937 33.595 67.225 31.027C66.2263 31.3123 65.2277 31.562 64.229 31.776C63.3017 31.99 62.3743 32.097 61.447 32.097C58.5223 32.097 55.8473 31.3837 53.422 29.957C51.068 28.5303 49.1777 26.64 47.751 24.286C46.3243 21.8607 45.611 19.1857 45.611 16.261C45.611 13.3363 46.3243 10.697 47.751 8.34299C49.1777 5.91765 51.068 3.99165 53.422 2.56499C55.8473 1.13832 58.5223 0.424988 61.447 0.424988C64.3717 0.424988 67.011 1.13832 69.365 2.56499C71.7903 3.99165 73.7163 5.91765 75.143 8.34299C76.5697 10.697 77.283 13.3363 77.283 16.261C77.283 18.4723 76.8907 20.541 76.106 22.467C75.3213 24.3217 74.1443 26.0337 72.575 27.603C76.855 34.0943 78.995 40.5143 78.995 46.863C78.995 52.7837 77.4613 58.0267 74.394 62.592C71.3267 67.1573 66.8683 70.724 61.019 73.292C55.1697 75.86 48.072 77.144 39.726 77.144ZM18.005 25.677C19.7883 25.677 21.3577 25.2847 22.713 24.5C24.1397 23.644 25.281 22.5027 26.137 21.076C26.993 19.6493 27.421 18.0443 27.421 16.261C27.421 14.4777 26.993 12.9083 26.137 11.553C25.281 10.1263 24.1397 8.98499 22.713 8.12898C21.3577 7.27299 19.7883 6.84499 18.005 6.84499C16.293 6.84499 14.7237 7.27299 13.297 8.12898C11.8703 8.98499 10.729 10.1263 9.873 11.553C9.017 12.9797 8.589 14.549 8.589 16.261C8.589 17.973 9.017 19.5423 9.873 20.969C10.729 22.3957 11.8703 23.537 13.297 24.393C14.7237 25.249 16.293 25.677 18.005 25.677ZM61.447 25.677C63.2303 25.677 64.7997 25.249 66.155 24.393C67.5817 23.537 68.723 22.3957 69.579 20.969C70.435 19.5423 70.863 17.973 70.863 16.261C70.863 14.4777 70.435 12.9083 69.579 11.553C68.723 10.1263 67.5817 8.98499 66.155 8.12898C64.7283 7.27299 63.159 6.84499 61.447 6.84499C59.6637 6.84499 58.0587 7.27299 56.632 8.12898C55.2053 8.98499 54.064 10.1263 53.208 11.553C52.4233 12.9083 52.031 14.4777 52.031 16.261C52.031 17.973 52.4233 19.5423 53.208 20.969C54.064 22.3957 55.2053 23.537 56.632 24.393C58.0587 25.249 59.6637 25.677 61.447 25.677Z" fill="#5A3A2A"/>
</svg>
