<?xml version="1.0" encoding="utf-8"?>
<!-- Generator: Adobe Illustrator 23.0.3, SVG Export Plug-In . SVG Version: 6.00 Build 0)  -->
<svg version="1.1" id="Lilith_Master_Sigil" xmlns="http://www.w3.org/2000/svg" xmlns:xlink="http://www.w3.org/1999/xlink"
	 x="0px" y="0px" viewBox="0 0 612 792" style="enable-background:new 0 0 612 792;" xml:space="preserve">
<g>
	<path d="M301.6,284.3c0.7-0.1,1.3-0.1,1.9-0.1c0,0,0.2,0,0.5,0c0.2,0,0.4,0,0.6,0c1.4,0,2.9,0.1,4.5,0.1c1,0,2.5,0,4.5,0
		c0.5,0,0.9-0.3,1.2-0.7l0.1-0.1c0.1-0.2,0.2-0.3,0.3-0.4s0.1-0.2,0.1-0.2c0.1-0.2,0.2-0.3,0.2-0.3c0.1-0.2,0.3-0.4,0.6-0.6
		c0.3-0.2,0.5-0.5,0.6-0.6c0.1-0.1,0.2-0.2,0.2-0.5c0,0,0-0.1,0-0.1c0,0,0-0.1,0-0.1c-0.1-0.3-0.3-0.4-0.6-0.4H316
		c-0.6,0-1.1,0.3-1.4,0.8c-0.1,0.2-0.8,0.5-1.9,1c-1.1,0.5-2.4,0.8-3.7,0.8h-1.1h-1.2c-0.4,0-0.6,0-0.7-0.1
		c-0.1-0.1-0.2-0.2-0.2-0.4c-0.1-0.3-0.2-1-0.3-2.1c0-0.4-0.1-1.2-0.1-2.4c0-0.2,0-0.4,0-0.8c0-0.4,0-0.7,0-0.9
		c0-2.2,0.1-3.9,0.3-5.1c0.2-1,0.3-1.7,0.5-1.9c0.1-0.2,0.2-0.3,0.3-0.3c0.3,0,0.4-0.3,0.4-0.8c0-0.2-0.1-0.3-0.4-0.4
		c-0.2-0.1-0.3-0.1-0.5-0.1c-0.4,0-0.8,0.1-1.2,0.1c-0.3,0-0.7,0-1.2,0h-0.8c-0.1,0-0.1,0-0.2,0c-0.3,0-0.5,0-0.7-0.1c0,0,0,0,0,0
		c-0.4,0-0.5,0.2-0.5,0.5c0,0.5,0.2,0.7,0.4,0.7c0.1,0,0.2,0.2,0.3,0.4c0.1,0.3,0.2,0.9,0.3,2c0,0,0,0.1,0,0.1
		c0.1,1,0.1,1.8,0.1,2.5c0,0.2,0,0.6,0,1.1c0,0.6,0,1,0,1.4c-0.1,2.3-0.2,4-0.3,4.9c-0.2,1.1-0.3,1.8-0.4,2.1
		c-0.1,0.1-0.1,0.1-0.2,0.1c-0.3,0-0.4,0.2-0.4,0.7C301,284.1,301.2,284.3,301.6,284.3z"/>
	<path d="M308.9,473.9c0-2.2,0.1-3.9,0.2-5.1c0.1-1,0.3-1.7,0.4-1.9c0.1-0.2,0.1-0.3,0.2-0.3c0.2,0,0.4-0.3,0.4-0.8
		c0-0.3-0.2-0.5-0.6-0.5c-0.7,0.1-1.4,0.1-2.1,0.1s-1.4,0-2.1-0.1c-0.4,0-0.6,0.2-0.6,0.5c0,0.5,0.2,0.7,0.5,0.7
		c0.1,0,0.2,0.2,0.2,0.4c0.1,0.2,0.2,0.9,0.4,2c0,0,0,0.1,0,0.1c0.1,1,0.1,1.8,0.1,2.5c0,0.2,0,0.6,0,1.1c0,0.6,0,1,0,1.4
		c0,2.1-0.1,3.7-0.3,4.9c-0.1,0.8-0.2,1.4-0.4,1.9c0,0.2,0,0.3-0.1,0.3c-0.3,0-0.4,0.2-0.4,0.7c0,0.2,0,0.3,0.1,0.4
		c0.1,0.1,0.2,0.1,0.5,0.1c0.7-0.1,1.4-0.1,2.1-0.1c0.7,0,1.3,0,2.1,0.1c0.4,0,0.6-0.2,0.6-0.5c0-0.5-0.1-0.8-0.4-0.8
		c-0.1,0-0.2-0.1-0.3-0.4c-0.1-0.3-0.3-0.9-0.4-1.9c-0.1-0.7-0.1-1.7-0.1-3.1c0-0.1,0-0.3,0-0.8
		C308.9,474.6,308.9,474.2,308.9,473.9z"/>
	<path d="M230.1,423.9c-0.2-0.3-0.4-0.6-0.6-0.8c0-0.1-0.1-0.1-0.1-0.2c-0.3-0.4-0.5-0.6-0.6-0.8c-0.4-0.5-0.8-1.2-1.2-1.9
		c-0.2-0.3-0.5-0.4-0.7-0.2c-0.4,0.3-0.6,0.6-0.4,0.8c0,0.1,0,0.2-0.1,0.4c-0.1,0.3-0.5,0.8-1.3,1.4c-0.7,0.6-1.9,1.6-3.9,2.9
		c-1.6,1.1-2.9,2-3.7,2.5c-1.1,0.6-1.8,1-2.1,1.2c-0.1,0-0.2,0.1-0.2,0.1c0,0,0,0,0,0c0-0.1-0.1-0.1-0.1-0.1c-0.3-0.6-0.7-1.4-1-2.4
		c-0.3-1-0.4-1.8-0.1-2.4c0.3-0.5,0.2-1.1-0.2-1.6c-0.2-0.2-0.4-0.4-0.6-0.4c-0.2,0-0.3,0-0.5,0.1c-0.1,0.1-0.2,0.2-0.2,0.3
		c-0.1,0.2-0.2,0.7-0.4,1.3l-0.1,0.4c-0.1,0.6-0.3,1.1-0.6,1.4c-0.2,0.3-0.2,0.8,0.2,1.3c0.2,0.2,0.5,0.7,1.2,1.6
		c0.8,1.1,1.5,2,1.9,2.6c0.3,0.4,0.7,0.9,1.2,1.7c0.8,1.1,1.5,2.2,2.1,3.3l0,0l0,0l0.3,0.5c0.2,0.3,0.5,0.3,1.1,0.2
		c0.3-0.1,0.7-0.1,1.2-0.1c0.2,0,0.6,0,1,0c0.2,0,0.3,0,0.4,0c0.1,0,0.2,0,0.2,0c0,0,0.1-0.1,0.2-0.1c0,0,0-0.1,0-0.2l0,0
		c0.2-0.4,0.3-0.7,0.1-0.9l0,0c-0.3-0.5-0.8-0.7-1.3-0.7c-0.6,0-1.3-0.3-2.1-0.9c-0.8-0.6-1.5-1.1-2-1.7c0,0-0.1-0.1-0.1-0.1
		c0,0,0,0,0-0.1c0.1-0.1,0.1-0.1,0.2-0.2c0.4-0.3,1-0.8,1.9-1.5c0.6-0.4,1.2-0.8,1.7-1.2c0.5-0.4,0.9-0.6,1.3-0.9
		c0.3-0.2,0.6-0.4,0.7-0.5c1.9-1.2,3.3-2.1,4.2-2.5c0.9-0.4,1.4-0.6,1.8-0.7c0.2-0.1,0.4-0.1,0.4,0c0.1,0.2,0.4,0.2,0.8-0.1
		c0.2-0.1,0.2-0.2,0.2-0.3c0-0.1-0.1-0.2-0.2-0.4C230.2,424,230.2,424,230.1,423.9z M215.2,429.4c0,0-0.1,0-0.1,0
		C215.1,429.4,215.2,429.4,215.2,429.4z M217.2,432.4C217.2,432.4,217.2,432.4,217.2,432.4C217.2,432.4,217.2,432.4,217.2,432.4z"/>
	<path d="M224.8,320.9c-0.1-0.1-0.3-0.2-0.5-0.4c-0.3-0.2-0.5-0.4-0.6-0.4c-1.7-1.1-2.9-1.9-3.7-2.6c-0.7-0.6-1.1-1-1.2-1.2
		c-0.1-0.1-0.2-0.2-0.2-0.2c0.1-0.2,0-0.4-0.4-0.7c-0.3-0.2-0.5-0.1-0.7,0.2c-0.2,0.5-0.5,1.1-0.9,1.6c-0.3,0.4-0.6,0.9-1.1,1.5
		c-0.2,0.3-0.1,0.5,0.1,0.7c0.3,0.2,0.5,0.2,0.7,0.1c0.1-0.1,0.2-0.1,0.3-0.1c0.2,0,0.5,0,0.8,0.2c0.1,0,0.3,0.1,0.6,0.3
		c0.2,0.1,0.7,0.4,1.3,0.8c0.1,0.1,0.2,0.1,0.1,0.2c-0.2,0.3-0.5,0.8-1,1.4c-0.2,0.3-0.5,0.8-0.9,1.4c-0.5,0.7-0.8,1.3-1,1.6l0,0
		c-0.4,0.7-0.7,1.2-1,1.6c0,0.1-0.1,0.1-0.2,0c-0.9-0.6-1.5-1.1-1.9-1.4c-0.4-0.3-0.6-0.6-0.7-0.8c0.1,0,0.2-0.1,0.2-0.1
		c0.1-0.2,0-0.4-0.4-0.6c-0.3-0.2-0.5-0.1-0.7,0.2c-0.3,0.5-0.6,1.1-0.9,1.6c-0.3,0.5-0.7,1-1.1,1.4c-0.1,0.2-0.2,0.3-0.1,0.4
		c0,0.1,0.1,0.2,0.2,0.3c0.4,0.2,0.6,0.2,0.8,0c0.1-0.1,0.2,0,0.4,0c0.2,0,0.8,0.2,1.6,0.7c0,0,0,0,0.1,0.1c0.8,0.4,1.4,0.8,1.9,1.1
		c0.2,0.1,0.4,0.3,0.8,0.5c0.4,0.3,0.7,0.5,1,0.7c1.5,1,2.7,1.9,3.5,2.5c0.5,0.4,0.9,0.8,1.2,1.1c0.1,0.1,0.2,0.2,0.2,0.2
		c-0.1,0.2,0,0.4,0.4,0.7c0.1,0.1,0.3,0.1,0.3,0.1c0.1,0,0.2-0.1,0.3-0.3c0.3-0.6,0.6-1.1,0.9-1.6c0.3-0.5,0.7-1,1.1-1.5
		c0.2-0.3,0.2-0.5-0.1-0.7c-0.4-0.2-0.6-0.3-0.8-0.1c0,0.1-0.2,0.1-0.4,0c-0.3,0-0.8-0.2-1.6-0.6c-0.6-0.3-1.3-0.7-2.3-1.4
		c-0.1,0-0.2-0.2-0.6-0.4c-0.2-0.2-0.5-0.3-0.7-0.4l-0.7-0.4c-0.3-0.2-0.5-0.3-0.6-0.4c0,0,0,0-0.1,0c0,0-0.1-0.1-0.1-0.1
		c0.1,0,0.1,0,0.2,0c0.2-0.4,0.6-0.9,1.1-1.6c0.2-0.3,0.6-0.9,1.1-1.6c0.4-0.6,0.7-1.1,0.9-1.4c0.2-0.3,0.5-0.8,0.9-1.5
		c0.1-0.1,0.1-0.1,0-0.2l0.1,0.1c0.6,0.4,1,0.7,1.3,0.9c1.6,1.1,2.8,1.9,3.4,2.5c0.6,0.5,1.1,0.9,1.3,1.3c0.1,0.1,0.1,0.1,0.1,0.1
		c-0.1,0.2,0,0.4,0.3,0.6c0.2,0.1,0.4,0.1,0.6-0.2c0.3-0.6,0.6-1.1,0.9-1.6c0.3-0.5,0.6-0.9,1.1-1.5c0.2-0.3,0.2-0.5,0-0.7
		c-0.4-0.2-0.6-0.3-0.8-0.1c0,0.1-0.2,0.1-0.4,0c-0.3,0-0.8-0.2-1.6-0.6C226.6,322,225.8,321.6,224.8,320.9z"/>
	<path d="M384.8,330.9c0.3,0.6,0.7,1.2,1,1.8c0.2,0.3,0.4,0.4,0.7,0.3c0.4-0.3,0.6-0.5,0.5-0.7c0-0.1,0-0.2,0.2-0.4
		c0.2-0.3,0.6-0.7,1.4-1.3c0.6-0.4,1.4-1,2.6-1.7c0.1,0,0.3-0.2,0.7-0.4c0.3-0.2,0.6-0.3,0.8-0.5c1.9-1.1,3.4-2,4.5-2.4
		c1-0.4,1.6-0.6,1.8-0.6c0.2,0,0.3-0.1,0.3,0c0.1,0.2,0.4,0.2,0.9-0.1c0.3-0.2,0.3-0.4,0.1-0.8c-0.4-0.5-0.8-1.1-1.2-1.7
		s-0.7-1.2-0.9-1.8c-0.2-0.3-0.5-0.4-0.7-0.2c-0.4,0.3-0.5,0.5-0.4,0.8c0,0.1-0.1,0.2-0.3,0.4c-0.1,0.2-0.7,0.7-1.5,1.3
		c0,0-0.1,0-0.1,0.1c-0.8,0.6-1.5,1-2.1,1.4c-0.2,0.1-0.5,0.3-0.9,0.5c-0.5,0.3-0.9,0.5-1.2,0.7c-1.8,1-3.3,1.8-4.3,2.3
		c-0.7,0.3-1.3,0.5-1.8,0.6c-0.2,0.1-0.3,0.1-0.3,0.1c-0.1-0.2-0.4-0.2-0.8,0c-0.2,0.1-0.3,0.2-0.3,0.3s0.1,0.2,0.2,0.4
		C384.1,329.8,384.5,330.4,384.8,330.9z"/>
	<path d="M400.1,422.7c-0.3-0.1-0.9-0.3-1.9-0.7c0,0-0.1,0-0.1-0.1c-0.9-0.4-1.6-0.9-2.2-1.2c-0.2-0.1-0.5-0.3-0.9-0.6
		c-0.5-0.3-0.9-0.6-1.1-0.7c-2-1.3-3.3-2.2-4-2.8c-0.9-0.7-1.4-1.2-1.5-1.4c0-0.1,0-0.2,0-0.2c0.2-0.3,0-0.5-0.4-0.8
		c-0.3-0.2-0.5-0.1-0.7,0.3c-0.3,0.6-0.6,1.2-0.9,1.7c0,0-0.1,0.2-0.2,0.4c-0.1,0.2-0.2,0.3-0.3,0.5c-0.7,1.1-1.5,2.4-2.4,3.9
		c-0.5,0.8-1.3,2.1-2.3,3.8c-0.2,0.5-0.2,0.9,0,1.4l0.1,0.1c0.1,0.2,0.2,0.3,0.2,0.4c0,0.1,0.1,0.2,0.1,0.2c0.1,0.2,0.1,0.3,0.2,0.3
		c0.1,0.2,0.1,0.5,0.2,0.8c0.1,0.3,0.2,0.6,0.2,0.8c0,0.1,0.1,0.3,0.3,0.4c0,0,0.1,0,0.1,0.1c0,0,0.1,0,0.1,0.1
		c0.3,0.1,0.5,0,0.7-0.3l0.1-0.1c0.3-0.5,0.3-1,0.1-1.6c-0.1-0.2-0.1-1,0.1-2.2c0.2-1.2,0.6-2.4,1.2-3.6l0.6-1l0.6-1
		c0.2-0.3,0.3-0.5,0.5-0.6c0.1,0,0.3,0,0.5,0c0.3,0.1,1,0.3,1.9,0.8c0.4,0.2,1.1,0.6,2.1,1.2c0.2,0.1,0.4,0.2,0.6,0.4
		c0.4,0.2,0.6,0.4,0.8,0.5c1.9,1.2,3.3,2.1,4.3,2.9c0.8,0.7,1.3,1.1,1.4,1.4c0.1,0.2,0.2,0.3,0.1,0.4c-0.2,0.3,0,0.5,0.4,0.8
		c0.1,0.1,0.3,0,0.6-0.1c0.1-0.1,0.3-0.2,0.3-0.4c0.2-0.4,0.3-0.7,0.6-1.1c0.2-0.3,0.4-0.7,0.6-1.1l0.4-0.7c0,0,0.1-0.1,0.1-0.2
		c0.2-0.2,0.3-0.4,0.4-0.5c0,0,0,0,0,0c0.2-0.3,0.1-0.5-0.2-0.7c-0.4-0.2-0.7-0.2-0.8,0C400.5,422.7,400.4,422.7,400.1,422.7z"/>
	<path d="M305.5,463.2c48.9,0,88.5-39.6,88.6-88.5c0-48.9-39.6-88.6-88.5-88.6c-48.9,0-88.6,39.6-88.6,88.6
		C217,423.5,256.6,463.2,305.5,463.2z M305.6,290.8c46.3,0,83.7,37.5,83.7,83.8c0,46.3-37.5,83.8-83.9,83.7
		c-46.2,0-83.6-37.6-83.6-83.9C221.8,328.3,259.3,290.8,305.6,290.8z"/>
	<path d="M247.6,401.6c0.3-0.3,0.7-0.6,1-0.6c1.1-0.1,2.2,0,3.4,0c0,1.9,0,3.7,0,5.5c0,0.8-0.2,1.4-0.8,2c-1.7,1.6-3.4,3.3-5.3,5.1
		c5.5,0,10.7,0,16.1,0c-1.6-1.6-3.1-3.1-4.6-4.5c-0.3-0.3-0.6-0.6-0.6-0.9c-0.1-2.4,0-4.7,0-7.2c20.9,0,41.7,0,62.6,0
		c-0.1,0.4-0.2,0.7-0.3,1.1c-0.8,3.6-1.7,7.1-2.2,10.7c-0.9,5.9,0.9,10.9,5.7,14.4c5,3.6,10.6,3.9,16.3,3.2l0.2,1.8l7.1-5.1l-8-3.6
		l0.2,2.2c-2.9,0.3-5.8,0.3-8.7-0.3c-4.7-1-8.8-5.2-8.3-10.8c0.4-4.4,1.5-8.5,2.6-12.7c0.2-0.9,0.6-1.1,1.5-1.1
		c8.3,0,16.6-0.1,24.8-0.1c0.4,0,0.7,0,1.2,0c0,0.9-0.1,1.6,0,2.2c0.3,2.2-0.4,3.9-2.2,5.3c-1.3,1-2.3,2.3-3.5,3.5
		c5.4,0,10.6,0,16,0c-1.7-1.7-3.3-3.3-4.8-4.8c-0.3-0.3-0.6-0.6-0.6-0.9c-0.1-1.7,0-3.5,0-5.3c1.3,0,2.4,0.1,3.5,0
		c2.1-0.3,3.6,0.4,4.8,2c1,1.2,2.2,2.3,3.4,3.6c0-5.5,0-10.7,0-16.1c-1.8,1.8-3.4,3.5-5.1,5.1c-0.3,0.3-0.6,0.6-0.9,0.6
		c-1.9,0.1-3.8,0-5.8,0c0-1.8,0.1-3.6,0-5.3c0-0.9,0.2-1.6,0.9-2.2c1.6-1.5,3.1-3.1,4.8-4.7c-5.5,0-10.7,0-16.1,0
		c1.8,1.8,3.4,3.3,4.9,4.9c0.3,0.3,0.6,0.7,0.6,1c0.1,2.1,0,4.2,0,6.4c-8.7,0-17.2,0-25.9,0c0-0.3,0.1-0.6,0.1-0.9
		c0.7-3.6,1-7.2,0.3-10.8c-1.4-7-6-10.8-12.9-10.8c-2.6,0-5.1,0.6-7.6,1.6c-0.9,0.4-1.8,0.8-2.6,1.1c0-13.9,0-27.7,0-41.6
		c0.8,0,1.4,0.1,1.9,0c2.2-0.4,3.9,0.4,5.3,2.2c1,1.3,2.3,2.5,3.6,3.9c0-5.6,0-10.8,0-16.2c-1.7,1.7-3.2,3.2-4.7,4.7
		c-0.3,0.3-0.6,0.6-0.9,0.6c-1.7,0.1-3.4,0-5.2,0c0-1.5,0.1-2.8,0-4.1c-0.1-1.1,0.3-1.7,1-2.4c1.4-1.3,2.7-2.7,4.2-4.2
		c-5.4,0-10.5,0-16,0c1.9,1.9,3.7,3.6,5.4,5.3c0.3,0.3,0.7,0.7,0.7,1c0.1,1.4,0,2.9,0,4.4c-2.1,0-4.1,0-6,0c-0.8,0-1.3-0.2-1.9-0.8
		c-1.5-1.6-3-3.1-4.7-4.8c0,5.5,0,10.7,0,16c1.8-1.8,3.4-3.4,5.1-5.1c0.3-0.3,0.6-0.6,0.9-0.6c2.1-0.1,4.2,0,6.5,0
		c-0.1,20.6-0.3,41.1-0.4,61.6c-13.8,0-27.4,0-41,0c-0.2-2.5-0.5-4.9,2-6.6c1.3-0.9,2.4-2.3,3.8-3.6c-5.6,0-10.7,0-16.2,0
		c1.7,1.7,3.3,3.3,4.9,4.8c0.3,0.3,0.6,0.6,0.6,0.9c0.1,1.5,0,3,0,4.5c-2,0.4-3.7,0.2-5-1.5c-0.9-1.2-2.1-2.2-3.2-3.3
		c-0.3-0.3-0.6-0.5-0.9-0.9c0,5.4,0,10.5,0,16C244.6,404.6,246.1,403.1,247.6,401.6z M302.7,390.3c0-2.6,0-5.3,0.1-7.9
		c0-0.4,0.2-0.9,0.5-1.1c2.9-1.8,6.1-3.2,9.6-3.3c4.6-0.2,7.4,2,8.4,6.5c0.8,3.6,0.3,7.2-0.5,10.7c-0.1,0.3-0.5,0.6-0.7,0.6
		c-5.7,0-11.5,0-17.4,0C302.7,393.9,302.7,392.1,302.7,390.3z"/>
	<path d="M393.8,628.7c-1.7,2.6-3.4,5.2-5.1,7.9l-1.8,2.8c-0.1-1.4-0.3-2.8-0.6-4.2c0,1.6,0.1,3.3,0.2,4.9l0,0.1
		c-1.6,0.2-3.2,0.4-4.9,0.7c1.5,0,3-0.1,4.5-0.2l-2.4,3.9l-4.9,8c-0.5,0.8-1,1.6-1.5,2.4c0.1-0.2,0.1-0.3,0.2-0.5
		c0.8-2.2,1.4-4.5,1.6-6.9c0-0.6,0.1-1.2,0-1.8c-0.1-0.6-0.2-1.3-0.6-1.8c-0.4-0.5-1-0.9-1.7-1c-0.7-0.1-1.3,0.2-1.8,0.6
		c-1,0.8-1.6,1.9-1.8,3.1c-0.1,0.6-0.1,1.3,0.5,1.7c0.6,0.3,1.2,0.2,1.7,0c-0.6,0.1-1.2,0.2-1.7-0.2c-0.4-0.4-0.4-1-0.3-1.5
		c0.3-1.1,1-2.1,1.8-2.7c0.4-0.3,1-0.5,1.5-0.4c0.5,0.1,0.9,0.4,1.3,0.8c0.3,0.4,0.4,0.9,0.4,1.5c0,0.6,0,1.1,0,1.7
		c-0.3,2.3-0.9,4.5-1.7,6.7c-0.8,2.2-1.7,4.3-2.7,6.4c-0.1,0.2,0,0.5,0.2,0.6c0.2,0.1,0.5,0.1,0.7-0.2l0,0c1.6-2.7,3.2-5.3,4.8-8
		l4.8-8l2.2-3.8c0.2,1.5,0.3,2.9,0.6,4.4c0-1.7-0.1-3.3-0.2-5c1.6-0.2,3.3-0.4,4.9-0.7c-1.6,0-3.1,0.1-4.7,0.2l1.9-3.2
		C390.8,634.1,392.3,631.4,393.8,628.7z"/>
	<path d="M238.8,643.5c-0.5-0.4-1.1-0.7-1.8-0.6c-0.7,0.1-1.3,0.5-1.7,1c-0.5,0.6-0.6,1.2-0.6,1.8c-0.1,0.6-0.1,1.2,0,1.8
		c0.2,2.4,0.9,4.7,1.6,6.9c0.1,0.2,0.1,0.3,0.2,0.5c-0.5-0.8-1-1.6-1.5-2.4l-4.9-8l-2.4-3.9c1.5,0.1,3,0.2,4.5,0.2
		c-1.6-0.3-3.2-0.5-4.9-0.7l0-0.1c0.1-1.6,0.2-3.2,0.2-4.9c-0.3,1.4-0.5,2.8-0.6,4.2l-1.8-2.8c-1.7-2.6-3.3-5.3-5.1-7.9
		c1.5,2.7,3.1,5.4,4.6,8.1l1.9,3.2c-1.6-0.1-3.1-0.2-4.7-0.2c1.6,0.3,3.3,0.5,4.9,0.7c-0.1,1.6-0.2,3.3-0.2,5
		c0.3-1.5,0.5-2.9,0.6-4.4l2.2,3.8l4.8,8c1.6,2.7,3.2,5.4,4.8,8l0,0c0.1,0.2,0.4,0.3,0.6,0.2c0.2-0.1,0.3-0.4,0.2-0.7
		c-1-2.1-2-4.2-2.7-6.4c-0.8-2.2-1.4-4.4-1.7-6.7c-0.1-0.6-0.1-1.1,0-1.7c0-0.5,0.2-1.1,0.4-1.5c0.3-0.4,0.8-0.7,1.3-0.8
		c0.5-0.1,1,0.1,1.5,0.4c0.9,0.6,1.6,1.6,1.8,2.7c0.1,0.5,0.1,1.2-0.3,1.5c-0.4,0.3-1.1,0.3-1.7,0.2c0.5,0.2,1.2,0.3,1.7,0
		c0.5-0.4,0.6-1.1,0.5-1.7C240.4,645.3,239.7,644.2,238.8,643.5z"/>
	<path d="M190.8,227.7c0.7,0.2,1.2,0.1,1.8,0.1c0.3,0,0.6-0.1,0.8-0.1c0.3-0.1,0.6-0.2,0.9-0.3c0.6-0.3,1.1-0.6,1.5-1
		c1.7-1.5,2.9-3.3,4-5.1c2-3.7,3.6-7.6,5-11.5l2-5.9c0.6-1.9,1.2-3.7,1.8-5.5c0.3,0.1,0.7,0.2,1,0.2c0.3,0,0.7-0.1,1-0.2
		c0.8-0.3,1.4-0.8,1.8-1.5c0.4-0.7,0.4-1.6,0.2-2.4c-0.3-0.8-0.8-1.4-1.5-1.8c-0.7-0.4-1.6-0.4-2.4-0.2c-0.8,0.3-1.4,0.8-1.8,1.5
		c-0.4,0.7-0.4,1.6-0.2,2.4s0.8,1.4,1.5,1.8c0.1,0,0.2,0.1,0.3,0.1c-0.8,1.8-1.5,3.6-2.2,5.4l-1.5,4l-8.2-4.6l3.8-3.4l-0.7-0.7
		l-3.1,4l-0.1,0l-0.2,0.4l0,0l0,0l-0.2,0.4l0.1,0.1l-1.4,5l1,0.2l0.5-5.1l8.3,4.6l-0.3,0.9c-1.5,3.8-3.1,7.7-5.1,11.3
		c-1,1.8-2.1,3.6-3.7,4.9c-0.8,0.7-1.7,1.1-2.7,1.2c-0.5,0-1,0.1-1.5,0c-0.5-0.1-0.9-0.4-1.2-0.9c-0.4-0.9-0.2-2,0-3
		c0.3-1,0.7-2,1.1-2.9c0.4-0.9,0.9-1.8,1.5-2.7c0.6-0.9,1.1-1.8,1.9-2.4l-0.1-0.1c-0.9,0.6-1.5,1.5-2.1,2.3
		c-0.6,0.9-1.2,1.7-1.7,2.7c-0.5,0.9-0.9,1.9-1.3,2.9c-0.2,0.5-0.3,1.1-0.3,1.6c0,0.6,0,1.2,0.3,1.9
		C189.4,227,190.1,227.5,190.8,227.7z M207.6,196.1c-0.2-0.5-0.1-1.1,0.1-1.6s0.7-0.9,1.2-1c0.2-0.1,0.4-0.1,0.7-0.1
		c0.3,0,0.6,0.1,0.9,0.2c0.5,0.2,0.9,0.7,1,1.2s0.1,1.1-0.1,1.6s-0.7,0.9-1.2,1c-0.5,0.2-1.1,0.1-1.6-0.1
		C208.2,197.1,207.8,196.6,207.6,196.1z"/>
	<path d="M396.7,198.4c0.3,0.1,0.6,0.2,1,0.2c0.3,0,0.7-0.1,1-0.2c0.8,1.8,1.5,3.6,2.2,5.4l1.5,4l0,0l0,0l0.7,1.7
		c1.5,3.8,3.1,7.7,5.1,11.3c1,1.8,2.2,3.6,3.7,5c0.4,0.3,0.8,0.6,1.3,0.9c0.2,0.1,0.5,0.2,0.7,0.3c0.3,0,0.5,0.1,0.8,0.1
		c0.5,0,1.1,0.1,1.6-0.1c0.5-0.1,1-0.5,1.2-0.9c0.5-1,0.3-2.1,0-3.1c-0.3-1-0.7-2-1.1-2.9c-0.5-0.9-1-1.8-1.5-2.7
		c-0.6-0.9-1.1-1.8-1.9-2.5L413,215c0.4,0.3,0.6,0.8,0.9,1.2c0.3,0.4,0.5,0.9,0.8,1.3c0.5,0.9,0.9,1.8,1.3,2.8
		c0.4,0.9,0.7,1.9,1,2.8c0.2,0.9,0.3,2-0.1,2.6c-0.2,0.3-0.4,0.4-0.8,0.5c-0.3,0.1-0.8,0.1-1.3,0l-0.7-0.1c-0.2-0.1-0.4-0.1-0.6-0.2
		c-0.4-0.2-0.7-0.4-1.1-0.8c-1.4-1.2-2.5-3-3.5-4.8c-2-3.5-3.6-7.3-5.3-11.1c-0.1-0.3-0.3-0.6-0.4-0.9l7.8-4.3l0.5,5.1l1-0.2l-1.4-5
		l0.1-0.1l-0.5-0.9l-0.1,0l-3.1-4l-0.7,0.7l3.8,3.4l-7.7,4.3c-1.3-3.1-2.6-6.2-4.2-9.1c0.1,0,0.2,0,0.2-0.1c1.5-0.8,2.1-2.6,1.4-4.1
		c-0.8-1.5-2.6-2.1-4.1-1.4c-0.7,0.4-1.3,1-1.5,1.8c-0.3,0.8-0.2,1.6,0.2,2.4S395.9,198.1,396.7,198.4z M395.7,194.8
		c0.2-0.5,0.5-1,1-1.2c0.3-0.1,0.6-0.2,0.9-0.2c0.8,0,1.5,0.4,1.9,1.2c0.5,1,0.1,2.3-0.9,2.8c-0.5,0.2-1.1,0.3-1.6,0.1
		c-0.5-0.2-1-0.5-1.2-1C395.6,195.9,395.5,195.3,395.7,194.8z"/>
	<path d="M167.2,340.5c-0.3,1.5-0.6,3.1-0.8,4.6l-1.4,8.4c-0.5,2.8-0.9,5.6-1.3,8.4l0.9,0.2c0.3-1.6,1.5-3,3.1-3.2
		c0.8-0.1,1.6,0,2.2,0.4c0.7,0.4,1.1,1.1,1.4,1.9c0.2,0.8,0.2,1.6,0,2.4c-0.3,0.7-0.9,1.4-1.7,1.7c-0.8,0.3-1.7,0.2-2.2-0.5
		c-0.5-0.6-0.6-1.6-0.3-2.4c-0.4,0.8-0.4,1.8,0.1,2.6c0.3,0.4,0.7,0.7,1.1,0.8c0.5,0.1,0.9,0.1,1.4,0c0.9-0.3,1.7-0.9,2-1.8
		c0.3-0.9,0.4-1.9,0.1-2.8c-0.2-0.9-0.8-1.8-1.6-2.3c-0.8-0.6-1.8-0.8-2.8-0.6c-1,0.2-1.8,0.7-2.5,1.3c0.3-1.9,0.7-3.8,0.9-5.7
		l1.3-8.4c0.2-1.5,0.5-3,0.7-4.5c1.5,2.4,3,4.7,4.7,6.9c-1.2-2.8-2.7-5.4-4.2-8.1c2.5-2,5-4.1,7.3-6.4c-2.6,1.6-5,3.4-7.4,5.2
		c0.1-0.5,0.2-1.1,0.2-1.6c0.4-2.8,0.8-5.6,1.1-8.4c-0.6,2.8-1.1,5.6-1.6,8.3c-0.1,0.5-0.2,1-0.3,1.6c-1.7-2.8-3.5-5.7-5.5-8.3
		c1.4,3.1,3.1,6.1,4.8,9.1c0.1,0.1,0.1,0.2,0.2,0.3c-2.3,1.9-4.6,3.8-6.7,5.9C162.7,343.8,165,342.1,167.2,340.5z"/>
	<path d="M443.1,338.4c-2.4-1.9-4.8-3.6-7.4-5.2c2.3,2.3,4.8,4.4,7.3,6.4c-1.5,2.6-3,5.3-4.2,8.1c1.7-2.2,3.2-4.6,4.7-6.9
		c0.2,1.5,0.4,3,0.7,4.5l1.3,8.4c0.3,1.9,0.6,3.8,0.9,5.7c-0.7-0.7-1.5-1.2-2.5-1.3c-1-0.1-2,0.1-2.8,0.6c-0.8,0.6-1.3,1.4-1.6,2.3
		c-0.2,0.9-0.2,1.9,0.1,2.8c0.4,0.9,1.1,1.6,2,1.8c0.4,0.1,0.9,0.1,1.4,0c0.5-0.1,0.9-0.4,1.1-0.8c0.6-0.8,0.5-1.8,0.1-2.6
		c0.3,0.8,0.2,1.8-0.3,2.4c-0.5,0.7-1.5,0.8-2.2,0.5c-0.8-0.3-1.4-0.9-1.7-1.7c-0.2-0.7-0.2-1.6,0-2.4c0.2-0.8,0.7-1.5,1.4-1.9
		c0.6-0.4,1.5-0.5,2.2-0.4c1.6,0.3,2.7,1.7,3.1,3.2l0.9-0.2c-0.4-2.8-0.9-5.6-1.3-8.4l-1.4-8.4c-0.3-1.5-0.5-3.1-0.8-4.6
		c2.2,1.7,4.5,3.3,6.8,4.8c-2.1-2.1-4.4-4.1-6.7-5.9c0.1-0.1,0.1-0.2,0.2-0.3c1.7-3,3.4-5.9,4.8-9.1c-2,2.7-3.8,5.5-5.5,8.3
		c-0.1-0.5-0.2-1-0.3-1.6c-0.5-2.8-1.1-5.6-1.6-8.3c0.3,2.8,0.7,5.6,1.1,8.4C443,337.3,443,337.9,443.1,338.4z"/>
	<path d="M449.3,438.7c-0.9-0.3-1.9-0.2-2.8,0.3c-1.4,0.8-2.6,2.4-3.1,4.3c-0.7,2.7,0.3,5.4,2.2,6c0.6,0.2,1.3,0.1,2-0.2
		c1-0.5,1.7-1.6,2.1-2.9l-1-0.3c-0.3,1-0.9,1.9-1.6,2.3c-0.3,0.2-0.7,0.3-1.2,0.1c-1.4-0.5-2.1-2.7-1.5-4.8c0.4-1.7,1.4-3.1,2.6-3.7
		c0.7-0.4,1.4-0.5,2.1-0.3c2.4,0.8,3.5,4.3,2.6,7.9c-0.6,2.4-2.3,4.4-4.4,5.6c-1.4,0.8-3,1-4.2,0.7c-2-5.5-3.9-11.2-1.1-18l0.9,0.3
		c0.1,0,0.2-0.1,0.2-0.2c-0.1-0.5-0.2-1.3-0.1-2c0.2-0.8,0.6-3.1,0.8-4.3c0-0.2-0.2-0.3-0.2-0.1l-2.1,3.8c-0.5,0.9-1,1.3-1.3,1.5
		c-0.1,0.1-0.1,0.3,0,0.3l0.9,0.4c-3,7.4-0.8,13.5,1.4,19.5c1.9,5.2,3.7,10.1,1.8,15.6c-0.6-1.8-2-3.5-4-3.8
		c-1.1-0.2-2.1,0.1-2.9,0.7c-0.8,0.6-1.2,1.4-1.3,2.4c-0.2,1.7,1.1,3.2,2.8,3.5c0.1,0,0.3,0,0.4,0c0.6,0,1.2-0.2,1.6-0.5
		c0.5-0.4,0.9-1,0.9-1.6c0.1-1.2-0.7-2.2-2-2.4l-0.1,1c0.7,0.1,1.2,0.7,1.1,1.3c0,0.4-0.2,0.7-0.5,1c-0.3,0.3-0.8,0.4-1.3,0.3
		c-1.2-0.2-2.1-1.2-2-2.4c0.1-0.7,0.4-1.3,1-1.7c0.6-0.5,1.4-0.7,2.2-0.5c2.1,0.3,3.5,2.7,3.3,4.6c-1,2-2.6,4.1-4.8,6.3
		c-0.3-0.2-0.7-0.4-1.1-0.4c-0.6-0.1-1.1,0.1-1.6,0.5c-0.5,0.4-0.8,1-0.9,1.7c-0.1,1.3,0.8,2.5,2,2.7c0.1,0,0.2,0,0.3,0
		c0.5,0,1-0.2,1.4-0.5c0.5-0.4,0.8-1,0.9-1.7c0-0.5-0.1-1-0.3-1.5c9.6-9.2,7-16.6,4.2-24.5c0.2,0,0.5,0.1,0.7,0.1
		c1.1,0,2.4-0.3,3.5-1c2.3-1.3,4.2-3.6,4.9-6.2C453.7,443.8,452.2,439.7,449.3,438.7z M438.6,480.8c0,0.4-0.2,0.8-0.5,1
		c-0.3,0.2-0.6,0.3-0.9,0.3c-0.7-0.1-1.2-0.8-1.1-1.6c0-0.4,0.2-0.8,0.5-1c0.2-0.2,0.5-0.3,0.7-0.3c0,0,0.1,0,0.1,0
		C438.1,479.3,438.6,480,438.6,480.8z"/>
	<path d="M448.9,461.7c-0.8-0.1-1.4,0.5-1.5,1.3c-0.1,0.8,0.5,1.6,1.2,1.6c0.8,0.1,1.4-0.5,1.5-1.3S449.7,461.8,448.9,461.7z"/>
	<path d="M177.1,478.7c-0.5-0.4-1-0.5-1.6-0.5c-0.4,0-0.7,0.2-1.1,0.4c-2.3-2.2-3.8-4.3-4.8-6.3c-0.1-1.9,1.3-4.3,3.3-4.6
		c0.8-0.1,1.6,0.1,2.2,0.5c0.5,0.4,0.9,1,1,1.7c0.1,1.1-0.8,2.2-2,2.4c-0.5,0.1-0.9,0-1.3-0.3c-0.3-0.2-0.5-0.6-0.6-1
		c-0.1-0.6,0.4-1.2,1.1-1.3l-0.1-1c-1.2,0.2-2.1,1.3-2,2.4c0.1,0.7,0.4,1.2,0.9,1.6c0.5,0.4,1,0.5,1.6,0.5c0.1,0,0.3,0,0.4,0
		c1.7-0.3,3-1.8,2.8-3.5c-0.1-0.9-0.6-1.8-1.4-2.4c-0.8-0.6-1.9-0.9-2.9-0.7c-1.9,0.3-3.4,2-4,3.8c-1.9-5.5-0.1-10.4,1.8-15.7
		c2.2-5.9,4.4-12.1,1.4-19.5l0.9-0.4c0.1,0,0.1-0.2,0-0.3c-0.3-0.2-0.8-0.6-1.3-1.5l-2.1-3.8c-0.1-0.2-0.3-0.1-0.2,0.1
		c0.2,1.2,0.6,3.5,0.8,4.3c0.2,0.8,0,1.6-0.1,2c0,0.1,0.1,0.3,0.2,0.2l0.9-0.3c2.7,6.7,0.9,12.4-1.1,18c-1.2,0.3-2.7,0.1-4.2-0.7
		c-2.1-1.1-3.7-3.2-4.4-5.6c-1-3.6,0.2-7.1,2.6-7.9c0.7-0.2,1.4-0.1,2.1,0.3c1.2,0.6,2.2,2,2.6,3.7c0.6,2.2-0.1,4.4-1.5,4.8
		c-0.5,0.2-0.9,0-1.2-0.1c-0.7-0.4-1.3-1.2-1.6-2.3l-1,0.3c0.3,1.3,1.1,2.4,2.1,2.9c0.6,0.4,1.3,0.4,2,0.2c1.9-0.6,2.9-3.3,2.2-6
		c-0.5-1.9-1.7-3.6-3.1-4.3c-0.9-0.5-1.9-0.6-2.8-0.3c-2.9,0.9-4.3,5-3.2,9.1c0.7,2.6,2.5,4.9,4.9,6.2c1.2,0.6,2.4,1,3.5,1
		c0.3,0,0.5,0,0.7-0.1c-2.9,7.8-5.4,15.3,4.2,24.5c-0.2,0.4-0.4,0.9-0.3,1.5c0.1,0.7,0.4,1.3,0.9,1.7c0.4,0.3,0.9,0.5,1.4,0.5
		c0.1,0,0.2,0,0.3,0c1.2-0.1,2.1-1.3,2-2.7C177.9,479.7,177.6,479.1,177.1,478.7z M175.8,482.1c-0.3,0-0.6-0.1-0.9-0.3
		c-0.3-0.2-0.5-0.6-0.5-1c-0.1-0.8,0.4-1.5,1.1-1.6c0,0,0.1,0,0.1,0c0.3,0,0.5,0.1,0.7,0.3c0.3,0.2,0.5,0.6,0.5,1
		C177,481.3,176.5,482,175.8,482.1z"/>
	<path d="M164.1,461.7c-0.8,0.1-1.3,0.8-1.2,1.6c0.1,0.8,0.7,1.4,1.5,1.3c0.8-0.1,1.3-0.8,1.2-1.6S164.8,461.6,164.1,461.7z"/>
	<path d="M427.5,546c-0.6-0.3-1.2-0.5-1.8-0.6c1-3,2-6,3-9l0.6-1.9l-1.2,1.6c-1.3,1.8-2.7,3.5-4,5.3l-4,5.4l4.3-5.1
		c1-1.2,2-2.4,3-3.7c-1.3,3.5-2.5,7-3.8,10.5l-2.2,6.2l-2,6c-1,0.4-1.9,0.7-2.9,1.2c-1.3,0.7-2.6,1.5-3.7,2.5
		c-1.1,1-2.1,2.3-2.4,3.9c-0.7,3.2,1.2,6.3,3.6,8c0.1,0,0.1,0.1,0.2,0.1c-1,3.1-2,6.3-3,9.5c1.2-3,2.3-6.1,3.4-9.1
		c0.9,0.8,1.8,1.5,2.4,2.5c0.8,1.2,1.4,2.5,1.5,3.8c0.1,1.4-0.3,2.8-0.9,4c-0.6,1.3-1.5,2.5-2.5,3.5c-1.9,2.1-4.3,4-6.9,5.3
		c2.7-1.1,5.1-2.9,7.2-4.9c1-1,2-2.2,2.7-3.6c0.7-1.3,1.2-2.8,1.1-4.4c-0.2-3-2.2-5.5-4.4-7.2c0.3-0.8,0.6-1.5,0.8-2.3
		c1.5-4.1,3-8.2,4.4-12.3c0.3-0.1,0.5-0.2,0.8-0.3c1.4-0.4,2.8-1.1,4-2c2.4-1.8,4.3-4.3,5-7.3c0.3-1.5,0.1-3.1-0.8-4.3
		C428.8,546.9,428.2,546.4,427.5,546z M415.3,573.4c-0.2,0.7-0.5,1.4-0.7,2.1c-1.1-0.9-2-1.8-2.6-3.1c-0.6-1.3-0.9-2.6-0.5-3.9
		c0.3-1.3,1.1-2.5,2.1-3.4c1-1,2.2-1.7,3.5-2.4c0.7-0.4,1.4-0.7,2.1-1C417.8,565.7,416.5,569.5,415.3,573.4z M429.6,551.7
		c-0.7,2.8-2.6,5.1-5,6.7c-1.2,0.8-2.5,1.4-3.8,1.8c0,0-0.1,0-0.1,0l1.9-5.2l2.1-6.2c0.4-1.1,0.8-2.3,1.2-3.4
		c1.3,0.4,2.5,1.1,3.2,2.2C429.8,548.8,429.9,550.3,429.6,551.7z"/>
	<path d="M199,590.7c-1-1.1-1.8-2.2-2.5-3.5c-0.6-1.3-1-2.7-0.9-4c0.1-1.4,0.7-2.7,1.5-3.8c0.6-1,1.5-1.8,2.4-2.5
		c1.1,3,2.3,6.1,3.4,9.1c-1-3.2-2-6.3-3-9.5c0.1,0,0.1-0.1,0.2-0.1c2.4-1.7,4.3-4.8,3.6-8c-0.4-1.6-1.3-2.9-2.4-3.9
		c-1.1-1-2.4-1.8-3.7-2.5c-0.9-0.5-1.9-0.9-2.9-1.2l-2-6l-2.2-6.2c-1.2-3.5-2.5-7-3.8-10.5c1,1.2,2,2.4,3,3.7l4.3,5.1l-4-5.4
		c-1.3-1.8-2.7-3.6-4-5.3l-1.2-1.6l0.6,1.9c1,3,2,6,3,9c-0.6,0.1-1.2,0.3-1.8,0.6c-0.7,0.3-1.2,0.8-1.7,1.4
		c-0.9,1.2-1.1,2.9-0.8,4.3c0.6,3,2.6,5.5,5,7.3c1.2,0.9,2.6,1.6,4,2c0.3,0.1,0.5,0.2,0.8,0.3c1.4,4.1,2.9,8.2,4.4,12.3
		c0.3,0.8,0.6,1.5,0.8,2.3c-2.2,1.7-4.2,4.2-4.4,7.2c-0.1,1.6,0.4,3.1,1.1,4.4c0.7,1.3,1.6,2.5,2.7,3.6c2.1,2.1,4.5,3.8,7.2,4.9
		C203.3,594.7,200.9,592.9,199,590.7z M189.7,558.5c-2.3-1.6-4.3-4-5-6.7c-0.3-1.4-0.3-2.9,0.5-4.1c0.7-1.1,2-1.8,3.2-2.2
		c0.4,1.1,0.8,2.3,1.2,3.4l2.1,6.2l1.9,5.2c0,0-0.1,0-0.1,0C192.2,559.9,190.9,559.3,189.7,558.5z M195.2,561.8
		c0.7,0.3,1.4,0.6,2.1,1c1.3,0.7,2.5,1.4,3.5,2.4c1,1,1.8,2.1,2.1,3.4c0.3,1.3,0,2.7-0.5,3.9c-0.5,1.2-1.5,2.2-2.6,3.1
		c-0.2-0.7-0.5-1.4-0.7-2.1C197.8,569.5,196.5,565.7,195.2,561.8z"/>
	<path d="M307.8,195.1l22.8-3.7l-23.1,2c-0.3-1.9-0.5-3.7-0.8-5.6c-0.7-5.2-1.5-10.3-2.3-15.5c-0.8-5.2-1.7-10.3-2.5-15.5
		c-0.5-2.6-0.9-5.1-1.5-7.7c-0.1-0.7-0.3-1.3-0.4-2l-0.1-0.3l-0.1-0.2c0-0.1-0.1-0.2-0.2-0.3c-0.1-0.2-0.4-0.6-0.8-0.7
		c-0.4,0-0.6-0.3-1.5,0.4c-0.6,0.9-0.3,0.5-0.4,0.8c0,0.2,0,0.2,0,0.2c0,0.2,0,0.2,0,0.3l0,0.3l0.1,1c0.2,1.3,0.3,2.5,0.3,3.7
		c0,1.2,0,2.5-0.2,3.7c-0.1,1.2-0.5,2.4-0.8,3.6c-0.8,2.3-2,4.5-3.4,6.6c-2.9,4.1-6.7,7.6-10.9,10.7c-4.1,3.1-8.6,5.8-13.2,8.3
		c4.8-2,9.6-4.3,14-7.1c4.4-2.8,8.6-6.3,11.9-10.5c1.6-2.2,3-4.6,4-7.1c0.1-0.4,0.3-0.9,0.4-1.3l2.4,13.7c0.9,5.1,1.8,10.3,2.8,15.4
		c0.3,1.8,0.7,3.6,1,5.4l-15.7,1.4l0.4,3l15.7-2.5c1.5,7.9,3.1,15.7,4.8,23.5C309.9,211,308.9,203,307.8,195.1z M299.9,147.1
		L299.9,147.1C299.9,147.1,299.9,147.1,299.9,147.1z"/>
	<path d="M317.1,165.5c2.3,2.8,4.4,5.7,6.5,8.6l0.3-0.2c-1.5-2.8-3.1-5.6-4.8-8.3c0.4-0.6,0.8-1.1,1.2-1.8c0.3-0.8,0.4-1.6,0.5-2.4
		c0.2-1.6-0.1-3.4-1-4.9c-0.5-0.8-1.1-1.5-1.9-2.1c-0.8-0.5-1.7-0.9-2.7-1c-1-0.1-2,0.1-2.9,0.5c-0.9,0.4-1.6,1-2.2,1.7l-0.7,0.9
		l0.7,0.8C312.5,159.9,314.8,162.6,317.1,165.5z M314.7,156.4c0.9,0.2,1.7,0.8,2.4,1.7c0.3,0.5,0.6,1,0.8,1.5
		c0.2,0.6,0.3,1.1,0.4,1.8c0.1,0.7,0.3,1.4,0.3,2c0,0.4,0,1,0,1.5c-0.1-0.2-0.2-0.3-0.3-0.5c-1.8-2.7-3.6-5.2-5.6-7.8
		C313.4,156.4,314.1,156.3,314.7,156.4z"/>
	<path d="M335.1,204.4c-0.4-0.4-0.8-0.8-1.1-1.3c-0.3-0.5-0.5-1-0.7-1.6c-0.1-0.3-0.1-0.6-0.2-0.9l-0.1-1c-0.2,0.6-0.4,1.3-0.4,1.9
		c-0.1,0.7,0,1.4,0.2,2c0.2,0.7,0.5,1.3,1,1.9c0.3,0.3,0.6,0.6,0.9,0.9c-0.4,0.9-0.9,1.9-1.4,2.6c-0.6,1-1.4,1.8-2.1,1.9
		c-0.4,0.1-0.7,0.1-1.2,0c-0.2-0.1-0.5-0.1-0.8-0.2l-0.4-0.2c-0.1,0-0.2-0.1-0.2-0.1c-0.3-0.2-0.6-0.5-1-0.9
		c-0.3-0.4-0.6-0.9-0.9-1.5c-0.6-1.1-1.2-2.4-2.3-3.6c-0.6-0.6-1.3-1.1-2.2-1.4c-0.8-0.2-1.7-0.3-2.6,0c-0.9,0.3-1.6,1.1-1.9,1.8
		c-0.4,0.7-0.5,1.4-0.6,2.1c-0.2,1.4,0,2.8,0.2,4.1c0.3-1.3,0.6-2.6,1-3.8c0.2-0.6,0.5-1.1,0.8-1.6c0.3-0.4,0.7-0.7,1.1-0.7
		c0.3-0.1,0.8,0,1.2,0.2c0.4,0.2,0.7,0.5,1,0.9c0.6,0.8,1.1,2,1.7,3.2c0.3,0.6,0.6,1.3,1.1,1.9c0.5,0.6,1.1,1.3,1.9,1.8
		c0.2,0.1,0.4,0.2,0.7,0.3l0.5,0.2c0.3,0.1,0.7,0.2,1.1,0.3c0.8,0.2,1.8,0.2,2.7-0.1c0.9-0.3,1.7-0.9,2.2-1.5c0.6-0.6,1-1.3,1.3-1.9
		c0.7-1.3,1.1-2.6,1.4-4l0.3-1l-0.9-0.2C336,205,335.5,204.7,335.1,204.4z"/>
	<path d="M220.2,264.7c-1.6,6.9-3.2,13.9-4.4,21c2.4-6.7,4.6-13.5,6.6-20.3c1.1,0.3,2.2,0.6,3.3,0.8c1.5,0.3,3,0.6,4.6,0.6
		c-1.3-0.8-2.7-1.5-4.2-2.1c-1.1-0.4-2.1-0.8-3.2-1.2c0.9-3,1.7-6,2.6-8.9l2.9-10.5l2.7-10.5c0.2-0.9,0.4-1.7,0.6-2.6l3.7,1.1
		l5.4,1.4l1.2,0.3l0.3-1.1c0.6-2.2,1.1-4.4,1.6-6.6c0.5-2.2,0.9-4.4,1.2-6.7c-1,2-1.9,4.1-2.7,6.2c-0.7,1.7-1.3,3.4-2,5.1l-4.2-1.4
		l-3.8-1.2c0.4-1.7,0.8-3.4,1.2-5.1c1.7-7,3.2-14.1,4.5-21.3c-2.5,6.8-4.7,13.7-6.7,20.7c-0.5,1.6-1,3.3-1.5,4.9
		c-1.4-0.4-2.9-0.8-4.3-1.2c-1.4-0.4-2.8-0.7-4.2-1.1c0.4-1.7,0.8-3.5,1.2-5.2c0.5-2.2,0.9-4.3,1.2-6.6c-1,2-1.9,4-2.7,6.1
		c-0.8,2.1-1.6,4.1-2.4,6.2l-0.4,1.1l1.2,0.4c1.7,0.6,3.5,1.2,5.3,1.8c1.4,0.5,2.9,0.9,4.3,1.4c-0.3,0.9-0.5,1.8-0.8,2.6l-2.9,10.5
		l-2.7,10.5c-0.7,3-1.5,6-2.2,9c-1.1-0.3-2.2-0.6-3.3-0.8c-1.5-0.3-3-0.6-4.6-0.6c1.3,0.8,2.7,1.5,4.2,2.1
		C218,264,219.1,264.3,220.2,264.7z"/>
	<path d="M363.1,232.7l0.3,1.1l1.2-0.3l5.4-1.4l3.7-1.1c0.2,0.9,0.4,1.7,0.6,2.6l2.7,10.5l2.9,10.5c0.9,3,1.7,6,2.6,8.9
		c-1.1,0.4-2.2,0.7-3.2,1.2c-1.4,0.6-2.8,1.2-4.2,2.1c1.6-0.1,3.1-0.3,4.6-0.6c1.1-0.2,2.2-0.5,3.3-0.8c2,6.8,4.2,13.6,6.6,20.3
		c-1.2-7-2.8-14-4.4-21c1.1-0.4,2.2-0.8,3.3-1.2c1.4-0.6,2.8-1.2,4.2-2.1c-1.6,0.1-3.1,0.3-4.6,0.6c-1.1,0.2-2.2,0.5-3.3,0.8
		c-0.7-3-1.5-6-2.2-9l-2.7-10.5l-2.9-10.5c-0.3-0.9-0.5-1.8-0.8-2.6c1.4-0.4,2.9-0.9,4.3-1.4c1.7-0.6,3.5-1.2,5.2-1.8l1.2-0.4
		l-0.4-1.1c-0.8-2.1-1.6-4.1-2.4-6.2c-0.9-2-1.7-4.1-2.7-6.1c0.3,2.2,0.8,4.4,1.2,6.6c0.4,1.7,0.8,3.5,1.2,5.2
		c-1.4,0.4-2.8,0.7-4.2,1.1c-1.4,0.4-2.9,0.8-4.3,1.2c-0.5-1.6-1-3.3-1.5-4.9c-2.1-6.9-4.3-13.8-6.7-20.7c1.3,7.1,2.8,14.2,4.5,21.3
		c0.4,1.7,0.8,3.4,1.2,5.1l-3.8,1.2l-4.2,1.4c-0.6-1.7-1.3-3.4-2-5.1c-0.9-2.1-1.7-4.2-2.7-6.2c0.3,2.3,0.8,4.5,1.2,6.7
		C362,228.3,362.5,230.5,363.1,232.7z"/>
	<path d="M236.5,520.9l-0.3-1.1l-1.2,0.3l-5.4,1.4l-3.7,1.1c-0.2-0.9-0.4-1.7-0.6-2.6l-2.7-10.5l-2.9-10.5c-0.9-3-1.7-6-2.6-8.9
		c1.1-0.4,2.2-0.7,3.2-1.2c1.4-0.6,2.8-1.2,4.2-2.1c-1.6,0.1-3.1,0.3-4.6,0.6c-1.1,0.2-2.2,0.5-3.3,0.8c-2-6.8-4.2-13.6-6.6-20.3
		c1.2,7,2.8,14,4.4,21c-1.1,0.4-2.2,0.8-3.3,1.2c-1.4,0.6-2.8,1.2-4.2,2.1c1.6-0.1,3.1-0.3,4.6-0.6c1.1-0.2,2.2-0.5,3.3-0.8
		c0.7,3,1.5,6,2.2,9l2.7,10.5l2.9,10.5c0.3,0.9,0.5,1.8,0.8,2.6c-1.4,0.4-2.9,0.9-4.3,1.4c-1.7,0.6-3.5,1.2-5.3,1.8l-1.2,0.4
		l0.4,1.1c0.8,2.1,1.6,4.1,2.4,6.2c0.9,2,1.7,4.1,2.7,6.1c-0.3-2.2-0.8-4.4-1.2-6.6c-0.4-1.7-0.8-3.5-1.2-5.2
		c1.4-0.4,2.8-0.7,4.2-1.1c1.4-0.4,2.9-0.8,4.3-1.2c0.5,1.6,1,3.3,1.5,4.9c2.1,6.9,4.3,13.8,6.7,20.7c-1.3-7.1-2.8-14.2-4.5-21.3
		c-0.4-1.7-0.8-3.4-1.2-5.1l3.8-1.2l4.2-1.4c0.6,1.7,1.3,3.4,2,5.1c0.9,2.1,1.7,4.2,2.7,6.2c-0.3-2.3-0.8-4.5-1.2-6.7
		C237.5,525.3,237,523.1,236.5,520.9z"/>
	<path d="M400.4,488.9c1.6-6.9,3.2-13.9,4.4-21c-2.4,6.7-4.6,13.5-6.6,20.3c-1.1-0.3-2.2-0.6-3.3-0.8c-1.5-0.3-3-0.6-4.6-0.6
		c1.3,0.8,2.7,1.5,4.2,2.1c1.1,0.4,2.1,0.8,3.2,1.2c-0.9,3-1.7,6-2.6,8.9l-2.9,10.5l-2.7,10.5c-0.2,0.9-0.4,1.7-0.6,2.6l-3.7-1.1
		l-5.4-1.4l-1.2-0.3l-0.3,1.1c-0.6,2.2-1.1,4.4-1.6,6.6c-0.5,2.2-0.9,4.4-1.2,6.7c1-2,1.9-4.1,2.7-6.2c0.7-1.7,1.3-3.4,2-5.1
		l4.2,1.4l3.8,1.2c-0.4,1.7-0.8,3.4-1.2,5.1c-1.7,7-3.2,14.1-4.5,21.3c2.5-6.8,4.7-13.7,6.7-20.7c0.5-1.6,1-3.3,1.5-4.9
		c1.4,0.4,2.9,0.8,4.3,1.2c1.4,0.4,2.8,0.7,4.2,1.1c-0.4,1.7-0.8,3.5-1.2,5.2c-0.5,2.2-0.9,4.3-1.2,6.6c1-2,1.9-4,2.7-6.1
		c0.8-2.1,1.6-4.1,2.4-6.2l0.4-1.1l-1.2-0.4c-1.7-0.6-3.5-1.2-5.3-1.8c-1.4-0.5-2.9-0.9-4.3-1.4c0.3-0.9,0.5-1.8,0.8-2.6l2.9-10.5
		l2.7-10.5c0.7-3,1.5-6,2.2-9c1.1,0.3,2.2,0.6,3.3,0.8c1.5,0.3,3,0.6,4.6,0.6c-1.3-0.8-2.7-1.5-4.2-2.1
		C402.6,489.7,401.5,489.3,400.4,488.9z"/>
	<path d="M307.5,708c-1.2,0-2.1,1-2.1,2.1c0,1.2,1,2.1,2.1,2.1c1.2,0,2.1-1,2.1-2.1C309.7,708.9,308.7,708,307.5,708z"/>
	<path d="M303.6,102.8c1.2,0,2.1-1,2.1-2.1c0-1.2-1-2.1-2.1-2.1s-2.1,1-2.1,2.1C301.5,101.9,302.4,102.8,303.6,102.8z"/>
	<path d="M215.7,173.2c0.1,0,0.2,0.1,0.2,0.1c0.2,0,0.3-0.1,0.4-0.2l8.4-13.1l3.7,2.5c0,0.1,0,0.2,0,0.3c0,0.7,0.6,1.4,1.4,1.4
		c0.7,0,1.4-0.6,1.4-1.4s-0.6-1.4-1.4-1.4c-0.3,0-0.6,0.1-0.8,0.3l-3.7-2.5l17.3-26.9l3.6,2.4l-1.8,2.6l0.8,0.6l3.8-5.4l-0.8-0.6
		l-1.4,2l-3.6-2.4l5.1-7.9l3.2,2.2l0.6-0.8l-7.2-4.9l-0.6,0.8l3.2,2.2l-5.1,7.9l-3.5-2.4l1.4-2.1l-0.8-0.6l-3.8,5.4l0.8,0.6l1.8-2.5
		l3.6,2.4l-17.3,26.9l-4-2.7c-0.2-0.1-0.4-0.1-0.6,0c-0.2,0.1-0.2,0.3-0.2,0.6c0,0,1,3.8-4.3,16.1
		C215.4,172.8,215.5,173.1,215.7,173.2z M230.7,162.7c0,0.5-0.4,0.9-0.9,0.9c-0.5,0-0.9-0.4-0.9-0.9s0.4-0.9,0.9-0.9
		C230.3,161.9,230.7,162.3,230.7,162.7z M220.9,157.3l3.1,2.1l-5.6,8.7C220.5,162.1,220.9,158.9,220.9,157.3z"/>
	<path d="M359.4,123.5l5.1,7.9l-3.6,2.4l-1.4-2l-0.8,0.6l3.8,5.4l0.8-0.6l-1.8-2.6l3.6-2.4l17.3,26.9l-3.7,2.5
		c-0.2-0.2-0.5-0.3-0.8-0.3c-0.7,0-1.4,0.6-1.4,1.4s0.6,1.4,1.4,1.4s1.4-0.6,1.4-1.4c0-0.1,0-0.2,0-0.3l3.7-2.5l8.4,13.1
		c0.1,0.1,0.3,0.2,0.4,0.2c0.1,0,0.2,0,0.2-0.1c0.2-0.1,0.3-0.4,0.2-0.6c-5.3-12.3-4.3-16.1-4.3-16.1c0.1-0.2,0-0.4-0.2-0.6
		c-0.2-0.1-0.4-0.1-0.6,0l-4,2.7l-17.3-26.9l3.6-2.4l1.8,2.5l0.8-0.6l-3.8-5.4l-0.8,0.6l1.4,2.1l-3.5,2.4l-5.1-7.9l3.2-2.2l-0.6-0.8
		l-7.2,4.9l0.6,0.8L359.4,123.5z M377.7,163.6c-0.5,0-0.9-0.4-0.9-0.9s0.4-0.9,0.9-0.9s0.9,0.4,0.9,0.9S378.2,163.6,377.7,163.6z
		 M386.7,157.3c0,1.6,0.3,4.8,2.5,10.8l-5.6-8.7L386.7,157.3z"/>
	<path d="M298.8,730.7c-1.1-1.4-2.1-2.7-3.2-4.1l-0.6-0.8c0.6-0.6,1.2-1.3,1.7-2c-0.7,0.5-1.4,1-2,1.6l-2.4-2.9
		c-2.2-2.7-4.5-5.3-6.8-7.9c-0.2-0.2-0.4-0.2-0.6-0.1c-0.2,0.1-0.3,0.5-0.2,0.7c0.8,1.3,1.5,2.6,2,4c0.5,1.4,0.9,2.9,0.7,4.3
		c0,0.4-0.1,0.7-0.3,1c-0.1,0.3-0.4,0.6-0.6,0.8c-0.5,0.5-1.2,0.8-1.9,0.6c-0.6-0.2-1.2-0.9-1.1-1.6c0.1-0.7,0.9-1.2,1.6-1.3
		c-0.4,0-0.8,0.1-1.1,0.3c-0.3,0.2-0.6,0.5-0.7,1c-0.2,0.8,0.3,1.7,1.1,2.1c0.8,0.4,1.8,0,2.4-0.6c0.3-0.3,0.6-0.6,0.8-1
		c0.2-0.4,0.3-0.8,0.4-1.2c0.3-1.7-0.1-3.3-0.6-4.8c-0.1-0.2-0.2-0.5-0.3-0.7c1.4,1.6,2.9,3.2,4.3,4.8l2.5,2.8
		c-0.7,0.7-1.3,1.3-1.9,2.1c0.8-0.5,1.5-1.1,2.2-1.8l0.7,0.7C296.4,728.2,297.6,729.5,298.8,730.7z"/>
	<path d="M330.9,723.5c-0.4-0.2-0.7-0.3-1.1-0.3c0.7,0.1,1.5,0.6,1.6,1.3c0.1,0.7-0.4,1.4-1.1,1.6c-0.7,0.2-1.3-0.1-1.9-0.6
		c-0.2-0.2-0.5-0.5-0.6-0.8c-0.1-0.3-0.2-0.6-0.3-1c-0.2-1.4,0.2-2.9,0.7-4.3c0.5-1.4,1.2-2.8,2-4c0.1-0.2,0.1-0.5-0.1-0.6
		c-0.2-0.2-0.5-0.2-0.7,0.1c-2.3,2.6-4.5,5.2-6.8,7.9l-2.6,3.2c-0.6-0.6-1.2-1.2-1.9-1.7c0.5,0.7,1,1.4,1.6,2l-0.4,0.5
		c-1.1,1.4-2.2,2.7-3.2,4.1c1.2-1.2,2.4-2.5,3.6-3.7l0.4-0.4c0.7,0.7,1.4,1.3,2.2,1.9c-0.5-0.8-1.2-1.6-1.8-2.3l2.8-3.1
		c1.5-1.6,2.9-3.2,4.3-4.8c-0.1,0.2-0.2,0.5-0.3,0.7c-0.5,1.5-0.9,3.1-0.6,4.8c0.1,0.4,0.2,0.8,0.4,1.2c0.2,0.4,0.5,0.7,0.8,1
		c0.6,0.5,1.6,0.9,2.4,0.6c0.8-0.3,1.3-1.2,1.1-2.1C331.5,724,331.2,723.7,330.9,723.5z"/>
	<path d="M307.5,751.3l11.9-20.6h-23.8L307.5,751.3z M306.9,731.6l0.6-0.6l0.6,0.7c1.1,1.2,2,2.6,2.6,4.1c0.6,1.5,0.9,3.1,0.9,4.8
		c-0.1,1.6-0.4,3.2-1.1,4.6c-0.7,1.4-1.7,2.7-3,3.6c-1.3-1-2.2-2.3-2.9-3.7c-0.7-1.4-1.1-3-1.2-4.6c-0.1-1.6,0.2-3.3,0.8-4.8
		C304.8,734.2,305.7,732.8,306.9,731.6z"/>
	<path d="M307.5,747.3c0.7-0.7,1.2-1.5,1.6-2.4c0.4-0.9,0.5-1.9,0.5-2.8c0-1.9-0.8-3.8-2.1-5.2c-1.4,1.3-2.2,3.2-2.1,5.2
		c0,1,0.2,1.9,0.6,2.8C306.3,745.8,306.9,746.6,307.5,747.3z M307.5,738.5c0.4,1.3,0.5,2.6,0.5,3.9c0,1.3-0.1,2.6-0.5,3.9
		c-0.4-1.3-0.5-2.6-0.5-3.9C307.1,741.1,307.1,739.8,307.5,738.5z"/>
	<path d="M307.5,748.6c1-1,1.9-2.3,2.5-3.7c0.6-1.4,0.8-2.9,0.8-4.4c0-3-1.3-5.9-3.3-8.1c-2.1,2.1-3.4,5.1-3.3,8.1
		c0,1.5,0.3,3,0.9,4.4C305.7,746.3,306.6,747.6,307.5,748.6z M307.2,736.5l0.3-0.3l0.3,0.3c1.4,1.5,2.3,3.5,2.2,5.6
		c0,1-0.3,2-0.7,2.9c-0.5,0.9-1.1,1.7-1.8,2.3c-0.8-0.7-1.4-1.5-1.8-2.4c-0.4-0.9-0.7-1.9-0.7-2.9
		C304.9,740,305.7,737.9,307.2,736.5z"/>
	<path d="M290.2,69.1l0.5-2.4c1.3-6,6.7-10.2,12.8-10.2c-0.3,1.1-0.5,2.1-0.7,3.2c-0.2,1.2-0.2,2.5-0.3,3.7c0,0.4,0,0.7,0,1.1
		c-0.2,0-0.5,0.1-0.7,0.1c-0.5,0.2-1.1,0.4-1.6,0.8c0.5,0.4,1.1,0.6,1.6,0.8c0.3,0.1,0.6,0.1,0.8,0.2c0,0.2,0,0.5,0.1,0.7
		c0.1,1.2,0.3,2.5,0.7,3.7c0.4-1.2,0.7-2.4,0.8-3.7c0-0.2,0-0.5,0.1-0.7c0.3,0,0.5-0.1,0.8-0.1c0.5-0.2,1.1-0.4,1.6-0.8
		c-0.5-0.4-1.1-0.6-1.6-0.8c-0.2-0.1-0.4-0.1-0.6-0.1c0-0.4,0-0.7,0-1.1c0-1.2,0-2.5-0.2-3.7c-0.1-1.1-0.3-2.1-0.6-3.2
		c6.1,0.2,11.3,4.6,12.4,10.6l0.4,2.4l0.5-2.4c0.2-0.9,0.3-1.9,0.3-2.8c0.1-7.7-6-14.1-13.7-14.3c-3.7-0.1-7.3,1.3-10,3.9
		c-2.7,2.6-4.2,6.1-4.3,9.8c0,0.9,0.1,1.9,0.2,2.8L290.2,69.1z M290.5,63.9c0.1-3.5,1.5-6.7,4-9.1c2.5-2.4,5.8-3.7,9.3-3.6
		c7.2,0.1,12.9,6.1,12.8,13.3c0,0.1,0,0.1,0,0.2c-2-5.3-7.1-8.9-12.8-9c-0.1,0-0.2,0-0.3,0c-5.7,0-10.8,3.5-12.9,8.6
		C290.5,64.1,290.5,64,290.5,63.9z"/>
	<path d="M172.5,287.5c0.2,0.1,0.3,0.1,0.5,0.1c0.4,0,0.8-0.2,1.1-0.5l1.5,0.4c-0.4,1.2-0.7,2.4-1.1,3.6c-0.7-0.2-1.4-0.3-2.2-0.2
		c0.7,0.6,1.6,1,2.4,1.2c0.9,0.2,1.7,0.4,2.7,0.3c-0.6-0.5-1.3-0.8-2-1.1c0.4-1.2,0.7-2.4,1.1-3.6l1.4,0.4c-0.1,0.5-0.1,1,0,1.5
		c0.6-0.5,0.8-1.1,1-1.7c0.2-0.6,0.3-1.3,0.1-2c-0.4,0.4-0.7,0.8-0.9,1.2l-1.4-0.4c0.8-2.5,1.5-4.9,2.2-7.4l1.3-4.3
		c0.2,0.4,0.4,0.8,0.7,1.3c0.3,0.5,0.6,1,1,1.4c0.4,0.5,0.9,0.8,1.6,1c0.7,0.1,1.3-0.2,1.8-0.6c0.5-0.4,0.7-1,0.8-1.6
		c0-0.6-0.1-1.2-0.4-1.7c-0.2-0.5-0.6-1-0.9-1.4c0.5,0.9,1,2,0.8,3c-0.1,0.5-0.3,0.9-0.7,1.2c-0.4,0.3-0.8,0.4-1.2,0.3
		c-0.8-0.2-1.4-1.2-1.9-2.1c-0.4-0.7-0.7-1.5-1.1-2.2l2-6.7c0.6-2.1,1.3-4.1,1.7-6.2c0.2-1.1,0.3-2.2,0.4-3.2
		c0.1-1.1,0.1-2.3-0.6-3.3c-0.3-0.5-0.9-0.8-1.5-0.9c-0.6-0.1-1.2,0-1.7,0.2c-1,0.4-1.9,1.2-2.4,2.2c-0.5,1-0.6,2.2-0.2,3.2
		c0.3,1,1.1,1.9,2,2.4c-1.9-1.1-2.6-3.7-1.6-5.5c0.5-0.9,1.4-1.6,2.3-2c0.5-0.2,1-0.2,1.5-0.1c0.5,0.1,0.9,0.4,1.2,0.8
		c0.5,0.8,0.5,1.9,0.5,3c-0.1,1.1-0.2,2.1-0.5,3.1c-0.5,2-1.3,4.1-1.9,6.1l-1.8,5.9c-0.3-0.4-0.6-0.8-1-1.1c-0.5-0.4-1-0.7-1.6-0.8
		c-1.2-0.3-2.4,0-3.5,0.6c-0.5,0.3-1,0.8-1.1,1.5c-0.1,0.7,0.1,1.3,0.4,1.8c0.3,0.5,0.8,0.9,1.4,1.1c0.6,0.2,1.1,0.1,1.6-0.1
		c-0.5,0.1-1.1,0.1-1.6-0.1c-0.5-0.2-0.8-0.6-1-1c-0.2-0.4-0.3-1-0.2-1.4c0.1-0.4,0.5-0.7,0.9-1c0.9-0.4,1.9-0.6,2.8-0.4
		c0.9,0.2,1.7,0.9,2.2,1.8c0.1,0.1,0.2,0.3,0.3,0.4l-1.6,5.2c-0.8,2.4-1.5,4.9-2.2,7.4l-1.5-0.4c0-0.2-0.1-0.4-0.2-0.6
		c-0.2-0.3-0.5-0.5-0.9-0.7c-0.4-0.1-0.8-0.1-1.1,0c-0.4,0.2-0.7,0.4-0.8,0.8c-0.1,0.4,0,0.8,0.2,1.1
		C171.8,287.1,172.2,287.4,172.5,287.5z M172.4,286c0-0.1,0.1-0.1,0.2-0.2c0.1,0,0.1,0,0.2,0c0.1,0,0.2,0,0.2,0
		c0.2,0,0.3,0.1,0.4,0.3c0,0,0.1,0.1,0.1,0.2c0,0.2-0.3,0.3-0.6,0.2c-0.2,0-0.3-0.1-0.4-0.3C172.4,286.2,172.4,286.1,172.4,286
		L172.4,286z"/>
	<path d="M424.7,278.8c0.7-0.1,1.2-0.5,1.6-1c0.4-0.5,0.7-0.9,1-1.4c0.2-0.4,0.4-0.9,0.7-1.3l1.3,4.3c0.7,2.5,1.5,4.9,2.2,7.4
		l-1.4,0.4c-0.2-0.4-0.4-0.9-0.9-1.2c-0.2,0.7-0.1,1.4,0.1,2c0.2,0.6,0.5,1.2,1,1.7c0.1-0.5,0.1-1,0-1.5l1.4-0.4
		c0.4,1.2,0.7,2.4,1.1,3.6c-0.7,0.2-1.4,0.6-2,1.1c1,0.1,1.8,0,2.7-0.3c0.8-0.3,1.7-0.6,2.4-1.2c-0.8-0.1-1.5,0-2.2,0.2
		c-0.4-1.2-0.7-2.4-1.1-3.6l1.5-0.4c0.3,0.3,0.7,0.5,1.1,0.5c0.2,0,0.3,0,0.5-0.1c0.8-0.2,1.3-1,1.1-1.7c-0.1-0.4-0.4-0.7-0.8-0.8
		c-0.3-0.1-0.7-0.2-1.1,0c-0.6,0.2-1.1,0.7-1.1,1.2l-1.5,0.4c-0.7-2.5-1.5-4.9-2.2-7.4l-1.6-5.2c0.1-0.2,0.2-0.3,0.3-0.4
		c0.5-0.9,1.3-1.5,2.2-1.8c0.9-0.3,2-0.1,2.8,0.4c0.4,0.2,0.8,0.6,0.9,1c0.1,0.4,0,0.9-0.2,1.4c-0.2,0.4-0.6,0.8-1,1
		c-0.5,0.2-1,0.2-1.6,0.1c0.5,0.2,1.1,0.3,1.6,0.1c0.6-0.1,1.1-0.5,1.4-1.1c0.3-0.5,0.5-1.1,0.4-1.8c-0.2-0.7-0.6-1.1-1.1-1.5
		c-1-0.6-2.2-0.9-3.5-0.6c-0.6,0.1-1.2,0.4-1.6,0.8c-0.4,0.3-0.7,0.7-1,1.1l-1.8-5.9c-0.6-2.1-1.4-4.1-1.9-6.1
		c-0.2-1-0.4-2.1-0.5-3.1c-0.1-1-0.1-2.1,0.5-3c0.3-0.4,0.7-0.7,1.2-0.8c0.5-0.1,1,0,1.5,0.1c1,0.4,1.8,1,2.3,2
		c1,1.8,0.3,4.4-1.6,5.5c1-0.5,1.7-1.4,2-2.4c0.3-1,0.3-2.2-0.2-3.2c-0.5-1-1.4-1.8-2.4-2.2c-0.5-0.2-1.1-0.3-1.7-0.2
		c-0.6,0.1-1.1,0.4-1.5,0.9c-0.7,1-0.7,2.2-0.6,3.3c0.1,1.1,0.2,2.2,0.4,3.2c0.5,2.1,1.2,4.2,1.7,6.2l2,6.7
		c-0.4,0.7-0.7,1.5-1.1,2.2c-0.5,0.9-1,1.9-1.9,2.1c-0.4,0.1-0.9,0-1.2-0.3c-0.4-0.3-0.6-0.7-0.7-1.2c-0.2-1,0.3-2.1,0.8-3
		c-0.3,0.4-0.7,0.9-0.9,1.4c-0.2,0.5-0.4,1.1-0.4,1.7c0,0.6,0.3,1.2,0.8,1.6C423.4,278.6,424,278.9,424.7,278.8z M435.2,285.8
		c0.1,0,0.2,0,0.2,0c0.1,0,0.2,0,0.2,0c0.1,0,0.2,0.1,0.2,0.2c0,0.2-0.1,0.4-0.4,0.5c-0.3,0.1-0.6,0-0.6-0.2
		C434.7,286.2,434.9,285.9,435.2,285.8z"/>
	<path d="M335.4,99.7c4.2,0,7.6-3.4,7.6-7.6s-3.4-7.6-7.6-7.6c-4.2,0-7.6,3.4-7.6,7.6S331.2,99.7,335.4,99.7z M335.4,88.1
		c2.2,0,4,1.8,4,4s-1.8,4-4,4c-2.2,0-4-1.8-4-4S333.2,88.1,335.4,88.1z"/>
	<path d="M443.3,397.8c0,2.1,1.7,3.8,3.8,3.8s3.8-1.7,3.8-3.8s-1.7-3.8-3.8-3.8S443.3,395.7,443.3,397.8z M449.1,397.8
		c0,1.1-0.9,2-2,2s-2-0.9-2-2c0-1.1,0.9-2,2-2S449.1,396.7,449.1,397.8z"/>
	<path d="M164.3,394c-2.1,0-3.8,1.7-3.8,3.8s1.7,3.8,3.8,3.8c2.1,0,3.8-1.7,3.8-3.8S166.4,394,164.3,394z M164.3,399.8
		c-1.1,0-2-0.9-2-2c0-1.1,0.9-2,2-2c1.1,0,2,0.9,2,2C166.3,398.9,165.4,399.8,164.3,399.8z"/>
	<path d="M271,99.7c4.2,0,7.6-3.4,7.6-7.6s-3.4-7.6-7.6-7.6c-4.2,0-7.6,3.4-7.6,7.6S266.8,99.7,271,99.7z M271,88.1c2.2,0,4,1.8,4,4
		s-1.8,4-4,4c-2.2,0-4-1.8-4-4S268.8,88.1,271,88.1z"/>
	<path d="M350.1,684.9c-4.2,0-7.6,3.4-7.6,7.6s3.4,7.6,7.6,7.6c4.2,0,7.6-3.4,7.6-7.6S354.3,684.9,350.1,684.9z M350.1,696.4
		c-2.2,0-4-1.8-4-4s1.8-4,4-4c2.2,0,4,1.8,4,4S352.2,696.4,350.1,696.4z"/>
	<path d="M265.3,684.9c-4.2,0-7.6,3.4-7.6,7.6s3.4,7.6,7.6,7.6c4.2,0,7.6-3.4,7.6-7.6S269.5,684.9,265.3,684.9z M265.3,696.4
		c-2.2,0-4-1.8-4-4s1.8-4,4-4c2.2,0,4,1.8,4,4S267.5,696.4,265.3,696.4z"/>
	<path d="M421.2,199.8c-26.6-64.6-65.5-122.5-115.5-172.1l-1.8-1.8l-1.8,1.8c-49.5,49.9-87.7,107.9-113.5,172.6
		c-25,62.5-37.4,128.4-37,196c0.4,67.6,13.6,133.5,39.3,195.9c26.6,64.6,65.5,122.5,115.5,172.1l1.8,1.8l1.8-1.8
		c49.5-49.9,87.7-107.9,113.5-172.6c25-62.5,37.4-128.4,37-196C460.1,328.1,446.8,262.2,421.2,199.8z M308.1,759
		c-199.9-200.3-201.8-524.9-4.2-726C503.9,233.3,505.7,557.9,308.1,759z"/>
	<path d="M438.9,406.2c-0.4-58.8-11.9-116.4-34.2-171.3C381.6,178,347.8,126.6,304.3,82.1l-0.7-0.7l-0.7,0.7
		c-43,42-76.2,91.5-98.6,147c-21.7,53.6-32.5,110.6-32.1,169.4c0.4,58.8,11.9,116.4,34.2,171.3c23.1,56.8,56.9,108.2,100.4,152.7
		l0.7,0.7l0.7-0.7c43-42,76.2-91.5,98.6-147C428.5,522,439.3,465,438.9,406.2z M303.5,237.4c7.2,0,14-1.4,20.3-3.9
		c-5.2,8.9-11.4,17-18.7,24.3c-6.7-6.9-12.6-14.6-17.5-22.7C292.6,236.5,297.9,237.4,303.5,237.4z M303.5,233.4
		c-27.8,0-50.4-22.6-50.4-50.4s22.6-50.4,50.4-50.4c27.8,0,50.4,22.6,50.4,50.4S331.3,233.4,303.5,233.4z M303.6,89.4
		c0.8,0.8,1.5,1.7,2.2,2.6c1.6,2.6,2.5,5.6,2.5,8.7c0,2.2-0.4,4.3-1.2,6.3c-0.8,2-2.1,3.8-3.6,5.3c-1.4-1.5-2.7-3.4-3.5-5.4
		c-0.8-2-1.3-4.2-1.3-6.3c0-2.9,0.8-5.9,2.3-8.4C301.9,91.3,302.7,90.3,303.6,89.4z M299.6,107.2c1,2,2.3,3.8,4,5.3
		c1.8-1.4,3.1-3.2,4.1-5.2c0.9-2,1.5-4.3,1.5-6.5c0.1-1.4-0.1-2.8-0.4-4.1c0.3,0.6,0.6,1.2,0.8,1.8c1.4,3.4,2.1,7,2.2,10.7
		c0,3.7-0.7,7.3-2.1,10.7c-1.4,3.3-3.4,6.3-5.9,8.8c-0.1,0-0.1,0-0.2,0c0,0-0.1,0-0.1,0c-2.4-2.6-4.4-5.6-5.8-8.9
		c-1.4-3.4-2.1-7-2.1-10.7c0-3.7,0.7-7.3,2.1-10.7c0.2-0.6,0.5-1.2,0.8-1.8c-0.3,1.3-0.5,2.7-0.4,4.1
		C298.1,102.9,298.6,105.2,299.6,107.2z M303.8,128.6c2.6-2.4,4.8-5.4,6.3-8.6c1.5-3.4,2.3-7.1,2.4-10.9c0.1-3.8-0.7-7.5-2.1-11
		c-1-2.4-2.3-4.7-3.8-6.7c-0.7-1.1-1.4-2.1-2.3-3l-0.6-0.7l-0.6,0.6c-1,1-1.8,2.1-2.5,3.3c-1.5,2-2.8,4.1-3.7,6.4
		c-1.4,3.5-2.2,7.3-2,11c0.1,3.8,0.9,7.5,2.4,10.9c1.5,3.3,3.6,6.2,6.2,8.7c-11.2,0-21.6,3.5-30.3,9.4c5.4-20.3,16-38.7,30.8-53.5
		c14.8,15.4,25.5,34.1,31.3,54.3C326.3,132.4,315.5,128.7,303.8,128.6z M280.9,539.6l4.3-3.1l7,21.4h-2.7L280.9,539.6z M286.1,557.9
		h-30.4l22.8-16.5L286.1,557.9z M275.5,497l12,8.7h-9.2L275.5,497z M291.6,508.7l13.4,9.7l-18.2,13.2l-7.5-22.9H291.6z M336.7,505.7
		h-9.2l12-8.7L336.7,505.7z M335.8,508.7l-7.5,22.9l-18.2-13.2l13.4-9.7H335.8z M325.7,557.9h-2.7l7-21.4l4.3,3.1L325.7,557.9z
		 M336.6,541.4l22.8,16.5H329L336.6,541.4z M308.5,560.9h10.3l-10.3,31.6V560.9z M308.5,557.9v-12.8c3.3-0.5,5.9-3.3,5.9-6.8
		c0-3.8-3.1-6.9-6.9-6.9c-3.8,0-6.9,3.1-6.9,6.9c0,3.4,2.6,6.3,5.9,6.8v12.8h-11.2l-7.6-23.3l19.8-14.4l19.8,14.4l-7.6,23.3H308.5z
		 M307.5,543.2c-2.7,0-4.9-2.2-4.9-4.9c0-2.7,2.2-4.9,4.9-4.9c2.7,0,4.9,2.2,4.9,4.9C312.4,541,310.2,543.2,307.5,543.2z
		 M306.5,560.9v31.6l-10.3-31.6H306.5z M322,560.9h2.3l-7.7,16.6L322,560.9z M330.9,533.5l8.1-24.8h9.6l-13,28.1L330.9,533.5z
		 M307.5,516.5l-10.8-7.8h21.6L307.5,516.5z M284.2,533.5l-4.6,3.3l-13-28.1h9.6L284.2,533.5z M293.1,560.9l5.4,16.6l-7.7-16.6
		H293.1z M307.5,671c2.7,0,4.9,2.2,4.9,4.9c0,2.7-2.2,4.9-4.9,4.9c-2.7,0-4.9-2.2-4.9-4.9C302.7,673.2,304.9,671,307.5,671z
		 M307.5,687.2c2.2,2.3,4,5,5.2,7.9c1.2,3,1.9,6.2,1.9,9.4c0,3.2-0.6,6.4-1.8,9.4c-0.3,0.7-0.6,1.4-1,2.1c0.7-1.8,1.2-3.8,1.2-5.8
		c0.1-2.3-0.4-4.6-1.2-6.7c-0.8-2.1-2.1-4.1-3.7-5.7l-0.6-0.7l-0.6,0.6c-1.6,1.6-2.9,3.6-3.8,5.7c-0.8,2.1-1.3,4.4-1.2,6.7
		c0.1,1.9,0.5,3.7,1.1,5.5c-0.3-0.6-0.6-1.2-0.8-1.8c-1.2-3-1.9-6.2-1.9-9.4c0-3.2,0.6-6.4,1.9-9.4
		C303.4,692.1,305.3,689.4,307.5,687.2z M307.5,720.4c-1.1-1.1-2.1-2.2-3.2-3.3c-0.1-0.2-0.2-0.5-0.3-0.7c-0.8-2-1.3-4.2-1.3-6.3
		c0-4.3,1.7-8.6,4.8-11.6c3,3.1,4.8,7.3,4.8,11.6c0,2.2-0.4,4.3-1.2,6.3c-0.1,0.3-0.3,0.5-0.4,0.8
		C309.6,718.3,308.6,719.4,307.5,720.4z M313.6,694.8c-1.2-3.1-3.1-5.9-5.4-8.3l-0.6-0.7l-0.6,0.6c-2.4,2.4-4.3,5.2-5.5,8.3
		c-1.2,3.1-1.9,6.4-1.8,9.7c0,0.3,0,0.5,0,0.8c-0.1-1-0.2-2-0.2-3c0-3.6,0.7-7.2,2.1-10.6c1.4-3.3,3.4-6.3,6-8.8
		c2.5,2.6,4.5,5.6,5.9,8.9c1.4,3.3,2.1,7,2.1,10.6c0,1.1-0.1,2.3-0.2,3.4c0-0.4,0-0.8,0.1-1.2C315.5,701.2,314.8,697.8,313.6,694.8z
		 M313.1,714.9c0.3-0.6,0.6-1.2,0.9-1.8c1.5-3.4,2.3-7.1,2.4-10.8c0.1-3.7-0.7-7.5-2.1-10.9c-1.3-3.2-3.2-6.2-5.5-8.8
		c3.2-0.6,5.7-3.4,5.7-6.8c0-3.4-2.6-6.3-5.9-6.8v-25.3l13.2,12.2l0,0c0.2,0.2,0.6,0.3,0.9,0c0.3-0.2,0.4-0.7,0.1-1
		c-0.9-1.2-1.8-2.5-2.4-3.8c-0.6-1.3-1.2-2.8-1.1-4.3c0-0.4,0.1-0.7,0.2-1c0.1-0.3,0.4-0.6,0.6-0.9c0.5-0.5,1.2-0.9,1.9-0.7
		c0.7,0.2,1.2,0.9,1.2,1.6c-0.1,0.8-0.8,1.3-1.6,1.4c0.4-0.1,0.8-0.2,1.1-0.4c0.3-0.2,0.6-0.6,0.6-1c0.1-0.8-0.4-1.7-1.3-1.9
		c-0.8-0.3-1.8,0.1-2.3,0.7c-0.3,0.3-0.5,0.6-0.8,1c-0.2,0.4-0.3,0.8-0.3,1.2c-0.2,1.5,0.2,2.9,0.7,4.3l-9.4-10.2h26.3v23.2
		c-2.7,0.5-4.8,2.8-4.8,5.7c0,3.2,2.6,5.8,5.8,5.8s5.8-2.6,5.8-5.8c0-2.8-2.1-5.2-4.8-5.7v-23.2v-2h-2h-25.2l52.8-53.3
		c0.9,0.7,2.1,1.1,3.3,1.1c3.2,0,5.8-2.6,5.8-5.8s-2.6-5.8-5.8-5.8s-5.8,2.6-5.8,5.8c0,1.2,0.4,2.4,1,3.3l-53.7,54.2v-33.3
		c6.1,0.5,11.1,5.1,12.2,11c0.2-0.9,0.3-1.8,0.3-2.7c0.1-6.9-5-12.7-11.6-13.6l18.2-39.1H364c0.6,0,1.2-0.4,1.4-1
		c0.2-0.6,0-1.3-0.5-1.7l-27-19.6l12.9-27.8c4.5,4.7,11.9,5.7,17.4,1.9c0.8-0.5,1.5-1.1,2.1-1.7c-5.8,2.4-12.7,0.6-16.4-4.8
		c-3.7-5.4-2.9-12.5,1.5-17c-0.8,0.3-1.6,0.8-2.4,1.3c-5.1,3.5-7,9.7-5.2,15.3h-7.8l4-12.2c0.2-0.6,0-1.3-0.5-1.7
		c-0.5-0.4-1.2-0.4-1.8,0l-19.1,13.9h-29.9l-19.1-13.9c-0.5-0.4-1.2-0.4-1.8,0c-0.5,0.4-0.7,1.1-0.5,1.7l4,12.2h-7.7
		c1.8-5.6-0.2-11.8-5.2-15.3c-0.8-0.5-1.6-1-2.4-1.3c4.4,4.5,5.1,11.6,1.5,17c-3.7,5.4-10.6,7.3-16.4,4.8c0.6,0.6,1.3,1.2,2.1,1.7
		c5.5,3.8,12.9,2.9,17.3-1.8l12.8,27.7l-27,19.6c-0.5,0.4-0.7,1.1-0.5,1.7c0.2,0.6,0.8,1,1.4,1h36.4l18.2,39.1
		c-6.5,0.9-11.5,6.4-11.6,13.1c0,0.9,0.1,1.8,0.2,2.7c1.3-5.8,6.3-10.1,12.3-10.5v33.3l-53.6-54.1c0.7-0.9,1.1-2.1,1.1-3.4
		c0-3.2-2.6-5.8-5.8-5.8c-3.2,0-5.8,2.6-5.8,5.8s2.6,5.8,5.8,5.8c1.2,0,2.3-0.4,3.3-1l52.7,53.2h-25.8h-2v2v23.2
		c-2.7,0.5-4.8,2.8-4.8,5.7c0,3.2,2.6,5.8,5.8,5.8s5.8-2.6,5.8-5.8c0-2.8-2.1-5.2-4.8-5.7v-23.2h26.8l-9.4,10.2
		c0.5-1.4,0.8-2.8,0.7-4.3c0-0.4-0.2-0.8-0.3-1.2c-0.2-0.4-0.5-0.7-0.8-1c-0.6-0.6-1.5-1-2.3-0.7c-0.8,0.3-1.4,1.1-1.3,1.9
		c0.1,0.4,0.3,0.8,0.6,1c0.3,0.2,0.7,0.3,1.1,0.4c-0.7-0.2-1.5-0.7-1.6-1.4c-0.1-0.7,0.5-1.4,1.2-1.6c0.7-0.2,1.4,0.2,1.9,0.7
		c0.2,0.3,0.5,0.6,0.6,0.9c0.1,0.3,0.2,0.7,0.2,1c0.1,1.5-0.5,2.9-1.1,4.3c-0.7,1.3-1.5,2.6-2.4,3.8c-0.2,0.3-0.2,0.7,0,0.9
		c0.3,0.3,0.7,0.3,1,0l0,0l13.2-12.2v25.3c-3.3,0.5-5.9,3.3-5.9,6.8c0,3.4,2.4,6.2,5.6,6.7c-2.4,2.5-4.3,5.5-5.6,8.7
		c-1.4,3.5-2.2,7.2-2,10.9c0.1,3.7,0.9,7.4,2.4,10.8c0.3,0.6,0.5,1.1,0.8,1.6C136.8,539.2,131.9,270,288.3,100
		c-8.3,12-14.3,25.4-17.8,39.8c-13,9.9-21.4,25.6-21.4,43.2c0,23.3,14.8,43.3,35.5,51c5.5,9.3,12.1,18,19.7,25.9l0.3,0.3
		c-1.3,0-2.6,0-3.8,0c-2.4,0.2-4.8,0.4-7.2,0.7c-28.6,3.2-52.7,15.3-72.2,36.4c-14.6,15.7-23.9,34.2-28,55.2c-1,5.2-1.4,10.5-2,15.8
		c-0.1,0.6-0.1,1.1-0.2,1.7c0,3.2,0,6.4,0,9.6c0.2,2.3,0.4,4.6,0.6,6.9c3.9,33.8,19.5,60.8,46.9,81c17.1,12.6,36.4,19.5,57.5,21.3
		c1.6,0.1,3.1,0.3,4.7,0.4c3.2,0,6.4,0,9.6,0c2.4-0.2,4.8-0.4,7.2-0.7c28.6-3.2,52.7-15.3,72.2-36.3c14.6-15.7,23.9-34.2,28-55.2
		c1-5.2,1.4-10.5,2-15.7c0.1-0.5,0.1-1,0.2-1.5c0-3.4,0-6.7,0-10.1c-0.1-1.4-0.3-2.9-0.4-4.3c-3.3-34.8-19-62.6-47-83.3
		c-15.5-11.5-33.1-18.2-52.2-20.8c-2.8-0.4-5.6-0.5-8.4-0.8c-0.5,0-1.1-0.1-1.6-0.2c-1.6,0-3.3,0-4.9,0l0.3-0.3
		c8.4-8.2,15.5-17.5,21.1-27.7c18.4-8.7,31.1-27.5,31.1-49.1c0-17-7.9-32.3-20.2-42.2c-3.4-13.2-9-25.7-16.3-37.2
		c74,84.8,114.9,191.3,115.6,302.7C437.7,523.5,393.7,632.8,313.1,714.9z M337.1,666.2c2.1,0,3.8,1.7,3.8,3.8s-1.7,3.8-3.8,3.8
		s-3.8-1.7-3.8-3.8S335,666.2,337.1,666.2z M363.2,581.1c0-2.1,1.7-3.8,3.8-3.8c2.1,0,3.8,1.7,3.8,3.8s-1.7,3.8-3.8,3.8
		C364.9,584.9,363.2,583.2,363.2,581.1z M248.2,584.9c-2.1,0-3.8-1.7-3.8-3.8s1.7-3.8,3.8-3.8c2.1,0,3.8,1.7,3.8,3.8
		S250.3,584.9,248.2,584.9z M277.4,666.2c2.1,0,3.8,1.7,3.8,3.8s-1.7,3.8-3.8,3.8s-3.8-1.7-3.8-3.8S275.4,666.2,277.4,666.2z
		 M305.6,265c60.5,0,109.5,49.1,109.6,109.6c0,60.6-49,109.7-109.6,109.7c-60.6,0-109.7-49.1-109.7-109.7
		C195.9,314,245,264.9,305.6,265z"/>
</g>
</svg>
