<?xml version="1.0" encoding="utf-8"?>
<!-- Generator: Adobe Illustrator 23.0.3, SVG Export Plug-In . SVG Version: 6.00 Build 0)  -->
<svg version="1.1" id="Layer_1" xmlns="http://www.w3.org/2000/svg" xmlns:xlink="http://www.w3.org/1999/xlink" x="0px" y="0px"
	 viewBox="0 0 512 512" style="enable-background:new 0 0 512 512;" xml:space="preserve">
<style type="text/css">
	.st0{fill:none;stroke:#A7A9AC;stroke-width:0.2763;stroke-miterlimit:10;}
	.st1{fill:#FFFFFF;}
</style>
<g>
	<g>
		<line class="st0" x1="256" y1="46" x2="256" y2="87.2"/>
		<line class="st0" x1="252" y1="46" x2="252.8" y2="87.2"/>
		<line class="st0" x1="248.1" y1="46.1" x2="249.6" y2="87.3"/>
		<line class="st0" x1="244.1" y1="46.3" x2="246.4" y2="87.5"/>
		<line class="st0" x1="240.2" y1="46.6" x2="243.3" y2="87.7"/>
		<line class="st0" x1="236.2" y1="46.9" x2="240.1" y2="87.9"/>
		<line class="st0" x1="232.3" y1="47.3" x2="236.9" y2="88.3"/>
		<line class="st0" x1="228.3" y1="47.8" x2="233.8" y2="88.7"/>
		<line class="st0" x1="224.4" y1="48.4" x2="230.6" y2="89.1"/>
		<line class="st0" x1="220.5" y1="49" x2="227.5" y2="89.6"/>
		<line class="st0" x1="216.6" y1="49.7" x2="224.3" y2="90.2"/>
		<line class="st0" x1="212.7" y1="50.5" x2="221.2" y2="90.8"/>
		<line class="st0" x1="208.9" y1="51.4" x2="218.1" y2="91.5"/>
		<line class="st0" x1="205" y1="52.3" x2="215" y2="92.2"/>
		<line class="st0" x1="201.2" y1="53.3" x2="211.9" y2="93"/>
		<line class="st0" x1="197.4" y1="54.4" x2="208.9" y2="93.9"/>
		<line class="st0" x1="193.6" y1="55.5" x2="205.8" y2="94.8"/>
		<line class="st0" x1="189.8" y1="56.7" x2="202.8" y2="95.8"/>
		<line class="st0" x1="186" y1="58" x2="199.8" y2="96.8"/>
		<line class="st0" x1="182.3" y1="59.4" x2="196.8" y2="97.9"/>
		<line class="st0" x1="178.6" y1="60.8" x2="193.8" y2="99.1"/>
		<line class="st0" x1="175" y1="62.3" x2="190.8" y2="100.3"/>
		<line class="st0" x1="171.3" y1="63.8" x2="187.9" y2="101.5"/>
		<line class="st0" x1="167.7" y1="65.5" x2="185" y2="102.8"/>
		<line class="st0" x1="164.1" y1="67.2" x2="182.1" y2="104.2"/>
		<line class="st0" x1="160.6" y1="68.9" x2="179.3" y2="105.6"/>
		<line class="st0" x1="157.1" y1="70.8" x2="176.5" y2="107.1"/>
		<line class="st0" x1="153.6" y1="72.7" x2="173.7" y2="108.6"/>
		<line class="st0" x1="150.1" y1="74.6" x2="170.9" y2="110.2"/>
		<line class="st0" x1="146.7" y1="76.7" x2="168.2" y2="111.8"/>
		<line class="st0" x1="143.4" y1="78.8" x2="165.5" y2="113.5"/>
		<line class="st0" x1="140.1" y1="80.9" x2="162.8" y2="115.2"/>
		<line class="st0" x1="136.8" y1="83.1" x2="160.2" y2="117"/>
		<line class="st0" x1="133.5" y1="85.4" x2="157.5" y2="118.9"/>
		<line class="st0" x1="130.3" y1="87.8" x2="155" y2="120.7"/>
		<line class="st0" x1="127.2" y1="90.2" x2="152.4" y2="122.7"/>
		<line class="st0" x1="124.1" y1="92.6" x2="149.9" y2="124.7"/>
		<line class="st0" x1="121" y1="95.1" x2="147.5" y2="126.7"/>
		<line class="st0" x1="118" y1="97.7" x2="145.1" y2="128.8"/>
		<line class="st0" x1="115" y1="100.3" x2="142.7" y2="130.9"/>
		<line class="st0" x1="112.1" y1="103" x2="140.3" y2="133"/>
		<line class="st0" x1="109.3" y1="105.8" x2="138" y2="135.2"/>
		<line class="st0" x1="106.5" y1="108.6" x2="135.8" y2="137.5"/>
		<line class="st0" x1="103.7" y1="111.4" x2="133.6" y2="139.8"/>
		<line class="st0" x1="101" y1="114.3" x2="131.4" y2="142.1"/>
		<line class="st0" x1="98.4" y1="117.3" x2="129.3" y2="144.5"/>
		<line class="st0" x1="95.8" y1="120.3" x2="127.2" y2="146.9"/>
		<line class="st0" x1="93.2" y1="123.3" x2="125.2" y2="149.3"/>
		<line class="st0" x1="90.8" y1="126.4" x2="123.2" y2="151.8"/>
		<line class="st0" x1="88.3" y1="129.5" x2="121.2" y2="154.3"/>
		<line class="st0" x1="86" y1="132.7" x2="119.3" y2="156.9"/>
		<line class="st0" x1="83.7" y1="136" x2="117.5" y2="159.5"/>
		<line class="st0" x1="81.5" y1="139.2" x2="115.7" y2="162.1"/>
		<line class="st0" x1="79.3" y1="142.5" x2="113.9" y2="164.8"/>
		<line class="st0" x1="77.2" y1="145.9" x2="112.2" y2="167.5"/>
		<line class="st0" x1="75.1" y1="149.3" x2="110.6" y2="170.2"/>
		<line class="st0" x1="73.2" y1="152.7" x2="109" y2="173"/>
		<line class="st0" x1="71.2" y1="156.2" x2="107.5" y2="175.8"/>
		<line class="st0" x1="69.4" y1="159.7" x2="106" y2="178.6"/>
		<line class="st0" x1="67.6" y1="163.2" x2="104.6" y2="181.4"/>
		<line class="st0" x1="65.9" y1="166.8" x2="103.2" y2="184.3"/>
		<line class="st0" x1="64.2" y1="170.4" x2="101.8" y2="187.2"/>
		<line class="st0" x1="62.7" y1="174" x2="100.6" y2="190.1"/>
		<line class="st0" x1="61.1" y1="177.7" x2="99.4" y2="193.1"/>
		<line class="st0" x1="59.7" y1="181.4" x2="98.2" y2="196"/>
		<line class="st0" x1="58.3" y1="185.1" x2="97.1" y2="199"/>
		<line class="st0" x1="57" y1="188.8" x2="96" y2="202"/>
		<line class="st0" x1="55.8" y1="192.6" x2="95.1" y2="205"/>
		<line class="st0" x1="54.6" y1="196.4" x2="94.1" y2="208.1"/>
		<line class="st0" x1="53.5" y1="200.2" x2="93.3" y2="211.2"/>
		<line class="st0" x1="52.5" y1="204" x2="92.4" y2="214.2"/>
		<line class="st0" x1="51.6" y1="207.9" x2="91.7" y2="217.3"/>
		<line class="st0" x1="50.7" y1="211.8" x2="91" y2="220.4"/>
		<line class="st0" x1="49.9" y1="215.6" x2="90.3" y2="223.6"/>
		<line class="st0" x1="49.2" y1="219.5" x2="89.8" y2="226.7"/>
		<line class="st0" x1="48.5" y1="223.4" x2="89.2" y2="229.8"/>
		<line class="st0" x1="48" y1="227.4" x2="88.8" y2="233"/>
		<line class="st0" x1="47.5" y1="231.3" x2="88.4" y2="236.1"/>
		<line class="st0" x1="47" y1="235.2" x2="88" y2="239.3"/>
		<line class="st0" x1="46.7" y1="239.2" x2="87.7" y2="242.5"/>
		<line class="st0" x1="46.4" y1="243.1" x2="87.5" y2="245.7"/>
		<line class="st0" x1="46.2" y1="247.1" x2="87.3" y2="248.8"/>
		<line class="st0" x1="46.1" y1="251" x2="87.2" y2="252"/>
		<line class="st0" x1="46" y1="255" x2="87.2" y2="255.2"/>
		<line class="st0" x1="46" y1="259" x2="87.2" y2="258.4"/>
		<line class="st0" x1="46.1" y1="262.9" x2="87.3" y2="261.6"/>
		<line class="st0" x1="46.3" y1="266.9" x2="87.4" y2="264.8"/>
		<line class="st0" x1="46.5" y1="270.8" x2="87.6" y2="267.9"/>
		<line class="st0" x1="46.8" y1="274.8" x2="87.9" y2="271.1"/>
		<line class="st0" x1="47.2" y1="278.7" x2="88.2" y2="274.3"/>
		<line class="st0" x1="47.7" y1="282.7" x2="88.6" y2="277.4"/>
		<line class="st0" x1="48.2" y1="286.6" x2="89" y2="280.6"/>
		<line class="st0" x1="48.9" y1="290.5" x2="89.5" y2="283.7"/>
		<line class="st0" x1="49.5" y1="294.4" x2="90" y2="286.9"/>
		<line class="st0" x1="50.3" y1="298.3" x2="90.6" y2="290"/>
		<line class="st0" x1="51.1" y1="302.2" x2="91.3" y2="293.1"/>
		<line class="st0" x1="52" y1="306" x2="92" y2="296.2"/>
		<line class="st0" x1="53" y1="309.9" x2="92.8" y2="299.3"/>
		<line class="st0" x1="54.1" y1="313.7" x2="93.7" y2="302.4"/>
		<line class="st0" x1="55.2" y1="317.5" x2="94.6" y2="305.4"/>
		<line class="st0" x1="56.4" y1="321.3" x2="95.5" y2="308.5"/>
		<line class="st0" x1="57.7" y1="325" x2="96.6" y2="311.5"/>
		<line class="st0" x1="59" y1="328.8" x2="97.6" y2="314.5"/>
		<line class="st0" x1="60.4" y1="332.5" x2="98.8" y2="317.5"/>
		<line class="st0" x1="61.9" y1="336.1" x2="100" y2="320.4"/>
		<line class="st0" x1="63.4" y1="339.8" x2="101.2" y2="323.4"/>
		<line class="st0" x1="65.1" y1="343.4" x2="102.5" y2="326.3"/>
		<line class="st0" x1="66.7" y1="347" x2="103.9" y2="329.1"/>
		<line class="st0" x1="68.5" y1="350.5" x2="105.3" y2="332"/>
		<line class="st0" x1="70.3" y1="354.1" x2="106.7" y2="334.8"/>
		<line class="st0" x1="72.2" y1="357.5" x2="108.2" y2="337.6"/>
		<line class="st0" x1="74.1" y1="361" x2="109.8" y2="340.4"/>
		<line class="st0" x1="76.1" y1="364.4" x2="111.4" y2="343.2"/>
		<line class="st0" x1="78.2" y1="367.8" x2="113.1" y2="345.9"/>
		<line class="st0" x1="80.4" y1="371.1" x2="114.8" y2="348.5"/>
		<line class="st0" x1="82.6" y1="374.4" x2="116.6" y2="351.2"/>
		<line class="st0" x1="84.8" y1="377.7" x2="118.4" y2="353.8"/>
		<line class="st0" x1="87.2" y1="380.9" x2="120.3" y2="356.4"/>
		<line class="st0" x1="89.5" y1="384" x2="122.2" y2="358.9"/>
		<line class="st0" x1="92" y1="387.2" x2="124.2" y2="361.4"/>
		<line class="st0" x1="94.5" y1="390.2" x2="126.2" y2="363.9"/>
		<line class="st0" x1="97.1" y1="393.2" x2="128.2" y2="366.3"/>
		<line class="st0" x1="99.7" y1="396.2" x2="130.3" y2="368.7"/>
		<line class="st0" x1="102.3" y1="399.1" x2="132.5" y2="371.1"/>
		<line class="st0" x1="105.1" y1="402" x2="134.7" y2="373.4"/>
		<line class="st0" x1="107.9" y1="404.8" x2="136.9" y2="375.7"/>
		<line class="st0" x1="110.7" y1="407.6" x2="139.2" y2="377.9"/>
		<line class="st0" x1="113.6" y1="410.3" x2="141.5" y2="380.1"/>
		<line class="st0" x1="116.5" y1="413" x2="143.9" y2="382.2"/>
		<line class="st0" x1="119.5" y1="415.6" x2="146.3" y2="384.3"/>
		<line class="st0" x1="122.5" y1="418.1" x2="148.7" y2="386.3"/>
		<line class="st0" x1="125.6" y1="420.6" x2="151.2" y2="388.3"/>
		<line class="st0" x1="128.8" y1="423.1" x2="153.7" y2="390.3"/>
		<line class="st0" x1="131.9" y1="425.4" x2="156.3" y2="392.2"/>
		<line class="st0" x1="135.1" y1="427.7" x2="158.8" y2="394.1"/>
		<line class="st0" x1="138.4" y1="430" x2="161.5" y2="395.9"/>
		<line class="st0" x1="141.7" y1="432.2" x2="164.1" y2="397.6"/>
		<line class="st0" x1="145.1" y1="434.3" x2="166.8" y2="399.3"/>
		<line class="st0" x1="148.4" y1="436.4" x2="169.5" y2="401"/>
		<line class="st0" x1="151.9" y1="438.4" x2="172.3" y2="402.6"/>
		<line class="st0" x1="155.3" y1="440.3" x2="175.1" y2="404.1"/>
		<line class="st0" x1="158.8" y1="442.2" x2="177.9" y2="405.6"/>
		<line class="st0" x1="162.3" y1="444" x2="180.7" y2="407.1"/>
		<line class="st0" x1="165.9" y1="445.7" x2="183.6" y2="408.5"/>
		<line class="st0" x1="169.5" y1="447.4" x2="186.5" y2="409.8"/>
		<line class="st0" x1="173.1" y1="449" x2="189.4" y2="411.1"/>
		<line class="st0" x1="176.8" y1="450.5" x2="192.3" y2="412.3"/>
		<line class="st0" x1="180.5" y1="451.9" x2="195.3" y2="413.5"/>
		<line class="st0" x1="184.2" y1="453.3" x2="198.3" y2="414.6"/>
		<line class="st0" x1="187.9" y1="454.7" x2="201.3" y2="415.7"/>
		<line class="st0" x1="191.7" y1="455.9" x2="204.3" y2="416.7"/>
		<line class="st0" x1="195.5" y1="457.1" x2="207.3" y2="417.6"/>
		<line class="st0" x1="199.3" y1="458.2" x2="210.4" y2="418.5"/>
		<line class="st0" x1="203.1" y1="459.2" x2="213.5" y2="419.4"/>
		<line class="st0" x1="206.9" y1="460.2" x2="216.6" y2="420.1"/>
		<line class="st0" x1="210.8" y1="461.1" x2="219.7" y2="420.9"/>
		<line class="st0" x1="214.7" y1="461.9" x2="222.8" y2="421.5"/>
		<line class="st0" x1="218.6" y1="462.6" x2="225.9" y2="422.1"/>
		<line class="st0" x1="222.5" y1="463.3" x2="229" y2="422.6"/>
		<line class="st0" x1="226.4" y1="463.9" x2="232.2" y2="423.1"/>
		<line class="st0" x1="230.3" y1="464.4" x2="235.3" y2="423.5"/>
		<line class="st0" x1="234.2" y1="464.9" x2="238.5" y2="423.9"/>
		<line class="st0" x1="238.2" y1="465.2" x2="241.7" y2="424.2"/>
		<line class="st0" x1="242.1" y1="465.5" x2="244.9" y2="424.4"/>
		<line class="st0" x1="246.1" y1="465.8" x2="248" y2="424.6"/>
		<line class="st0" x1="250.1" y1="465.9" x2="251.2" y2="424.7"/>
		<line class="st0" x1="254" y1="466" x2="254.4" y2="424.8"/>
		<line class="st0" x1="258" y1="466" x2="257.6" y2="424.8"/>
		<line class="st0" x1="261.9" y1="465.9" x2="260.8" y2="424.7"/>
		<line class="st0" x1="265.9" y1="465.8" x2="264" y2="424.6"/>
		<line class="st0" x1="269.9" y1="465.5" x2="267.1" y2="424.4"/>
		<line class="st0" x1="273.8" y1="465.2" x2="270.3" y2="424.2"/>
		<line class="st0" x1="277.8" y1="464.9" x2="273.5" y2="423.9"/>
		<line class="st0" x1="281.7" y1="464.4" x2="276.7" y2="423.5"/>
		<line class="st0" x1="285.6" y1="463.9" x2="279.8" y2="423.1"/>
		<line class="st0" x1="289.5" y1="463.3" x2="283" y2="422.6"/>
		<line class="st0" x1="293.4" y1="462.6" x2="286.1" y2="422.1"/>
		<line class="st0" x1="297.3" y1="461.9" x2="289.2" y2="421.5"/>
		<line class="st0" x1="301.2" y1="461.1" x2="292.3" y2="420.9"/>
		<line class="st0" x1="305.1" y1="460.2" x2="295.4" y2="420.1"/>
		<line class="st0" x1="308.9" y1="459.2" x2="298.5" y2="419.4"/>
		<line class="st0" x1="312.7" y1="458.2" x2="301.6" y2="418.5"/>
		<line class="st0" x1="316.5" y1="457.1" x2="304.7" y2="417.6"/>
		<line class="st0" x1="320.3" y1="455.9" x2="307.7" y2="416.7"/>
		<line class="st0" x1="324.1" y1="454.7" x2="310.7" y2="415.7"/>
		<line class="st0" x1="327.8" y1="453.3" x2="313.7" y2="414.6"/>
		<line class="st0" x1="331.5" y1="451.9" x2="316.7" y2="413.5"/>
		<line class="st0" x1="335.2" y1="450.5" x2="319.7" y2="412.3"/>
		<line class="st0" x1="338.9" y1="449" x2="322.6" y2="411.1"/>
		<line class="st0" x1="342.5" y1="447.4" x2="325.5" y2="409.8"/>
		<line class="st0" x1="346.1" y1="445.7" x2="328.4" y2="408.5"/>
		<line class="st0" x1="349.7" y1="444" x2="331.3" y2="407.1"/>
		<line class="st0" x1="353.2" y1="442.2" x2="334.1" y2="405.6"/>
		<line class="st0" x1="356.7" y1="440.3" x2="336.9" y2="404.1"/>
		<line class="st0" x1="360.1" y1="438.4" x2="339.7" y2="402.6"/>
		<line class="st0" x1="363.6" y1="436.4" x2="342.5" y2="401"/>
		<line class="st0" x1="366.9" y1="434.3" x2="345.2" y2="399.3"/>
		<line class="st0" x1="370.3" y1="432.2" x2="347.9" y2="397.6"/>
		<line class="st0" x1="373.6" y1="430" x2="350.5" y2="395.9"/>
		<line class="st0" x1="376.9" y1="427.7" x2="353.2" y2="394.1"/>
		<line class="st0" x1="380.1" y1="425.4" x2="355.7" y2="392.2"/>
		<line class="st0" x1="383.2" y1="423.1" x2="358.3" y2="390.3"/>
		<line class="st0" x1="386.4" y1="420.6" x2="360.8" y2="388.3"/>
		<line class="st0" x1="389.5" y1="418.1" x2="363.3" y2="386.3"/>
		<line class="st0" x1="392.5" y1="415.6" x2="365.7" y2="384.3"/>
		<line class="st0" x1="395.5" y1="413" x2="368.1" y2="382.2"/>
		<line class="st0" x1="398.4" y1="410.3" x2="370.5" y2="380.1"/>
		<line class="st0" x1="401.3" y1="407.6" x2="372.8" y2="377.9"/>
		<line class="st0" x1="404.1" y1="404.8" x2="375.1" y2="375.7"/>
		<line class="st0" x1="406.9" y1="402" x2="377.3" y2="373.4"/>
		<line class="st0" x1="409.7" y1="399.1" x2="379.5" y2="371.1"/>
		<line class="st0" x1="412.3" y1="396.2" x2="381.7" y2="368.7"/>
		<line class="st0" x1="414.9" y1="393.2" x2="383.8" y2="366.3"/>
		<line class="st0" x1="417.5" y1="390.2" x2="385.8" y2="363.9"/>
		<line class="st0" x1="420" y1="387.2" x2="387.8" y2="361.4"/>
		<line class="st0" x1="422.5" y1="384" x2="389.8" y2="358.9"/>
		<line class="st0" x1="424.8" y1="380.9" x2="391.7" y2="356.4"/>
		<line class="st0" x1="427.2" y1="377.7" x2="393.6" y2="353.8"/>
		<line class="st0" x1="429.4" y1="374.4" x2="395.4" y2="351.2"/>
		<line class="st0" x1="431.6" y1="371.1" x2="397.2" y2="348.5"/>
		<line class="st0" x1="433.8" y1="367.8" x2="398.9" y2="345.9"/>
		<line class="st0" x1="435.9" y1="364.4" x2="400.6" y2="343.2"/>
		<line class="st0" x1="437.9" y1="361" x2="402.2" y2="340.4"/>
		<line class="st0" x1="439.8" y1="357.5" x2="403.8" y2="337.6"/>
		<line class="st0" x1="441.7" y1="354.1" x2="405.3" y2="334.8"/>
		<line class="st0" x1="443.5" y1="350.5" x2="406.7" y2="332"/>
		<line class="st0" x1="445.3" y1="347" x2="408.1" y2="329.1"/>
		<line class="st0" x1="446.9" y1="343.4" x2="409.5" y2="326.3"/>
		<line class="st0" x1="448.6" y1="339.8" x2="410.8" y2="323.4"/>
		<line class="st0" x1="450.1" y1="336.1" x2="412" y2="320.4"/>
		<line class="st0" x1="451.6" y1="332.5" x2="413.2" y2="317.5"/>
		<line class="st0" x1="453" y1="328.8" x2="414.4" y2="314.5"/>
		<line class="st0" x1="454.3" y1="325" x2="415.4" y2="311.5"/>
		<line class="st0" x1="455.6" y1="321.3" x2="416.5" y2="308.5"/>
		<line class="st0" x1="456.8" y1="317.5" x2="417.4" y2="305.4"/>
		<line class="st0" x1="457.9" y1="313.7" x2="418.3" y2="302.4"/>
		<line class="st0" x1="459" y1="309.9" x2="419.2" y2="299.3"/>
		<line class="st0" x1="460" y1="306" x2="420" y2="296.2"/>
		<line class="st0" x1="460.9" y1="302.2" x2="420.7" y2="293.1"/>
		<line class="st0" x1="461.7" y1="298.3" x2="421.4" y2="290"/>
		<line class="st0" x1="462.5" y1="294.4" x2="422" y2="286.9"/>
		<line class="st0" x1="463.1" y1="290.5" x2="422.5" y2="283.7"/>
		<line class="st0" x1="463.8" y1="286.6" x2="423" y2="280.6"/>
		<line class="st0" x1="464.3" y1="282.7" x2="423.4" y2="277.4"/>
		<line class="st0" x1="464.8" y1="278.7" x2="423.8" y2="274.3"/>
		<line class="st0" x1="465.2" y1="274.8" x2="424.1" y2="271.1"/>
		<line class="st0" x1="465.5" y1="270.8" x2="424.4" y2="267.9"/>
		<line class="st0" x1="465.7" y1="266.9" x2="424.6" y2="264.8"/>
		<line class="st0" x1="465.9" y1="262.9" x2="424.7" y2="261.6"/>
		<line class="st0" x1="466" y1="259" x2="424.8" y2="258.4"/>
		<line class="st0" x1="466" y1="255" x2="424.8" y2="255.2"/>
		<line class="st0" x1="465.9" y1="251" x2="424.8" y2="252"/>
		<line class="st0" x1="465.8" y1="247.1" x2="424.7" y2="248.8"/>
		<line class="st0" x1="465.6" y1="243.1" x2="424.5" y2="245.7"/>
		<line class="st0" x1="465.3" y1="239.2" x2="424.3" y2="242.5"/>
		<line class="st0" x1="465" y1="235.2" x2="424" y2="239.3"/>
		<line class="st0" x1="464.5" y1="231.3" x2="423.6" y2="236.1"/>
		<line class="st0" x1="464" y1="227.4" x2="423.2" y2="233"/>
		<line class="st0" x1="463.5" y1="223.4" x2="422.8" y2="229.8"/>
		<line class="st0" x1="462.8" y1="219.5" x2="422.2" y2="226.7"/>
		<line class="st0" x1="462.1" y1="215.6" x2="421.7" y2="223.6"/>
		<line class="st0" x1="461.3" y1="211.8" x2="421" y2="220.4"/>
		<line class="st0" x1="460.4" y1="207.9" x2="420.3" y2="217.3"/>
		<line class="st0" x1="459.5" y1="204" x2="419.6" y2="214.2"/>
		<line class="st0" x1="458.5" y1="200.2" x2="418.7" y2="211.2"/>
		<line class="st0" x1="457.4" y1="196.4" x2="417.9" y2="208.1"/>
		<line class="st0" x1="456.2" y1="192.6" x2="416.9" y2="205"/>
		<line class="st0" x1="455" y1="188.8" x2="416" y2="202"/>
		<line class="st0" x1="453.7" y1="185.1" x2="414.9" y2="199"/>
		<line class="st0" x1="452.3" y1="181.4" x2="413.8" y2="196"/>
		<line class="st0" x1="450.9" y1="177.7" x2="412.6" y2="193.1"/>
		<line class="st0" x1="449.3" y1="174" x2="411.4" y2="190.1"/>
		<line class="st0" x1="447.8" y1="170.4" x2="410.2" y2="187.2"/>
		<line class="st0" x1="446.1" y1="166.8" x2="408.8" y2="184.3"/>
		<line class="st0" x1="444.4" y1="163.2" x2="407.4" y2="181.4"/>
		<line class="st0" x1="442.6" y1="159.7" x2="406" y2="178.6"/>
		<line class="st0" x1="440.8" y1="156.2" x2="404.5" y2="175.8"/>
		<line class="st0" x1="438.8" y1="152.7" x2="403" y2="173"/>
		<line class="st0" x1="436.9" y1="149.3" x2="401.4" y2="170.2"/>
		<line class="st0" x1="434.8" y1="145.9" x2="399.8" y2="167.5"/>
		<line class="st0" x1="432.7" y1="142.5" x2="398.1" y2="164.8"/>
		<line class="st0" x1="430.5" y1="139.2" x2="396.3" y2="162.1"/>
		<line class="st0" x1="428.3" y1="136" x2="394.5" y2="159.5"/>
		<line class="st0" x1="426" y1="132.7" x2="392.7" y2="156.9"/>
		<line class="st0" x1="423.7" y1="129.5" x2="390.8" y2="154.3"/>
		<line class="st0" x1="421.2" y1="126.4" x2="388.8" y2="151.8"/>
		<line class="st0" x1="418.8" y1="123.3" x2="386.8" y2="149.3"/>
		<line class="st0" x1="416.2" y1="120.3" x2="384.8" y2="146.9"/>
		<line class="st0" x1="413.6" y1="117.3" x2="382.7" y2="144.5"/>
		<line class="st0" x1="411" y1="114.3" x2="380.6" y2="142.1"/>
		<line class="st0" x1="408.3" y1="111.4" x2="378.4" y2="139.8"/>
		<line class="st0" x1="405.5" y1="108.6" x2="376.2" y2="137.5"/>
		<line class="st0" x1="402.7" y1="105.8" x2="374" y2="135.2"/>
		<line class="st0" x1="399.9" y1="103" x2="371.7" y2="133"/>
		<line class="st0" x1="397" y1="100.3" x2="369.3" y2="130.9"/>
		<line class="st0" x1="394" y1="97.7" x2="366.9" y2="128.8"/>
		<line class="st0" x1="391" y1="95.1" x2="364.5" y2="126.7"/>
		<line class="st0" x1="387.9" y1="92.6" x2="362.1" y2="124.7"/>
		<line class="st0" x1="384.8" y1="90.2" x2="359.6" y2="122.7"/>
		<line class="st0" x1="381.7" y1="87.8" x2="357" y2="120.7"/>
		<line class="st0" x1="378.5" y1="85.4" x2="354.5" y2="118.9"/>
		<line class="st0" x1="375.2" y1="83.1" x2="351.8" y2="117"/>
		<line class="st0" x1="371.9" y1="80.9" x2="349.2" y2="115.2"/>
		<line class="st0" x1="368.6" y1="78.8" x2="346.5" y2="113.5"/>
		<line class="st0" x1="365.3" y1="76.7" x2="343.8" y2="111.8"/>
		<line class="st0" x1="361.9" y1="74.6" x2="341.1" y2="110.2"/>
		<line class="st0" x1="358.4" y1="72.7" x2="338.3" y2="108.6"/>
		<line class="st0" x1="354.9" y1="70.8" x2="335.5" y2="107.1"/>
		<line class="st0" x1="351.4" y1="68.9" x2="332.7" y2="105.6"/>
		<line class="st0" x1="347.9" y1="67.2" x2="329.9" y2="104.2"/>
		<line class="st0" x1="344.3" y1="65.5" x2="327" y2="102.8"/>
		<line class="st0" x1="340.7" y1="63.8" x2="324.1" y2="101.5"/>
		<line class="st0" x1="337" y1="62.3" x2="321.2" y2="100.3"/>
		<line class="st0" x1="333.4" y1="60.8" x2="318.2" y2="99.1"/>
		<line class="st0" x1="329.7" y1="59.4" x2="315.2" y2="97.9"/>
		<line class="st0" x1="326" y1="58" x2="312.2" y2="96.8"/>
		<line class="st0" x1="322.2" y1="56.7" x2="309.2" y2="95.8"/>
		<line class="st0" x1="318.4" y1="55.5" x2="306.2" y2="94.8"/>
		<line class="st0" x1="314.6" y1="54.4" x2="303.1" y2="93.9"/>
		<line class="st0" x1="310.8" y1="53.3" x2="300.1" y2="93"/>
		<line class="st0" x1="307" y1="52.3" x2="297" y2="92.2"/>
		<line class="st0" x1="303.1" y1="51.4" x2="293.9" y2="91.5"/>
		<line class="st0" x1="299.3" y1="50.5" x2="290.8" y2="90.8"/>
		<line class="st0" x1="295.4" y1="49.7" x2="287.7" y2="90.2"/>
		<line class="st0" x1="291.5" y1="49" x2="284.5" y2="89.6"/>
		<line class="st0" x1="287.6" y1="48.4" x2="281.4" y2="89.1"/>
		<line class="st0" x1="283.7" y1="47.8" x2="278.2" y2="88.7"/>
		<line class="st0" x1="279.7" y1="47.3" x2="275.1" y2="88.3"/>
		<line class="st0" x1="275.8" y1="46.9" x2="271.9" y2="87.9"/>
		<line class="st0" x1="271.8" y1="46.6" x2="268.7" y2="87.7"/>
		<line class="st0" x1="267.9" y1="46.3" x2="265.6" y2="87.5"/>
		<line class="st0" x1="263.9" y1="46.1" x2="262.4" y2="87.3"/>
		<line class="st0" x1="260" y1="46" x2="259.2" y2="87.2"/>
	</g>
	<g>
		<path d="M240.5,81.5l20.4,0c2.3,0,4.3-0.9,6.1-2.8c1.8-1.9,2.6-4,2.6-6.3c0-4.1-2.3-6.8-6.9-8.1c-0.3-0.1-1.4-0.3-3.2-0.4
			c-1.5-0.2-2.4-0.3-2.7-0.5c0.7-0.5,2-1,3.9-1.3c1.1-0.2,2-0.4,2.7-0.7c0.7-0.2,1.3-0.4,1.7-0.6c1.4-0.8,2.1-1.8,2.1-3.3
			c0-2.6-2.3-3.9-7-3.9h-19.6c0.9,1.5,1.4,2.7,1.4,3.5v20.2C242,79,241.5,80.3,240.5,81.5z M249.7,55.4c0.1,0,0.3,0,0.5,0
			c0.3,0,0.5,0,0.8,0h1.4c1.5,0,2.5,0.1,3,0.3c1.1,0.4,1.6,1.1,1.6,2.3c0,1.2-1,2.4-2.9,3.7l-4.4,2.6c0-0.9,0-1.7-0.1-2.3
			c0-0.6,0-1.1,0-1.5V55.4z M254.1,65.6c1,0,1.8,0.2,2.6,0.5c0.8,0.3,1.5,0.8,2,1.4c0.6,0.6,1,1.3,1.3,2.1c0.3,0.8,0.5,1.7,0.5,2.6
			c0,2.1-0.7,3.8-2.1,5.3c-1.4,1.5-3.1,2.2-5.1,2.2h-3.6l0-12.9C250.7,66,252.2,65.6,254.1,65.6z"/>
		<path d="M93.8,178.9c0.2,0.1,0.4,0.2,0.5,0.2c1.4,0.8,2.3,1.8,2.8,3.1l8-13.9c1.1-1.8,1.5-3.5,1.3-5.1c-0.2-1.8-1.2-3.2-3-4.2
			c-1.3-0.8-3-1.1-5.1-1.1c-2.1,0.1-3.4,0-3.8-0.3c-0.5-0.3-0.8-1-0.7-2.1l0,0c-0.3,0-0.7,0.1-1.2,0.4c-0.5,0.3-0.8,0.5-0.9,0.8
			c-0.7,1.2-0.9,2.5-0.5,3.9c0.4,1.4,1.1,2.4,2.3,3.1c0.7,0.4,1.8,0.7,3.5,1c1.7,0.3,2.8,0.6,3.2,0.8c1.6,0.9,2.2,2.2,1.8,4
			c-0.1,0.8-0.8,2.3-2,4.4l-19.2-11c-1.5-0.9-2.4-1.9-2.9-3.1l-4.9,8.4c2,0.3,3.5,0.7,4.3,1.2l15.9,9.2
			C93.4,178.7,93.6,178.8,93.8,178.9z"/>
		<path d="M108.7,351.4c-0.1,0.3-0.1,0.6-0.2,0.9c-0.2,0.6-0.7,1.1-1.6,1.6c-1.6,1-2.9,0.8-3.6-0.6c-0.2-0.3-0.4-1-0.7-2
			c-0.3-1-0.5-1.7-0.7-2c-0.8-1.4-1.8-2.3-2.9-2.7c0.2-0.3,0.5-0.5,0.7-0.8s0.5-0.5,0.7-0.8c0.6-0.6,1.2-1.1,1.6-1.3
			c0.8-0.5,1.8-0.7,2.8-0.6l-5.4-9.4c-0.2,1.1-1,2.3-2.4,3.8l-17.1,18.1l3.5,6c5.7-1.2,10.6-2.2,14.7-3.1s7.6-1.7,10.3-2.3
			c1.2-0.3,2.6-0.1,4.2,0.6l-3.7-6.3C108.8,350.9,108.8,351.2,108.7,351.4z M98.9,356.3c-0.9,0.2-1.7,0.3-2.3,0.5l-9.5,1.9l9.4-9.7
			c0,0,0.1-0.1,0.4-0.2c0.7-0.2,1.2,0.1,1.7,0.9c0.2,0.3,0.5,1,0.8,2c0.4,1,0.6,1.7,0.6,2c0.4,0.6,1,1.3,2,1.9
			C100.8,356,99.8,356.2,98.9,356.3z"/>
		<path d="M262.5,430.6h-10.4c0.9,1.1,1.3,2.5,1.3,4.4v18.8c0,0.1,0,0.2,0,0.3v0.3c0,1.3-0.5,2.7-1.5,4h10.2
			c-0.8-1.1-1.3-2.6-1.3-4.6v-18.7C261,433.6,261.5,432.1,262.5,430.6z"/>
		<path d="M434.6,342.5l-15.9-9.2c-0.1-0.1-0.3-0.1-0.5-0.2c-0.2-0.1-0.4-0.2-0.5-0.2c-1.4-0.8-2.3-1.8-2.8-3.1l-8,13.9
			c-1.1,1.8-1.5,3.5-1.3,5.1c0.2,1.8,1.2,3.2,3,4.2c1.3,0.8,3,1.1,5.1,1.1c2.1-0.1,3.4,0,3.8,0.3c0.5,0.3,0.8,1,0.7,2.1l0,0
			c0.3,0,0.7-0.1,1.2-0.4c0.5-0.3,0.8-0.5,0.9-0.8c0.7-1.2,0.9-2.5,0.5-3.9c-0.4-1.4-1.1-2.4-2.3-3.1c-0.7-0.4-1.8-0.7-3.5-1
			c-1.7-0.3-2.8-0.6-3.2-0.8c-1.6-0.9-2.2-2.2-1.8-4c0.1-0.8,0.8-2.3,2-4.4l19.2,11c1.5,0.9,2.4,1.9,2.9,3.1l4.9-8.4
			C436.9,343.4,435.5,343,434.6,342.5z"/>
		<path d="M402.4,160.3l9.1,15.6l9.9-4.1c-1.6-0.2-2.9-0.4-4.1-0.7c-1.1-0.2-2-0.4-2.7-0.6c-2.7-0.8-4.6-2-5.7-3.6
			c-0.1-0.1-0.2-0.3-0.4-0.6c-0.2-0.3-0.4-0.6-0.6-1.1c-0.3-0.5-0.6-1.1-0.9-1.6c-0.3-0.6-0.7-1.2-1-1.8l9.1-5.2
			c0.5,0.3,1,0.6,1.5,0.9c0.5,0.3,0.9,0.7,1.2,1.2c0.1,0.2,0.2,0.3,0.2,0.4c0.6,1.5,1.1,3,1.6,4.5c0.7,1.2,1.8,2,3.2,2.5
			c1.3,0.4,2.6,0.3,3.9-0.4c-1.2-0.5-2-1.1-2.4-1.8c-0.3-0.6-0.8-1.6-1.2-2.9c-0.5-1.4-0.9-2.3-1.3-3c-0.4-0.8-1.1-1.3-2.1-1.8
			c-0.9-0.4-1.9-0.7-2.9-0.6l9.6-5.5l1.7,2.9l0.7,1.2c1.5,2.7,1.4,6.8,0,12l0,0c0.1-0.1,0.3-0.2,0.8-0.5c0.4-0.3,1-0.7,1.7-1.2
			c0.6-0.4,1.2-0.9,1.9-1.4c0.7-0.5,1.4-1,2.1-1.6l-11.6-20.1c-0.1,1.2-0.8,2.3-2.3,3.1l-17.2,9.9c0,0,0,0-0.1,0.1
			c-0.1,0.1-0.4,0.2-0.7,0.3c-1.4,0.7-2.6,0.8-3.8,0.4c0.2,0.4,0.5,1,1,1.8C400.9,157.9,401.6,159,402.4,160.3z"/>
		<path d="M256,42.7C138.4,42.7,42.7,138.4,42.7,256c0,117.6,95.7,213.3,213.3,213.3c117.6,0,213.3-95.7,213.3-213.3
			C469.3,138.4,373.6,42.7,256,42.7z M256,462.7C142,462.7,49.3,370,49.3,256S142,49.3,256,49.3S462.7,142,462.7,256
			S370,462.7,256,462.7z"/>
		<path d="M256,85.2c-94.2,0-170.8,76.6-170.8,170.8S161.8,426.8,256,426.8S426.8,350.2,426.8,256S350.2,85.2,256,85.2z M256,404.1
			c-81.7,0-148.1-66.4-148.1-148.1c0-81.7,66.4-148.1,148.1-148.1c81.7,0,148.1,66.4,148.1,148.1C404.1,337.7,337.7,404.1,256,404.1
			z"/>
	</g>
	<g>
		<path class="st1" d="M243.3,101.2L243.3,101.2c0.3,0,0.4-0.1,0.5-0.2c0.1-0.1,0.2-0.3,0.2-0.6l-0.4-5.4c0-0.3-0.1-0.5-0.3-0.6
			c-0.2-0.1-0.3-0.2-0.6-0.1l0-0.1l2.3-0.2l0,0.1c-0.2,0-0.4,0.1-0.5,0.2c-0.1,0.1-0.2,0.3-0.2,0.6l0.4,5.2c0,0.3,0.1,0.5,0.3,0.6
			c0.2,0.1,0.4,0.2,0.8,0.1l0.6,0c0.3,0,0.5-0.1,0.6-0.1s0.3-0.2,0.4-0.3c0.1-0.1,0.2-0.3,0.2-0.6l0.1,0l-0.2,1.2L243.3,101.2
			L243.3,101.2z"/>
		<path class="st1" d="M251.3,93.7L251.3,93.7c-0.2,0.1-0.4,0.2-0.5,0.3c-0.1,0.1-0.2,0.3-0.2,0.6l0.2,5.5c0,0.3,0.1,0.5,0.3,0.6
			c0.2,0.1,0.3,0.2,0.5,0.2l0,0.1l-2.3,0.1l0-0.1c0.2,0,0.4-0.1,0.5-0.2s0.2-0.3,0.2-0.6l-0.2-5.5c0-0.3-0.1-0.5-0.2-0.6
			c-0.2-0.1-0.3-0.2-0.5-0.1l0-0.1L251.3,93.7z"/>
		<path class="st1" d="M253.4,93.7L253.4,93.7l-0.1-0.1l2.5,0c0.4,0,0.7,0.1,1,0.2c0.3,0.1,0.5,0.3,0.6,0.5c0.2,0.2,0.3,0.4,0.3,0.6
			c0.1,0.2,0.1,0.4,0.1,0.6c0,0.3-0.1,0.5-0.2,0.7c-0.1,0.2-0.3,0.4-0.5,0.6c-0.2,0.2-0.5,0.3-0.9,0.3v0c0.4,0.2,0.8,0.6,1.2,1.3
			l0.6,1.1c0.3,0.5,0.5,0.8,0.7,0.9c0.2,0.1,0.3,0.2,0.5,0.2v0.1l-1.3,0c-0.1-0.1-0.1-0.1-0.2-0.2c0-0.1-0.1-0.1-0.2-0.2
			c0,0-0.1-0.1-0.1-0.2c-0.1-0.1-0.1-0.2-0.1-0.2l-0.8-1.4c-0.2-0.3-0.3-0.5-0.5-0.7s-0.3-0.3-0.5-0.4c-0.2-0.1-0.3-0.1-0.4-0.2
			s-0.3,0-0.4,0l0,2.6c0,0.5,0.2,0.8,0.8,0.8l0,0.1l-2.3,0l0-0.1c0.1,0,0.3,0,0.4-0.1s0.2-0.1,0.3-0.2c0.1-0.1,0.1-0.3,0.1-0.5
			l0.1-5.4c0-0.3-0.1-0.5-0.2-0.6C253.7,93.8,253.5,93.7,253.4,93.7z M254.7,97.1l0.4,0c0.4,0,0.8,0,1.1-0.2
			c0.3-0.1,0.5-0.3,0.6-0.5s0.2-0.5,0.2-0.8c0-0.3,0-0.5-0.2-0.8c-0.1-0.3-0.3-0.5-0.6-0.7c-0.3-0.2-0.6-0.3-1.1-0.3
			c-0.2,0-0.3,0-0.4,0L254.7,97.1z"/>
		<path class="st1" d="M264.3,93.8l1.8,6.3c0.1,0.3,0.2,0.6,0.3,0.7s0.2,0.2,0.3,0.3s0.2,0.1,0.4,0.1l0,0.1l-2.3-0.1l0-0.1
			c0.2,0,0.4,0,0.6,0c0.1,0,0.2-0.2,0.2-0.4c0-0.1,0-0.3-0.1-0.4c0,0,0,0,0-0.1l-0.5-1.9l-2.5-0.1l-0.7,1.7
			c-0.1,0.2-0.1,0.4-0.1,0.6c0,0.2,0,0.3,0.1,0.4c0.1,0.1,0.2,0.1,0.4,0.1l0,0.1l-1.7-0.1l0-0.1c0.2,0,0.4-0.1,0.6-0.2
			c0.2-0.2,0.3-0.4,0.4-0.7l2.3-6.1L264.3,93.8z M262.4,97.8l2.3,0.1l-1-3.5l0,0L262.4,97.8z"/>
		<path class="st1" d="M274.8,96.3L274.8,96.3c-0.1-0.4-0.2-0.7-0.5-0.9c-0.2-0.3-0.5-0.5-0.9-0.6c-0.3-0.1-0.7-0.2-1-0.3
			c-0.4,0-0.8,0-1.2,0.1s-0.7,0.4-1,0.6c-0.3,0.3-0.5,0.7-0.7,1.1s-0.3,0.9-0.4,1.4c0,0.5,0,1,0.1,1.4c0.1,0.4,0.3,0.8,0.5,1.2
			c0.2,0.3,0.5,0.6,0.9,0.8c0.3,0.2,0.7,0.3,1.2,0.4c0.4,0,0.8,0,1.2-0.1c0.4-0.1,0.9-0.3,1.2-0.6l0,0.3c-0.5,0.3-0.9,0.5-1.3,0.6
			s-0.8,0.2-1.4,0.1c-0.6-0.1-1.1-0.2-1.5-0.5c-0.4-0.3-0.8-0.6-1.1-0.9s-0.5-0.8-0.6-1.3c-0.1-0.5-0.2-0.9-0.1-1.4
			c0.1-0.7,0.3-1.3,0.7-1.9c0.4-0.6,0.9-1,1.5-1.3c0.6-0.3,1.3-0.4,2-0.3c0.4,0,0.9,0.1,1.3,0.3l0.5,0.2c0.1,0,0.2,0,0.2,0.1
			c0.1,0,0.2,0,0.3,0s0.1-0.1,0.1-0.2l0.1,0L274.8,96.3z"/>
		<path class="st1" d="M282,99l0.4-2.4c0-0.2,0-0.4-0.1-0.6c-0.1-0.2-0.3-0.3-0.6-0.3l0-0.1L284,96l0,0.1c-0.3,0-0.5,0-0.6,0.1
			s-0.2,0.3-0.3,0.5l-0.8,5.4c-0.1,0.5,0.1,0.8,0.6,0.9l0,0.1l-2.3-0.3l0-0.1c0.2,0,0.4,0,0.6-0.1c0.2-0.1,0.3-0.3,0.3-0.5l0.4-2.8
			l-4.1-0.6l-0.4,2.8c0,0.2,0,0.5,0.1,0.6c0.1,0.2,0.3,0.3,0.5,0.3l0,0.1l-2.3-0.3l0-0.1c0.2,0,0.4,0,0.6-0.1
			c0.2-0.1,0.2-0.3,0.3-0.5l0.8-5.4c0.1-0.5-0.1-0.8-0.6-0.9l0-0.1l2.3,0.3l0,0.1c-0.3,0-0.5,0-0.6,0.1c-0.1,0.1-0.2,0.3-0.3,0.5
			l-0.4,2.4L282,99z"/>
		<path class="st1" d="M296,100L296,100c0-0.5-0.1-0.8-0.3-1c-0.2-0.2-0.5-0.3-0.8-0.4l-1.4-0.3l-1.4,5.9c-0.1,0.5,0.1,0.8,0.6,0.9
			l0,0.1l-2.2-0.5l0-0.1c0.2,0,0.4,0,0.6-0.1c0.2-0.1,0.3-0.3,0.4-0.5l1.4-5.9l-1.4-0.3c-0.3-0.1-0.6-0.1-0.9,0
			c-0.3,0.1-0.5,0.3-0.6,0.8l-0.1,0l0.4-1.7l0.1,0c0,0.1,0.1,0.2,0.1,0.2s0.1,0.1,0.1,0.1c0.1,0,0.1,0.1,0.2,0.1
			c0.1,0,0.2,0.1,0.3,0.1l4.5,1.1c0.3,0.1,0.6,0,0.8-0.2l0.1,0L296,100z"/>
		<path class="st1" d="M300.8,99.8l0.4,6.5c0,0.3,0.1,0.6,0.1,0.8c0.1,0.2,0.1,0.3,0.2,0.3c0.1,0.1,0.2,0.1,0.3,0.2l0,0.1l-2.3-0.6
			l0-0.1c0.2,0.1,0.4,0.1,0.6,0.1c0.1,0,0.2-0.1,0.3-0.3c0-0.1,0-0.3,0-0.5c0,0,0,0,0-0.1l-0.1-2l-2.4-0.7l-1,1.5
			c-0.1,0.2-0.2,0.4-0.3,0.5c-0.1,0.2,0,0.3,0,0.4c0.1,0.1,0.2,0.2,0.4,0.2l0,0.1l-1.6-0.5l0-0.1c0.2,0,0.4,0,0.6-0.1
			s0.4-0.3,0.6-0.6l3.7-5.4L300.8,99.8z M298.1,103.3l2.2,0.6l-0.2-3.6l0,0L298.1,103.3z"/>
		<path class="st1" d="M308.5,103.8L308.5,103.8c0-0.4-0.1-0.7-0.2-1c-0.2-0.3-0.4-0.6-0.8-0.7c-0.3-0.1-0.5-0.1-0.8,0
			c-0.2,0.1-0.5,0.2-0.6,0.3c-0.2,0.2-0.3,0.4-0.4,0.7c-0.1,0.2-0.1,0.4-0.1,0.6c0,0.2,0.1,0.4,0.1,0.5c0.1,0.2,0.2,0.3,0.3,0.5
			c0.1,0.2,0.3,0.4,0.6,0.7c0.4,0.4,0.7,0.8,0.9,1.2c0.2,0.4,0.2,0.8,0,1.3c-0.1,0.3-0.3,0.5-0.5,0.8c-0.2,0.2-0.5,0.4-0.9,0.4
			c-0.4,0.1-0.8,0-1.2-0.1c-0.3-0.1-0.5-0.2-0.7-0.3s-0.4-0.3-0.6-0.5c-0.1-0.1-0.1-0.1-0.2-0.1c-0.1,0-0.1,0-0.2,0
			c0,0-0.1,0.1-0.2,0.3l-0.1,0l0.6-1.7l0.1,0c-0.1,0.5,0,1,0.3,1.4c0.2,0.4,0.6,0.6,1,0.8c0.3,0.1,0.6,0.1,0.9,0.1
			c0.3-0.1,0.4-0.2,0.6-0.3c0.1-0.2,0.2-0.3,0.3-0.5c0.1-0.4,0.1-0.7,0-1.1c-0.2-0.3-0.4-0.7-0.8-1.1c-0.3-0.3-0.5-0.5-0.6-0.7
			c-0.1-0.2-0.2-0.3-0.4-0.5c-0.1-0.2-0.2-0.4-0.2-0.7s0-0.5,0.1-0.8c0.1-0.3,0.3-0.6,0.6-0.8s0.6-0.4,1-0.5s0.8,0,1.1,0.1
			c0.3,0.1,0.6,0.3,0.9,0.5c0,0,0.1,0.1,0.2,0.1c0.1,0,0.2,0,0.3-0.1l0.1,0L308.5,103.8z"/>
		<path class="st1" d="M314.1,104.3l-0.2,6.5c0,0.3,0,0.6,0.1,0.8c0,0.2,0.1,0.3,0.2,0.4c0.1,0.1,0.2,0.1,0.3,0.2l0,0.1l-2.2-0.8
			l0-0.1c0.2,0.1,0.4,0.1,0.5,0.1c0.1,0,0.2-0.1,0.3-0.3c0-0.1,0.1-0.3,0.1-0.4c0,0,0,0,0-0.1l0.1-2l-2.3-0.9l-1.2,1.4
			c-0.2,0.2-0.3,0.4-0.3,0.5c-0.1,0.2-0.1,0.3,0,0.4c0.1,0.1,0.2,0.2,0.4,0.2l0,0.1l-1.6-0.6l0-0.1c0.2,0.1,0.4,0,0.6-0.1
			c0.2-0.1,0.4-0.3,0.6-0.6l4.1-5.1L314.1,104.3z M311.1,107.5l2.1,0.8l0.1-3.6l0,0L311.1,107.5z"/>
		<path class="st1" d="M328.5,110.7L328.5,110.7c-0.2,0-0.4,0-0.5,0c-0.2,0-0.3,0.1-0.4,0.2c-0.1,0.1-0.3,0.3-0.5,0.5
			c0,0-0.1,0-0.1,0.1l-4.4,4.5l-0.1,0l0.6-6.9c0,0,0,0,0-0.1c0-0.3,0-0.5-0.1-0.7c-0.1-0.2-0.2-0.3-0.4-0.4l0-0.1l2.1,1l0,0.1
			c-0.2-0.1-0.3-0.1-0.5-0.1c-0.1,0-0.2,0.1-0.3,0.3c0,0.1-0.1,0.2-0.1,0.4c0,0,0,0,0,0.1c0,0,0,0,0,0l-0.5,5.4l0,0l3.5-3.6
			c0.2-0.2,0.4-0.4,0.5-0.6c0.1-0.2,0.1-0.4,0.1-0.5c-0.1-0.1-0.2-0.2-0.4-0.3l0-0.1L328.5,110.7z"/>
		<path class="st1" d="M330,111.5L330,111.5l3.8,1.9l-0.5,1l-0.1,0c0.3-0.5,0.1-1-0.6-1.4l-1.3-0.7l-1.5,2.9l1.2,0.6
			c0.2,0.1,0.5,0.2,0.7,0.2c0.2,0,0.4-0.1,0.6-0.3l0.1,0l-0.8,1.4l-0.1,0c0.1-0.2,0.1-0.3,0.1-0.5s-0.1-0.2-0.1-0.3
			c-0.1-0.1-0.1-0.1-0.2-0.1c-0.1-0.1-0.2-0.1-0.3-0.2l-1.2-0.6l-1.2,2.3c-0.1,0.2-0.1,0.3-0.1,0.5c0,0.2,0.1,0.3,0.4,0.4l0.9,0.5
			c0.2,0.1,0.4,0.2,0.6,0.2c0.2,0,0.3,0,0.5-0.1c0.1-0.1,0.3-0.2,0.4-0.3l0.1,0l-0.7,0.9l-3.8-2l0-0.1l0.1,0c0.1,0.1,0.3,0.1,0.5,0
			c0.2,0,0.3-0.2,0.5-0.4l2.5-4.8c0.1-0.2,0.1-0.4,0.1-0.6C330.4,111.8,330.3,111.7,330,111.5L330,111.5z"/>
		<path class="st1" d="M335.6,114.5L335.6,114.5l3.8,2.1l-0.5,0.9l-0.1,0c0.1-0.2,0.1-0.4,0.1-0.6s-0.2-0.4-0.5-0.6l-1.5-0.9
			l-1.6,2.8l1.4,0.8c0.3,0.2,0.5,0.2,0.6,0.2c0.2-0.1,0.3-0.2,0.4-0.3l0.1,0l-0.8,1.4l-0.1,0c0.1-0.2,0.1-0.4,0.1-0.5
			c0-0.2-0.2-0.3-0.5-0.5l-1.4-0.8l-1.3,2.3c-0.1,0.2-0.2,0.4-0.1,0.6c0,0.2,0.2,0.3,0.3,0.4l0.1,0.1l0,0.1l-2-1.2l0-0.1l0.1,0
			c0.2,0.1,0.3,0.1,0.5,0.1c0.2-0.1,0.3-0.2,0.5-0.4l2.7-4.7c0.2-0.3,0.2-0.5,0.1-0.7S335.8,114.6,335.6,114.5L335.6,114.5z"/>
		<path class="st1" d="M343.4,119l-1.5,6.4c-0.1,0.3-0.1,0.6-0.1,0.8c0,0.2,0,0.3,0.1,0.4c0.1,0.1,0.1,0.2,0.3,0.3l0,0.1l-2-1.3
			l0-0.1c0.2,0.1,0.4,0.2,0.5,0.2c0.1,0,0.3,0,0.4-0.2c0.1-0.1,0.1-0.2,0.2-0.4c0,0,0,0,0-0.1l0.5-2l-2.1-1.3l-1.4,1.2
			c-0.2,0.2-0.3,0.3-0.4,0.4c-0.1,0.2-0.1,0.3-0.1,0.4c0,0.1,0.2,0.2,0.3,0.3l0,0.1l-1.4-0.9l0-0.1c0.2,0.1,0.4,0.1,0.6,0.1
			s0.4-0.2,0.7-0.4l5-4.1L343.4,119z M339.8,121.6l1.9,1.2l0.8-3.5l0,0L339.8,121.6z"/>
		<path class="st1" d="M358.9,130.3L358.9,130.3c-0.2,0-0.3,0-0.5,0s-0.3,0-0.5,0.1c-0.2,0.1-0.5,0.2-0.8,0.4l-5.2,3.5l-0.1,0
			l2.2-5.8l0,0l-5.2,3.5l-0.1,0l2.4-6.4c0.1-0.2,0.1-0.4,0.1-0.6c0-0.1-0.1-0.3-0.1-0.3c-0.1-0.1-0.1-0.2-0.2-0.2l0.1-0.1l1.8,1.4
			l-0.1,0.1c-0.2-0.1-0.3-0.2-0.5-0.1s-0.3,0.1-0.4,0.2c-0.1,0.1-0.1,0.2-0.2,0.4l-1.8,4.8l0,0l4.3-2.9l0.1-0.2
			c0.1-0.2,0.1-0.4,0.1-0.6s-0.1-0.4-0.3-0.6l0-0.1l1.8,1.4l-0.1,0.1c-0.2-0.2-0.4-0.2-0.5-0.1c-0.1,0.1-0.2,0.1-0.3,0.2
			c-0.1,0.1-0.2,0.2-0.2,0.4l-1.8,4.8l0,0l4-2.6c0.1-0.1,0.2-0.2,0.4-0.3s0.2-0.2,0.3-0.3c0.1-0.2,0.2-0.3,0.1-0.4
			c0-0.1-0.1-0.2-0.3-0.4l0.1-0.1L358.9,130.3z"/>
		<path class="st1" d="M360.1,131.5L360.1,131.5l3.3,2.7l-0.7,0.9l-0.1,0c0.4-0.5,0.3-1-0.3-1.5l-1.1-1l-2.1,2.5l1,0.9
			c0.2,0.2,0.4,0.3,0.6,0.4c0.2,0.1,0.4,0,0.6-0.2l0.1,0l-1.1,1.2l-0.1,0c0.1-0.2,0.1-0.3,0.2-0.4s0-0.2-0.1-0.3s-0.1-0.1-0.1-0.2
			c-0.1-0.1-0.2-0.2-0.3-0.3l-1-0.9l-1.7,1.9c-0.1,0.1-0.2,0.3-0.2,0.4s0,0.3,0.3,0.5l0.8,0.7c0.2,0.2,0.4,0.3,0.6,0.3
			c0.2,0.1,0.3,0.1,0.5,0c0.2,0,0.3-0.1,0.5-0.2l0.1,0l-0.9,0.7l-3.2-2.8l0.1-0.1l0.1,0.1c0.1,0.1,0.3,0.2,0.5,0.2
			c0.2,0,0.4-0.1,0.6-0.3l3.5-4.1c0.1-0.2,0.2-0.3,0.3-0.5C360.5,131.9,360.4,131.7,360.1,131.5L360.1,131.5z"/>
		<path class="st1" d="M360.1,140.8L360.1,140.8c0.2,0.2,0.4,0.2,0.6,0.2c0.2,0,0.4-0.1,0.5-0.3l3.7-4c0.2-0.2,0.3-0.4,0.3-0.6
			c0-0.2-0.1-0.4-0.3-0.5l0.1-0.1l1.7,1.6l-0.1,0.1c-0.2-0.1-0.3-0.2-0.5-0.2c-0.2,0-0.4,0.1-0.6,0.3l-3.6,3.8
			c-0.2,0.2-0.3,0.4-0.3,0.6c0,0.2,0.2,0.4,0.4,0.7l0.5,0.4c0.2,0.2,0.4,0.3,0.5,0.4c0.2,0.1,0.3,0.1,0.5,0c0.2,0,0.4-0.1,0.6-0.2
			l0.1,0.1l-1,0.7L360.1,140.8L360.1,140.8z"/>
		<path class="st1" d="M371.1,146.2l1.7-1.7c0.2-0.2,0.3-0.3,0.3-0.5c0-0.2-0.1-0.4-0.3-0.6l0.1-0.1l1.6,1.6l-0.1,0.1
			c-0.2-0.2-0.4-0.3-0.6-0.3s-0.4,0.1-0.5,0.3l-3.9,3.8c-0.4,0.4-0.4,0.7,0,1.1l-0.1,0.1l-1.6-1.6l0.1-0.1c0.2,0.2,0.4,0.3,0.5,0.3
			c0.2,0,0.4-0.1,0.6-0.3l2-2l-2.9-2.9l-2,2c-0.2,0.2-0.3,0.4-0.3,0.6c0,0.2,0.1,0.4,0.3,0.6l-0.1,0.1l-1.6-1.6l0.1-0.1
			c0.2,0.2,0.4,0.3,0.5,0.3c0.2,0,0.4-0.1,0.6-0.3l3.9-3.8c0.4-0.4,0.4-0.7,0-1.1l0.1-0.1l1.6,1.6l-0.1,0.1
			c-0.2-0.2-0.4-0.3-0.6-0.3s-0.4,0.1-0.5,0.3l-1.7,1.7L371.1,146.2z"/>
		<path class="st1" d="M378.9,152.4L378.9,152.4c0.2-0.3,0.3-0.7,0.3-1s-0.1-0.7-0.2-1c-0.1-0.3-0.3-0.6-0.5-0.8
			c-0.3-0.3-0.6-0.5-1-0.7c-0.4-0.2-0.8-0.2-1.2-0.2c-0.4,0-0.8,0.1-1.3,0.3c-0.4,0.2-0.8,0.4-1.2,0.8c-0.4,0.3-0.7,0.7-0.9,1.1
			s-0.4,0.8-0.4,1.2c-0.1,0.4,0,0.8,0.1,1.2s0.3,0.7,0.6,1.1c0.2,0.3,0.6,0.5,1,0.8c0.4,0.2,0.8,0.4,1.3,0.4l-0.2,0.2
			c-0.5-0.1-1-0.2-1.3-0.4c-0.4-0.2-0.7-0.5-1.1-0.9c-0.4-0.4-0.6-0.9-0.8-1.4s-0.2-1-0.2-1.4c0.1-0.5,0.2-0.9,0.4-1.3
			c0.2-0.4,0.5-0.8,0.9-1.1c0.5-0.5,1.1-0.8,1.8-0.9c0.7-0.1,1.3-0.1,2,0.1c0.7,0.2,1.2,0.6,1.7,1.1c0.3,0.3,0.5,0.7,0.8,1.1
			l0.2,0.5c0,0.1,0.1,0.2,0.1,0.2c0.1,0.1,0.2,0.1,0.2,0.2c0.1,0,0.1,0,0.2-0.1l0.1,0.1L378.9,152.4z"/>
		<path class="st1" d="M380.1,162.8l-1.6-2.1l0.1,0l0.1,0.1c0.1,0.1,0.3,0.2,0.4,0.3s0.4,0,0.6-0.2l4.3-3.3c0.2-0.2,0.3-0.3,0.4-0.5
			c0-0.2,0-0.4-0.1-0.5l-0.1-0.1l0.1-0.1l1.4,1.9c0.2,0.2,0.3,0.5,0.4,0.8s0.1,0.5,0.1,0.8c0,0.2-0.1,0.5-0.2,0.7
			c-0.1,0.2-0.2,0.4-0.4,0.5c-0.3,0.3-0.7,0.4-1.1,0.3c-0.4-0.1-0.8-0.2-1.2-0.5l0,0c0.1,0.2,0.2,0.4,0.3,0.6s0.1,0.4,0.2,0.5
			s0,0.4,0,0.5c0,0.2-0.1,0.3-0.1,0.5s-0.1,0.3-0.2,0.4s-0.2,0.3-0.4,0.4c-0.3,0.2-0.6,0.3-0.9,0.4c-0.3,0-0.6,0-0.9-0.2
			C380.8,163.6,380.4,163.3,380.1,162.8z M382.7,160.2l-0.4-0.6l-2.1,1.6c-0.1,0.1-0.2,0.2-0.3,0.3c-0.1,0.1-0.1,0.2-0.1,0.4
			s0.1,0.4,0.3,0.6c0.4,0.5,0.9,0.8,1.4,0.7c0.4,0,0.7-0.2,1-0.4c0.2-0.2,0.4-0.4,0.5-0.6s0.2-0.4,0.2-0.6s0-0.5-0.1-0.7
			C383,160.7,382.9,160.5,382.7,160.2z M382.5,159.5l0.3,0.4c0.2,0.3,0.4,0.5,0.6,0.6c0.1,0.1,0.2,0.1,0.4,0.1c0.1,0,0.3,0,0.5,0
			s0.4-0.1,0.7-0.3c0.2-0.1,0.3-0.3,0.4-0.5c0.1-0.2,0.2-0.4,0.2-0.5c0-0.2,0-0.4,0-0.6c0-0.2-0.1-0.4-0.3-0.5
			c-0.1-0.1-0.3-0.3-0.5-0.4L382.5,159.5z"/>
		<path class="st1" d="M388.3,161.9L388.3,161.9l2.5,3.5l-0.9,0.6l0-0.1c0.5-0.3,0.5-0.8,0.1-1.5l-0.9-1.2l-2.7,1.9l0.8,1.1
			c0.1,0.2,0.3,0.4,0.5,0.5s0.4,0.1,0.7,0l0,0.1l-1.3,0.9l0-0.1c0.1-0.1,0.2-0.3,0.3-0.4s0-0.2,0-0.3c0-0.1,0-0.2-0.1-0.2
			c-0.1-0.1-0.1-0.2-0.2-0.3l-0.8-1.1l-2.1,1.5c-0.2,0.1-0.3,0.2-0.3,0.4c-0.1,0.1,0,0.3,0.1,0.5l0.6,0.9c0.1,0.2,0.3,0.4,0.5,0.5
			s0.3,0.1,0.5,0.1s0.3,0,0.5-0.1l0,0.1l-1.1,0.4l-2.4-3.5l0.1,0l0.1,0.1c0.1,0.1,0.2,0.2,0.4,0.3c0.2,0.1,0.4,0,0.6-0.2l4.5-3.1
			c0.2-0.1,0.3-0.3,0.4-0.5S388.5,162.2,388.3,161.9L388.3,161.9z"/>
		<path class="st1" d="M385.9,170.9L385.9,170.9c0.1,0.2,0.3,0.3,0.5,0.4s0.4,0,0.6-0.1l4.6-2.9c0.3-0.2,0.4-0.3,0.4-0.5
			c0-0.2,0-0.4-0.1-0.6l0.1,0l1.2,1.9l-0.1,0c-0.1-0.2-0.3-0.3-0.4-0.4c-0.2-0.1-0.4,0-0.7,0.1l-4.4,2.8c-0.3,0.2-0.4,0.4-0.4,0.5
			c0,0.2,0.1,0.4,0.3,0.7l0.3,0.5c0.1,0.2,0.3,0.4,0.4,0.5c0.1,0.1,0.3,0.2,0.5,0.2c0.2,0,0.4,0,0.6-0.1l0,0.1l-1.1,0.4L385.9,170.9
			L385.9,170.9z"/>
		<path class="st1" d="M396.3,174.3L396.3,174.3c-0.2-0.1-0.3-0.3-0.5-0.3c-0.2-0.1-0.4,0-0.6,0.1l-4.7,2.8
			c-0.2,0.1-0.4,0.3-0.4,0.5s0,0.4,0.1,0.6l-0.1,0l-1.2-2l0.1,0c0.1,0.2,0.3,0.3,0.4,0.4c0.2,0.1,0.4,0,0.6-0.1l4.7-2.8
			c0.3-0.2,0.4-0.3,0.4-0.5c0-0.2,0-0.4-0.1-0.5l0.1,0L396.3,174.3z"/>
		<path class="st1" d="M399,178.8l-4.4,4.8c-0.2,0.3-0.4,0.5-0.5,0.6c-0.1,0.2-0.1,0.3-0.1,0.4c0,0.1,0,0.2,0.1,0.3l-0.1,0l-1.1-2.1
			l0.1,0c0.1,0.2,0.2,0.4,0.3,0.5c0.1,0.1,0.2,0.1,0.4,0c0.1-0.1,0.2-0.2,0.3-0.3c0,0,0,0,0,0l1.4-1.5l-1.2-2.2l-1.8,0.3
			c-0.2,0-0.4,0.1-0.6,0.2c-0.2,0.1-0.3,0.2-0.3,0.3c0,0.1,0,0.3,0.1,0.4l-0.1,0l-0.8-1.5l0.1,0c0.1,0.2,0.3,0.3,0.5,0.4
			c0.2,0.1,0.5,0,0.8,0l6.4-1.2L399,178.8z M394.6,179.3l1.1,2l2.4-2.7l0,0L394.6,179.3z"/>
		<path class="st1" d="M394.8,186.2L394.8,186.2c0.1,0.2,0.3,0.4,0.4,0.4s0.4,0,0.6-0.1l4.9-2.4c0.3-0.1,0.4-0.3,0.5-0.5
			s0-0.4-0.1-0.6l0.1,0l1,2.1l-0.1,0c-0.1-0.2-0.2-0.3-0.4-0.4c-0.2-0.1-0.4-0.1-0.7,0.1l-4.7,2.3c-0.3,0.1-0.4,0.3-0.5,0.5
			c0,0.2,0,0.4,0.2,0.8l0.3,0.6c0.1,0.2,0.2,0.4,0.4,0.5c0.1,0.1,0.3,0.2,0.4,0.2c0.2,0,0.4,0,0.6,0l0,0.1l-1.2,0.3L394.8,186.2
			L394.8,186.2z"/>
		<path class="st1" d="M399,195.5L399,195.5c0.1,0.3,0.2,0.4,0.4,0.4s0.4,0.1,0.6,0l5-2c0.3-0.1,0.4-0.3,0.5-0.4s0-0.4,0-0.6l0.1,0
			l0.9,2.1l-0.1,0c-0.1-0.2-0.2-0.3-0.4-0.4c-0.2-0.1-0.4-0.1-0.7,0l-4.9,2c-0.3,0.1-0.5,0.3-0.5,0.5s0,0.4,0.1,0.8l0.2,0.6
			c0.1,0.3,0.2,0.4,0.3,0.6c0.1,0.1,0.3,0.2,0.4,0.2s0.4,0.1,0.6,0.1l0,0.1l-1.2,0.2L399,195.5L399,195.5z"/>
		<path class="st1" d="M408.7,200.7L408.7,200.7c-0.2-0.2-0.3-0.3-0.4-0.4s-0.4-0.1-0.6,0l-5.1,1.9c-0.3,0.1-0.4,0.2-0.5,0.4
			c-0.1,0.2-0.1,0.4,0,0.6l-0.1,0l-0.8-2.1l0.1,0c0.1,0.2,0.2,0.3,0.4,0.4s0.4,0.1,0.6,0l5.1-1.9c0.3-0.1,0.4-0.2,0.5-0.4
			c0.1-0.2,0-0.4,0-0.6l0.1,0L408.7,200.7z"/>
		<path class="st1" d="M409.3,202.6L409.3,202.6l0.1-0.1l0.8,2.4c0.1,0.4,0.2,0.7,0.1,1c0,0.3-0.1,0.6-0.2,0.8
			c-0.1,0.2-0.3,0.4-0.5,0.5c-0.2,0.1-0.4,0.2-0.6,0.3c-0.2,0.1-0.5,0.1-0.8,0.1c-0.3,0-0.5-0.1-0.7-0.3c-0.2-0.2-0.4-0.4-0.6-0.7
			l0,0c-0.1,0.5-0.3,1-0.8,1.5l-0.8,1c-0.4,0.4-0.6,0.8-0.7,1c-0.1,0.2-0.1,0.4,0,0.6l-0.1,0l-0.4-1.2c0.1-0.1,0.1-0.1,0.1-0.2
			c0-0.1,0.1-0.1,0.2-0.2c0,0,0.1-0.1,0.2-0.2c0.1-0.1,0.1-0.1,0.1-0.2l1.1-1.3c0.2-0.3,0.4-0.5,0.5-0.7s0.2-0.4,0.2-0.6
			s0-0.3,0-0.4c0-0.1-0.1-0.3-0.1-0.4l-2.5,0.8c-0.5,0.2-0.7,0.5-0.5,1l-0.1,0l-0.7-2.2l0.1,0c0.1,0.1,0.1,0.2,0.2,0.3
			c0.1,0.1,0.2,0.2,0.3,0.2c0.1,0,0.3,0,0.5,0l5.2-1.7c0.3-0.1,0.4-0.2,0.5-0.4C409.3,202.9,409.4,202.8,409.3,202.6z M406.5,205
			l0.1,0.4c0.1,0.4,0.3,0.7,0.5,0.9s0.4,0.4,0.7,0.4c0.3,0,0.5,0,0.9-0.1c0.3-0.1,0.5-0.2,0.7-0.4c0.2-0.2,0.4-0.4,0.5-0.7
			c0.1-0.3,0.1-0.7-0.1-1.1c-0.1-0.2-0.1-0.3-0.2-0.4L406.5,205z"/>
		<path class="st1" d="M412.7,213.1l-5.4,3.7c-0.3,0.2-0.5,0.4-0.6,0.5c-0.1,0.1-0.2,0.3-0.2,0.4c0,0.1,0,0.2,0,0.4l-0.1,0l-0.6-2.3
			l0.1,0c0.1,0.2,0.1,0.4,0.2,0.5c0.1,0.1,0.2,0.1,0.4,0.1c0.1,0,0.2-0.1,0.4-0.2c0,0,0,0,0.1,0l1.7-1.1l-0.7-2.4l-1.9-0.1
			c-0.3,0-0.5,0-0.6,0c-0.2,0.1-0.3,0.1-0.3,0.3c0,0.1,0,0.3,0,0.4l-0.1,0l-0.4-1.6l0.1,0c0.1,0.2,0.2,0.4,0.4,0.5
			c0.2,0.1,0.5,0.2,0.8,0.2l6.5,0.3L412.7,213.1z M408.4,212.6l0.6,2.2l3-2l0,0L408.4,212.6z"/>
		<path class="st1" d="M413.6,223.9L413.6,223.9c0.3-0.2,0.6-0.4,0.7-0.8s0.3-0.7,0.3-1c0-0.4,0-0.7,0-1c-0.1-0.4-0.3-0.8-0.5-1.1
			c-0.2-0.3-0.6-0.6-0.9-0.8s-0.8-0.3-1.2-0.4s-1,0-1.5,0.1c-0.5,0.1-0.9,0.3-1.3,0.5c-0.4,0.2-0.7,0.5-1,0.9
			c-0.3,0.3-0.4,0.7-0.5,1.1c-0.1,0.4-0.1,0.8,0,1.2c0.1,0.4,0.2,0.7,0.5,1.1c0.2,0.4,0.6,0.7,1,1l-0.3,0.1c-0.4-0.3-0.7-0.7-1-1
			c-0.2-0.3-0.4-0.7-0.5-1.3c-0.1-0.6-0.1-1.1,0-1.6c0.1-0.5,0.3-0.9,0.6-1.3c0.3-0.4,0.6-0.7,1-1c0.4-0.3,0.8-0.4,1.3-0.5
			c0.7-0.2,1.4-0.1,2,0.1c0.7,0.2,1.2,0.6,1.7,1.1c0.5,0.5,0.8,1.1,0.9,1.8c0.1,0.4,0.1,0.9,0.1,1.4l0,0.5c0,0.1,0,0.2,0,0.2
			c0,0.1,0.1,0.2,0.1,0.2s0.1,0,0.2,0.1l0,0.1L413.6,223.9z"/>
		<path class="st1" d="M413.2,231.6l2.4-0.4c0.2,0,0.4-0.1,0.5-0.3s0.2-0.4,0.1-0.6l0.1,0l0.4,2.3l-0.1,0c0-0.3-0.1-0.4-0.3-0.5
			c-0.2-0.1-0.4-0.1-0.6-0.1l-5.4,0.9c-0.5,0.1-0.7,0.4-0.7,0.9l-0.1,0l-0.4-2.3l0.1,0c0,0.2,0.1,0.4,0.3,0.5
			c0.2,0.1,0.4,0.2,0.6,0.1l2.8-0.5l-0.7-4.1l-2.8,0.5c-0.2,0-0.4,0.1-0.5,0.3c-0.1,0.2-0.2,0.4-0.1,0.6l-0.1,0l-0.4-2.3l0.1,0
			c0,0.2,0.1,0.4,0.3,0.5s0.4,0.1,0.6,0.1l5.4-0.9c0.5-0.1,0.7-0.4,0.7-0.9l0.1,0l0.4,2.3l-0.1,0c0-0.3-0.2-0.4-0.3-0.5
			s-0.4-0.1-0.6-0.1l-2.4,0.4L413.2,231.6z"/>
		<path class="st1" d="M416.6,245.2L416.6,245.2c0.5-0.2,0.7-0.3,0.9-0.6c0.1-0.2,0.2-0.5,0.1-0.9l-0.1-1.4l-6,0.5
			c-0.5,0-0.8,0.3-0.7,0.8l-0.1,0l-0.2-2.3l0.1,0c0,0.2,0.1,0.4,0.2,0.5c0.1,0.1,0.3,0.2,0.6,0.2l6-0.5l-0.1-1.4
			c0-0.3-0.1-0.6-0.3-0.9c-0.2-0.2-0.5-0.3-0.9-0.3l0-0.1l1.8-0.2l0,0.1c-0.1,0.1-0.1,0.1-0.2,0.2c0,0-0.1,0.1-0.1,0.2
			c0,0.1,0,0.1,0,0.2c0,0.1,0,0.2,0,0.3l0.4,4.6c0,0.3,0.2,0.5,0.4,0.7l0,0.1L416.6,245.2z"/>
		<path class="st1" d="M418.3,249.7l-6.1,2.4c-0.3,0.1-0.5,0.2-0.7,0.3c-0.1,0.1-0.2,0.2-0.3,0.3c0,0.1-0.1,0.2-0.1,0.4l-0.1,0
			l-0.1-2.3l0.1,0c0,0.2,0,0.4,0.1,0.6c0.1,0.1,0.2,0.2,0.4,0.2c0.1,0,0.3,0,0.4-0.1c0,0,0,0,0.1,0l1.9-0.7l-0.1-2.5l-1.8-0.5
			c-0.2-0.1-0.4-0.1-0.6-0.1c-0.2,0-0.3,0.1-0.4,0.2c-0.1,0.1-0.1,0.2-0.1,0.4l-0.1,0l-0.1-1.7l0.1,0c0,0.2,0.1,0.4,0.3,0.6
			c0.2,0.1,0.4,0.3,0.7,0.3l6.3,1.8L418.3,249.7z M414.2,248.3l0.1,2.3l3.4-1.3l0,0L414.2,248.3z"/>
		<path class="st1" d="M417,258.3L417,258.3c0.4-0.1,0.7-0.3,0.9-0.5c0.3-0.3,0.4-0.6,0.4-1c0-0.3-0.1-0.5-0.2-0.7
			c-0.1-0.2-0.3-0.4-0.5-0.5c-0.2-0.1-0.5-0.2-0.8-0.2c-0.2,0-0.4,0-0.6,0.1c-0.2,0.1-0.3,0.2-0.5,0.3s-0.3,0.3-0.4,0.5
			c-0.1,0.2-0.3,0.4-0.4,0.7c-0.3,0.5-0.6,0.9-0.9,1.2s-0.7,0.4-1.2,0.4c-0.3,0-0.6-0.1-0.9-0.3s-0.5-0.4-0.7-0.7
			c-0.2-0.3-0.3-0.7-0.3-1.2c0-0.3,0-0.6,0.1-0.8c0.1-0.2,0.2-0.5,0.3-0.7c0-0.1,0.1-0.2,0.1-0.2c0-0.1,0-0.1-0.1-0.1
			c0,0-0.2-0.1-0.3-0.1l0-0.1l1.8,0l0,0.1c-0.5,0.1-0.9,0.3-1.2,0.7c-0.3,0.3-0.4,0.7-0.4,1.2c0,0.4,0.1,0.7,0.2,0.9
			c0.1,0.2,0.3,0.4,0.5,0.5c0.2,0.1,0.4,0.1,0.6,0.1c0.4,0,0.7-0.1,1-0.4c0.3-0.2,0.5-0.6,0.8-1.1c0.2-0.3,0.3-0.6,0.5-0.8
			c0.1-0.2,0.2-0.3,0.4-0.5c0.2-0.2,0.4-0.3,0.6-0.4c0.2-0.1,0.5-0.1,0.8-0.1c0.3,0,0.7,0.1,1,0.3c0.3,0.2,0.5,0.4,0.7,0.8
			c0.2,0.3,0.3,0.7,0.3,1.1c0,0.3-0.1,0.6-0.2,1c0,0.1,0,0.1,0,0.2c0,0.1,0.1,0.2,0.2,0.2l0,0.1L417,258.3z"/>
		<path class="st1" d="M418.3,263.7l-6.3,1.9c-0.3,0.1-0.6,0.2-0.7,0.3c-0.1,0.1-0.2,0.2-0.3,0.3c0,0.1-0.1,0.2-0.1,0.3l-0.1,0
			l0.1-2.3l0.1,0c0,0.2,0,0.4,0,0.6c0,0.1,0.2,0.2,0.4,0.2c0.1,0,0.3,0,0.4-0.1c0,0,0,0,0.1,0l1.9-0.6l0.1-2.5l-1.7-0.7
			c-0.2-0.1-0.4-0.1-0.6-0.1c-0.2,0-0.3,0-0.4,0.1s-0.1,0.2-0.1,0.4l-0.1,0l0.1-1.7l0.1,0c0,0.2,0.1,0.4,0.2,0.6
			c0.2,0.2,0.4,0.3,0.7,0.4l6.1,2.3L418.3,263.7z M414.3,261.9l-0.1,2.3l3.5-1l0,0L414.3,261.9z"/>
		<path class="st1" d="M416.7,279.4L416.7,279.4c-0.1-0.2-0.1-0.4-0.2-0.5c-0.1-0.1-0.2-0.3-0.4-0.4c-0.1-0.1-0.4-0.2-0.6-0.4
			c0,0-0.1,0-0.1-0.1l-5.7-2.8l0-0.1l6.7-1.6c0,0,0,0,0.1,0c0.3-0.1,0.5-0.2,0.6-0.3c0.1-0.1,0.2-0.3,0.3-0.6l0.1,0l-0.3,2.3l-0.1,0
			c0-0.2,0-0.4-0.1-0.5c0-0.1-0.2-0.2-0.4-0.2c-0.1,0-0.2,0-0.4,0c0,0,0,0-0.1,0c0,0,0,0,0,0l-5.2,1.3l0,0l4.5,2.2
			c0.3,0.2,0.5,0.2,0.7,0.3c0.3,0,0.4,0,0.5-0.1c0.1-0.1,0.1-0.3,0.2-0.5l0.1,0L416.7,279.4z"/>
		<path class="st1" d="M416.4,281.1L416.4,281.1l-0.6,4.2l-1.1-0.2l0-0.1c0.6,0.1,1-0.2,1.1-1l0.3-1.5l-3.2-0.5l-0.2,1.3
			c0,0.3,0,0.5,0,0.7c0,0.2,0.2,0.4,0.5,0.4l0,0.1l-1.6-0.3l0-0.1c0.2,0,0.3,0,0.4-0.1c0.1-0.1,0.2-0.1,0.2-0.2
			c0-0.1,0.1-0.1,0.1-0.2c0-0.1,0.1-0.2,0.1-0.4l0.2-1.4l-2.5-0.4c-0.2,0-0.4,0-0.5,0s-0.2,0.2-0.3,0.5l-0.2,1.1c0,0.3,0,0.5,0,0.6
			c0,0.2,0.1,0.3,0.2,0.4s0.3,0.2,0.4,0.3l0,0.1l-1.1-0.4l0.7-4.2l0.1,0l0,0.1c0,0.2,0,0.3,0.1,0.5c0.1,0.2,0.3,0.3,0.6,0.3l5.3,0.9
			c0.2,0,0.4,0,0.6-0.1C416.2,281.6,416.3,281.5,416.4,281.1L416.4,281.1z"/>
		<path class="st1" d="M415.3,287.3L415.3,287.3l-0.8,4.2l-1.1-0.2l0-0.1c0.2,0,0.4,0,0.6-0.1c0.2-0.1,0.3-0.3,0.4-0.7l0.4-1.7
			l-3.2-0.7l-0.3,1.6c-0.1,0.3,0,0.5,0.1,0.7c0.1,0.1,0.3,0.2,0.5,0.3l0,0.1l-1.6-0.3l0-0.1c0.2,0,0.4,0,0.5-0.1s0.3-0.3,0.3-0.6
			l0.3-1.6l-2.6-0.5c-0.2,0-0.4,0-0.6,0.1s-0.3,0.3-0.3,0.4l0,0.1l-0.1,0l0.5-2.3l0.1,0l0,0.1c0,0.2,0,0.4,0.1,0.5s0.3,0.3,0.5,0.3
			l5.3,1.1c0.3,0.1,0.5,0,0.7-0.1S415.2,287.6,415.3,287.3L415.3,287.3z"/>
		<path class="st1" d="M413.4,296.2l-6.5,0.6c-0.3,0-0.6,0.1-0.8,0.1c-0.2,0.1-0.3,0.1-0.3,0.2c-0.1,0.1-0.1,0.2-0.2,0.3l-0.1,0
			l0.6-2.3l0.1,0c-0.1,0.2-0.1,0.4-0.1,0.6c0,0.1,0.1,0.2,0.3,0.3c0.1,0,0.3,0,0.5,0c0,0,0,0,0.1,0l2-0.2l0.6-2.4l-1.6-1
			c-0.2-0.1-0.4-0.2-0.5-0.3c-0.2,0-0.3,0-0.4,0c-0.1,0.1-0.2,0.2-0.2,0.4l-0.1,0l0.4-1.6l0.1,0c0,0.2,0,0.4,0.1,0.6
			c0.1,0.2,0.3,0.4,0.6,0.5l5.5,3.5L413.4,296.2z M409.9,293.6l-0.6,2.2l3.6-0.3l0,0L409.9,293.6z"/>
		<path class="st1" d="M407.6,314.4L407.6,314.4c-0.1-0.2-0.1-0.3-0.1-0.5c0-0.1-0.1-0.3-0.3-0.4c-0.1-0.2-0.3-0.4-0.6-0.6l-4.9-3.9
			l0-0.1l6.2,0.2l0,0l-4.9-3.8l0-0.1l6.9,0.2c0.2,0,0.4,0,0.6-0.1c0.1-0.1,0.2-0.1,0.3-0.2s0.1-0.2,0.2-0.3l0.1,0l-0.7,2.1l-0.1,0
			c0.1-0.2,0-0.3,0-0.5s-0.2-0.2-0.3-0.3c-0.1,0-0.3-0.1-0.4-0.1l-5.1-0.2l0,0l4,3.1l0.2,0c0.2,0,0.4,0,0.6-0.1
			c0.2-0.1,0.3-0.2,0.4-0.5l0.1,0l-0.8,2.2l-0.1,0c0.1-0.2,0.1-0.4,0-0.5s-0.2-0.2-0.3-0.2c-0.1,0-0.3-0.1-0.4-0.1l-5.1-0.2l0,0
			l3.7,2.9c0.1,0.1,0.2,0.2,0.4,0.3c0.1,0.1,0.3,0.2,0.4,0.2c0.2,0.1,0.4,0.1,0.4,0s0.2-0.2,0.3-0.4l0.1,0L407.6,314.4z"/>
		<path class="st1" d="M406.8,316L406.8,316l-1.6,4l-1-0.4l0-0.1c0.6,0.2,1,0,1.3-0.8l0.6-1.4l-3-1.2l-0.5,1.2
			c-0.1,0.2-0.1,0.5-0.2,0.7c0,0.2,0.1,0.4,0.4,0.5l0,0.1l-1.5-0.6l0-0.1c0.2,0,0.3,0,0.5,0s0.2-0.1,0.3-0.1
			c0.1-0.1,0.1-0.1,0.1-0.2c0.1-0.1,0.1-0.2,0.2-0.3l0.5-1.3l-2.4-1c-0.2-0.1-0.3-0.1-0.5-0.1c-0.2,0-0.3,0.1-0.4,0.4l-0.4,1
			c-0.1,0.2-0.1,0.4-0.1,0.6c0,0.2,0.1,0.3,0.1,0.5c0.1,0.1,0.2,0.3,0.4,0.4l0,0.1l-0.9-0.7l1.6-4l0.1,0l0,0.1
			c-0.1,0.1-0.1,0.3,0,0.5c0.1,0.2,0.2,0.3,0.5,0.4l5,2.1c0.2,0.1,0.4,0.1,0.6,0.1S406.7,316.3,406.8,316L406.8,316z"/>
		<path class="st1" d="M398,318.9L398,318.9c-0.1,0.2-0.1,0.4,0,0.6c0.1,0.2,0.2,0.3,0.4,0.4l4.9,2.3c0.3,0.1,0.5,0.1,0.7,0.1
			s0.3-0.2,0.4-0.4l0.1,0l-1,2.1l-0.1,0c0.1-0.2,0.1-0.4,0.1-0.6s-0.2-0.3-0.5-0.5l-4.8-2.2c-0.3-0.1-0.5-0.2-0.7-0.1
			s-0.3,0.3-0.5,0.6l-0.3,0.6c-0.1,0.2-0.2,0.5-0.2,0.6c0,0.2,0,0.3,0.1,0.5s0.2,0.3,0.4,0.5l0,0.1l-1-0.7L398,318.9L398,318.9z"/>
		<path class="st1" d="M396.3,331l2.1,1.1c0.2,0.1,0.4,0.1,0.6,0.1s0.3-0.2,0.5-0.4l0.1,0l-1.1,2l-0.1,0c0.1-0.2,0.1-0.4,0.1-0.6
			c-0.1-0.2-0.2-0.3-0.4-0.4l-4.8-2.5c-0.5-0.2-0.8-0.1-1.1,0.3l-0.1,0l1.1-2l0.1,0c-0.1,0.2-0.1,0.4-0.1,0.6s0.2,0.3,0.4,0.5
			l2.5,1.3l1.9-3.7l-2.5-1.3c-0.2-0.1-0.4-0.1-0.6-0.1c-0.2,0.1-0.3,0.2-0.4,0.4l-0.1,0l1.1-2l0.1,0c-0.1,0.2-0.1,0.4-0.1,0.6
			c0.1,0.2,0.2,0.3,0.4,0.4l4.8,2.5c0.5,0.2,0.8,0.1,1.1-0.3l0.1,0l-1.1,2l-0.1,0c0.1-0.2,0.1-0.4,0.1-0.6c-0.1-0.2-0.2-0.3-0.4-0.4
			l-2.1-1.1L396.3,331z"/>
		<path class="st1" d="M392.9,340.3L392.9,340.3c0.4,0.1,0.7,0.1,1.1,0s0.7-0.3,0.9-0.5c0.3-0.2,0.5-0.5,0.6-0.8
			c0.2-0.4,0.3-0.7,0.4-1.1c0-0.4,0-0.8-0.2-1.2c-0.1-0.4-0.4-0.8-0.7-1.1c-0.3-0.4-0.7-0.7-1.1-0.9c-0.4-0.3-0.9-0.4-1.3-0.5
			c-0.4-0.1-0.9-0.1-1.3,0c-0.4,0.1-0.8,0.2-1.1,0.4c-0.3,0.2-0.6,0.5-0.8,0.9c-0.2,0.3-0.3,0.7-0.4,1.1c-0.1,0.5-0.1,0.9,0,1.4
			l-0.2-0.1c-0.1-0.5-0.1-1,0-1.4c0-0.4,0.2-0.8,0.5-1.3c0.3-0.5,0.6-0.9,1.1-1.2c0.4-0.3,0.9-0.5,1.3-0.6s0.9-0.1,1.4,0
			s0.9,0.2,1.3,0.5c0.6,0.4,1.1,0.8,1.4,1.4c0.3,0.6,0.5,1.2,0.5,1.9c0,0.7-0.2,1.3-0.5,1.9c-0.2,0.4-0.5,0.7-0.9,1.1l-0.4,0.4
			c-0.1,0.1-0.1,0.1-0.2,0.2c-0.1,0.1-0.1,0.2-0.1,0.2c0,0.1,0.1,0.1,0.1,0.2l0,0.1L392.9,340.3z"/>
		<path class="st1" d="M383.4,344.7l1.5-2.2l0.1,0l-0.1,0.1c-0.1,0.1-0.1,0.3-0.1,0.5c0,0.2,0.2,0.4,0.4,0.5l4.5,3.1
			c0.2,0.1,0.4,0.2,0.6,0.2c0.2,0,0.3-0.1,0.5-0.3l0-0.1l0.1,0l-1.3,1.9c-0.2,0.3-0.4,0.5-0.6,0.6c-0.2,0.2-0.5,0.3-0.7,0.3
			c-0.2,0.1-0.5,0.1-0.7,0c-0.2,0-0.4-0.1-0.6-0.3c-0.4-0.2-0.6-0.6-0.6-0.9c-0.1-0.4,0-0.8,0.2-1.3l0,0c-0.1,0.2-0.3,0.3-0.4,0.5
			c-0.2,0.1-0.3,0.2-0.5,0.3c-0.2,0.1-0.3,0.1-0.5,0.2c-0.2,0-0.3,0.1-0.5,0c-0.2,0-0.3,0-0.5-0.1c-0.2-0.1-0.3-0.1-0.5-0.2
			c-0.3-0.2-0.5-0.5-0.6-0.8s-0.2-0.6-0.1-0.9C382.8,345.6,383,345.2,383.4,344.7z M386.6,346.4l0.4-0.6l-2.1-1.5
			c-0.1-0.1-0.3-0.2-0.4-0.2s-0.3,0-0.4,0.1c-0.2,0.1-0.3,0.2-0.5,0.5c-0.4,0.5-0.5,1.1-0.3,1.5c0.1,0.3,0.4,0.6,0.7,0.8
			c0.2,0.2,0.5,0.3,0.7,0.3s0.5,0,0.7,0c0.2-0.1,0.4-0.2,0.6-0.3S386.5,346.6,386.6,346.4z M387.2,345.9l-0.3,0.4
			c-0.2,0.3-0.3,0.6-0.4,0.7c0,0.1,0,0.2,0,0.4c0,0.1,0.1,0.3,0.2,0.5c0.1,0.2,0.3,0.4,0.5,0.5c0.2,0.1,0.4,0.2,0.6,0.3
			c0.2,0.1,0.4,0.1,0.6,0s0.4-0.1,0.6-0.2c0.2-0.1,0.3-0.2,0.4-0.4c0.1-0.2,0.2-0.3,0.3-0.6L387.2,345.9z"/>
		<path class="st1" d="M386.7,352.2L386.7,352.2l-2.5,3.5l-0.9-0.7l0-0.1c0.5,0.4,1,0.2,1.5-0.4l0.9-1.2l-2.6-2l-0.8,1.1
			c-0.2,0.2-0.3,0.4-0.3,0.6c-0.1,0.2,0,0.4,0.3,0.6l0,0.1l-1.3-1l0-0.1c0.2,0.1,0.3,0.1,0.4,0.1c0.1,0,0.2,0,0.3-0.1
			c0.1,0,0.1-0.1,0.2-0.1c0.1-0.1,0.2-0.2,0.2-0.3l0.8-1.1l-2-1.5c-0.2-0.1-0.3-0.2-0.5-0.2c-0.2,0-0.3,0.1-0.5,0.3l-0.6,0.9
			c-0.2,0.2-0.3,0.4-0.3,0.6c0,0.2,0,0.3,0,0.5c0,0.2,0.1,0.3,0.2,0.5l0,0.1l-0.7-0.9l2.6-3.4l0.1,0l-0.1,0.1
			c-0.1,0.1-0.1,0.3-0.1,0.5c0,0.2,0.1,0.4,0.3,0.5l4.3,3.3c0.2,0.1,0.4,0.2,0.5,0.2C386.3,352.6,386.5,352.5,386.7,352.2
			L386.7,352.2z"/>
		<path class="st1" d="M377.4,352.7L377.4,352.7c-0.2,0.2-0.2,0.4-0.2,0.6s0.1,0.4,0.3,0.5l4.2,3.4c0.2,0.2,0.4,0.3,0.6,0.2
			c0.2,0,0.3-0.1,0.5-0.3l0.1,0.1l-1.5,1.8l-0.1-0.1c0.1-0.2,0.2-0.3,0.2-0.5s-0.1-0.4-0.3-0.6l-4.1-3.3c-0.2-0.2-0.5-0.3-0.7-0.2
			c-0.2,0-0.4,0.2-0.6,0.5l-0.4,0.5c-0.2,0.2-0.3,0.4-0.3,0.6c-0.1,0.2-0.1,0.3,0,0.5c0,0.2,0.1,0.4,0.3,0.6l-0.1,0.1l-0.7-1
			L377.4,352.7L377.4,352.7z"/>
		<path class="st1" d="M377.5,363.7L377.5,363.7c0.1-0.2,0.2-0.4,0.2-0.6c0-0.2-0.1-0.4-0.3-0.6l-4.1-3.6c-0.2-0.2-0.4-0.3-0.6-0.2
			c-0.2,0-0.4,0.1-0.5,0.3l-0.1-0.1l1.5-1.7l0.1,0.1c-0.1,0.2-0.2,0.3-0.2,0.5s0.1,0.4,0.3,0.6l4.1,3.6c0.2,0.2,0.4,0.3,0.6,0.2
			c0.2,0,0.3-0.1,0.5-0.3l0.1,0.1L377.5,363.7z"/>
		<path class="st1" d="M374,367.6l-6-2.7c-0.3-0.1-0.6-0.2-0.7-0.2c-0.2,0-0.3,0-0.4,0c-0.1,0-0.2,0.1-0.3,0.2l-0.1-0.1l1.6-1.7
			l0.1,0.1c-0.2,0.2-0.3,0.3-0.3,0.5c-0.1,0.1,0,0.3,0.1,0.4c0.1,0.1,0.2,0.2,0.4,0.2c0,0,0,0,0.1,0l1.8,0.8l1.7-1.8l-0.9-1.6
			c-0.1-0.2-0.2-0.4-0.3-0.5c-0.1-0.1-0.3-0.2-0.4-0.2c-0.1,0-0.2,0.1-0.4,0.2l-0.1-0.1l1.2-1.2l0.1,0.1c-0.1,0.2-0.2,0.4-0.2,0.6
			c0,0.2,0.1,0.5,0.3,0.8l3.1,5.7L374,367.6z M372.2,363.6l-1.6,1.7l3.3,1.5l0,0L372.2,363.6z"/>
		<path class="st1" d="M365.6,365.9L365.6,365.9c-0.2,0.2-0.3,0.3-0.3,0.5c0,0.2,0.1,0.4,0.3,0.6l3.8,3.9c0.2,0.2,0.4,0.3,0.6,0.3
			s0.4-0.1,0.5-0.2l0.1,0.1l-1.7,1.6l-0.1-0.1c0.1-0.1,0.2-0.3,0.3-0.5c0-0.2-0.1-0.4-0.3-0.6l-3.7-3.8c-0.2-0.2-0.4-0.3-0.6-0.3
			c-0.2,0-0.4,0.2-0.7,0.4l-0.4,0.4c-0.2,0.2-0.3,0.4-0.4,0.5c-0.1,0.2-0.1,0.3-0.1,0.5c0,0.2,0.1,0.4,0.2,0.6l-0.1,0.1l-0.6-1
			L365.6,365.9L365.6,365.9z"/>
		<path class="st1" d="M358.2,372.9L358.2,372.9c-0.2,0.2-0.3,0.3-0.3,0.5c0,0.2,0.1,0.4,0.2,0.6l3.5,4.1c0.2,0.2,0.4,0.3,0.6,0.3
			c0.2,0,0.4-0.1,0.5-0.2l0.1,0.1l-1.8,1.5l-0.1-0.1c0.1-0.1,0.2-0.3,0.3-0.5c0-0.2,0-0.4-0.2-0.6l-3.4-4c-0.2-0.2-0.4-0.4-0.6-0.3
			c-0.2,0-0.4,0.1-0.7,0.4l-0.5,0.4c-0.2,0.2-0.3,0.3-0.4,0.5c-0.1,0.2-0.1,0.3-0.1,0.5c0,0.2,0.1,0.4,0.1,0.6l-0.1,0.1l-0.6-1.1
			L358.2,372.9L358.2,372.9z"/>
		<path class="st1" d="M356.3,383.7L356.3,383.7c0.1-0.2,0.2-0.4,0.3-0.5s0-0.4-0.2-0.6l-3.4-4.3c-0.2-0.2-0.4-0.3-0.6-0.3
			c-0.2,0-0.4,0.1-0.5,0.2l0-0.1l1.8-1.4l0,0.1c-0.2,0.1-0.3,0.3-0.3,0.5c0,0.2,0,0.4,0.2,0.6l3.4,4.3c0.2,0.2,0.4,0.3,0.6,0.3
			s0.4-0.1,0.5-0.2l0.1,0.1L356.3,383.7z"/>
		<path class="st1" d="M354.6,384.9L354.6,384.9l0.1,0l-2,1.5c-0.3,0.2-0.6,0.4-0.9,0.5c-0.3,0.1-0.6,0.1-0.8,0
			c-0.2-0.1-0.4-0.2-0.6-0.3c-0.2-0.1-0.3-0.3-0.5-0.4c-0.2-0.2-0.3-0.4-0.3-0.7c-0.1-0.3,0-0.5,0-0.8s0.2-0.5,0.5-0.8l0,0
			c-0.5,0.1-1,0-1.7-0.3l-1.2-0.5c-0.5-0.2-0.9-0.3-1.1-0.3c-0.2,0-0.4,0-0.6,0.1l0-0.1l1.1-0.8c0.1,0,0.2,0,0.2,0.1
			s0.2,0.1,0.3,0.1c0.1,0,0.1,0.1,0.2,0.1c0.1,0,0.2,0.1,0.2,0.1l1.5,0.6c0.3,0.1,0.6,0.2,0.8,0.3c0.3,0,0.5,0,0.6,0
			c0.2,0,0.3-0.1,0.4-0.1s0.2-0.1,0.4-0.2l-1.6-2.1c-0.3-0.4-0.7-0.5-1.1-0.2l0-0.1l1.8-1.4l0,0.1c-0.1,0.1-0.2,0.2-0.3,0.3
			c-0.1,0.1-0.1,0.2-0.1,0.4c0,0.1,0.1,0.3,0.2,0.4l3.2,4.4c0.2,0.2,0.3,0.4,0.5,0.4C354.3,385,354.5,385,354.6,384.9z M351.5,383
			l-0.3,0.2c-0.3,0.3-0.6,0.5-0.7,0.8c-0.1,0.3-0.2,0.5-0.2,0.8c0,0.3,0.2,0.5,0.4,0.8c0.2,0.2,0.4,0.4,0.6,0.6s0.5,0.2,0.9,0.2
			c0.3,0,0.7-0.2,1-0.4c0.1-0.1,0.3-0.2,0.3-0.3L351.5,383z"/>
		<path class="st1" d="M345.8,391.4l-5.2-3.9c-0.3-0.2-0.5-0.3-0.7-0.4c-0.2-0.1-0.3-0.1-0.4-0.1s-0.2,0.1-0.3,0.1l0-0.1l2-1.3
			l0,0.1c-0.2,0.1-0.3,0.3-0.4,0.4c-0.1,0.1-0.1,0.2,0,0.4c0.1,0.1,0.2,0.2,0.3,0.3c0,0,0,0,0,0l1.6,1.2l2.1-1.4l-0.5-1.8
			c-0.1-0.2-0.1-0.4-0.2-0.5c-0.1-0.2-0.2-0.3-0.3-0.3s-0.3,0.1-0.4,0.2l0-0.1l1.4-0.9l0,0.1c-0.2,0.2-0.3,0.3-0.3,0.5
			c0,0.2,0,0.5,0.1,0.8l1.7,6.3L345.8,391.4z M344.8,387.1l-1.9,1.3l2.9,2.2l0,0L344.8,387.1z"/>
		<path class="st1" d="M335.7,395.7L335.7,395.7c0.3,0.2,0.6,0.4,1,0.5c0.4,0.1,0.7,0.1,1.1,0s0.7-0.2,0.9-0.4
			c0.4-0.2,0.6-0.5,0.9-0.8s0.4-0.7,0.4-1.1c0.1-0.4,0-0.8-0.1-1.3c-0.1-0.5-0.3-0.9-0.6-1.4c-0.3-0.4-0.6-0.8-0.9-1.1
			c-0.3-0.3-0.7-0.5-1.1-0.6c-0.4-0.1-0.8-0.2-1.2-0.1c-0.4,0-0.8,0.2-1.1,0.4c-0.3,0.2-0.6,0.5-0.9,0.8c-0.3,0.4-0.5,0.8-0.6,1.2
			l-0.1-0.2c0.2-0.5,0.4-0.9,0.6-1.2c0.2-0.3,0.6-0.6,1-0.9c0.5-0.3,1-0.5,1.5-0.5c0.5-0.1,1,0,1.4,0.1c0.5,0.1,0.9,0.3,1.2,0.6
			s0.7,0.6,0.9,1c0.4,0.6,0.5,1.2,0.6,1.9s-0.1,1.3-0.5,1.9c-0.3,0.6-0.8,1.1-1.4,1.4c-0.4,0.2-0.8,0.4-1.3,0.5l-0.5,0.1
			c-0.1,0-0.2,0.1-0.2,0.1c-0.1,0.1-0.2,0.1-0.2,0.2c0,0.1,0,0.1,0,0.2l-0.1,0L335.7,395.7z"/>
		<path class="st1" d="M328.3,397.7l1.1,2.1c0.1,0.2,0.3,0.3,0.4,0.4c0.2,0.1,0.4,0,0.6-0.1l0,0.1l-2,1.1l0-0.1
			c0.2-0.1,0.4-0.3,0.4-0.5c0-0.2,0-0.4-0.1-0.6l-2.5-4.8c-0.2-0.5-0.6-0.6-1.1-0.3l0-0.1l2-1.1l0,0.1c-0.2,0.1-0.4,0.3-0.4,0.4
			c-0.1,0.2,0,0.4,0.1,0.6l1.3,2.5l3.6-1.9l-1.3-2.5c-0.1-0.2-0.3-0.4-0.5-0.4c-0.2-0.1-0.4,0-0.6,0.1l0-0.1l2-1.1l0,0.1
			c-0.2,0.1-0.4,0.3-0.4,0.4s0,0.4,0.1,0.6l2.5,4.8c0.2,0.5,0.6,0.6,1.1,0.3l0,0.1l-2,1.1l0-0.1c0.2-0.1,0.4-0.3,0.4-0.5
			c0-0.2,0-0.4-0.1-0.6l-1.1-2.1L328.3,397.7z"/>
		<path class="st1" d="M316.5,405.2L316.5,405.2c0.3,0.4,0.5,0.6,0.8,0.6c0.3,0,0.6,0,0.9-0.2l1.3-0.6l-2.4-5.6
			c-0.2-0.5-0.5-0.6-1-0.4l0-0.1l2.1-0.9l0,0.1c-0.2,0.1-0.3,0.2-0.4,0.4c-0.1,0.2-0.1,0.4,0,0.6l2.4,5.6l1.3-0.6
			c0.3-0.1,0.6-0.3,0.7-0.5c0.2-0.2,0.2-0.6,0-1l0.1,0l0.7,1.6l-0.1,0c-0.1-0.1-0.1-0.1-0.2-0.1c-0.1,0-0.1,0-0.2,0
			c-0.1,0-0.1,0-0.2,0c-0.1,0-0.2,0.1-0.3,0.1l-4.3,1.8c-0.3,0.1-0.5,0.3-0.5,0.6l-0.1,0L316.5,405.2z"/>
		<path class="st1" d="M312.7,408.3l-4.2-5c-0.2-0.3-0.4-0.4-0.5-0.5c-0.1-0.1-0.3-0.1-0.4-0.2c-0.1,0-0.2,0-0.4,0.1l0-0.1l2.2-0.8
			l0,0.1c-0.2,0.1-0.4,0.2-0.5,0.3c-0.1,0.1-0.1,0.2-0.1,0.4c0,0.1,0.1,0.2,0.2,0.4c0,0,0,0,0,0l1.3,1.6l2.3-0.9l-0.1-1.9
			c0-0.3,0-0.4-0.1-0.6c-0.1-0.2-0.2-0.3-0.3-0.3c-0.1,0-0.3,0-0.4,0.1l0-0.1l1.6-0.6l0,0.1c-0.2,0.1-0.4,0.3-0.4,0.5
			s-0.1,0.5-0.1,0.8l0.3,6.5L312.7,408.3z M312.8,403.9l-2.1,0.8l2.3,2.8l0,0L312.8,403.9z"/>
		<path class="st1" d="M304.2,409.6L304.2,409.6c0.2,0.3,0.5,0.5,0.8,0.7s0.7,0.2,1.1,0.1c0.3-0.1,0.5-0.2,0.6-0.4
			c0.2-0.2,0.3-0.4,0.3-0.7c0-0.2,0-0.5-0.1-0.8c-0.1-0.2-0.2-0.4-0.3-0.5c-0.1-0.1-0.3-0.3-0.4-0.3c-0.2-0.1-0.4-0.2-0.6-0.2
			s-0.5-0.1-0.9-0.2c-0.6-0.1-1.1-0.3-1.4-0.4c-0.4-0.2-0.6-0.5-0.8-1c-0.1-0.3-0.1-0.6,0-0.9c0.1-0.3,0.2-0.6,0.5-0.9
			c0.2-0.3,0.6-0.5,1-0.6c0.3-0.1,0.5-0.1,0.8-0.2c0.2,0,0.5,0,0.7,0c0.1,0,0.2,0,0.2,0c0.1,0,0.1-0.1,0.1-0.1s0-0.2,0-0.3l0.1,0
			l0.6,1.7l-0.1,0c-0.3-0.5-0.6-0.8-1-0.9s-0.8-0.2-1.3,0c-0.3,0.1-0.6,0.3-0.8,0.5c-0.2,0.2-0.3,0.4-0.3,0.6c0,0.2,0,0.4,0.1,0.6
			c0.1,0.4,0.3,0.7,0.7,0.8c0.3,0.2,0.7,0.3,1.3,0.4c0.4,0.1,0.7,0.1,0.9,0.2c0.2,0,0.4,0.1,0.6,0.2s0.4,0.2,0.6,0.4
			c0.2,0.2,0.3,0.4,0.4,0.7c0.1,0.3,0.1,0.7,0,1c-0.1,0.3-0.2,0.7-0.5,0.9c-0.3,0.3-0.6,0.5-1,0.6c-0.3,0.1-0.6,0.1-1,0.1
			c-0.1,0-0.1,0-0.2,0c-0.1,0-0.1,0.1-0.1,0.3l-0.1,0L304.2,409.6z"/>
		<path class="st1" d="M299.4,412.6l-3.7-5.4c-0.2-0.3-0.4-0.5-0.5-0.6c-0.1-0.1-0.3-0.2-0.4-0.2c-0.1,0-0.2,0-0.4,0l0-0.1l2.3-0.6
			l0,0.1c-0.2,0.1-0.4,0.1-0.5,0.2s-0.1,0.2-0.1,0.4c0,0.1,0.1,0.2,0.2,0.4c0,0,0,0,0,0.1l1.1,1.7l2.4-0.7l0.1-1.9
			c0-0.3,0-0.5,0-0.6c-0.1-0.2-0.1-0.3-0.3-0.3c-0.1,0-0.3,0-0.4,0l0-0.1l1.6-0.5l0,0.1c-0.2,0.1-0.4,0.2-0.5,0.4
			c-0.1,0.2-0.2,0.5-0.2,0.8l-0.3,6.5L299.4,412.6z M299.9,408.2l-2.2,0.6l2,3l0,0L299.9,408.2z"/>
		<path class="st1" d="M284,416L284,416c0.2-0.1,0.3-0.2,0.4-0.4c0.1-0.1,0.2-0.3,0.2-0.4c0.1-0.2,0.1-0.4,0.2-0.7c0,0,0-0.1,0-0.1
			l0.9-6.3l0.1,0l3.6,5.9c0,0,0,0,0,0.1c0.1,0.3,0.3,0.4,0.5,0.5c0.2,0.1,0.4,0.1,0.6,0.1l0,0.1l-2.3,0.5l0-0.1
			c0.2-0.1,0.3-0.1,0.4-0.2c0.1-0.1,0.1-0.2,0.1-0.4c0-0.1-0.1-0.2-0.1-0.3c0,0,0,0,0,0c0,0,0,0,0,0l-2.8-4.6l0,0l-0.7,4.9
			c0,0.3-0.1,0.6,0,0.7c0,0.3,0.1,0.4,0.3,0.4c0.1,0,0.3,0.1,0.5,0l0,0.1L284,416z"/>
		<path class="st1" d="M282.3,416.2L282.3,416.2l-4.2,0.7l-0.2-1.1l0.1,0c0.1,0.6,0.5,0.8,1.3,0.7l1.5-0.2l-0.5-3.2l-1.3,0.2
			c-0.3,0-0.5,0.1-0.7,0.2s-0.3,0.3-0.3,0.6l-0.1,0l-0.2-1.6l0.1,0c0.1,0.2,0.1,0.3,0.2,0.4c0.1,0.1,0.2,0.1,0.3,0.2
			c0.1,0,0.2,0,0.2,0c0.1,0,0.2,0,0.4,0l1.4-0.2l-0.4-2.5c0-0.2-0.1-0.3-0.2-0.5c-0.1-0.1-0.3-0.2-0.5-0.1l-1.1,0.2
			c-0.3,0-0.5,0.1-0.6,0.2c-0.2,0.1-0.3,0.2-0.3,0.4c-0.1,0.1-0.1,0.3-0.2,0.5l-0.1,0l0.1-1.2l4.2-0.6l0,0.1l-0.1,0
			c-0.2,0-0.3,0.1-0.4,0.3c-0.1,0.1-0.2,0.4-0.1,0.6l0.8,5.4c0,0.2,0.1,0.4,0.2,0.5C281.8,416.2,282,416.2,282.3,416.2L282.3,416.2z
			"/>
		<path class="st1" d="M276.1,417.1L276.1,417.1l-4.3,0.6l-0.1-1.1l0.1,0c0,0.2,0.1,0.4,0.3,0.6c0.2,0.2,0.4,0.2,0.8,0.2l1.7-0.2
			l-0.4-3.2l-1.6,0.2c-0.3,0-0.5,0.1-0.6,0.3c-0.1,0.1-0.1,0.3-0.2,0.5l-0.1,0l-0.2-1.6l0.1,0c0,0.2,0.1,0.4,0.3,0.5
			c0.1,0.1,0.3,0.2,0.7,0.1l1.6-0.2l-0.3-2.6c0-0.2-0.1-0.4-0.3-0.5c-0.2-0.1-0.3-0.2-0.5-0.2l-0.1,0l0-0.1l2.3-0.3l0,0.1l-0.1,0
			c-0.2,0-0.3,0.1-0.5,0.3c-0.1,0.2-0.2,0.4-0.1,0.6l0.6,5.4c0,0.3,0.1,0.5,0.3,0.6C275.7,417.1,275.8,417.1,276.1,417.1
			L276.1,417.1z"/>
		<path class="st1" d="M267.1,418.1l-2.6-6c-0.1-0.3-0.3-0.5-0.4-0.7c-0.1-0.1-0.2-0.2-0.3-0.3c-0.1,0-0.2,0-0.4-0.1l0-0.1l2.3-0.2
			l0,0.1c-0.2,0-0.4,0.1-0.6,0.1c-0.1,0.1-0.2,0.2-0.2,0.4c0,0.1,0,0.3,0.1,0.4c0,0,0,0,0,0.1l0.8,1.9l2.5-0.2l0.4-1.8
			c0.1-0.2,0.1-0.4,0.1-0.6c0-0.2-0.1-0.3-0.2-0.4s-0.3-0.1-0.4-0.1l0-0.1l1.7-0.1l0,0.1c-0.2,0-0.4,0.1-0.6,0.3s-0.2,0.4-0.3,0.8
			l-1.6,6.3L267.1,418.1z M268.5,413.9l-2.3,0.2l1.4,3.3l0,0L268.5,413.9z"/>
		<path class="st1" d="M247.9,418.2L247.9,418.2c0.1-0.1,0.3-0.2,0.4-0.2c0.1-0.1,0.2-0.2,0.3-0.4c0.1-0.2,0.2-0.4,0.4-0.8l2.1-5.9
			l0.1,0l1.7,6h0l2.1-5.9l0.1,0l1.9,6.6c0.1,0.2,0.2,0.4,0.3,0.5c0.1,0.1,0.2,0.2,0.3,0.2c0.1,0,0.2,0,0.3,0.1l0,0.1l-2.2,0l0-0.1
			c0.2,0,0.3-0.1,0.4-0.2c0.1-0.1,0.2-0.2,0.2-0.4c0-0.1,0-0.3-0.1-0.4l-1.4-4.9l0,0l-1.7,4.8l0.1,0.2c0.1,0.2,0.2,0.4,0.3,0.5
			s0.3,0.2,0.6,0.3l0,0.1l-2.3,0l0-0.1c0.3,0,0.4-0.1,0.5-0.2c0.1-0.1,0.1-0.2,0.1-0.4c0-0.1,0-0.3-0.1-0.4l-1.4-4.9l0,0l-1.6,4.5
			c0,0.1-0.1,0.3-0.1,0.4c0,0.2-0.1,0.3-0.1,0.4c0,0.2,0,0.4,0.1,0.4c0.1,0.1,0.2,0.1,0.5,0.1l0,0.1L247.9,418.2z"/>
		<path class="st1" d="M246.2,418L246.2,418l-4.3-0.2l0.1-1.1l0.1,0c0,0.6,0.3,0.9,1.1,1l1.5,0.1l0.2-3.3l-1.3-0.1
			c-0.3,0-0.5,0-0.7,0.1c-0.2,0.1-0.3,0.3-0.4,0.6l-0.1,0l0.1-1.6l0.1,0c0,0.2,0.1,0.3,0.1,0.4c0.1,0.1,0.1,0.2,0.2,0.2
			c0.1,0,0.1,0.1,0.2,0.1c0.1,0,0.2,0,0.4,0.1l1.4,0.1l0.2-2.5c0-0.2,0-0.4-0.1-0.5c-0.1-0.1-0.2-0.2-0.5-0.2l-1.1-0.1
			c-0.3,0-0.5,0-0.6,0.1c-0.2,0.1-0.3,0.2-0.4,0.3c-0.1,0.1-0.2,0.3-0.3,0.5l-0.1,0l0.3-1.1l4.3,0.3l0,0.1l-0.1,0
			c-0.2,0-0.3,0-0.5,0.2c-0.2,0.1-0.2,0.3-0.3,0.6l-0.4,5.4c0,0.2,0,0.4,0.1,0.6C245.7,417.9,245.9,418,246.2,418L246.2,418z"/>
		<path class="st1" d="M240.7,410.5L240.7,410.5c-0.3,0-0.4,0-0.6,0.1c-0.1,0.1-0.2,0.3-0.3,0.6l-0.6,5.4c0,0.3,0,0.5,0.2,0.6
			c0.1,0.1,0.3,0.2,0.5,0.2l0,0.1l-2.3-0.3l0-0.1c0.2,0,0.4,0,0.6-0.1c0.2-0.1,0.3-0.3,0.3-0.6l0.6-5.2c0-0.3,0-0.5-0.2-0.7
			c-0.1-0.1-0.4-0.2-0.7-0.3l-0.6-0.1c-0.3,0-0.5,0-0.7,0c-0.2,0-0.3,0.1-0.4,0.3c-0.1,0.1-0.2,0.3-0.3,0.5l-0.1,0l0.4-1.1
			L240.7,410.5L240.7,410.5z"/>
		<path class="st1" d="M228.7,412.7l-0.4,2.4c0,0.2,0,0.4,0.1,0.6s0.3,0.3,0.5,0.3l0,0.1l-2.3-0.4l0-0.1c0.3,0,0.5,0,0.6-0.1
			s0.2-0.3,0.3-0.5l0.9-5.4c0.1-0.5-0.1-0.8-0.6-0.9l0-0.1l2.3,0.4l0,0.1c-0.2,0-0.4,0-0.6,0.1c-0.2,0.1-0.3,0.3-0.3,0.5l-0.4,2.8
			l4.1,0.7l0.4-2.8c0-0.2,0-0.5-0.1-0.6c-0.1-0.2-0.3-0.3-0.5-0.3l0-0.1l2.3,0.4l0,0.1c-0.2,0-0.4,0-0.6,0.1
			c-0.2,0.1-0.2,0.3-0.3,0.5l-0.9,5.4c-0.1,0.5,0.1,0.8,0.6,0.9l0,0.1l-2.3-0.4l0-0.1c0.3,0,0.5,0,0.6-0.1c0.1-0.1,0.2-0.3,0.3-0.5
			l0.4-2.4L228.7,412.7z"/>
		<path class="st1" d="M218.7,412.4L218.7,412.4c0.1,0.4,0.2,0.7,0.4,1s0.5,0.5,0.8,0.7c0.3,0.2,0.6,0.3,0.9,0.4
			c0.4,0.1,0.8,0.1,1.2,0c0.4-0.1,0.8-0.3,1.1-0.5c0.3-0.3,0.6-0.6,0.8-1c0.2-0.4,0.4-0.9,0.5-1.4c0.1-0.5,0.1-1,0.1-1.4
			c0-0.5-0.2-0.9-0.4-1.2c-0.2-0.4-0.5-0.7-0.8-0.9c-0.3-0.2-0.7-0.4-1.1-0.5c-0.4-0.1-0.8-0.1-1.2,0c-0.5,0.1-0.9,0.2-1.3,0.5
			l0.1-0.3c0.5-0.2,0.9-0.4,1.3-0.5c0.4-0.1,0.8-0.1,1.4,0.1c0.6,0.1,1,0.3,1.4,0.6s0.7,0.7,1,1.1c0.2,0.4,0.4,0.8,0.5,1.3
			c0.1,0.5,0.1,0.9,0,1.4c-0.1,0.7-0.5,1.3-0.9,1.8c-0.5,0.5-1,0.9-1.7,1.1c-0.6,0.2-1.3,0.3-2,0.1c-0.4-0.1-0.8-0.2-1.3-0.5
			L219,414c-0.1,0-0.2-0.1-0.2-0.1c-0.1,0-0.2,0-0.3,0s-0.1,0.1-0.1,0.2l-0.1,0L218.7,412.4z"/>
		<path class="st1" d="M211.6,404.7l2.6,0.8l0,0.1l-0.1,0c-0.2-0.1-0.3,0-0.5,0.1s-0.3,0.3-0.4,0.5l-1.5,5.2c-0.1,0.2-0.1,0.5,0,0.6
			s0.2,0.3,0.4,0.3l0.1,0l0,0.1l-2.3-0.7c-0.3-0.1-0.6-0.2-0.8-0.4s-0.4-0.3-0.5-0.5c-0.1-0.2-0.2-0.4-0.2-0.6s0-0.4,0-0.7
			c0.1-0.4,0.4-0.7,0.7-0.9c0.3-0.2,0.8-0.3,1.3-0.3l0,0c-0.2-0.1-0.4-0.2-0.6-0.3c-0.2-0.1-0.3-0.2-0.5-0.3
			c-0.1-0.1-0.2-0.3-0.3-0.4c-0.1-0.1-0.2-0.3-0.2-0.5s-0.1-0.3-0.1-0.5c0-0.2,0-0.3,0.1-0.5c0.1-0.4,0.3-0.6,0.6-0.8
			s0.5-0.3,0.8-0.4C210.5,404.5,211,404.6,211.6,404.7z M211.6,408.8l-0.4-0.1c-0.4-0.1-0.6-0.2-0.8-0.1c-0.1,0-0.2,0.1-0.4,0.1
			c-0.1,0.1-0.3,0.2-0.4,0.3c-0.2,0.2-0.3,0.4-0.3,0.6c-0.1,0.2-0.1,0.4-0.1,0.6s0.1,0.4,0.1,0.6c0.1,0.2,0.2,0.3,0.3,0.5
			c0.1,0.1,0.3,0.2,0.5,0.3c0.2,0.1,0.4,0.1,0.6,0.1L211.6,408.8z M211,408.4l0.7,0.2l0.7-2.5c0-0.2,0.1-0.3,0.1-0.4
			s-0.1-0.2-0.2-0.4c-0.1-0.1-0.3-0.2-0.6-0.3c-0.6-0.2-1.1-0.1-1.5,0.2c-0.3,0.2-0.5,0.5-0.6,0.9c-0.1,0.3-0.1,0.5-0.1,0.8
			c0,0.2,0.1,0.5,0.2,0.6c0.1,0.2,0.3,0.4,0.5,0.5S210.7,408.3,211,408.4z"/>
		<path class="st1" d="M205.5,410.3L205.5,410.3l-4.1-1.3l0.4-1.1l0.1,0c-0.2,0.6,0.1,1,0.9,1.3l1.4,0.5l1.1-3.1l-1.2-0.4
			c-0.2-0.1-0.5-0.1-0.7-0.1s-0.4,0.2-0.5,0.4l-0.1,0l0.5-1.5l0.1,0c0,0.2,0,0.3,0,0.5c0,0.1,0.1,0.2,0.2,0.3s0.1,0.1,0.2,0.1
			c0.1,0.1,0.2,0.1,0.3,0.1l1.3,0.4l0.8-2.4c0.1-0.2,0.1-0.4,0.1-0.5c0-0.2-0.2-0.3-0.4-0.4l-1-0.3c-0.2-0.1-0.5-0.1-0.6-0.1
			c-0.2,0-0.3,0.1-0.5,0.2c-0.1,0.1-0.3,0.2-0.4,0.4l-0.1,0l0.6-1l4.1,1.4l0,0.1l-0.1,0c-0.1,0-0.3,0-0.5,0
			c-0.2,0.1-0.3,0.2-0.4,0.5l-1.8,5.1c-0.1,0.2-0.1,0.4,0,0.6C205,410,205.2,410.2,205.5,410.3L205.5,410.3z"/>
		<path class="st1" d="M202.1,401.6L202.1,401.6c-0.3-0.1-0.4-0.1-0.6,0s-0.3,0.2-0.4,0.5l-2,5.1c-0.1,0.3-0.1,0.5,0,0.7
			c0.1,0.2,0.2,0.3,0.4,0.4l0,0.1l-2.1-0.8l0-0.1c0.2,0.1,0.4,0.1,0.6,0c0.2-0.1,0.3-0.2,0.4-0.5l1.9-4.9c0.1-0.3,0.1-0.5,0-0.7
			c-0.1-0.2-0.3-0.3-0.6-0.4l-0.6-0.2c-0.3-0.1-0.5-0.1-0.6-0.1s-0.3,0-0.5,0.1s-0.3,0.2-0.5,0.4l-0.1,0l0.7-1L202.1,401.6
			L202.1,401.6z"/>
		<path class="st1" d="M191.7,405.1L191.7,405.1c0.2,0,0.4,0,0.6,0c0.2-0.1,0.3-0.2,0.4-0.5l2.1-5c0.1-0.3,0.1-0.5,0-0.6
			c-0.1-0.2-0.2-0.3-0.4-0.4l0-0.1l2.1,0.9l0,0.1c-0.2-0.1-0.4-0.1-0.6,0c-0.2,0.1-0.3,0.2-0.4,0.5l-2.1,5c-0.1,0.3-0.1,0.5,0,0.7
			s0.2,0.3,0.4,0.4l0,0.1L191.7,405.1z"/>
		<path class="st1" d="M186.9,403.1l0.7-6.5c0-0.3,0-0.6,0-0.8c0-0.2-0.1-0.3-0.1-0.4c-0.1-0.1-0.2-0.1-0.3-0.2l0-0.1l2.1,1l0,0.1
			c-0.2-0.1-0.4-0.2-0.5-0.2c-0.1,0-0.2,0.1-0.3,0.3c0,0.1-0.1,0.2-0.1,0.4c0,0,0,0,0,0.1l-0.2,2l2.3,1.1l1.3-1.4
			c0.2-0.2,0.3-0.3,0.4-0.5c0.1-0.2,0.1-0.3,0-0.4s-0.2-0.2-0.3-0.3l0-0.1l1.5,0.7l0,0.1c-0.2-0.1-0.4-0.1-0.6,0
			c-0.2,0.1-0.4,0.3-0.7,0.5l-4.5,4.7L186.9,403.1z M190.1,400.1l-2.1-1l-0.4,3.6l0,0L190.1,400.1z"/>
		<path class="st1" d="M185.9,394.6L185.9,394.6c-0.2-0.1-0.4-0.1-0.6-0.1c-0.2,0.1-0.3,0.2-0.5,0.4l-2.5,4.8
			c-0.1,0.3-0.2,0.5-0.1,0.7s0.2,0.3,0.4,0.4l0,0.1l-2-1.1l0-0.1c0.2,0.1,0.4,0.1,0.6,0.1s0.4-0.2,0.5-0.4l2.4-4.6
			c0.1-0.3,0.2-0.5,0.1-0.7c-0.1-0.2-0.3-0.4-0.6-0.5l-0.5-0.3c-0.2-0.1-0.4-0.2-0.6-0.2c-0.2,0-0.3,0-0.5,0.1
			c-0.1,0.1-0.3,0.2-0.5,0.4l-0.1,0l0.8-0.9L185.9,394.6L185.9,394.6z"/>
		<path class="st1" d="M176.9,389.6L176.9,389.6c-0.2-0.1-0.4-0.2-0.6-0.1s-0.3,0.2-0.5,0.4l-2.8,4.6c-0.2,0.3-0.2,0.5-0.1,0.7
			c0.1,0.2,0.2,0.3,0.4,0.4l0,0.1l-2-1.2l0-0.1c0.2,0.1,0.4,0.1,0.6,0.1s0.4-0.2,0.5-0.4l2.7-4.5c0.2-0.3,0.2-0.5,0.1-0.7
			c-0.1-0.2-0.3-0.4-0.6-0.6l-0.5-0.3c-0.2-0.1-0.4-0.2-0.6-0.3s-0.3,0-0.5,0.1c-0.1,0.1-0.3,0.2-0.5,0.3l-0.1,0l0.8-0.9
			L176.9,389.6L176.9,389.6z"/>
		<path class="st1" d="M166,391.2L166,391.2c0.2,0,0.4,0.1,0.6,0.1s0.4-0.1,0.5-0.4l3-4.6c0.2-0.2,0.2-0.4,0.1-0.6s-0.2-0.3-0.3-0.4
			l0-0.1l1.9,1.3l0,0.1c-0.2-0.1-0.4-0.2-0.6-0.1c-0.2,0-0.4,0.1-0.5,0.4l-3,4.6c-0.2,0.3-0.2,0.5-0.1,0.6c0.1,0.2,0.2,0.3,0.4,0.4
			l0,0.1L166,391.2z"/>
		<path class="st1" d="M164.4,390L164.4,390l0,0.1l-2-1.4c-0.3-0.2-0.6-0.5-0.7-0.7c-0.2-0.3-0.2-0.5-0.3-0.8c0-0.2,0-0.5,0.1-0.7
			c0.1-0.2,0.2-0.4,0.3-0.6c0.2-0.2,0.3-0.4,0.6-0.5s0.5-0.2,0.8-0.2c0.3,0,0.6,0.1,0.9,0.2l0,0c-0.2-0.4-0.3-1-0.3-1.7l0.1-1.3
			c0-0.6,0-1,0-1.2c-0.1-0.2-0.2-0.4-0.3-0.5l0-0.1l1.1,0.8c0,0.1,0,0.2,0,0.3c0,0.1,0,0.2,0,0.3c0,0.1,0,0.1,0,0.3
			c0,0.1,0,0.2,0,0.2l-0.1,1.7c0,0.3,0,0.6,0,0.9s0.1,0.5,0.2,0.6s0.2,0.3,0.3,0.4c0.1,0.1,0.2,0.2,0.3,0.3l1.5-2.1
			c0.3-0.4,0.2-0.8-0.2-1.1l0-0.1l1.9,1.3l0,0.1c-0.1-0.1-0.2-0.1-0.4-0.2c-0.1,0-0.2,0-0.4,0c-0.1,0.1-0.2,0.2-0.4,0.3l-3.2,4.4
			c-0.2,0.2-0.2,0.4-0.2,0.6C164.2,389.8,164.3,389.9,164.4,390z M165.2,386.4l-0.3-0.2c-0.4-0.2-0.7-0.4-1-0.5s-0.6,0-0.8,0.1
			s-0.4,0.3-0.6,0.6c-0.2,0.2-0.3,0.5-0.3,0.8s0,0.6,0.1,0.9c0.1,0.3,0.4,0.6,0.7,0.8c0.1,0.1,0.3,0.2,0.4,0.2L165.2,386.4z"/>
		<path class="st1" d="M155.4,383.6l2.1-6.2c0.1-0.3,0.2-0.6,0.2-0.7s0-0.3-0.1-0.4c0-0.1-0.1-0.2-0.2-0.3l0-0.1l1.8,1.5l0,0.1
			c-0.2-0.1-0.3-0.2-0.5-0.3s-0.3,0-0.4,0.2c-0.1,0.1-0.1,0.2-0.2,0.4c0,0,0,0,0,0.1l-0.7,1.9l2,1.5l1.5-1c0.2-0.1,0.4-0.3,0.5-0.4
			c0.1-0.2,0.2-0.3,0.1-0.4c0-0.1-0.1-0.2-0.3-0.3l0-0.1l1.3,1l0,0.1c-0.2-0.1-0.4-0.2-0.6-0.1s-0.5,0.2-0.8,0.3l-5.4,3.6
			L155.4,383.6z M159.3,381.4l-1.8-1.4l-1.2,3.4l0,0L159.3,381.4z"/>
		<path class="st1" d="M148.3,375.4L148.3,375.4c-0.1,0.4-0.2,0.7-0.1,1.1s0.2,0.7,0.3,1c0.2,0.3,0.4,0.6,0.6,0.8
			c0.3,0.3,0.7,0.5,1.1,0.6c0.4,0.1,0.8,0.1,1.2,0.1c0.4-0.1,0.8-0.2,1.2-0.5c0.4-0.2,0.8-0.6,1.1-1c0.3-0.4,0.6-0.8,0.8-1.2
			c0.2-0.4,0.3-0.8,0.3-1.3s-0.1-0.8-0.2-1.2c-0.2-0.4-0.4-0.7-0.7-1c-0.3-0.2-0.6-0.4-1.1-0.6s-0.9-0.2-1.4-0.2l0.2-0.2
			c0.5,0,1,0.1,1.4,0.2c0.4,0.1,0.8,0.4,1.2,0.7c0.4,0.4,0.8,0.8,1,1.2c0.2,0.5,0.3,0.9,0.3,1.4c0,0.5-0.1,0.9-0.2,1.4
			c-0.2,0.4-0.4,0.8-0.7,1.2c-0.5,0.5-1,0.9-1.7,1.1c-0.7,0.2-1.3,0.3-2,0.2c-0.7-0.1-1.3-0.4-1.8-0.9c-0.3-0.3-0.6-0.6-0.9-1
			l-0.3-0.4c-0.1-0.1-0.1-0.1-0.2-0.2c-0.1-0.1-0.2-0.1-0.2-0.1c-0.1,0-0.1,0-0.2,0.1l-0.1-0.1L148.3,375.4z"/>
		<path class="st1" d="M144,369l-1.7,1.7c-0.2,0.2-0.3,0.4-0.3,0.5c0,0.2,0.1,0.4,0.3,0.6l-0.1,0.1l-1.6-1.6l0.1-0.1
			c0.2,0.2,0.4,0.3,0.6,0.2s0.4-0.1,0.5-0.3l3.8-3.9c0.4-0.4,0.4-0.7,0-1.1l0.1-0.1l1.6,1.6l-0.1,0.1c-0.2-0.2-0.4-0.3-0.6-0.3
			c-0.2,0-0.4,0.1-0.6,0.3l-2,2l3,2.9l2-2c0.2-0.2,0.3-0.4,0.3-0.6c0-0.2-0.1-0.4-0.3-0.5l0.1-0.1l1.6,1.6l-0.1,0.1
			c-0.2-0.2-0.4-0.3-0.6-0.2s-0.4,0.1-0.5,0.3l-3.8,3.9c-0.4,0.4-0.4,0.8,0,1.1l-0.1,0.1l-1.6-1.6l0.1-0.1c0.2,0.2,0.4,0.3,0.6,0.3
			s0.4-0.1,0.5-0.3l1.7-1.7L144,369z"/>
		<path class="st1" d="M133.2,360.1L133.2,360.1c-0.3,0.4-0.4,0.7-0.4,1c0.1,0.3,0.2,0.5,0.4,0.8l0.9,1.1l4.5-4
			c0.4-0.3,0.4-0.7,0.1-1.1l0.1-0.1l1.5,1.7l-0.1,0.1c-0.1-0.2-0.3-0.3-0.5-0.3c-0.2,0-0.4,0-0.6,0.2l-4.5,4l0.9,1.1
			c0.2,0.3,0.5,0.4,0.7,0.5c0.3,0.1,0.6,0,1-0.3l0.1,0.1l-1.3,1.2L136,366c0-0.1,0-0.2,0-0.2c0-0.1,0-0.1,0-0.2
			c0-0.1-0.1-0.1-0.1-0.2c0-0.1-0.1-0.1-0.2-0.2l-3.1-3.5c-0.2-0.2-0.5-0.3-0.7-0.3l-0.1-0.1L133.2,360.1z"/>
		<path class="st1" d="M129.2,357.5l3.5-5.5c0.2-0.3,0.3-0.5,0.3-0.7c0-0.2,0.1-0.3,0-0.4c0-0.1-0.1-0.2-0.2-0.3l0.1,0l1.5,1.8
			l-0.1,0c-0.2-0.2-0.3-0.3-0.4-0.4s-0.3,0-0.4,0.1c-0.1,0.1-0.2,0.2-0.3,0.4c0,0,0,0,0,0.1l-1.1,1.7l1.6,1.9l1.7-0.7
			c0.2-0.1,0.4-0.2,0.5-0.3c0.2-0.1,0.2-0.2,0.2-0.4c0-0.1-0.1-0.3-0.2-0.4l0.1,0l1.1,1.3l-0.1,0c-0.2-0.2-0.4-0.3-0.6-0.3
			s-0.5,0-0.8,0.2l-6.1,2.3L129.2,357.5z M133.4,356.2l-1.4-1.8l-1.9,3.1l0,0L133.4,356.2z"/>
		<path class="st1" d="M125.2,349.9L125.2,349.9c-0.2,0.3-0.4,0.6-0.4,1c-0.1,0.4,0,0.7,0.3,1.1c0.2,0.2,0.4,0.4,0.6,0.5
			c0.2,0.1,0.5,0.1,0.7,0.1c0.3,0,0.5-0.1,0.7-0.3c0.2-0.1,0.3-0.3,0.4-0.4c0.1-0.2,0.2-0.3,0.2-0.5c0-0.2,0-0.4,0-0.6
			s0-0.5-0.1-0.9c-0.1-0.6-0.1-1.1,0-1.5c0.1-0.4,0.3-0.8,0.7-1.1c0.2-0.2,0.5-0.3,0.9-0.3c0.3,0,0.7,0,1,0.2
			c0.3,0.1,0.6,0.4,0.9,0.8c0.2,0.2,0.3,0.5,0.4,0.7c0.1,0.2,0.1,0.5,0.2,0.7c0,0.1,0.1,0.2,0.1,0.2c0,0.1,0.1,0.1,0.1,0.1
			c0.1,0,0.2-0.1,0.3-0.1l0,0.1l-1.5,1.1l0-0.1c0.4-0.4,0.5-0.8,0.6-1.3c0-0.4-0.1-0.8-0.4-1.2c-0.2-0.3-0.4-0.5-0.7-0.6
			s-0.5-0.1-0.7-0.1c-0.2,0-0.4,0.1-0.5,0.2c-0.3,0.2-0.5,0.5-0.6,0.9c-0.1,0.3,0,0.8,0,1.4c0.1,0.4,0.1,0.7,0.1,0.9
			c0,0.2,0,0.4,0,0.6c0,0.2-0.1,0.5-0.2,0.7c-0.1,0.2-0.3,0.4-0.5,0.6c-0.3,0.2-0.6,0.3-0.9,0.4c-0.4,0-0.7,0-1.1-0.2
			c-0.3-0.2-0.6-0.4-0.9-0.7c-0.2-0.3-0.3-0.5-0.4-0.9c0-0.1,0-0.1-0.1-0.2c-0.1-0.1-0.2-0.1-0.3,0l0-0.1L125.2,349.9z"/>
		<path class="st1" d="M120.9,346.2l3.9-5.2c0.2-0.3,0.3-0.5,0.4-0.7c0.1-0.2,0.1-0.3,0.1-0.4c0-0.1-0.1-0.2-0.1-0.3l0.1,0l1.3,2
			l-0.1,0c-0.1-0.2-0.3-0.3-0.4-0.4s-0.2-0.1-0.4,0c-0.1,0.1-0.2,0.2-0.3,0.3c0,0,0,0,0,0l-1.2,1.6l1.4,2.1l1.8-0.5
			c0.2-0.1,0.4-0.1,0.5-0.2c0.2-0.1,0.3-0.2,0.3-0.4s-0.1-0.3-0.2-0.4l0.1,0l0.9,1.4l-0.1,0c-0.2-0.2-0.3-0.3-0.6-0.3
			c-0.2,0-0.5,0-0.8,0.1l-6.3,1.8L120.9,346.2z M125.2,345.3l-1.3-1.9l-2.2,2.9l0,0L125.2,345.3z"/>
		<path class="st1" d="M112.8,332.6L112.8,332.6c0.2,0.1,0.3,0.2,0.5,0.3c0.1,0.1,0.3,0.1,0.5,0.1c0.2,0,0.4,0,0.7-0.1
			c0,0,0.1,0,0.1,0l6.2-1.1l0,0.1l-4.4,5.3c0,0,0,0,0,0c-0.2,0.2-0.3,0.4-0.3,0.6s0,0.4,0.1,0.6l-0.1,0l-1.2-2.1l0.1,0
			c0.1,0.2,0.2,0.3,0.3,0.4c0.1,0.1,0.3,0.1,0.5,0c0.1,0,0.1-0.1,0.3-0.2c0,0,0,0,0,0c0,0,0,0,0,0l3.5-4.1l0,0l-4.9,0.9
			c-0.3,0.1-0.6,0.1-0.7,0.2c-0.2,0.1-0.3,0.3-0.3,0.4s0,0.3,0.1,0.5l-0.1,0L112.8,332.6z"/>
		<path class="st1" d="M112.1,331.1L112.1,331.1l-2-3.8l1-0.5l0,0.1c-0.5,0.3-0.6,0.8-0.3,1.5l0.7,1.3l2.9-1.5l-0.6-1.2
			c-0.1-0.2-0.3-0.4-0.4-0.6c-0.2-0.1-0.4-0.2-0.7-0.1l0-0.1l1.5-0.7l0,0.1c-0.2,0.1-0.3,0.2-0.3,0.3s-0.1,0.2-0.1,0.3
			c0,0.1,0,0.2,0.1,0.2c0,0.1,0.1,0.2,0.1,0.3l0.6,1.2l2.3-1.2c0.2-0.1,0.3-0.2,0.4-0.3c0.1-0.1,0.1-0.3,0-0.5l-0.5-1
			c-0.1-0.2-0.2-0.4-0.4-0.5c-0.1-0.1-0.3-0.2-0.5-0.2s-0.3,0-0.5,0l0-0.1l1.1-0.3l1.9,3.8l-0.1,0l0-0.1c-0.1-0.1-0.2-0.2-0.4-0.3
			c-0.2-0.1-0.4,0-0.6,0.1l-4.8,2.4c-0.2,0.1-0.3,0.2-0.4,0.4C111.9,330.6,111.9,330.8,112.1,331.1L112.1,331.1z"/>
		<path class="st1" d="M109.3,325.5L109.3,325.5l-1.9-3.9l1-0.5l0,0.1c-0.2,0.1-0.3,0.3-0.4,0.5c-0.1,0.2-0.1,0.5,0.1,0.8l0.7,1.6
			l3-1.4l-0.7-1.5c-0.1-0.3-0.3-0.4-0.4-0.5s-0.3,0-0.6,0l0-0.1l1.5-0.7l0,0.1c-0.2,0.1-0.3,0.2-0.4,0.4c-0.1,0.2,0,0.4,0.1,0.7
			l0.7,1.5l2.4-1.1c0.2-0.1,0.4-0.2,0.4-0.4c0.1-0.2,0.1-0.4,0-0.5l0-0.1l0.1,0l1,2.1l-0.1,0l0-0.1c-0.1-0.2-0.2-0.3-0.4-0.4
			c-0.2-0.1-0.4,0-0.6,0.1l-4.9,2.3c-0.3,0.1-0.4,0.3-0.5,0.5S109.2,325.2,109.3,325.5L109.3,325.5z"/>
		<path class="st1" d="M105.5,317.3l4.9-4.3c0.3-0.2,0.4-0.4,0.5-0.6s0.1-0.3,0.1-0.4c0-0.1,0-0.2-0.1-0.4l0.1,0l0.9,2.2l-0.1,0
			c-0.1-0.2-0.2-0.4-0.3-0.5s-0.2-0.1-0.4,0c-0.1,0-0.2,0.1-0.4,0.3c0,0,0,0,0,0l-1.5,1.3l0.9,2.3l1.9-0.1c0.3,0,0.4-0.1,0.6-0.1
			c0.2-0.1,0.3-0.2,0.3-0.3c0-0.1,0-0.3-0.1-0.4l0.1,0l0.6,1.6l-0.1,0c-0.1-0.2-0.3-0.4-0.5-0.4s-0.5-0.1-0.8-0.1l-6.5,0.5
			L105.5,317.3z M109.9,317.2l-0.9-2.1l-2.7,2.4l0,0L109.9,317.2z"/>
		<path class="st1" d="M99.3,299.1L99.3,299.1c0.2,0.1,0.2,0.2,0.4,0.3c0.1,0.1,0.3,0.2,0.5,0.2c0.2,0.1,0.5,0.1,0.9,0.1l6.3,0.2
			l0,0.1l-5.1,3.5l0,0l6.3,0.2l0,0.1l-5.7,3.9c-0.2,0.1-0.3,0.3-0.4,0.4s-0.1,0.2-0.1,0.3c0,0.1,0,0.2,0,0.3l-0.1,0l-0.7-2.1l0.1,0
			c0.1,0.2,0.2,0.3,0.3,0.4c0.1,0.1,0.3,0.1,0.4,0c0.1,0,0.2-0.1,0.4-0.2l4.2-2.9l0,0l-5.1-0.1l-0.2,0.1c-0.2,0.1-0.3,0.3-0.4,0.4
			c-0.1,0.2-0.1,0.4-0.1,0.7l-0.1,0l-0.7-2.2l0.1,0c0.1,0.2,0.2,0.4,0.3,0.4c0.1,0,0.3,0,0.4,0c0.1,0,0.3-0.1,0.4-0.2l4.2-2.9l0,0
			l-4.8-0.1c-0.1,0-0.3,0-0.4,0c-0.2,0-0.3,0-0.4,0.1c-0.2,0.1-0.3,0.2-0.4,0.3c0,0.1,0,0.3,0,0.5l-0.1,0L99.3,299.1z"/>
		<path class="st1" d="M99,297.4L99,297.4l-1.1-4.1L99,293l0,0.1c-0.6,0.1-0.8,0.6-0.6,1.4l0.4,1.5l3.2-0.8l-0.3-1.3
			c-0.1-0.3-0.2-0.5-0.3-0.6c-0.1-0.2-0.3-0.2-0.6-0.2l0-0.1l1.6-0.4l0,0.1c-0.2,0.1-0.3,0.2-0.4,0.3s-0.1,0.2-0.1,0.3
			c0,0.1,0,0.2,0,0.2c0,0.1,0,0.2,0.1,0.4l0.3,1.3l2.5-0.6c0.2,0,0.3-0.1,0.5-0.2s0.1-0.3,0.1-0.5l-0.3-1c-0.1-0.2-0.1-0.4-0.3-0.6
			c-0.1-0.1-0.2-0.2-0.4-0.3c-0.2-0.1-0.3-0.1-0.5-0.1l0-0.1l1.2,0l1,4.2l-0.1,0l0-0.1c0-0.1-0.1-0.3-0.3-0.4
			c-0.2-0.1-0.4-0.1-0.6-0.1l-5.3,1.3c-0.2,0.1-0.4,0.1-0.5,0.3C99,296.9,98.9,297,99,297.4L99,297.4z"/>
		<path class="st1" d="M104.4,289.8L104.4,289.8c-0.1-0.3-0.2-0.4-0.3-0.5c-0.2-0.1-0.4-0.1-0.6-0.1l-5.3,1.1
			c-0.3,0.1-0.5,0.2-0.6,0.3c-0.1,0.2-0.1,0.4-0.1,0.6l-0.1,0L97,289l0.1,0c0,0.2,0.1,0.4,0.3,0.5c0.1,0.1,0.4,0.2,0.7,0.1l5.1-1.1
			c0.3-0.1,0.5-0.2,0.6-0.4c0.1-0.2,0.1-0.4,0-0.8l-0.1-0.6c-0.1-0.3-0.1-0.5-0.2-0.6c-0.1-0.1-0.2-0.3-0.4-0.3s-0.4-0.1-0.6-0.2
			l0-0.1l1.2,0L104.4,289.8L104.4,289.8z"/>
		<path class="st1" d="M98.6,279.1l-2.4,0.4c-0.2,0-0.4,0.1-0.5,0.3c-0.1,0.1-0.2,0.4-0.1,0.6l-0.1,0l-0.4-2.3l0.1,0
			c0,0.3,0.1,0.4,0.3,0.5c0.2,0.1,0.4,0.1,0.6,0.1l5.4-0.9c0.5-0.1,0.7-0.4,0.7-0.9l0.1,0l0.4,2.3l-0.1,0c0-0.2-0.1-0.4-0.3-0.5
			c-0.2-0.1-0.4-0.2-0.6-0.1l-2.8,0.4l0.6,4.1l2.8-0.4c0.2,0,0.4-0.1,0.5-0.3c0.1-0.2,0.2-0.4,0.1-0.6l0.1,0l0.4,2.3l-0.1,0
			c0-0.2-0.1-0.4-0.3-0.5s-0.4-0.1-0.6-0.1l-5.4,0.9c-0.5,0.1-0.8,0.4-0.7,0.9l-0.1,0l-0.4-2.3l0.1,0c0,0.3,0.1,0.5,0.3,0.6
			s0.4,0.1,0.6,0.1l2.4-0.4L98.6,279.1z"/>
		<path class="st1" d="M95.8,269.5L95.8,269.5c-0.3,0.2-0.6,0.4-0.8,0.7c-0.2,0.3-0.4,0.6-0.4,1c-0.1,0.4-0.1,0.7-0.1,1
			c0,0.4,0.2,0.8,0.4,1.1c0.2,0.3,0.5,0.6,0.8,0.9c0.3,0.2,0.7,0.4,1.2,0.5c0.5,0.1,0.9,0.1,1.5,0.1c0.5-0.1,1-0.2,1.4-0.4
			c0.4-0.2,0.8-0.4,1.1-0.7s0.5-0.6,0.6-1c0.1-0.4,0.2-0.8,0.1-1.2c0-0.4-0.2-0.8-0.3-1.2c-0.2-0.4-0.5-0.8-0.9-1.1l0.3,0
			c0.4,0.4,0.7,0.8,0.9,1.1s0.3,0.8,0.4,1.3c0.1,0.6,0,1.1-0.1,1.6c-0.2,0.5-0.4,0.9-0.7,1.3s-0.7,0.6-1.1,0.9
			c-0.4,0.2-0.9,0.3-1.3,0.4c-0.7,0.1-1.4,0-2-0.3s-1.2-0.7-1.6-1.2s-0.6-1.2-0.7-1.9c0-0.4,0-0.9,0-1.4l0.1-0.5c0-0.1,0-0.2,0-0.3
			c0-0.1,0-0.2-0.1-0.2s-0.1-0.1-0.2-0.1l0-0.1L95.8,269.5z"/>
		<path class="st1" d="M100.9,260.4l0.1,2.7l-0.1,0l0-0.1c0-0.2-0.1-0.3-0.2-0.5c-0.1-0.1-0.3-0.2-0.6-0.2l-5.4,0.2
			c-0.3,0-0.5,0.1-0.6,0.2c-0.1,0.1-0.2,0.3-0.2,0.5l0,0.1l-0.1,0l-0.1-2.3c0-0.3,0-0.6,0.1-0.9s0.2-0.5,0.4-0.7
			c0.2-0.2,0.3-0.3,0.5-0.4c0.2-0.1,0.4-0.2,0.6-0.2c0.4,0,0.8,0.1,1.1,0.4c0.3,0.3,0.5,0.6,0.6,1.1h0c0-0.2,0-0.4,0.1-0.6
			c0-0.2,0.1-0.4,0.2-0.5c0.1-0.2,0.2-0.3,0.3-0.5c0.1-0.1,0.2-0.2,0.4-0.3c0.1-0.1,0.3-0.2,0.5-0.2c0.2,0,0.3-0.1,0.5-0.1
			c0.4,0,0.7,0.1,1,0.3c0.3,0.2,0.5,0.4,0.6,0.6C100.8,259.3,100.9,259.7,100.9,260.4z M97,261.7l0-0.5c0-0.4-0.1-0.7-0.1-0.8
			c-0.1-0.1-0.1-0.2-0.2-0.3c-0.1-0.1-0.2-0.2-0.4-0.3s-0.4-0.1-0.7-0.1c-0.2,0-0.4,0-0.6,0.1c-0.2,0.1-0.4,0.2-0.5,0.3
			s-0.3,0.3-0.3,0.5c-0.1,0.2-0.1,0.4-0.1,0.6c0,0.2,0,0.4,0.1,0.6L97,261.7z M97.2,260.9l0,0.7l2.6-0.1c0.2,0,0.3,0,0.4-0.1
			c0.1,0,0.2-0.1,0.3-0.3c0.1-0.2,0.1-0.4,0.1-0.7c0-0.7-0.3-1.1-0.7-1.4c-0.3-0.2-0.7-0.3-1-0.3c-0.3,0-0.5,0.1-0.7,0.2
			c-0.2,0.1-0.4,0.2-0.5,0.4c-0.1,0.2-0.3,0.4-0.3,0.6C97.3,260.3,97.2,260.6,97.2,260.9z"/>
		<path class="st1" d="M93.7,256.3L93.7,256.3l0-4.3l1.1,0l0,0.1c-0.6,0-0.9,0.4-0.9,1.2l0,1.5l3.3,0.1l0-1.3c0-0.3,0-0.5-0.1-0.7
			c-0.1-0.2-0.3-0.3-0.6-0.4l0-0.1l1.6,0l0,0.1c-0.2,0-0.3,0.1-0.4,0.2c-0.1,0.1-0.2,0.2-0.2,0.2s-0.1,0.1-0.1,0.2
			c0,0.1,0,0.2,0,0.4l0,1.4l2.6,0c0.2,0,0.4,0,0.5-0.1c0.1-0.1,0.2-0.2,0.2-0.5l0-1.1c0-0.3,0-0.5-0.1-0.6c-0.1-0.2-0.2-0.3-0.3-0.4
			s-0.3-0.2-0.5-0.2l0-0.1l1.1,0.3l-0.1,4.3l-0.1,0l0-0.1c0-0.2-0.1-0.3-0.2-0.5c-0.1-0.1-0.3-0.2-0.6-0.2l-5.4-0.1
			c-0.2,0-0.4,0-0.6,0.1S93.7,256,93.7,256.3L93.7,256.3z"/>
		<path class="st1" d="M100.8,250.3L100.8,250.3c0-0.3,0-0.4-0.2-0.6c-0.1-0.1-0.3-0.2-0.6-0.2l-5.4-0.3c-0.3,0-0.5,0.1-0.6,0.2
			c-0.1,0.1-0.2,0.3-0.2,0.5l-0.1,0l0.1-2.3l0.1,0c0,0.2,0,0.4,0.2,0.5c0.1,0.2,0.3,0.3,0.6,0.3l5.2,0.3c0.3,0,0.5-0.1,0.7-0.2
			c0.1-0.2,0.2-0.4,0.2-0.8l0-0.6c0-0.3,0-0.5-0.1-0.7s-0.1-0.3-0.3-0.4c-0.1-0.1-0.3-0.2-0.6-0.3l0-0.1l1.2,0.3L100.8,250.3
			L100.8,250.3z"/>
		<path class="st1" d="M94.3,241.5L94.3,241.5c0.1,0.2,0.1,0.4,0.2,0.6s0.3,0.3,0.6,0.3l5.4,0.4c0.3,0,0.5,0,0.6-0.2
			c0.1-0.1,0.2-0.3,0.2-0.5l0.1,0l-0.2,2.3l-0.1,0c0-0.2,0-0.4-0.1-0.6s-0.3-0.3-0.6-0.3l-5.4-0.4c-0.3,0-0.5,0-0.6,0.2
			c-0.1,0.1-0.2,0.3-0.2,0.5l-0.1,0L94.3,241.5z"/>
		<path class="st1" d="M94.7,236.4l6.4-1.4c0.3-0.1,0.6-0.2,0.7-0.2c0.2-0.1,0.3-0.2,0.3-0.3s0.1-0.2,0.1-0.3l0.1,0l-0.3,2.3l-0.1,0
			c0-0.2,0-0.4,0-0.6s-0.1-0.2-0.3-0.2c-0.1,0-0.3,0-0.5,0c0,0,0,0-0.1,0l-2,0.4l-0.3,2.5l1.7,0.8c0.2,0.1,0.4,0.2,0.6,0.2
			c0.2,0,0.3,0,0.4-0.1s0.1-0.2,0.2-0.4l0.1,0l-0.2,1.7l-0.1,0c0-0.2-0.1-0.4-0.2-0.6c-0.1-0.2-0.4-0.3-0.7-0.5l-5.9-2.8L94.7,236.4
			z M98.6,238.5l0.3-2.3l-3.5,0.8l0,0L98.6,238.5z"/>
		<path class="st1" d="M102.5,232.7L102.5,232.7c0-0.3,0-0.4-0.1-0.6c-0.1-0.2-0.3-0.3-0.5-0.3l-5.4-0.9c-0.3,0-0.5,0-0.7,0.1
			s-0.2,0.3-0.3,0.5l-0.1,0l0.4-2.3l0.1,0c0,0.2,0,0.4,0.1,0.6c0.1,0.2,0.3,0.3,0.6,0.3l5.2,0.9c0.3,0.1,0.5,0,0.7-0.1
			s0.2-0.4,0.3-0.7l0.1-0.6c0-0.3,0-0.5,0-0.7c0-0.2-0.1-0.3-0.2-0.4c-0.1-0.1-0.3-0.2-0.5-0.4l0-0.1l1.1,0.5L102.5,232.7
			L102.5,232.7z"/>
		<path class="st1" d="M104.3,222.7L104.3,222.7c0.1-0.3,0-0.4-0.1-0.6c-0.1-0.2-0.3-0.3-0.5-0.3l-5.3-1.2c-0.3-0.1-0.5,0-0.7,0.1
			c-0.1,0.1-0.3,0.3-0.3,0.5l-0.1,0l0.5-2.2l0.1,0c0,0.2,0,0.4,0.1,0.6c0.1,0.2,0.3,0.3,0.6,0.4l5.1,1.2c0.3,0.1,0.5,0,0.7-0.1
			c0.2-0.1,0.3-0.4,0.4-0.7l0.1-0.6c0.1-0.3,0.1-0.5,0.1-0.7c0-0.2-0.1-0.3-0.2-0.4c-0.1-0.1-0.3-0.3-0.5-0.4l0-0.1l1.1,0.5
			L104.3,222.7L104.3,222.7z"/>
		<path class="st1" d="M99.4,212.8L99.4,212.8c0,0.2,0,0.4,0.1,0.6s0.3,0.3,0.5,0.4l5.3,1.4c0.3,0.1,0.5,0,0.6-0.1
			c0.2-0.1,0.3-0.3,0.3-0.5l0.1,0l-0.6,2.2l-0.1,0c0.1-0.2,0-0.4,0-0.6s-0.3-0.3-0.5-0.4l-5.3-1.4c-0.3-0.1-0.5-0.1-0.7,0.1
			s-0.2,0.3-0.3,0.5l-0.1,0L99.4,212.8z"/>
		<path class="st1" d="M100.1,210.9L100.1,210.9l-0.1,0.1l0.7-2.4c0.1-0.4,0.3-0.7,0.5-0.9s0.4-0.4,0.6-0.5s0.5-0.1,0.7-0.1
			c0.2,0,0.4,0,0.6,0.1c0.2,0.1,0.5,0.2,0.7,0.4c0.2,0.2,0.3,0.4,0.4,0.7c0.1,0.3,0.1,0.6,0.1,0.9l0,0c0.3-0.3,0.8-0.6,1.5-0.8
			l1.2-0.3c0.6-0.1,0.9-0.3,1.1-0.4c0.2-0.1,0.3-0.3,0.4-0.4l0.1,0l-0.4,1.3c-0.1,0-0.2,0.1-0.2,0.1c-0.1,0-0.2,0.1-0.2,0.1
			c-0.1,0-0.1,0-0.3,0.1c-0.1,0-0.2,0.1-0.2,0.1l-1.6,0.4c-0.3,0.1-0.6,0.2-0.8,0.3c-0.2,0.1-0.4,0.2-0.5,0.4
			c-0.1,0.1-0.2,0.2-0.3,0.4s-0.1,0.3-0.2,0.4l2.5,0.8c0.5,0.2,0.8,0,1-0.5l0.1,0l-0.7,2.2l-0.1,0c0-0.1,0-0.3,0-0.4
			c0-0.1-0.1-0.2-0.2-0.3s-0.2-0.2-0.4-0.2l-5.2-1.6c-0.3-0.1-0.5-0.1-0.6,0C100.2,210.7,100.1,210.8,100.1,210.9z M103.7,210.6
			l0.1-0.4c0.1-0.4,0.2-0.8,0.1-1.1c0-0.3-0.1-0.5-0.3-0.7s-0.4-0.3-0.8-0.4c-0.3-0.1-0.5-0.1-0.8-0.1s-0.6,0.1-0.8,0.3
			c-0.3,0.2-0.4,0.5-0.6,0.9c-0.1,0.2-0.1,0.3-0.1,0.4L103.7,210.6z"/>
		<path class="st1" d="M103.3,200.4l6.5,0.1c0.3,0,0.6,0,0.8-0.1s0.3-0.1,0.4-0.2c0.1-0.1,0.1-0.2,0.2-0.3l0.1,0l-0.8,2.2l-0.1,0
			c0.1-0.2,0.1-0.4,0.1-0.5c0-0.1-0.1-0.2-0.3-0.3c-0.1,0-0.3-0.1-0.4-0.1c0,0,0,0-0.1,0l-2,0l-0.8,2.3l1.5,1.1
			c0.2,0.2,0.4,0.3,0.5,0.3c0.2,0.1,0.3,0.1,0.4,0c0.1-0.1,0.2-0.2,0.2-0.4l0.1,0l-0.6,1.6l-0.1,0c0.1-0.2,0-0.4-0.1-0.6
			c-0.1-0.2-0.3-0.4-0.6-0.6l-5.1-4L103.3,200.4z M106.6,203.3l0.8-2.2l-3.6-0.1l0,0L106.6,203.3z"/>
		<path class="st1" d="M108.9,191L108.9,191c-0.4,0-0.7,0-1,0.2c-0.3,0.2-0.6,0.4-0.9,0.6c-0.2,0.3-0.4,0.6-0.5,0.8
			c-0.2,0.4-0.2,0.8-0.2,1.2c0,0.4,0.1,0.8,0.3,1.2c0.2,0.4,0.5,0.7,0.8,1c0.4,0.3,0.8,0.6,1.3,0.8c0.5,0.2,0.9,0.3,1.4,0.3
			c0.5,0,0.9,0,1.3-0.1c0.4-0.1,0.7-0.3,1-0.6s0.5-0.6,0.7-1c0.1-0.3,0.2-0.7,0.3-1.2c0-0.5,0-0.9-0.2-1.4l0.3,0.1
			c0.1,0.5,0.2,1,0.2,1.4c0,0.4-0.1,0.8-0.3,1.3c-0.2,0.5-0.5,1-0.9,1.3c-0.4,0.4-0.8,0.6-1.2,0.8s-0.9,0.2-1.4,0.2
			c-0.5,0-0.9-0.1-1.3-0.3c-0.6-0.3-1.2-0.7-1.6-1.2c-0.4-0.5-0.7-1.2-0.8-1.8c-0.1-0.7,0-1.3,0.3-2c0.2-0.4,0.4-0.8,0.7-1.2
			l0.3-0.4c0.1-0.1,0.1-0.2,0.1-0.2c0-0.1,0.1-0.2,0-0.3c0-0.1-0.1-0.1-0.1-0.2l0-0.1L108.9,191z"/>
		<path class="st1" d="M113.6,185l-2.2-1c-0.2-0.1-0.4-0.1-0.6-0.1s-0.3,0.2-0.5,0.4l-0.1,0l1-2.1l0.1,0c-0.1,0.2-0.1,0.4-0.1,0.6
			s0.2,0.3,0.4,0.4l4.9,2.4c0.5,0.2,0.8,0.1,1-0.4l0.1,0l-1,2.1l-0.1,0c0.1-0.2,0.1-0.4,0.1-0.6c-0.1-0.2-0.2-0.3-0.4-0.4l-2.5-1.2
			l-1.8,3.7l2.5,1.2c0.2,0.1,0.4,0.1,0.6,0.1c0.2-0.1,0.3-0.2,0.4-0.4l0.1,0l-1,2.1l-0.1,0c0.1-0.2,0.1-0.4,0.1-0.6
			c-0.1-0.2-0.2-0.3-0.4-0.4l-4.9-2.4c-0.5-0.2-0.8-0.1-1.1,0.3l-0.1,0l1-2.1l0.1,0c-0.1,0.2-0.1,0.5-0.1,0.6
			c0.1,0.2,0.2,0.3,0.4,0.4l2.2,1L113.6,185z"/>
		<path class="st1" d="M118.7,171.9L118.7,171.9c-0.5-0.1-0.8-0.2-1,0c-0.2,0.1-0.4,0.4-0.6,0.7l-0.7,1.2l5.2,3.1
			c0.4,0.3,0.8,0.2,1.1-0.3l0.1,0l-1.2,2l-0.1,0c0.1-0.2,0.1-0.4,0.1-0.6s-0.2-0.4-0.4-0.5l-5.2-3.1l-0.7,1.2
			c-0.2,0.3-0.3,0.6-0.3,0.9c0,0.3,0.2,0.5,0.6,0.8l0,0.1l-1.5-0.9l0-0.1c0.1,0,0.2,0,0.2,0c0.1,0,0.1,0,0.2-0.1
			c0.1,0,0.1-0.1,0.2-0.2c0.1-0.1,0.1-0.1,0.2-0.2l2.4-4c0.2-0.3,0.2-0.5,0.1-0.8l0-0.1L118.7,171.9z"/>
		<path class="st1" d="M119.9,167.3l6.3,1.6c0.3,0.1,0.6,0.1,0.8,0.1c0.2,0,0.3,0,0.4-0.1c0.1-0.1,0.2-0.1,0.3-0.3l0.1,0l-1.3,2
			l-0.1,0c0.1-0.2,0.2-0.4,0.2-0.5c0-0.1,0-0.3-0.2-0.4c-0.1-0.1-0.2-0.1-0.4-0.2c0,0,0,0-0.1,0L124,169l-1.4,2.1l1.2,1.4
			c0.2,0.2,0.3,0.3,0.4,0.4c0.2,0.1,0.3,0.1,0.4,0.1c0.1,0,0.2-0.1,0.3-0.3l0.1,0l-0.9,1.4l-0.1,0c0.1-0.2,0.1-0.4,0.1-0.6
			c-0.1-0.2-0.2-0.4-0.4-0.7l-4.1-5.1L119.9,167.3z M122.4,170.9l1.3-1.9l-3.5-0.9l0,0L122.4,170.9z"/>
		<path class="st1" d="M125.9,161.1L125.9,161.1c-0.4-0.1-0.7-0.2-1.1-0.1c-0.4,0.1-0.7,0.3-0.9,0.6c-0.2,0.2-0.3,0.5-0.3,0.7
			s0,0.5,0.1,0.7c0.1,0.2,0.3,0.4,0.5,0.6c0.2,0.1,0.4,0.2,0.5,0.3c0.2,0,0.4,0,0.6,0s0.4-0.1,0.6-0.2c0.2-0.1,0.5-0.2,0.8-0.4
			c0.5-0.3,1-0.4,1.4-0.5s0.8,0,1.2,0.3c0.2,0.2,0.4,0.4,0.6,0.7c0.1,0.3,0.2,0.6,0.2,1c0,0.4-0.2,0.7-0.5,1.1
			c-0.2,0.2-0.4,0.4-0.5,0.6s-0.4,0.3-0.6,0.4c-0.1,0.1-0.1,0.1-0.2,0.1c0,0.1,0,0.1,0,0.2c0,0,0.1,0.1,0.2,0.3l0,0.1l-1.5-1l0-0.1
			c0.5,0.2,1,0.3,1.4,0.1c0.4-0.1,0.8-0.4,1-0.8c0.2-0.3,0.3-0.6,0.3-0.8s0-0.5-0.1-0.7c-0.1-0.2-0.2-0.3-0.4-0.4
			c-0.3-0.2-0.7-0.3-1-0.3c-0.4,0.1-0.8,0.2-1.3,0.5c-0.4,0.2-0.6,0.3-0.8,0.4c-0.2,0.1-0.4,0.1-0.6,0.2c-0.2,0-0.5,0-0.7,0
			c-0.2,0-0.5-0.2-0.7-0.3c-0.3-0.2-0.5-0.5-0.6-0.8c-0.1-0.3-0.2-0.7-0.2-1.1c0-0.4,0.2-0.7,0.4-1.1c0.2-0.3,0.4-0.5,0.7-0.7
			c0.1,0,0.1-0.1,0.2-0.1c0.1-0.1,0-0.2-0.1-0.3l0-0.1L125.9,161.1z"/>
		<path class="st1" d="M128.1,155.9l6.2,2.1c0.3,0.1,0.6,0.2,0.7,0.2c0.2,0,0.3,0,0.4-0.1c0.1,0,0.2-0.1,0.3-0.2l0.1,0l-1.4,1.9
			l-0.1,0c0.1-0.2,0.2-0.4,0.3-0.5c0-0.1,0-0.3-0.2-0.4c-0.1-0.1-0.2-0.1-0.4-0.2c0,0,0,0-0.1,0l-1.9-0.7l-1.5,2l1,1.5
			c0.1,0.2,0.3,0.4,0.4,0.5c0.2,0.1,0.3,0.2,0.4,0.1s0.2-0.1,0.3-0.3l0.1,0l-1,1.3l-0.1,0c0.1-0.2,0.2-0.4,0.1-0.6s-0.2-0.5-0.3-0.8
			l-3.6-5.4L128.1,155.9z M130.3,159.7l1.4-1.8l-3.4-1.2l0,0L130.3,159.7z"/>
		<path class="st1" d="M138.4,144L138.4,144c0,0.2-0.1,0.4-0.1,0.5c0,0.2,0,0.3,0.1,0.5c0.1,0.2,0.2,0.4,0.3,0.6c0,0,0,0.1,0.1,0.1
			l3,5.6l0,0.1l-6.4-2.5c0,0,0,0-0.1,0c-0.3-0.1-0.5-0.2-0.7-0.1c-0.2,0-0.4,0.1-0.5,0.3l-0.1-0.1l1.6-1.7l0.1,0.1
			c-0.1,0.2-0.2,0.3-0.2,0.4s0,0.3,0.2,0.4c0,0,0.1,0.1,0.3,0.2c0,0,0,0,0,0s0,0,0,0l5,2l0,0l-2.4-4.4c-0.2-0.3-0.3-0.5-0.4-0.6
			c-0.2-0.2-0.3-0.2-0.5-0.2s-0.3,0.1-0.4,0.3l-0.1-0.1L138.4,144z"/>
		<path class="st1" d="M139.7,142.8L139.7,142.8l3-3.1l0.8,0.8l0,0c-0.4-0.4-0.9-0.4-1.5,0.2l-1.1,1.1l2.3,2.3l0.9-0.9
			c0.2-0.2,0.3-0.4,0.4-0.6c0.1-0.2,0-0.4-0.2-0.7l0.1-0.1l1.2,1.2l-0.1,0.1c-0.2-0.1-0.3-0.2-0.4-0.2c-0.1,0-0.2,0-0.3,0
			c-0.1,0-0.1,0.1-0.2,0.1c-0.1,0.1-0.2,0.1-0.3,0.2l-1,1l1.8,1.8c0.1,0.1,0.3,0.2,0.4,0.3c0.2,0,0.3,0,0.5-0.2l0.8-0.8
			c0.2-0.2,0.3-0.4,0.4-0.5s0.1-0.3,0.1-0.5c0-0.2-0.1-0.3-0.2-0.5l0,0l0.6,1l-3,3l-0.1-0.1l0.1-0.1c0.1-0.1,0.2-0.3,0.2-0.4
			s-0.1-0.4-0.3-0.6l-3.8-3.8c-0.2-0.2-0.3-0.3-0.5-0.3C140.1,142.5,139.9,142.6,139.7,142.8L139.7,142.8z"/>
		<path class="st1" d="M144.1,138.4L144.1,138.4l3.1-3l0.7,0.8l-0.1,0.1c-0.2-0.2-0.4-0.2-0.6-0.3c-0.2,0-0.5,0.1-0.7,0.3l-1.3,1.2
			l2.2,2.4l1.2-1.1c0.2-0.2,0.3-0.4,0.3-0.6c0-0.2-0.1-0.3-0.2-0.5l0.1-0.1l1.1,1.2l-0.1,0.1c-0.2-0.1-0.3-0.2-0.5-0.2
			c-0.2,0-0.4,0.1-0.6,0.3l-1.2,1.1l1.8,1.9c0.2,0.2,0.3,0.3,0.5,0.3s0.4,0,0.5-0.2l0.1-0.1l0.1,0.1l-1.7,1.6l-0.1-0.1l0.1-0.1
			c0.1-0.1,0.2-0.3,0.2-0.5c0-0.2-0.1-0.4-0.2-0.6l-3.7-4c-0.2-0.2-0.4-0.3-0.6-0.3C144.5,138.2,144.3,138.2,144.1,138.4
			L144.1,138.4z"/>
		<path class="st1" d="M150.8,132.2l5.6,3.3c0.3,0.2,0.5,0.3,0.7,0.3c0.2,0,0.3,0,0.4,0c0.1,0,0.2-0.1,0.3-0.2l0.1,0.1l-1.8,1.5
			l-0.1-0.1c0.2-0.2,0.3-0.3,0.4-0.4c0.1-0.1,0-0.3-0.1-0.4c-0.1-0.1-0.2-0.2-0.4-0.3c0,0,0,0-0.1,0l-1.7-1l-1.9,1.6l0.7,1.7
			c0.1,0.2,0.2,0.4,0.3,0.5c0.1,0.2,0.3,0.2,0.4,0.2c0.1,0,0.3-0.1,0.4-0.2l0.1,0.1l-1.3,1.1l-0.1-0.1c0.2-0.2,0.3-0.4,0.3-0.6
			c0-0.2-0.1-0.5-0.2-0.8l-2.5-6L150.8,132.2z M152.2,136.4l1.7-1.5l-3.1-1.8l0,0L152.2,136.4z"/>
		<path class="st1" d="M166.1,120.7L166.1,120.7c-0.1,0.2-0.1,0.3-0.2,0.4c0,0.1-0.1,0.3,0,0.5c0,0.2,0.1,0.5,0.2,0.9l1.8,6l-0.1,0
			l-4.9-3.8l0,0l1.8,6l-0.1,0l-5.5-4.2c-0.2-0.1-0.4-0.2-0.5-0.3c-0.1,0-0.3,0-0.3,0s-0.2,0.1-0.3,0.1l0-0.1l1.8-1.3l0,0.1
			c-0.2,0.1-0.2,0.3-0.3,0.4s0,0.3,0.1,0.4c0.1,0.1,0.2,0.2,0.3,0.3l4.1,3.1l0,0l-1.5-4.9l-0.2-0.1c-0.2-0.1-0.4-0.2-0.6-0.3
			s-0.4,0-0.6,0.2l0-0.1l1.9-1.3l0,0.1c-0.2,0.2-0.3,0.3-0.3,0.5s0.1,0.3,0.1,0.4c0.1,0.1,0.2,0.2,0.3,0.3l4,3.1l0,0l-1.4-4.6
			c0-0.1-0.1-0.3-0.1-0.4c-0.1-0.2-0.1-0.3-0.2-0.4c-0.1-0.2-0.2-0.3-0.4-0.3c-0.1,0-0.3,0.1-0.4,0.2l0-0.1L166.1,120.7z"/>
		<path class="st1" d="M167.6,119.9L167.6,119.9l3.6-2.4l0.6,1l-0.1,0c-0.3-0.5-0.8-0.6-1.5-0.1l-1.3,0.8l1.7,2.8l1.1-0.7
			c0.2-0.1,0.4-0.3,0.5-0.5c0.1-0.2,0.1-0.4,0-0.7l0.1,0l0.9,1.4l-0.1,0c-0.1-0.1-0.2-0.2-0.4-0.3c-0.1,0-0.2-0.1-0.3,0
			c-0.1,0-0.2,0-0.2,0.1c-0.1,0-0.2,0.1-0.3,0.2l-1.2,0.7l1.4,2.2c0.1,0.2,0.2,0.3,0.4,0.4c0.1,0.1,0.3,0,0.5-0.1l0.9-0.6
			c0.2-0.1,0.4-0.3,0.5-0.4c0.1-0.2,0.2-0.3,0.2-0.5c0-0.2,0-0.3-0.1-0.5l0.1,0l0.4,1.1l-3.6,2.3l0-0.1l0.1-0.1
			c0.1-0.1,0.2-0.2,0.3-0.4c0.1-0.2,0-0.4-0.1-0.6l-2.9-4.6c-0.1-0.2-0.3-0.3-0.4-0.4C168.1,119.7,167.9,119.7,167.6,119.9
			L167.6,119.9z"/>
		<path class="st1" d="M176.5,122.6L176.5,122.6c0.2-0.1,0.3-0.3,0.4-0.5c0-0.2,0-0.4-0.1-0.6l-2.7-4.7c-0.2-0.3-0.3-0.4-0.5-0.4
			c-0.2,0-0.4,0-0.6,0.1l0-0.1l2-1.2l0,0.1c-0.2,0.1-0.3,0.2-0.4,0.4c-0.1,0.2,0,0.4,0.1,0.7l2.6,4.5c0.2,0.3,0.3,0.4,0.5,0.4
			c0.2,0,0.4,0,0.8-0.2l0.5-0.3c0.2-0.1,0.4-0.3,0.5-0.4c0.1-0.1,0.2-0.3,0.2-0.4c0-0.2,0-0.4,0-0.6l0.1,0l0.4,1.2L176.5,122.6
			L176.5,122.6z"/>
		<path class="st1" d="M184.9,113.7l-1.1-2.1c-0.1-0.2-0.3-0.3-0.4-0.4c-0.2-0.1-0.4-0.1-0.6,0.1l0-0.1l2-1.1l0,0.1
			c-0.2,0.1-0.4,0.3-0.4,0.5c0,0.2,0,0.4,0.1,0.6l2.5,4.8c0.2,0.5,0.6,0.6,1,0.3l0,0.1l-2,1.1l0-0.1c0.2-0.1,0.4-0.3,0.4-0.4
			c0.1-0.2,0-0.4-0.1-0.6l-1.3-2.5l-3.7,1.9l1.3,2.5c0.1,0.2,0.3,0.4,0.5,0.4c0.2,0.1,0.4,0,0.6-0.1l0,0.1l-2,1.1l0-0.1
			c0.2-0.1,0.4-0.3,0.4-0.4c0.1-0.2,0-0.4-0.1-0.6l-2.5-4.8c-0.2-0.5-0.6-0.6-1-0.4l0-0.1l2-1.1l0,0.1c-0.2,0.1-0.4,0.3-0.4,0.5
			c0,0.2,0,0.4,0.1,0.6l1.1,2.1L184.9,113.7z"/>
		<path class="st1" d="M193,108L193,108c-0.3-0.3-0.5-0.5-0.9-0.6s-0.7-0.1-1.1-0.1c-0.4,0-0.7,0.1-1,0.2c-0.4,0.2-0.7,0.4-1,0.7
			c-0.3,0.3-0.4,0.7-0.6,1.1c-0.1,0.4-0.1,0.8-0.1,1.3s0.2,0.9,0.4,1.4c0.2,0.5,0.5,0.9,0.8,1.2s0.6,0.6,1,0.8
			c0.4,0.2,0.8,0.3,1.2,0.3c0.4,0,0.8-0.1,1.2-0.3c0.3-0.1,0.7-0.4,1-0.7c0.3-0.3,0.6-0.7,0.8-1.2l0.1,0.3c-0.3,0.5-0.5,0.9-0.8,1.2
			s-0.6,0.5-1.1,0.8c-0.5,0.2-1,0.4-1.5,0.4s-1-0.1-1.4-0.3c-0.4-0.2-0.8-0.4-1.2-0.8c-0.3-0.3-0.6-0.7-0.8-1.1
			c-0.3-0.6-0.4-1.3-0.3-2c0.1-0.7,0.3-1.3,0.7-1.9s0.9-1,1.5-1.3c0.4-0.2,0.8-0.3,1.3-0.4l0.5-0.1c0.1,0,0.2,0,0.2-0.1
			c0.1-0.1,0.2-0.1,0.2-0.2c0-0.1,0-0.1,0-0.2l0.1,0L193,108z"/>
		<path class="st1" d="M203.3,110l-2.5,0.9l0-0.1l0.1,0c0.2-0.1,0.3-0.2,0.4-0.3s0.1-0.4,0-0.6l-1.8-5.1c-0.1-0.2-0.2-0.4-0.4-0.5
			c-0.2-0.1-0.3-0.1-0.5,0l-0.1,0l0-0.1l2.2-0.8c0.3-0.1,0.6-0.2,0.8-0.2s0.5,0,0.7,0.1s0.4,0.2,0.6,0.4c0.2,0.2,0.3,0.3,0.4,0.6
			c0.1,0.4,0.1,0.8,0,1.1c-0.2,0.3-0.5,0.7-0.9,0.9l0,0c0.2-0.1,0.4-0.1,0.6-0.1c0.2,0,0.4,0,0.6,0c0.2,0,0.4,0.1,0.5,0.1
			c0.2,0.1,0.3,0.2,0.4,0.3c0.1,0.1,0.2,0.2,0.3,0.4c0.1,0.1,0.2,0.3,0.2,0.5c0.1,0.4,0.1,0.7,0.1,1c-0.1,0.3-0.2,0.6-0.4,0.8
			C204.3,109.5,203.9,109.8,203.3,110z M200.9,106.7l0.4-0.2c0.4-0.1,0.6-0.3,0.7-0.4c0.1-0.1,0.2-0.2,0.2-0.3s0.1-0.3,0.2-0.5
			c0-0.2,0-0.5-0.1-0.7c-0.1-0.2-0.2-0.4-0.3-0.5c-0.1-0.2-0.3-0.3-0.5-0.4c-0.2-0.1-0.4-0.2-0.6-0.2c-0.2,0-0.4,0-0.6,0.1
			c-0.2,0.1-0.4,0.2-0.6,0.3L200.9,106.7z M201.7,106.7l-0.7,0.3l0.9,2.4c0.1,0.2,0.1,0.3,0.2,0.4c0.1,0.1,0.2,0.2,0.4,0.2
			s0.4,0,0.7-0.1c0.6-0.2,1-0.6,1.1-1.1c0.1-0.4,0.1-0.7-0.1-1.1c-0.1-0.3-0.2-0.5-0.4-0.6c-0.2-0.2-0.4-0.3-0.6-0.4
			c-0.2-0.1-0.4-0.1-0.7-0.1S202,106.6,201.7,106.7z"/>
		<path class="st1" d="M204.9,101.9L204.9,101.9l4.1-1.4l0.3,1.1l-0.1,0c-0.2-0.6-0.7-0.7-1.4-0.5l-1.4,0.5l1,3.1l1.3-0.4
			c0.2-0.1,0.5-0.2,0.6-0.3c0.2-0.1,0.2-0.4,0.2-0.7l0.1,0l0.5,1.6l-0.1,0c-0.1-0.2-0.2-0.3-0.3-0.4c-0.1-0.1-0.2-0.1-0.3-0.1
			c-0.1,0-0.2,0-0.2,0c-0.1,0-0.2,0-0.4,0.1l-1.3,0.4l0.8,2.4c0.1,0.2,0.1,0.3,0.3,0.4c0.1,0.1,0.3,0.1,0.5,0l1-0.3
			c0.2-0.1,0.4-0.2,0.6-0.3c0.1-0.1,0.2-0.3,0.3-0.4c0.1-0.2,0.1-0.3,0.1-0.5l0.1,0l0.1,1.2l-4.1,1.3l0-0.1l0.1,0
			c0.1,0,0.3-0.1,0.4-0.3c0.1-0.2,0.1-0.4,0-0.6l-1.6-5.2c-0.1-0.2-0.2-0.4-0.3-0.5C205.5,101.8,205.3,101.8,204.9,101.9
			L204.9,101.9z"/>
		<path class="st1" d="M212.8,106.8L212.8,106.8c0.3-0.1,0.4-0.2,0.5-0.3s0.1-0.4,0-0.6l-1.4-5.2c-0.1-0.3-0.2-0.5-0.4-0.5
			c-0.2-0.1-0.4-0.1-0.6,0l0-0.1l2.2-0.6l0,0.1c-0.2,0.1-0.3,0.2-0.5,0.3c-0.1,0.2-0.1,0.4-0.1,0.7l1.4,5.1c0.1,0.3,0.2,0.5,0.4,0.6
			c0.2,0.1,0.4,0.1,0.8,0l0.6-0.2c0.3-0.1,0.5-0.2,0.6-0.3s0.2-0.2,0.3-0.4c0.1-0.2,0.1-0.4,0.1-0.6l0.1,0l0,1.2L212.8,106.8
			L212.8,106.8z"/>
		<path class="st1" d="M219.1,97.8L219.1,97.8c-0.2,0.1-0.4,0.2-0.5,0.4c-0.1,0.2-0.1,0.4-0.1,0.6l1.3,5.3c0.1,0.3,0.2,0.4,0.4,0.5
			c0.2,0.1,0.4,0.1,0.6,0.1l0,0.1l-2.2,0.5l0-0.1c0.2,0,0.4-0.1,0.5-0.3s0.1-0.4,0.1-0.6l-1.3-5.3c-0.1-0.3-0.2-0.5-0.4-0.5
			s-0.4-0.1-0.6,0l0-0.1L219.1,97.8z"/>
		<path class="st1" d="M224.2,96.7l3.3,5.6c0.2,0.3,0.3,0.5,0.5,0.6c0.1,0.1,0.2,0.2,0.3,0.2c0.1,0,0.2,0,0.4,0l0,0.1l-2.3,0.5
			l0-0.1c0.2,0,0.4-0.1,0.5-0.2s0.2-0.2,0.1-0.4c0-0.1-0.1-0.2-0.2-0.4c0,0,0,0,0-0.1l-1-1.7l-2.4,0.5l-0.2,1.8c0,0.3,0,0.4,0,0.6
			c0,0.2,0.1,0.3,0.2,0.4c0.1,0,0.3,0.1,0.4,0l0,0.1l-1.7,0.3l0-0.1c0.2-0.1,0.4-0.2,0.5-0.4s0.2-0.5,0.2-0.8l0.8-6.5L224.2,96.7z
			 M223.4,101l2.2-0.4l-1.8-3.1l0,0L223.4,101z"/>
		<path class="st1" d="M230.1,102.9L230.1,102.9c0.3,0,0.4-0.1,0.5-0.3c0.1-0.2,0.1-0.4,0.1-0.6l-0.8-5.4c0-0.3-0.2-0.5-0.3-0.6
			s-0.4-0.1-0.6-0.1l0-0.1l2.3-0.4l0,0.1c-0.2,0-0.4,0.1-0.5,0.3c-0.1,0.1-0.2,0.4-0.1,0.7l0.8,5.2c0,0.3,0.2,0.5,0.3,0.6
			c0.2,0.1,0.4,0.1,0.8,0.1l0.6-0.1c0.3,0,0.5-0.1,0.6-0.2c0.1-0.1,0.3-0.2,0.3-0.4c0.1-0.1,0.1-0.3,0.2-0.6l0.1,0l-0.1,1.2
			L230.1,102.9L230.1,102.9z"/>
	</g>
	<path d="M379.7,196.6v-0.3l-2.9-2.9v0h-15.3l-2.9,2.9v0.4h6.4v10.9l-32.4-32.4v-16.9h-22.9v15.4H300v-15.4h-22.9v15.4h-9.7v-15.4
		h-22.9v15.4h-9.7v-15.4H212v15.4h-9.7v-15.4h-22.9v16.9L147,207.5v-10.9h6.4v-0.3l-2.9-2.9v0h-15.3l-2.9,2.9v0.4h6.4v38.6h-6.4v0.3
		l2.9,2.9v0h15.3l2.9-2.9v-0.4H147v-12l24.7,24.7v17.3h45.5v-15.4h27.4c-0.8,23.8-20.7,42.8-44.9,42.8H198
		c-17.6,0-29.1-8.9-37.3-28.8c3.5-1.6,6-5.1,6-9.2c0-5.6-4.5-10.1-10.1-10.1c-5.6,0-10.1,4.5-10.1,10.1c0,4.5,2.9,8.3,7,9.6v45h-5.3
		l-5.7-9.6v24.4l5.7-9.6h5.3v7.9l-9.6,5.7h24.4l-9.6-5.7v-7.9h5.3l5.7,9.6v-24.4L164,309h-5.3v-37.2c8.3,16.6,20,24.9,36.2,25.8V346
		c-4.2,1.3-7.3,5.3-7.3,9.9c0,5.7,4.7,10.4,10.4,10.4s10.4-4.7,10.4-10.4c0-4.7-3.1-8.6-7.3-9.9v-48.3c7.2-0.2,14.1-1.9,20.2-4.9v35
		c0,1.1,0.9,2.1,2.1,2.1h30v22.3h-6.6l-7.6-12.6v30.5l7.6-12.6h6.6v8.2l-12.6,7.6h30.5l-12.6-7.6v-8.2h6.6l7.6,12.6v-30.5l-7.6,12.6
		h-6.6v-22.3h30c1.1,0,2.1-0.9,2.1-2.1v-35.4c5.7,2.7,11.9,4.3,18.5,4.7V346c-4.2,1.3-7.3,5.3-7.3,9.9c0,5.7,4.7,10.4,10.4,10.4
		s10.4-4.7,10.4-10.4c0-4.7-3.1-8.6-7.3-9.9v-48.8c17-0.4,29.2-8.5,37.8-25.3V309H348l-5.7-9.6v24.4l5.7-9.6h5.3v6.8l-9.6,5.7H368
		l-9.6-5.7v-6.8h5.3l5.7,9.6v-24.4l-5.7,9.6h-5.3v-44.8c4.3-1.2,7.5-5.1,7.5-9.8c0-5.6-4.5-10.1-10.1-10.1s-10.1,4.5-10.1,10.1
		c0,3.6,1.9,6.8,4.8,8.6c-8,19.3-19.3,27.9-36.5,27.9h-1.6c-23.4,0-42.7-18-44.3-40.8h26.3v15.4h46.6V248l24.2-24.2v11.3h-6.4v0.3
		l2.9,2.9v0h15.3l2.9-2.9v-0.4h-6.4v-38.6H379.7z M150.7,254.5c0-3.3,2.7-6,6-6c3.3,0,6,2.7,6,6c0,3.3-2.7,6-6,6
		C153.4,260.4,150.7,257.8,150.7,254.5z M355.9,248.5c3.3,0,6,2.7,6,6c0,3.3-2.7,6-6,6c-0.4,0-0.8,0-1.2-0.1c-0.1,0-0.3-0.1-0.4-0.1
		c-2.5-0.7-4.4-3-4.4-5.7C349.9,251.2,352.6,248.5,355.9,248.5z M203.6,355.9c0,3.1-2.5,5.6-5.6,5.6s-5.6-2.5-5.6-5.6
		s2.5-5.6,5.6-5.6S203.6,352.9,203.6,355.9z M317.9,355.9c0,3.1-2.5,5.6-5.6,5.6s-5.6-2.5-5.6-5.6s2.5-5.6,5.6-5.6
		S317.9,352.9,317.9,355.9z M335.3,244.7l-0.7,1.8v12.8h-34.1V244h-38.9v3.1c0,18.3,10,34.4,24.8,43.1v35.6h-27.9v-21.3h6.6
		l7.6,12.6v-30.5l-7.6,12.6h-6.6V290l12.6-7.6h-30.5l12.6,7.6v9.2h-6.6l-7.6-12.6v30.5l7.6-12.6h6.6v21.3h-27.9v-35.2
		c14.5-8.7,24.3-24.5,24.3-42.5v-3.6H212v15.4h-35.1v-13.3l-0.6-1.6L147,215.8v-1l37.6-37.6v-13.8h12.5v15.4h20.1v-15.4h12.5v15.4
		h20.1v-15.4h12.5v15.4h20.1v-15.4h12.5v15.4h20.1v-15.4h12.5v13.8l37.6,37.6v0.2L335.3,244.7z"/>
</g>
</svg>
