<svg width="24" height="24" viewBox="0 0 24 24" fill="none" xmlns="http://www.w3.org/2000/svg">
<path d="M14.7178 12.083C14.7178 10.374 13.5946 9.42716 12.6948 9.42716C12.1466 9.42719 11.8681 9.57168 11.5529 9.95418C11.1183 10.4817 10.6392 11.4669 10.0613 13.2864C9.76827 14.2091 9.98251 14.7658 10.2539 15.1102C10.5856 15.5309 11.1429 15.8012 11.6843 15.8012V17.9258L11.4749 17.9196C9.30815 17.7921 7.16151 15.7017 8.14205 12.6142C9.32293 8.89607 10.4603 7.30256 12.6948 7.3025C14.9293 7.3025 16.7408 9.4428 16.7408 12.083C16.7408 14.7232 13.9188 17.9257 11.6843 17.9258V15.8012C11.9801 15.8011 12.7429 15.4963 13.5581 14.5604C14.3451 13.6568 14.7178 12.6849 14.7178 12.083Z" fill="white"/>
<path d="M4.84865 1.85597C4.84795 1.85639 4.84782 1.8584 4.84668 1.85908C4.84175 1.86204 4.83247 1.86695 4.82 1.87464C4.79458 1.89035 4.75376 1.91599 4.70147 1.95038C4.59667 2.0193 4.44405 2.1243 4.26387 2.26161C3.89977 2.5391 3.43999 2.93562 3.03011 3.42353C2.1977 4.4145 1.7188 5.57362 2.25369 6.88441C2.43561 7.32978 2.90547 7.82712 3.7028 8.32541C4.47709 8.80926 5.43651 9.21703 6.39851 9.54751C7.35415 9.87577 8.27868 10.1158 8.9668 10.2737C9.30946 10.3523 9.59107 10.4101 9.78569 10.448C9.88299 10.4669 9.95879 10.4815 10.0089 10.4905C10.034 10.495 10.0532 10.4978 10.0652 10.4999C10.071 10.5009 10.0755 10.5015 10.0781 10.5019L10.0801 10.503L10.2401 12.5602L10.1946 12.5758C10.162 12.5875 10.1124 12.606 10.0484 12.6297C9.92038 12.6771 9.73361 12.748 9.50318 12.8393C9.04145 13.0222 8.40833 13.286 7.72316 13.6111C6.30428 14.2846 4.83363 15.1411 4.08903 15.99C3.82195 16.2946 3.60202 16.8458 3.47956 17.6602C3.36056 18.4516 3.35253 19.3636 3.4035 20.2528C3.45412 21.1356 3.55987 21.9613 3.6544 22.5683C3.7015 22.8708 3.74523 23.1166 3.77688 23.2852C3.7927 23.3695 3.80581 23.4343 3.81442 23.4771C3.81872 23.4985 3.82222 23.5148 3.8243 23.5249C3.82529 23.5296 3.82586 23.5332 3.82628 23.5352V23.5373L1.85264 24L1.85166 23.9979C1.85139 23.9967 1.85108 23.9947 1.85067 23.9927C1.84982 23.9887 1.84914 23.983 1.84771 23.9761C1.84476 23.9619 1.84005 23.9417 1.83486 23.916C1.82449 23.8644 1.81005 23.7901 1.79239 23.696C1.75705 23.5078 1.70913 23.2388 1.65805 22.9107C1.5562 22.2565 1.43938 21.3561 1.38344 20.3804C1.32785 19.4105 1.33066 18.3296 1.48123 17.3283C1.62833 16.3503 1.93671 15.3078 2.6014 14.55C3.5762 13.4388 5.21137 12.4965 6.57632 11.8278C6.31316 11.7475 6.04268 11.6613 5.76928 11.5674C4.73577 11.2124 3.62157 10.7468 2.66857 10.1513C1.73904 9.57043 0.826926 8.78233 0.393659 7.72058C-0.588305 5.31365 0.449182 3.28528 1.51284 2.01885C2.05092 1.37826 2.63482 0.878152 3.07653 0.541541C3.29888 0.372115 3.48967 0.240178 3.62773 0.149391C3.69675 0.104 3.7532 0.0685782 3.79368 0.0435722C3.81394 0.0310586 3.83093 0.0207703 3.84307 0.0134866C3.84895 0.00995825 3.85405 0.00745802 3.85788 0.00518717C3.8598 0.00405626 3.86144 0.00289007 3.86282 0.00207487L3.8648 0.00103743L3.86579 0L4.84865 1.85597Z" fill="white"/>
<path d="M19.5203 0.782225C19.5204 0.783146 19.521 0.785994 19.5213 0.78845C19.522 0.793384 19.5228 0.801664 19.5243 0.812311C19.5273 0.834026 19.5326 0.867124 19.5391 0.910867C19.5521 0.999146 19.5718 1.13072 19.5993 1.29679C19.6544 1.62926 19.7397 2.10049 19.8572 2.64961C20.0688 3.639 20.3808 4.84834 20.8045 5.94968C20.9512 5.68247 21.0939 5.41212 21.2282 5.14567C21.5029 4.60081 21.7323 4.10268 21.893 3.74099C21.9732 3.56045 22.0364 3.41435 22.0787 3.3146C22.0998 3.26497 22.1156 3.22678 22.1261 3.20152C22.1314 3.18888 22.1355 3.17949 22.138 3.17351C22.1391 3.17081 22.1394 3.16857 22.14 3.16729L22.141 3.16625L24 4.00346C23.9997 4.00417 23.9985 4.00646 23.998 4.00761C23.9971 4.00988 23.9956 4.01318 23.9941 4.01694C23.9907 4.02504 23.9863 4.0366 23.9802 4.05118C23.9678 4.0811 23.9492 4.1249 23.9259 4.17982C23.8793 4.28961 23.812 4.44671 23.7264 4.63941C23.5552 5.02464 23.3104 5.55573 23.0161 6.13953C22.6425 6.88082 22.1614 7.75705 21.6303 8.5329C21.9902 10.1919 22.1189 11.9872 22.1548 13.4866C22.1816 14.6071 22.1576 15.6034 22.1261 16.3199C22.1104 16.6784 22.0924 16.968 22.0787 17.1695C22.0719 17.2703 22.0662 17.3496 22.0619 17.404C22.0598 17.4312 22.0582 17.4526 22.057 17.4673C22.0564 17.4743 22.0554 17.4798 22.055 17.4839V17.4911L20.0399 17.2982C20.0399 17.2978 20.0398 17.2963 20.0399 17.2951C20.0401 17.2926 20.0414 17.2882 20.0419 17.2826C20.0428 17.2713 20.044 17.2539 20.0458 17.2307C20.0495 17.1835 20.0544 17.112 20.0606 17.0191C20.0732 16.8333 20.0902 16.5615 20.1051 16.2224C20.1349 15.5429 20.1581 14.5981 20.1328 13.5396C20.1082 12.5153 20.0369 11.4199 19.8937 10.3692C19.1361 10.8838 18.3238 11.1675 17.6711 11.3257C17.2066 11.4382 16.7966 11.4945 16.5006 11.5228C16.352 11.537 16.2302 11.5439 16.143 11.5477C16.0994 11.5496 16.0641 11.5503 16.0383 11.5508C16.0255 11.5511 16.0148 11.5517 16.0067 11.5518H15.9909L15.9889 9.42716C15.9909 9.42714 15.9942 9.42726 15.9988 9.42716C16.0108 9.42692 16.0315 9.42632 16.06 9.42509C16.1171 9.42263 16.2049 9.4171 16.3169 9.40641C16.5424 9.38489 16.8597 9.34148 17.2168 9.25495C17.9505 9.07707 18.7524 8.7418 19.3208 8.1449C19.351 8.11317 19.3782 8.07723 19.4087 8.04323C19.319 7.747 19.2223 7.46415 19.1114 7.20083C18.5298 5.81985 18.1324 4.28348 17.8825 3.11541C17.7566 2.52659 17.6656 2.0208 17.606 1.66093C17.5761 1.48101 17.5545 1.33683 17.5398 1.23662C17.5324 1.1865 17.5268 1.14669 17.523 1.11939C17.5211 1.10621 17.52 1.09577 17.519 1.08827C17.5185 1.08458 17.5173 1.08115 17.517 1.07893V1.07478L19.5203 0.782225Z" fill="white"/>
</svg>
