<svg width="24" height="24" viewBox="0 0 24 24" fill="none" xmlns="http://www.w3.org/2000/svg">
<path d="M8.86703 3.48513C8.86703 3.097 8.21862 1.9915 6.26258 1.9915C4.30653 1.9915 3.65813 3.097 3.65813 3.48513C3.65813 3.87326 4.30653 4.97875 6.26258 4.97875V6.97026C3.67346 6.97026 1.57457 5.40991 1.57457 3.48513C1.57457 1.56035 3.67346 0 6.26258 0C8.85169 0 10.9506 1.56035 10.9506 3.48513C10.9506 5.40991 8.85169 6.97026 6.26258 6.97026V4.97875C8.21862 4.97875 8.86703 3.87326 8.86703 3.48513Z" fill="white"/>
<path d="M20.3266 3.48513C20.3266 3.097 19.6782 1.9915 17.7222 1.9915C15.7661 1.9915 15.1177 3.097 15.1177 3.48513C15.1177 3.87326 15.7661 4.97875 17.7222 4.97875V6.97026C15.133 6.97026 13.0341 5.40991 13.0341 3.48513C13.0341 1.56035 15.133 0 17.7222 0C20.3113 0 22.4102 1.56035 22.4102 3.48513C22.4102 5.40991 20.3113 6.97026 17.7222 6.97026V4.97875C19.6782 4.97875 20.3266 3.87326 20.3266 3.48513Z" fill="white"/>
<path d="M20.8073 5.74599C20.8073 5.74599 20.807 5.74931 20.8063 5.75182C20.8038 5.76114 20.799 5.77877 20.7931 5.80336C20.7811 5.85272 20.7639 5.93146 20.7453 6.0348C20.7079 6.24215 20.6671 6.54486 20.6588 6.90899C20.6421 7.64305 20.7575 8.58557 21.2519 9.50047C21.6496 10.2364 22.2949 11.5207 22.8532 12.8096C23.1323 13.4539 23.3957 14.1118 23.5949 14.7107C23.7874 15.2893 23.9467 15.8877 23.9713 16.3832C24.1147 19.276 23.7775 21.5785 21.6385 22.8614C20.6391 23.4608 19.35 23.7664 17.7939 23.9048C16.2286 24.0441 14.2929 24.0213 11.9339 23.8961C8.85369 23.7325 5.83219 23.171 3.5905 21.8034C1.26321 20.3837 -0.148431 18.1361 0.0124311 14.8896C0.074017 13.6478 0.810638 12.6785 1.56594 11.914C1.95048 11.5248 2.3783 11.152 2.78474 10.8006C3.20108 10.4407 3.59603 10.1029 3.96387 9.75136C5.03005 8.73228 5.03117 7.95703 4.92222 7.50606C4.85899 7.2446 4.74079 7.02532 4.63431 6.8701C4.58206 6.79394 4.53475 6.73769 4.5051 6.70382C4.49284 6.68981 4.48375 6.68001 4.47865 6.67464L4.48069 6.67562L4.48171 6.67756C4.48473 6.67544 4.52922 6.63547 5.22031 5.97451C5.89461 5.3296 5.95168 5.27562 5.95688 5.27145L5.9579 5.27242L5.96095 5.27437L5.97723 5.28993C5.98603 5.29868 5.99635 5.3101 6.00877 5.32299C6.0338 5.34898 6.06619 5.38357 6.10338 5.42606C6.17755 5.5108 6.27357 5.62968 6.37603 5.77905C6.579 6.07496 6.81945 6.50952 6.95186 7.0568C7.23413 8.22398 6.97495 9.68942 5.43701 11.1594C5.02351 11.5546 4.583 11.9316 4.1826 12.2777C3.77244 12.6323 3.40173 12.9564 3.0808 13.2812C2.42517 13.9449 2.11955 14.4703 2.09396 14.9829C1.9686 17.5105 3.00774 19.0856 4.71163 20.1251C6.5011 21.2166 9.09161 21.7514 12.0499 21.9085C14.3788 22.0321 16.1913 22.0465 17.6006 21.9211C19.0189 21.7949 19.9317 21.5334 20.5306 21.1743C21.5879 20.5402 22.0327 19.3578 21.8898 16.4766C21.8786 16.2528 21.7907 15.8606 21.609 15.3145C21.4339 14.7883 21.1949 14.1862 20.9284 13.571C20.3955 12.3408 19.775 11.1079 19.4003 10.4145C18.6994 9.11768 18.5536 7.8196 18.5752 6.86621C18.5861 6.38673 18.6395 5.98355 18.6912 5.6964C18.7171 5.55257 18.7432 5.43645 18.7634 5.35313C18.7735 5.31153 18.7821 5.27791 18.7889 5.25297C18.7923 5.24048 18.7957 5.22997 18.798 5.22186C18.7992 5.21793 18.8003 5.21403 18.8011 5.21116L18.8021 5.20727L18.8031 5.20533L20.8073 5.74793V5.74599ZM4.47662 6.67173L4.47865 6.67464L4.47458 6.67075L4.47662 6.67173Z" fill="white"/>
</svg>
