<svg width="24" height="24" viewBox="0 0 24 24" fill="none" xmlns="http://www.w3.org/2000/svg">
<path d="M11.3461 3.23437C11.2074 2.8721 10.7753 2.39673 9.73861 2.16432C8.71822 1.93563 7.33682 2.0193 5.88732 2.59233C4.43788 3.1654 3.36373 4.05236 2.76357 4.92173C2.154 5.80487 2.15216 6.45192 2.29068 6.81421C2.4293 7.1765 2.86079 7.65309 3.89764 7.88556C4.91798 8.11429 6.29945 8.03049 7.74894 7.45755L8.47862 9.36453L8.14726 9.48803C4.71913 10.7096 1.30293 9.87764 0.414543 7.5559C-0.502209 5.15944 1.62127 2.08351 5.15763 0.685343C8.69422 -0.712755 12.3051 0.0963051 13.2223 2.49269L13.2995 2.71942C14.0054 5.08003 11.9048 8.01006 8.47862 9.36453L7.74894 7.45755C9.19832 6.88458 10.2724 5.99744 10.8727 5.12815C11.4826 4.24465 11.4848 3.59666 11.3461 3.23437Z" fill="white"/>
<path d="M0.25048 21.2982C-0.666905 18.9001 1.01448 15.9974 4.00588 14.8149L4.28651 14.7104C7.19291 13.6952 10.195 14.6924 11.0841 17.0154C12.8457 21.092 10.3205 22.317 7.32901 23.4996L6.59933 21.5927C8.1985 20.9605 9.04451 20.5204 9.43814 20.0373C9.56937 19.8762 9.63867 19.7202 9.65096 19.4772C9.66555 19.1886 9.60186 18.6731 9.24111 17.8383L9.2236 17.798L9.20792 17.7571C8.84502 16.8093 7.13012 15.7753 4.73557 16.7218C2.34092 17.6685 1.76414 19.6085 2.12661 20.5565C2.4893 21.5044 4.20445 22.5394 6.59933 21.5927L7.32901 23.4996L7.04838 23.6041C4.14177 24.6195 1.13946 23.6215 0.25048 21.2982Z" fill="white"/>
<path d="M21.669 7.60463C21.4188 6.95058 20.7458 6.30895 19.4856 5.99686C18.2332 5.68672 16.5837 5.77087 14.8811 6.44388C13.1787 7.11691 11.9067 8.18778 11.1895 9.27648C10.4679 10.3721 10.3983 11.3072 10.6486 11.9613C10.8988 12.6154 11.5718 13.257 12.832 13.5691C14.0845 13.8791 15.734 13.7951 17.4365 13.122L18.1661 15.029L17.7835 15.1728C13.827 16.5752 9.84643 15.5098 8.77244 12.703C7.66381 9.80565 10.0722 6.14953 14.1515 4.53689L14.5341 4.39312C18.4904 2.99097 22.4712 4.05624 23.5452 6.86295L23.6439 7.13479C24.6108 9.94363 23.8662 12.7756 18.1661 15.029L17.4365 13.122C20.1926 12.0324 21.2955 10.9506 21.7118 10.1777C22.0757 9.50186 22.0953 8.71854 21.669 7.60463Z" fill="white"/>
<path d="M5.68092 8.84564L5.6819 8.84764C5.68262 8.84901 5.68378 8.85058 5.68485 8.85263C5.68734 8.85741 5.69146 8.86446 5.69567 8.87262C5.70405 8.88887 5.71556 8.91177 5.73007 8.94055C5.75928 8.9985 5.80033 9.08121 5.849 9.18333C5.946 9.38685 6.07551 9.6724 6.20777 10.0016C6.45949 10.6281 6.77039 11.5342 6.80539 12.3524C6.84562 13.2958 6.5299 14.3539 6.2638 15.086C6.12376 15.4712 5.98213 15.8064 5.87554 16.0451C5.8222 16.1645 5.77717 16.261 5.74481 16.3288C5.7287 16.3626 5.71582 16.3897 5.70648 16.4088C5.7018 16.4183 5.69744 16.4262 5.69468 16.4317C5.69332 16.4345 5.6926 16.437 5.69173 16.4387L5.69075 16.4407L5.68977 16.4417L3.89691 15.5126L3.90477 15.4966C3.91104 15.4838 3.92048 15.4635 3.93328 15.4366C3.95908 15.3825 3.99664 15.3013 4.04238 15.1989C4.13423 14.9932 4.25625 14.7049 4.37559 14.3766C4.62817 13.6817 4.81611 12.9497 4.79432 12.4404C4.77521 11.9964 4.5821 11.3672 4.34414 10.7749C4.23171 10.4951 4.12066 10.2501 4.03747 10.0755C3.996 9.98852 3.96128 9.91951 3.93819 9.8737C3.92673 9.85097 3.91818 9.83349 3.91263 9.82275C3.90993 9.81752 3.90783 9.81386 3.90674 9.81176C3.90619 9.81071 3.90587 9.80999 3.90575 9.80976L5.68092 8.84564Z" fill="white"/>
</svg>
