<svg width="24" height="24" viewBox="0 0 24 24" fill="none" xmlns="http://www.w3.org/2000/svg">
<path d="M19.8207 19.0211C19.8207 18.5806 19.4348 17.8803 17.9698 17.189C16.542 16.5153 14.4052 16.0338 11.907 16.0337C9.21629 16.0337 6.90349 16.3876 5.4475 16.9789C4.74321 17.265 4.35918 17.5569 4.16462 17.8006C3.99445 18.0139 3.88186 18.2936 3.96626 18.7391L3.99331 18.8791V19.0211C3.99331 19.4615 4.37918 20.1619 5.84422 20.8532C7.27206 21.5268 9.40893 22.0084 11.907 22.0084V24L11.3634 23.9932C5.96789 23.8641 1.64129 21.8229 1.3683 19.2768L1.35542 19.0211C0.695065 15.5358 6.07952 14.0421 11.907 14.0421L12.4492 14.0489C18.0245 14.1822 22.4586 16.3572 22.4586 19.0211L22.4444 19.2768C22.1623 21.9077 17.5525 23.9999 11.907 24V22.0084C14.4052 22.0084 16.542 21.5269 17.9698 20.8532C19.4348 20.1619 19.8207 19.4615 19.8207 19.0211Z" fill="white"/>
<path d="M11.2471 8.06742C11.2471 6.54939 11.0856 4.5894 10.9213 2.99222C10.8395 2.19747 10.7572 1.49918 10.6959 0.999676C10.6652 0.750222 10.6403 0.550362 10.6224 0.41329C10.6135 0.344753 10.6066 0.291297 10.6018 0.255754C10.5995 0.238136 10.5979 0.224771 10.5967 0.215883C10.5961 0.211644 10.5957 0.208331 10.5954 0.206159L10.5941 0.203242C10.5941 0.203242 10.5946 0.202843 11.9066 0.101135C13.2187 -0.000573555 13.2191 7.13662e-08 13.2191 7.13662e-08V0.00388986C13.2195 0.00638752 13.2198 0.0100339 13.2204 0.0145868C13.2217 0.0241519 13.2244 0.038113 13.2269 0.056402C13.2318 0.09333 13.2384 0.147912 13.2475 0.217828C13.2657 0.35811 13.2923 0.562278 13.3235 0.815883C13.3857 1.32292 13.4684 2.03178 13.5514 2.83857C13.7168 4.44521 13.885 6.46847 13.885 8.06742C13.885 9.66637 13.7168 11.6896 13.5514 13.2963C13.4684 14.1031 13.3857 14.8119 13.3235 15.319C13.2923 15.5726 13.2657 15.7767 13.2475 15.917C13.2384 15.9869 13.2318 16.0415 13.2269 16.0784C13.2244 16.0967 13.2217 16.1107 13.2204 16.1203C13.2198 16.1248 13.2195 16.1285 13.2191 16.131V16.1348C13.2191 16.1348 13.219 16.1354 11.907 16.0337L10.5941 15.9316L10.5954 15.9287C10.5957 15.9265 10.5961 15.9232 10.5967 15.919C10.5979 15.9101 10.5995 15.8967 10.6018 15.8791C10.6066 15.8435 10.6135 15.7901 10.6224 15.7216C10.6403 15.5845 10.6652 15.3846 10.6959 15.1352C10.7572 14.6357 10.8395 13.9374 10.9213 13.1426C11.0856 11.5454 11.2471 9.58545 11.2471 8.06742Z" fill="white"/>
<path d="M24 3.33063C23.8547 3.42936 23.6402 3.61537 23.3264 3.91605C23.0037 4.2251 22.7003 4.53195 22.2805 4.93906C21.4982 5.69767 20.5114 6.60331 19.3476 7.33809C18.3165 7.98905 16.9811 8.5917 15.9253 9.04181C15.6984 9.13854 15.475 9.23006 15.2684 9.31604C15.275 9.32142 15.2811 9.32718 15.2877 9.33258C15.916 9.84624 16.6643 10.4056 17.2893 10.7426C17.8823 11.0624 18.7734 11.4032 19.573 11.6771C19.9617 11.8103 20.3099 11.9208 20.5597 11.9981C20.6843 12.0366 20.7844 12.0664 20.852 12.0865C20.8857 12.0966 20.9113 12.105 20.928 12.1099C20.9361 12.1123 20.9423 12.1137 20.9461 12.1147L20.9499 12.1157C20.9499 12.1157 20.9446 12.1275 20.4798 13.0464C20.0092 13.9766 20.0084 13.977 20.0084 13.977L20.0058 13.976C20.0058 13.976 20.0022 13.9739 19.9994 13.9731C19.9934 13.9714 19.9842 13.9694 19.9736 13.9663C19.9524 13.9601 19.9219 13.9515 19.8834 13.94C19.8061 13.917 19.6953 13.8831 19.5588 13.8408C19.2864 13.7565 18.908 13.6362 18.4833 13.4908C17.6561 13.2074 16.5693 12.801 15.7566 12.3627C14.8998 11.9007 13.9991 11.2155 13.3492 10.6843C13.0155 10.4115 12.7305 10.1644 12.5287 9.98606C12.4279 9.89694 12.3477 9.82398 12.2917 9.77309C12.2638 9.74768 12.2413 9.72779 12.2261 9.71378C12.2185 9.70683 12.2122 9.70114 12.208 9.69724C12.2061 9.69544 12.2042 9.69238 12.2042 9.69238L12.2016 9.69141L11.4532 8.99319L12.293 8.35916C12.4627 8.23108 12.6866 8.1299 12.7786 8.08784C12.9188 8.0238 13.0913 7.95062 13.2745 7.87391C13.6574 7.71356 14.1071 7.53013 14.6282 7.30794C15.6695 6.86402 16.8225 6.33507 17.6551 5.8094C18.5913 5.21826 19.4363 4.45537 20.199 3.71572C20.5517 3.37369 20.9499 2.97422 21.2539 2.68298C21.5667 2.38338 21.9047 2.07529 22.2354 1.85057L24 3.33063Z" fill="white"/>
<path d="M8.22669 0.621394C9.45982 0.820927 10.4705 1.09089 11.2356 1.44992C12.0078 1.81235 12.6219 2.31236 12.8417 2.97374C13.0613 3.63503 12.8198 4.25777 12.4334 4.7611C12.0508 5.25948 11.4777 5.71091 10.8363 6.10794C9.54908 6.90463 7.76563 7.6177 5.89148 8.14036C4.01342 8.66408 1.94818 9.02408 0.0721301 9.06321L0 7.07164C1.51726 7.03995 3.29253 6.742 4.97698 6.27229C6.66532 5.80147 8.1675 5.18555 9.16439 4.56856C9.6649 4.25877 9.98266 3.9817 10.151 3.7624C10.3116 3.55316 10.2864 3.46718 10.2837 3.459C10.2823 3.45489 10.2443 3.33029 9.84318 3.14198C9.43423 2.95007 8.7476 2.74211 7.67284 2.56823L8.22669 0.621394Z" fill="white"/>
</svg>
