<svg width="101" height="101" viewBox="0 0 101 101" fill="none" xmlns="http://www.w3.org/2000/svg">
<path d="M15.6863 93.5643C15.6863 92.4805 15.0539 91.3904 13.8136 90.5292C12.5776 89.6712 10.8163 89.1089 8.82353 89.1089C6.83072 89.1089 5.06948 89.6713 3.83349 90.5292C2.59313 91.3904 1.96078 92.4805 1.96078 93.5643C1.96078 94.6482 2.59313 95.7382 3.83349 96.5994C5.06948 97.4574 6.83072 98.0198 8.82353 98.0198C10.8163 98.0198 12.5776 97.4574 13.8136 96.5994C15.0539 95.7382 15.6863 94.6482 15.6863 93.5643ZM98.0392 92.0792C98.0392 90.5544 97.2105 89.0924 95.7098 87.9757C94.2095 86.8593 92.0901 86.1385 89.7059 86.1385C87.3216 86.1385 85.2022 86.8593 83.7019 87.9757C82.2013 89.0924 81.3725 90.5544 81.3725 92.0792C81.3725 93.6039 82.2013 95.066 83.7019 96.1827C85.2022 97.2991 87.3216 98.0198 89.7059 98.0198C92.0901 98.0198 94.2095 97.2991 95.7098 96.1827C97.2105 95.066 98.0392 93.6039 98.0392 92.0792ZM25.9861 80.1979L33.0882 86.5688V81.188H32.3529V79.2078H33.0882V73.8261L25.9861 80.1979ZM69.3627 79.2078H69.6078V81.188H69.3627V84.7801L74.9971 79.7029L69.3627 74.6247V79.2078ZM6.38117 52.9701L14.951 60.6318V45.3074L6.38117 52.9701ZM85.5392 51.4849H85.7843V53.4651H85.5392V58.7057L92.6796 51.98L85.5392 45.2533V51.4849ZM35.6005 27.4178L27.158 51.4849H50V49.2572H40.3081L50.9804 37.1226L61.6527 49.2572H51.9608V51.4849H73.0095L64.4397 25.8292L35.6005 27.4178ZM44.672 47.277H57.2888L50.9804 40.1045L44.672 47.277ZM21.5686 30.6927C21.5686 29.8158 21.4545 28.9833 21.2498 28.2097L21.132 28.2165L21.1043 27.7185C20.1356 24.7489 17.7689 22.7719 15.1961 22.7719C11.8364 22.7719 8.82353 26.1415 8.82353 30.6927C8.82353 35.244 11.8364 38.6136 15.1961 38.6136C18.5558 38.6136 21.5686 35.244 21.5686 30.6927ZM35.3525 15.0522C34.3435 15.0645 33.2869 15.1594 32.3405 15.4022C31.3862 15.6471 30.618 16.0231 30.1049 16.5412C29.301 17.3531 28.9774 18.2617 28.9962 19.1132C29.0153 19.9739 29.3864 20.8511 30.1049 21.5768C30.342 21.8162 30.7635 22.0156 31.3974 22.1289C32.0168 22.2395 32.7338 22.2488 33.4396 22.2024C34.1393 22.1563 34.7934 22.0583 35.275 21.9703C35.3337 21.9596 35.3894 21.9458 35.4425 21.9355L37.8169 15.1692C37.1542 15.1013 36.2864 15.0408 35.3525 15.0522ZM65.4718 13.8871C64.4266 13.9114 63.4299 14.0364 62.6905 14.1568C62.6651 14.161 62.6397 14.1653 62.6149 14.1694L64.8859 20.9706C64.9828 20.9903 65.0933 21.0148 65.2162 21.0373C65.6978 21.1253 66.3518 21.2242 67.0515 21.2703C67.7573 21.3167 68.4744 21.3065 69.0937 21.1959C69.7277 21.0826 70.1492 20.8832 70.3862 20.6438C71.6408 19.3767 71.4303 17.4919 70.2311 15.4051C69.9186 14.8616 69.3296 14.4587 68.4532 14.2003C67.5785 13.9425 66.5259 13.8626 65.4718 13.8871ZM38.2248 3.11292C36.8353 2.9779 35.7035 3.18366 34.8834 3.77524C33.282 4.93046 32.3911 6.14551 32.06 7.29862C31.7373 8.42234 31.9089 9.61562 32.69 10.8539C32.9485 11.2636 33.419 11.6093 34.1041 11.8759C34.7834 12.1403 35.5894 12.2939 36.3913 12.3729C37.1871 12.4513 37.9415 12.4539 38.4995 12.4358C38.6009 12.4325 38.6953 12.4245 38.782 12.4203L41.7423 3.98023C40.5413 3.54374 39.3369 3.22102 38.2248 3.11292ZM65.6068 2.84219C64.5578 2.08548 63.2938 1.87579 61.9265 2.02419C60.8409 2.14204 59.7322 2.48428 58.701 2.9147L61.7073 11.4872C61.7942 11.4915 61.8889 11.4994 61.9907 11.5027C62.5487 11.5208 63.3031 11.5183 64.0989 11.4398C64.9008 11.3608 65.7068 11.2082 66.3861 10.9438C67.0714 10.6772 67.5417 10.3306 67.8002 9.92085C68.5813 8.68255 68.7529 7.48929 68.4302 6.36556C68.0991 5.21246 67.2082 3.99741 65.6068 2.84219ZM89.2157 25.2472C89.2157 22.4218 86.3432 19.8016 82.3529 19.8016C78.3627 19.8016 75.4902 22.4218 75.4902 25.2472C75.4902 28.0725 78.3627 30.6927 82.3529 30.6927C86.3432 30.6927 89.2157 28.0725 89.2157 25.2472ZM91.1765 25.2472C91.1765 29.5305 87.026 32.6729 82.3529 32.6729C77.7095 32.6729 73.5834 29.5702 73.5313 25.3284L66.4714 25.7171L75.0785 51.4849H83.5784V40.6992L95.5547 51.98L83.5784 63.2608V53.4651H75.7401L86.1529 84.6408C87.2652 84.3282 88.4628 84.1583 89.7059 84.1583C92.4653 84.1583 95.0025 84.9893 96.8731 86.3812C98.7433 87.7729 100 89.7762 100 92.0792C100 94.3822 98.7433 96.3854 96.8731 97.7771C95.0025 99.169 92.4653 100 89.7059 100C86.9464 100 84.4093 99.169 82.5387 97.7771C80.6685 96.3854 79.4118 94.3822 79.4118 92.0792C79.4118 89.7762 80.6685 87.7729 82.5387 86.3812C83.0779 85.98 83.6733 85.6269 84.3128 85.3254L73.6711 53.4651H51.9608V79.2078H67.402V70.2041L77.9431 79.7029L67.402 89.2017V81.188H35.049V90.9759L23.0335 80.1979L35.049 69.4199V79.2078H50V53.4651H26.4629L14.1908 88.4436C14.4462 88.5855 14.6921 88.7363 14.9251 88.8981C16.5233 90.0078 17.6471 91.6408 17.6471 93.5643C17.6471 95.4879 16.5233 97.1209 14.9251 98.2306C13.3225 99.3433 11.1621 100 8.82353 100C6.48496 100 4.32457 99.3433 2.72193 98.2306C1.12378 97.1209 0 95.4879 0 93.5643C0 91.6408 1.12378 90.0078 2.72193 88.8981C4.32457 87.7853 6.48496 87.1286 8.82353 87.1286C10.0816 87.1286 11.2874 87.3204 12.3832 87.6691L24.3825 53.4651H16.9118V65.0292L3.42276 52.9701L16.9118 40.9109V51.4849H25.0776L33.4789 27.5348L23.2345 28.1005C23.4252 28.9331 23.5294 29.8029 23.5294 30.6927C23.5294 35.9842 19.9582 40.5938 15.1961 40.5938C10.4339 40.5938 6.86275 35.9842 6.86275 30.6927C6.86275 25.4012 10.4339 20.7917 15.1961 20.7917C18.5053 20.7917 21.2375 23.0184 22.5978 26.1522L34.1883 25.5131L34.6957 24.0646C34.347 24.111 33.965 24.1525 33.5669 24.1787C32.777 24.2307 31.888 24.2279 31.0556 24.0791C30.2378 23.933 29.3614 23.6261 28.7186 22.9769C27.6775 21.9255 27.0678 20.5752 27.0364 19.1576C27.0049 17.7307 27.5615 16.3097 28.7186 15.1411C29.5743 14.2769 30.7164 13.7756 31.857 13.4829C32.0908 13.4229 32.3281 13.3722 32.5664 13.3272C31.9721 12.9888 31.4254 12.5356 31.0355 11.9175C29.9943 10.2666 29.6762 8.48942 30.1767 6.74652C30.6689 5.03295 31.9142 3.48441 33.7441 2.16439C35.0982 1.18756 36.7736 0.983147 38.4124 1.14238C40.0576 1.30229 41.781 1.83783 43.3546 2.48057C45.1704 3.22223 46.8456 4.13071 48.0612 4.8485C48.6706 5.2083 49.1687 5.52236 49.5155 5.74772C49.689 5.86042 49.8252 5.95154 49.9186 6.01458C49.965 6.04584 50.001 6.07006 50.0259 6.0871C50.0382 6.09554 50.0478 6.10272 50.0546 6.1074C50.058 6.10975 50.0612 6.11185 50.0632 6.1132C50.064 6.11379 50.0646 6.11476 50.0651 6.11514L48.9535 7.74533L48.9239 7.72599C48.903 7.71169 48.8713 7.68971 48.8291 7.66121C48.7443 7.60402 48.6181 7.5189 48.4547 7.41271C48.1277 7.20021 47.6532 6.90158 47.0713 6.55798C46.1232 5.9982 44.8979 5.32875 43.5614 4.72474L36.3099 25.3961L63.7896 23.8829L60.0758 12.7635L56.9221 3.77428C56.3495 4.08673 55.8489 4.3906 55.4544 4.64739C55.1532 4.84344 54.9149 5.00951 54.7536 5.12503C54.6729 5.18277 54.6117 5.22862 54.5717 5.25847C54.5516 5.27338 54.5368 5.28436 54.5276 5.29134C54.5233 5.29463 54.5199 5.29669 54.518 5.29811C54.5171 5.2988 54.5163 5.29989 54.5161 5.30004L53.327 3.72496L53.3289 3.72303C53.3301 3.72214 53.3319 3.7215 53.3337 3.72013C53.3376 3.71714 53.3433 3.71266 53.35 3.70756C53.3636 3.69726 53.3828 3.68241 53.4074 3.66405C53.4567 3.62734 53.5281 3.57544 53.619 3.51031C53.8011 3.37991 54.0641 3.19716 54.3926 2.98335C55.0481 2.55675 55.9739 2.00034 57.0542 1.48466C58.4044 0.84016 60.0406 0.237568 61.7168 0.0555847C63.4017 -0.127293 65.1921 0.110333 66.7461 1.23133C68.576 2.55134 69.8213 4.09991 70.3135 5.81346C70.814 7.55636 70.4959 9.33351 69.4547 10.9844C69.1569 11.4565 68.767 11.8322 68.3354 12.135C68.5612 12.1817 68.7847 12.2352 69.0028 12.2994C70.1464 12.6366 71.2685 13.2642 71.9277 14.4111C73.2268 16.6718 74.0374 19.7565 71.7726 22.0438C71.1297 22.693 70.2533 23 69.4355 23.1461C68.6031 23.2948 67.7141 23.2977 66.9242 23.2457C66.4496 23.2144 65.998 23.161 65.5982 23.1035L65.8213 23.7707L73.8186 23.3308C74.838 20.0585 78.4098 17.8214 82.3529 17.8214C87.026 17.8214 91.1765 20.9638 91.1765 25.2472Z" fill="white"/>
</svg>
