<svg width="101" height="101" viewBox="0 0 101 101" fill="none" xmlns="http://www.w3.org/2000/svg">
<path d="M20.2456 0.0592915C21.9987 -0.101893 23.7361 0.0502772 25.2533 0.704865C26.7948 1.36996 28.0506 2.53076 28.8354 4.26424C29.0913 4.82967 29.1033 5.44266 29.0155 6.00419C28.9269 6.57071 28.725 7.1583 28.4703 7.73153C27.9612 8.8775 27.178 10.0992 26.3863 11.1959C25.5893 12.3 24.7575 13.314 24.1272 14.0496C23.9873 14.2128 23.8534 14.36 23.7353 14.4945L32.1281 21.2226L15.2937 22.35L13.1828 6.03714L22.1615 13.2344C22.2814 13.0981 22.4186 12.9469 22.5634 12.7779C23.1718 12.068 23.9659 11.0988 24.7201 10.054C25.4797 9.00176 26.1726 7.90795 26.6012 6.94346C26.8153 6.46151 26.9479 6.04455 27.0011 5.70466C27.0549 5.36011 27.0162 5.16428 26.9712 5.06491C26.3913 3.78403 25.5064 2.98547 24.4286 2.52042C23.3265 2.04488 21.9648 1.89525 20.4366 2.03575C17.368 2.31799 13.8793 3.74615 11.1455 5.49432C4.40861 9.80252 1.9278 16.6402 2.03948 24.5164H40.1061C39.7422 21.9928 39.5938 19.3236 39.923 16.8461C40.3036 13.9824 41.3371 11.2681 43.5271 9.38036C45.4555 7.71814 48.0073 6.93436 50.6386 6.64491C53.2773 6.3547 56.0891 6.55052 58.6385 6.92699C61.1937 7.30431 63.5242 7.86915 65.2129 8.33833C66.058 8.57314 66.7454 8.78472 67.2233 8.93834C67.4622 9.01513 67.6492 9.078 67.7774 9.12155C67.8415 9.14333 67.8917 9.16012 67.9256 9.17195C67.9425 9.17783 67.9553 9.18328 67.9644 9.18649C67.9689 9.18808 67.9728 9.18849 67.9754 9.1894C67.9767 9.18986 67.9776 9.19106 67.9784 9.19134C67.9787 9.19146 67.9801 9.19163 67.6302 10.1238L67.9803 9.19134L68.6488 9.42979V19.0572H76.2886V9.31444L77.1013 9.1516L77.1043 9.15063C77.1057 9.15035 77.108 9.15012 77.1103 9.14966C77.115 9.14873 77.1219 9.14741 77.1302 9.14578C77.1472 9.14244 77.1722 9.13823 77.2038 9.13221C77.2674 9.1201 77.36 9.10202 77.4783 9.08084C77.7153 9.03842 78.0568 8.98061 78.4801 8.91605C79.3261 8.78702 80.5043 8.63173 81.8344 8.52832C84.4516 8.32485 87.8197 8.30559 90.3794 9.18746C93.4786 10.2554 95.666 11.9933 97.1568 14.2144C98.6348 16.4167 99.3913 19.0379 99.7411 21.8333C100.433 27.3658 99.5566 33.9499 99.206 39.8163C98.9094 44.7788 98.3264 48.8515 97.0573 52.7181C95.7859 56.5911 93.8418 60.2126 90.8718 64.2977C87.2409 69.2918 81.5263 72.4763 75.1287 74.4737C68.7252 76.4729 61.5434 77.3129 54.8445 77.5533C48.1389 77.7939 41.8753 77.4351 37.2919 77.0172C34.9994 76.8082 33.124 76.5836 31.8197 76.4114C31.4972 76.3688 31.2097 76.3254 30.9592 76.2902V86.3053H41.8419L29.9406 100L18.0392 86.3053H28.922V75.792C28.7359 75.7103 28.5127 75.6104 28.2585 75.4905C27.4547 75.1114 26.3312 74.5373 25.0384 73.7515C22.4576 72.1829 19.1729 69.7541 16.4068 66.3226C13.2713 62.4327 12.3957 62.0251 9.67528 56.7233C5.32294 48.2413 1.18673 37.8168 0.214088 28.1495C-0.75938 18.4738 1.43019 9.33276 10.0274 3.83483C12.9474 1.96756 16.7519 0.380518 20.2456 0.0592915ZM29.9406 96.9282L37.4461 88.2905H22.4351L29.9406 96.9282ZM59.9904 67.1475L66.1788 60.0016H53.802L59.9904 67.1475ZM39.1083 55.7831C39.1083 54.6242 38.2996 53.4048 36.6194 52.4224C34.9596 51.452 32.6005 50.8201 29.9406 50.8201C29.3454 50.8201 28.7653 50.8522 28.2047 50.9122C28.0976 50.9654 27.8721 51.0791 27.394 51.3164C26.4864 51.767 26.4858 51.7663 26.4858 51.7662L26.4848 51.7652C26.4842 51.764 26.484 51.7616 26.4828 51.7594C26.4805 51.755 26.4772 51.7484 26.4729 51.74C26.4641 51.7232 26.4508 51.6987 26.4341 51.6664C26.4004 51.6012 26.3511 51.505 26.2878 51.3814C26.2681 51.3429 26.2475 51.3011 26.2252 51.2573C25.0959 51.5367 24.0915 51.9374 23.2618 52.4224C21.5816 53.4048 20.7729 54.6242 20.7729 55.7831C20.7729 56.942 21.5818 58.1605 23.2618 59.1428C24.9216 60.1133 27.2806 60.7461 29.9406 60.7461C32.6006 60.7461 34.9596 60.1133 36.6194 59.1428C38.2994 58.1605 39.1083 56.942 39.1083 55.7831ZM75.3834 53.638L84.0507 51.3096L75.5694 44.8791L75.3834 53.638ZM50.3133 40.3979C50.3133 38.2113 47.9731 36.0689 44.5378 35.9371L44.2015 35.9312L43.2535 36.2947C43.2532 36.2939 43.2521 36.2913 43.2515 36.2899C43.2504 36.2871 43.2485 36.2832 43.2465 36.2783C43.2424 36.2679 43.2372 36.2529 43.2296 36.2337C43.2143 36.1949 43.1914 36.1384 43.163 36.065C43.1548 36.0438 43.1463 36.0211 43.1371 35.9972C40.1035 36.3798 38.0897 38.3696 38.0897 40.3979C38.0898 42.6551 40.5836 44.8646 44.2015 44.8646C47.8195 44.8646 50.3133 42.6551 50.3133 40.3979ZM17.0743 20.2407L26.8757 19.5835L15.8448 10.7413L17.0743 20.2407ZM52.3506 40.3979C52.3505 44.1708 48.4596 46.8498 44.2015 46.8498C39.9435 46.8498 36.0525 44.1708 36.0524 40.3979C36.0524 37.1495 38.937 34.7131 42.4567 34.0982C42.3564 33.8011 42.2496 33.4784 42.1394 33.1328C41.5834 31.3896 40.9267 29.055 40.4403 26.5016H20.3391C20.3586 26.6427 20.381 26.8055 20.4068 26.9872C20.505 27.6791 20.6479 28.6459 20.8276 29.7411C21.1885 31.9417 21.6903 34.627 22.264 36.6611C23.0692 39.5162 24.5707 43.056 25.8879 45.9124C26.4406 47.1109 26.9578 48.1801 27.3701 49.0162C28.1982 48.8981 29.0591 48.835 29.9406 48.835C32.9064 48.835 35.6411 49.5353 37.6679 50.7203C39.6744 51.8935 41.1456 53.6529 41.1456 55.7831C41.1456 57.9131 39.6742 59.6718 37.6679 60.8449C35.6411 62.03 32.9064 62.7312 29.9406 62.7312C26.9748 62.7312 24.2401 62.03 22.2133 60.8449C20.207 59.6718 18.7356 57.9131 18.7356 55.7831C18.7356 53.6529 20.2068 51.8935 22.2133 50.7203C23.1213 50.1894 24.1717 49.7559 25.3209 49.4388C24.9438 48.6672 24.4986 47.7434 24.0297 46.7267C22.7047 43.8533 21.1493 40.1968 20.3003 37.1865C19.6956 35.042 19.1792 32.268 18.8162 30.0542C18.6338 28.9423 18.4881 27.962 18.3884 27.2596C18.3443 26.9485 18.3096 26.6915 18.284 26.5016H2.12204C2.15386 26.9831 2.19235 27.4679 2.24142 27.9556C3.17871 37.2717 7.19161 47.4435 11.4977 55.8354C14.0995 60.906 14.7901 61.1028 18.0084 65.0954C20.5856 68.2927 23.6672 70.579 26.1167 72.0678C27.3389 72.8106 28.3971 73.3509 29.1458 73.704C29.5199 73.8805 29.8171 74.0094 30.0172 74.0937C30.102 74.1294 30.1693 74.1574 30.2181 74.1771C30.2237 74.178 30.23 74.179 30.236 74.18C30.3215 74.1934 30.4499 74.2131 30.618 74.2381C30.955 74.2884 31.4534 74.3601 32.0933 74.4446C33.3735 74.6136 35.2209 74.8346 37.4819 75.0408C42.0073 75.4533 48.1776 75.8055 54.7689 75.569C61.3668 75.3323 68.3461 74.5069 74.507 72.5835C80.6739 70.6582 85.928 67.6621 89.2086 63.15C92.0874 59.1903 93.9236 55.7505 95.1175 52.1132C96.3136 48.4693 96.881 44.5811 97.1727 39.701C97.5369 33.6063 98.3816 27.3698 97.7188 22.0737C97.3911 19.4551 96.6999 17.1607 95.4517 15.301C94.3675 13.6856 92.8345 12.3553 90.653 11.4256C90.7023 11.8651 90.7636 12.4467 90.8261 13.1433C90.973 14.7827 91.1309 17.0635 91.1713 19.631C91.2514 24.7269 90.8761 31.1006 88.949 35.8033C87.861 38.4581 85.8961 41.5108 84.2398 43.8623C83.4055 45.0467 82.6377 46.0694 82.0781 46.7965C81.9914 46.9091 81.9077 47.0134 81.8314 47.1115L88.5063 52.1724L73.2904 56.261L73.6177 40.8845L80.2239 45.893C80.2937 45.8032 80.37 45.7084 80.4487 45.6061C80.9954 44.8958 81.7459 43.8954 82.5606 42.7388C84.2021 40.4084 86.0573 37.5059 87.0569 35.0666C88.8244 30.7534 89.2135 24.7194 89.134 19.662C89.0945 17.153 88.9406 14.9204 88.7968 13.3158C88.7249 12.514 88.6559 11.8698 88.6048 11.4276C88.5792 11.2066 88.5576 11.0361 88.5431 10.9216C88.5359 10.8645 88.531 10.8212 88.5272 10.7927C88.5253 10.7784 88.5231 10.7675 88.5222 10.7607C88.5217 10.7573 88.5214 10.7545 88.5212 10.7529V10.751C88.5216 10.7509 88.5246 10.7502 88.5481 10.7471C86.5666 10.3276 84.1364 10.3413 81.9966 10.5077C80.7298 10.6062 79.6042 10.7537 78.7954 10.877C78.6238 10.9032 78.4668 10.9314 78.3259 10.9545V21.0424H66.6116V10.8314C66.6031 10.8287 66.5943 10.8265 66.5857 10.8237C66.1305 10.6774 65.4693 10.4745 64.6539 10.2479C63.8912 10.036 62.9956 9.80511 62.0088 9.58198L61.0339 58.0164H70.5637L59.9904 70.2261L49.4171 58.0164H58.9966L59.9785 9.1642C59.4439 9.06554 58.8939 8.97269 58.3331 8.88988C55.882 8.52794 53.2641 8.35391 50.8674 8.6175C48.4637 8.88187 46.3738 9.57616 44.876 10.8673C43.1927 12.3184 42.2891 14.5 41.9434 17.1011C41.5983 19.6984 41.8249 22.6087 42.3005 25.3675C42.7748 28.1186 43.4887 30.6731 44.0851 32.5434C44.254 33.0729 44.4134 33.5463 44.5547 33.9528C48.6723 34.0961 52.3506 36.7296 52.3506 40.3979Z" fill="white"/>
</svg>
