<svg width="100" height="100" viewBox="0 0 100 100" fill="none" xmlns="http://www.w3.org/2000/svg">
<path d="M24 5.5C24 3.72726 22.3765 2 20 2C17.6235 2 16 3.72726 16 5.5C16 7.27274 17.6235 9 20 9V11C16.6863 11 14 8.53757 14 5.5C14 2.46243 16.6863 0 20 0C23.3137 0 26 2.46243 26 5.5C26 8.53757 23.3137 11 20 11V9C22.3765 9 24 7.27274 24 5.5Z" fill="white"/>
<path d="M48 86.5C48 84.7273 46.3765 83 44 83C41.6235 83 40 84.7273 40 86.5C40 88.2727 41.6235 90 44 90V92C40.6863 92 38 89.5376 38 86.5C38 83.4624 40.6863 81 44 81C47.3137 81 50 83.4624 50 86.5C50 89.5376 47.3137 92 44 92V90C46.3765 90 48 88.2727 48 86.5Z" fill="white"/>
<path d="M98 94C98 93.1138 97.5258 92.159 96.457 91.3574C95.3876 90.5553 93.8182 90 92 90C90.1818 90 88.6124 90.5553 87.543 91.3574C86.4742 92.159 86 93.1138 86 94C86 94.8862 86.4742 95.841 87.543 96.6426C88.6124 97.4447 90.1818 98 92 98V100C87.5817 100 84 97.3137 84 94C84 90.6863 87.5817 88 92 88C96.4183 88 100 90.6863 100 94C100 97.3137 96.4183 100 92 100V98C93.8182 98 95.3876 97.4447 96.457 96.6426C97.5258 95.841 98 94.8862 98 94Z" fill="white"/>
<path d="M60 16.5C60 14.8672 58.3115 13 55.5 13C52.6885 13 51 14.8672 51 16.5C51 18.1328 52.6885 20 55.5 20V22C51.9101 22 49 19.5376 49 16.5C49 13.4624 51.9101 11 55.5 11C59.0899 11 62 13.4624 62 16.5C62 19.5376 59.0899 22 55.5 22V20C58.3115 20 60 18.1328 60 16.5Z" fill="white"/>
<path d="M15 55C15 54.1674 14.5249 53.2158 13.3574 52.3916C12.1949 51.571 10.4836 51 8.5 51C6.51642 51 4.80511 51.571 3.64258 52.3916C2.47509 53.2158 2 54.1674 2 55C2 55.8326 2.47509 56.7842 3.64258 57.6084C4.80511 58.429 6.51642 59 8.5 59V61C3.80558 61 0 58.3137 0 55C0 51.6863 3.80558 49 8.5 49C13.1944 49 17 51.6863 17 55C17 58.3137 13.1944 61 8.5 61V59C10.4836 59 12.1949 58.429 13.3574 57.6084C14.5249 56.7842 15 55.8326 15 55Z" fill="white"/>
<path d="M88.7783 88.8721L87.2217 90.1279L22.2217 9.62793L23.7783 8.37207L88.7783 88.8721Z" fill="white"/>
<path d="M53.3406 21.043L5.79468 94.5225L88.5613 54.1016L89.4392 55.8984L0.206793 99.4775L51.6609 19.957L53.3406 21.043Z" fill="white"/>
<path d="M47.2607 83.1494L45.7393 81.8506L92.8271 26.6758L15.332 53.9434L14.668 52.0566L99.1719 22.3242L47.2607 83.1494Z" fill="white"/>
<path d="M98 52.5C98 49.0229 95.8157 47 94 47C92.1843 47 90 49.0229 90 52.5C90 55.9771 92.1843 58 94 58V60C90.6863 60 88 56.6421 88 52.5C88 48.3579 90.6863 45 94 45C97.3137 45 100 48.3579 100 52.5C100 56.6421 97.3137 60 94 60V58C95.8157 58 98 55.9771 98 52.5Z" fill="white"/>
</svg>
