<svg width="102" height="102" viewBox="0 0 102 102" fill="none" xmlns="http://www.w3.org/2000/svg">
<path d="M84.3722 46.5749C87.1832 45.1901 90.3513 44.6682 92.9992 45.649C95.741 46.6646 97.6694 49.1933 98.0863 53.3113C98.842 60.778 100.205 67.9697 99.974 74.5169C99.739 81.1809 97.8671 87.3607 92.1335 92.9828C85.8541 99.1401 79.3135 100.294 72.3264 99.8923C68.8693 99.6936 65.2644 99.1125 61.5542 98.5761C57.8236 98.0368 53.9492 97.5364 49.8531 97.47C45.9649 97.4069 42.3835 97.8402 38.9846 98.3692C35.6165 98.8935 32.3478 99.5265 29.2374 99.8247C22.9067 100.431 16.9458 99.6819 10.7138 94.0613C1.78128 86.0051 -3.98918 71.5594 3.33224 59.1699C6.52616 53.7653 10.5375 51.0395 14.4612 51.1911C18.4121 51.3438 21.7542 54.3876 23.6353 59.3327L21.7225 60.0927C20.0128 55.5983 17.2202 53.3975 14.3841 53.2877C11.5207 53.1771 8.09285 55.1711 5.08871 60.2545C-1.52608 71.4483 3.56111 84.8125 12.0715 92.4881C17.754 97.6132 23.0882 98.3071 29.045 97.7363C32.0782 97.4456 35.2023 96.8358 38.676 96.2952C42.1191 95.7593 45.8298 95.3066 49.8851 95.3723C54.117 95.441 58.098 95.9578 61.8417 96.499C65.606 97.0432 69.0951 97.6054 72.4417 97.7977C79.0619 98.1781 84.9703 97.0997 90.7127 91.469C95.9842 86.3001 97.7029 80.6805 97.923 74.4411C98.1471 68.0849 96.8287 61.2684 96.0453 53.5274C95.6925 50.0418 94.159 48.3092 92.2999 47.6206C90.3468 46.8972 87.7745 47.2273 85.263 48.4646C82.7683 49.6937 80.4846 51.7492 79.1329 54.2259C77.7934 56.6801 77.3737 59.5287 78.5247 62.4699L76.6189 63.2483C75.2049 59.6348 75.7471 56.1246 77.3413 53.2037C78.9233 50.3053 81.5446 47.9679 84.3722 46.5749ZM59.1033 81.7378C59.1033 77.7959 55.5452 74.3962 50.8951 74.3961C46.2449 74.3961 42.6869 77.7958 42.6869 81.7378C42.6871 85.6796 46.245 89.0795 50.8951 89.0795C55.5451 89.0793 59.1032 85.6796 59.1033 81.7378ZM35.5048 73.8717C35.5048 70.2262 32.1838 67.0545 27.8096 67.0544C23.4352 67.0544 20.1144 70.2261 20.1144 73.8717C20.1146 77.5171 23.4353 80.689 27.8096 80.689C32.1837 80.6888 35.5046 77.517 35.5048 73.8717ZM81.6759 73.8717C81.6759 70.2262 78.355 67.0545 73.9807 67.0544C69.6063 67.0544 66.2855 70.2261 66.2855 73.8717C66.2857 77.5171 69.6064 80.689 73.9807 80.689C78.3548 80.6888 81.6757 77.517 81.6759 73.8717ZM56.0253 25.6263C56.0253 24.7644 55.5321 23.8717 54.5133 23.1507C53.4986 22.4327 52.0412 21.9555 50.3821 21.9554C48.7228 21.9554 47.2647 22.4326 46.25 23.1507C45.2312 23.8717 44.739 24.7644 44.739 25.6263C44.7391 26.488 45.2314 27.3799 46.25 28.1008C47.2648 28.819 48.7228 29.2971 50.3821 29.2971C52.0413 29.2971 53.4985 28.8189 54.5133 28.1008C55.532 27.3799 56.0251 26.488 56.0253 25.6263ZM39.6089 20.3822C39.6089 19.5204 39.1157 18.6276 38.0969 17.9066C37.0821 17.1887 35.6247 16.7114 33.9657 16.7114C32.3064 16.7114 30.8483 17.1885 29.8336 17.9066C28.8147 18.6276 28.3226 19.5204 28.3226 20.3822C28.3227 21.2439 28.815 22.1359 29.8336 22.8568C30.8483 23.5749 32.3064 24.0531 33.9657 24.0531C35.6249 24.053 37.0821 23.5748 38.0969 22.8568C39.1156 22.1358 39.6087 21.244 39.6089 20.3822ZM72.4417 20.3822C72.4417 19.5204 71.9485 18.6276 70.9297 17.9066C69.915 17.1887 68.4576 16.7114 66.7985 16.7114C65.1392 16.7114 63.6812 17.1885 62.6664 17.9066C61.6476 18.6276 61.1554 19.5204 61.1554 20.3822C61.1555 21.2439 61.6478 22.1359 62.6664 22.8568C63.6812 23.5749 65.1392 24.0531 66.7985 24.0531C68.4577 24.053 69.9149 23.5748 70.9297 22.8568C71.9484 22.1358 72.4416 21.244 72.4417 20.3822ZM58.0773 25.6263C58.0772 27.3709 57.0765 28.8385 55.6816 29.8256C54.5225 30.6459 53.0352 31.1821 51.4081 31.3425V72.3087C56.7319 72.553 61.1554 76.5768 61.1554 81.7378C61.1552 87.0635 56.4446 91.177 50.8951 91.1771C45.3456 91.1771 40.6351 87.0635 40.6349 81.7378C40.6349 76.9122 44.5016 73.081 49.3561 72.404V31.3425C47.7288 31.1822 46.2409 30.646 45.0817 29.8256C43.6869 28.8385 42.687 27.3708 42.6869 25.6263C42.6869 23.8815 43.6867 22.4131 45.0817 21.4259C46.4806 20.4359 48.3582 19.8578 50.3821 19.8578C52.4058 19.8578 54.2827 20.436 55.6816 21.4259C57.0765 22.4131 58.0773 23.8815 58.0773 25.6263ZM24.2185 15.1381C24.2185 14.2763 23.7253 13.3836 22.7065 12.6626C21.6918 11.9446 20.2344 11.4673 18.5753 11.4673C16.916 11.4673 15.458 11.9444 14.4432 12.6626C13.4244 13.3836 12.9322 14.2763 12.9322 15.1381C12.9323 15.9999 13.4246 16.8918 14.4432 17.6127C15.458 18.3308 16.916 18.809 18.5753 18.809C20.2345 18.8089 21.6918 18.3307 22.7065 17.6127C22.8914 17.4818 23.059 17.345 23.2095 17.204L23.6904 16.3191L23.8527 16.4113C24.0968 15.9954 24.2184 15.5635 24.2185 15.1381ZM87.832 15.1381C87.832 14.2763 87.3389 13.3836 86.3201 12.6626C85.3053 11.9446 83.8479 11.4673 82.1889 11.4673C80.5296 11.4673 79.0715 11.9444 78.0568 12.6626C77.0379 13.3836 76.5458 14.2763 76.5458 15.1381C76.5459 15.9999 77.0382 16.8918 78.0568 17.6127C79.0715 18.3308 80.5296 18.809 82.1889 18.809C83.848 18.8089 85.3053 18.3307 86.3201 17.6127C87.3388 16.8918 87.8319 15.9999 87.832 15.1381ZM26.2705 15.1381C26.2705 15.9733 26.0383 16.7435 25.6463 17.4293L26.8727 18.1258C27.3002 17.3636 27.9265 16.7047 28.6652 16.1818C30.0642 15.1918 31.9418 14.6137 33.9657 14.6137C35.9894 14.6138 37.8663 15.192 39.2652 16.1818C40.6601 17.169 41.6609 18.6375 41.6609 20.3822C41.6608 22.1268 40.66 23.5944 39.2652 24.5816C37.9509 25.5116 36.2149 26.0782 34.3314 26.1435L30.547 65.3173C34.5355 66.387 37.5568 69.7346 37.5568 73.8717C37.5566 78.9145 33.0682 82.7865 27.8096 82.7866C22.5509 82.7866 18.0625 78.9146 18.0623 73.8717C18.0623 68.8286 22.5508 64.9568 27.8096 64.9568C28.0471 64.9568 28.2829 64.9668 28.517 64.9824L32.2824 26.0114C30.913 25.7855 29.6664 25.29 28.6652 24.5816C27.2705 23.5944 26.2706 22.1267 26.2705 20.3822C26.2705 20.317 26.2738 20.252 26.2765 20.1876L24.2596 19.0415C24.1347 19.1437 24.0072 19.2438 23.8748 19.3375C22.4759 20.3274 20.5991 20.9066 18.5753 20.9066C16.5514 20.9066 14.6738 20.3275 13.2749 19.3375C11.8801 18.3504 10.8803 16.8827 10.8801 15.1381C10.8801 13.3934 11.8799 11.925 13.2749 10.9378C14.6738 9.94774 16.5514 9.36967 18.5753 9.36967C20.599 9.36972 22.4759 9.9479 23.8748 10.9378C25.2697 11.925 26.2705 13.3934 26.2705 15.1381ZM89.8841 15.1381C89.884 16.8828 88.8832 18.3504 87.4884 19.3375C86.0895 20.3274 84.2127 20.9066 82.1889 20.9066C80.165 20.9066 78.2874 20.3275 76.8884 19.3375C76.5506 19.0984 76.2366 18.8302 75.9536 18.5376L74.3895 19.4256C74.4567 19.7337 74.4937 20.053 74.4937 20.3822C74.4936 22.1268 73.4929 23.5944 72.098 24.5816C71.1107 25.2802 69.885 25.772 68.538 26.0022L73.7783 64.9609C73.8456 64.9596 73.9132 64.9568 73.9807 64.9568C79.2394 64.9569 83.7279 68.8287 83.7279 73.8717C83.7278 78.9145 79.2393 82.7865 73.9807 82.7866C68.722 82.7866 64.2336 78.9146 64.2335 73.8717C64.2335 69.5646 67.5076 66.1135 71.7393 65.1975L66.4859 26.1445C64.5818 26.0883 62.8248 25.5205 61.4981 24.5816C60.1033 23.5944 59.1035 22.1267 59.1033 20.3822C59.1033 19.6756 59.2683 19.0148 59.5562 18.4126C58.4149 19.1441 57.154 19.5652 55.8379 19.316C54.1204 18.9907 52.8613 17.557 51.9572 16.1265C51.0755 14.7314 50.382 13.0929 49.8491 11.7828C49.7071 13.9451 49.3725 15.5958 48.8621 16.7933C48.3313 18.0385 47.5496 18.9267 46.4894 19.2289C45.4432 19.527 44.4222 19.1685 43.5917 18.6123C42.753 18.0506 41.9805 17.2089 41.3333 16.2638C40.1235 14.4971 37.9327 11.0714 36.0538 8.10372C35.1123 6.61649 34.2452 5.23906 33.614 4.23315C33.5755 4.17171 33.5376 4.11149 33.5008 4.05288L26.7184 16.189L26.2815 13.1952C26.2815 13.1947 26.2818 13.1936 26.2815 13.1921C26.2811 13.189 26.2796 13.1839 26.2785 13.1767C26.2763 13.1622 26.2734 13.1387 26.2685 13.1081C26.2587 13.047 26.2425 12.9546 26.2214 12.8357C26.1791 12.5973 26.1141 12.2513 26.022 11.8289C25.8373 10.9809 25.5483 9.83447 25.1313 8.63427C24.7126 7.42932 24.1752 6.20193 23.5061 5.17237C22.8324 4.1358 22.0713 3.37194 21.2306 2.98359C18.6353 1.78477 16.1493 2.52102 13.7127 4.4001C11.2516 6.29818 9.01515 9.24448 7.10669 12.0634C5.14958 14.9542 3.91613 18.5116 3.42442 21.9001C2.92939 25.3117 3.20563 28.4129 4.11679 30.4309C6.18384 35.0089 8.82058 39.2608 13.9582 39.2608C16.4026 39.2608 18.0659 38.7246 19.1404 37.9519C20.1932 37.1949 20.7624 36.1534 20.938 34.9335C21.3007 32.4128 19.9656 29.0556 17.3359 26.3678C16.3115 25.3208 15.1603 25.0245 14.2077 25.2309C13.2585 25.4368 12.3386 26.1776 11.843 27.56C11.6654 28.0557 11.6756 28.6941 11.8811 29.462C12.0848 30.223 12.4563 31.0207 12.8851 31.7655C13.3107 32.5047 13.7729 33.1584 14.1306 33.6296C14.3087 33.8643 14.4598 34.0519 14.5644 34.1786C14.6164 34.2416 14.6568 34.2896 14.6836 34.321C14.6971 34.3367 14.7075 34.3487 14.7137 34.3558C14.7166 34.3592 14.7186 34.3616 14.7197 34.363L14.7207 34.364C14.7189 34.3655 14.6834 34.3983 13.9582 35.0656L13.1947 35.7662L13.1897 35.761C13.1869 35.7578 13.1834 35.7532 13.1787 35.7477C13.1691 35.7367 13.1556 35.7205 13.1386 35.7006C13.1046 35.6608 13.0565 35.6035 12.9963 35.5306C12.876 35.3849 12.7068 35.1761 12.5094 34.9161C12.116 34.3979 11.5995 33.6683 11.1166 32.8297C10.6368 31.9964 10.1703 31.0211 9.90121 30.0161C9.63403 29.018 9.53711 27.8955 9.91624 26.8379C10.6246 24.8623 12.0598 23.5528 13.7819 23.1794C15.5004 22.8069 17.3372 23.4031 18.7867 24.8847C21.6853 27.8474 23.4587 31.8315 22.968 35.2397C22.7168 36.9841 21.8687 38.5544 20.3208 39.6675C18.7946 40.7648 16.674 41.3584 13.9582 41.3585C7.41416 41.3585 4.29013 35.8213 2.25311 31.3097C1.11223 28.7829 0.867293 25.2244 1.39441 21.5918C1.92489 17.9365 3.25658 14.0649 5.41936 10.8702C7.34167 8.03079 9.73373 4.84064 12.4763 2.72548C15.2433 0.591468 18.5362 -0.562285 22.0752 1.07237C23.3985 1.68364 24.4253 2.7962 25.2154 4.01191C26.01 5.23447 26.6141 6.63463 27.0651 7.93267C27.3371 8.71556 27.5539 9.47403 27.7294 10.1501L33.4026 0L34.3164 1.46363L34.3174 1.46568C34.3182 1.46689 34.32 1.46848 34.3214 1.4708C34.3244 1.47561 34.3286 1.48293 34.3344 1.49231C34.3464 1.51144 34.3643 1.54008 34.3875 1.57732C34.4344 1.65227 34.5042 1.76321 34.593 1.90507C34.7705 2.18878 35.0264 2.59834 35.3414 3.10035C35.9716 4.10456 36.8366 5.47964 37.7762 6.96375C39.6601 9.93932 41.8303 13.3319 43.0146 15.0613C43.5642 15.8639 44.1602 16.4856 44.7159 16.8578C45.28 17.2355 45.6808 17.2815 45.9383 17.2081C46.1821 17.1386 46.5877 16.879 46.9814 15.9555C47.3755 15.0308 47.6943 13.5737 47.8191 11.4048C47.8833 10.2894 47.9673 9.46591 48.0906 8.92311C48.1463 8.67788 48.2396 8.34367 48.4383 8.07299C48.548 7.92357 48.7432 7.7205 49.0505 7.62233C49.3806 7.51693 49.6856 7.58112 49.9062 7.68891C50.2605 7.86223 50.4727 8.18262 50.5675 8.33212C50.6928 8.5298 50.8113 8.76495 50.9212 9.003C51.141 9.47943 51.3923 10.111 51.6586 10.7688C52.2075 12.1241 52.8654 13.6975 53.6806 14.9876C54.522 16.3189 55.3741 17.0945 56.2116 17.2532C57.1594 17.4326 58.3258 16.9396 59.6855 15.6738C61.01 14.4406 62.3111 12.6614 63.471 10.7893C64.6242 8.92771 65.6065 7.0257 66.3015 5.58411C66.6483 4.86486 66.9224 4.26344 67.1091 3.84292C67.2024 3.63285 67.2738 3.46782 67.3216 3.35641C67.3454 3.3008 67.3638 3.25842 67.3757 3.23043C67.3816 3.21643 67.3859 3.20537 67.3887 3.19868C67.39 3.19552 67.3911 3.19293 67.3917 3.19151L68.3155 0.969947L72.2653 10.0549C72.5302 9.29442 72.859 8.43183 73.2593 7.55063C73.8713 6.20359 74.6611 4.77352 75.646 3.58583C76.6265 2.40346 77.8636 1.38622 79.3814 1.00887C82.4986 0.233885 85.2131 1.03742 87.5775 2.59643C89.9076 4.13273 91.9352 6.42515 93.7557 8.70597C98.6206 14.8007 101.146 21.7636 99.0823 29.5706C97.6188 35.1061 95.127 40.2255 89.0394 41.3421C86.1684 41.8686 82.8148 41.5475 80.1679 40.3199C77.5059 39.0852 75.3739 36.8163 75.5207 33.4453C75.6415 30.6744 77.2048 28.0297 79.2812 26.3719C81.3589 24.7132 84.1697 23.8887 86.7529 25.2125C88.0464 25.8754 89.0705 27.2789 89.7238 28.3456C90.0663 28.905 90.3399 29.4274 90.5274 29.8092C90.6214 30.0007 90.6944 30.1587 90.7448 30.2701C90.7699 30.3257 90.7893 30.37 90.8029 30.4012C90.8096 30.4167 90.8151 30.4292 90.8189 30.4381C90.8209 30.4426 90.8228 30.4466 90.824 30.4494C90.8244 30.4505 90.8246 30.4516 90.825 30.4525L90.826 30.4535C90.826 30.4537 90.8262 30.4552 89.8841 30.8703C89.0194 31.2514 88.948 31.2824 88.9422 31.2852C88.9419 31.2843 88.9403 31.2825 88.9392 31.28C88.9371 31.275 88.9341 31.2666 88.9292 31.2554C88.9192 31.2324 88.9032 31.1966 88.8821 31.15C88.8399 31.0565 88.7757 30.9195 88.6927 30.7505C88.526 30.4109 88.2843 29.9487 87.9843 29.4589C87.3527 28.4276 86.5814 27.4714 85.8331 27.0879C84.1895 26.2455 82.2312 26.6785 80.5447 28.025C78.8569 29.3724 77.6605 31.4811 77.5708 33.5385C77.4744 35.7514 78.8065 37.385 81.0156 38.4097C83.2401 39.4414 86.1653 39.7378 88.6767 39.2772C93.4969 38.3932 95.6736 34.424 97.1013 29.0236C98.9403 22.0678 96.7585 15.7864 92.1656 10.0323C90.3637 7.77493 88.5065 5.70493 86.4654 4.35913C84.4588 3.0361 82.3166 2.43792 79.8663 3.04709C78.9274 3.28052 78.0378 3.94492 77.2111 4.94192C76.3888 5.93347 75.6903 7.18034 75.121 8.43352C74.5542 9.68105 74.1322 10.8988 73.8514 11.8073C73.7115 12.2604 73.6073 12.6339 73.5388 12.892C73.5047 13.0207 73.4791 13.1205 73.4627 13.187C73.4544 13.2203 73.4485 13.2458 73.4446 13.2618L73.4396 13.2822L72.7393 16.3068L68.3175 6.13924C68.2606 6.25924 68.2036 6.38467 68.1422 6.51206C67.4278 7.99377 66.4105 9.96652 65.2054 11.9118C64.4397 13.1477 63.5838 14.3931 62.6694 15.5017C63.8744 14.9324 65.2961 14.6137 66.7985 14.6137C68.8222 14.6138 70.6991 15.192 72.098 16.1818C72.6368 16.5632 73.1156 17.0177 73.5018 17.5307L74.8093 16.7882C74.6079 16.274 74.4938 15.722 74.4937 15.1381C74.4937 13.3934 75.4935 11.925 76.8884 10.9378C78.2874 9.94774 80.165 9.36967 82.1889 9.36967C84.2126 9.36972 86.0895 9.9479 87.4884 10.9378C88.8833 11.925 89.8841 13.3934 89.8841 15.1381Z" fill="white"/>
</svg>
